  0
SECTION
  2
HEADER
  9
$ACADVER
  1
AC1009
  9
$EXTMIN
 10
0.0
 20
0.0
 30
0.0
  9
$EXTMAX
 10
1000.0
 20
1000.0
 30
0.0
  9
$FILLMODE
 70
 0
  9
$SPLFRAME
 70
 1
  0
ENDSEC
  0
SECTION
  2
TABLES
  0
TABLE
  2
LAYER
 70
1
  0
LAYER
  2
0
 70
     0
 62
     7
  6
CONTINUOUS
  0
ENDTAB
  0
ENDSEC
  0
SECTION
  2
ENTITIES
  0
LINE
  8
0
 62
     0
 10
0.0950846
 20
95.3424
 30
0.0
 11
298.228
 21
95.3424
 31
0.0
  0
LINE
  8
0
 62
     0
 10
298.228
 20
95.3424
 30
0.0
 11
298.228
 21
0.0923286
 31
0.0
  0
LINE
  8
0
 62
     0
 10
298.228
 20
0.0923286
 30
0.0
 11
0.0950846
 21
0.0923286
 31
0.0
  0
LINE
  8
0
 62
     0
 10
0.0950846
 20
0.0923286
 30
0.0
 11
0.0950846
 21
95.3424
 31
0.0
  0
LINE
  8
0
 62
     0
 10
127.872
 20
16.6178
 30
0.0
 11
127.872
 21
15.6173
 31
0.0
  0
LINE
  8
0
 62
     0
 10
127.872
 20
15.6173
 30
0.0
 11
127.073
 21
15.6173
 31
0.0
  0
LINE
  8
0
 62
     0
 10
127.073
 20
15.6173
 30
0.0
 11
127.073
 21
12.5181
 31
0.0
  0
LINE
  8
0
 62
     0
 10
127.073
 20
12.5181
 30
0.0
 11
127.872
 21
12.5181
 31
0.0
  0
LINE
  8
0
 62
     0
 10
127.872
 20
12.5181
 30
0.0
 11
127.872
 21
11.9173
 31
0.0
  0
LINE
  8
0
 62
     0
 10
127.872
 20
11.9173
 30
0.0
 11
88.2481
 21
11.9173
 31
0.0
  0
LINE
  8
0
 62
     0
 10
88.2481
 20
11.9173
 30
0.0
 11
88.2481
 21
15.1474
 31
0.0
  0
LINE
  8
0
 62
     0
 10
88.2481
 20
15.1474
 30
0.0
 11
86.523
 21
15.1474
 31
0.0
  0
LINE
  8
0
 62
     0
 10
86.523
 20
15.1474
 30
0.0
 11
86.523
 21
16.0693
 31
0.0
  0
LINE
  8
0
 62
     0
 10
86.523
 20
16.0693
 30
0.0
 11
83.2224
 21
16.0693
 31
0.0
  0
LINE
  8
0
 62
     0
 10
83.2224
 20
16.0693
 30
0.0
 11
83.2224
 21
15.1474
 31
0.0
  0
LINE
  8
0
 62
     0
 10
83.2224
 20
15.1474
 30
0.0
 11
81.4973
 21
15.1474
 31
0.0
  0
LINE
  8
0
 62
     0
 10
81.4973
 20
15.1474
 30
0.0
 11
81.4973
 21
11.9173
 31
0.0
  0
LINE
  8
0
 62
     0
 10
81.4973
 20
11.9173
 30
0.0
 11
80.6732
 21
11.9173
 31
0.0
  0
LINE
  8
0
 62
     0
 10
80.6732
 20
11.9173
 30
0.0
 11
80.6732
 21
9.11712
 31
0.0
  0
LINE
  8
0
 62
     0
 10
80.6732
 20
9.11712
 30
0.0
 11
81.4973
 21
9.11712
 31
0.0
  0
LINE
  8
0
 62
     0
 10
81.4973
 20
9.11712
 30
0.0
 11
81.4973
 21
2.84841
 31
0.0
  0
LINE
  8
0
 62
     0
 10
81.4973
 20
2.84841
 30
0.0
 11
83.2224
 21
2.84841
 31
0.0
  0
LINE
  8
0
 62
     0
 10
83.2224
 20
2.84841
 30
0.0
 11
83.2224
 21
1.86724
 31
0.0
  0
LINE
  8
0
 62
     0
 10
83.2224
 20
1.86724
 30
0.0
 11
86.523
 21
1.86724
 31
0.0
  0
LINE
  8
0
 62
     0
 10
86.523
 20
1.86724
 30
0.0
 11
86.523
 21
2.84841
 31
0.0
  0
LINE
  8
0
 62
     0
 10
86.523
 20
2.84841
 30
0.0
 11
88.2481
 21
2.84841
 31
0.0
  0
LINE
  8
0
 62
     0
 10
88.2481
 20
2.84841
 30
0.0
 11
88.2481
 21
7.31876
 31
0.0
  0
LINE
  8
0
 62
     0
 10
88.2481
 20
7.31876
 30
0.0
 11
127.872
 21
7.31876
 31
0.0
  0
LINE
  8
0
 62
     0
 10
127.872
 20
7.31876
 30
0.0
 11
127.872
 21
6.71795
 31
0.0
  0
LINE
  8
0
 62
     0
 10
127.872
 20
6.71795
 30
0.0
 11
127.073
 21
6.71795
 31
0.0
  0
LINE
  8
0
 62
     0
 10
127.073
 20
6.71795
 30
0.0
 11
127.073
 21
3.61735
 31
0.0
  0
LINE
  8
0
 62
     0
 10
127.073
 20
3.61735
 30
0.0
 11
127.872
 21
3.61735
 31
0.0
  0
LINE
  8
0
 62
     0
 10
127.872
 20
3.61735
 30
0.0
 11
127.872
 21
2.61827
 31
0.0
  0
LINE
  8
0
 62
     0
 10
127.872
 20
2.61827
 30
0.0
 11
141.873
 21
2.61827
 31
0.0
  0
LINE
  8
0
 62
     0
 10
141.873
 20
2.61827
 30
0.0
 11
141.873
 21
3.61735
 31
0.0
  0
LINE
  8
0
 62
     0
 10
141.873
 20
3.61735
 30
0.0
 11
142.673
 21
3.61735
 31
0.0
  0
LINE
  8
0
 62
     0
 10
142.673
 20
3.61735
 30
0.0
 11
142.673
 21
6.71795
 31
0.0
  0
LINE
  8
0
 62
     0
 10
142.673
 20
6.71795
 30
0.0
 11
141.873
 21
6.71795
 31
0.0
  0
LINE
  8
0
 62
     0
 10
141.873
 20
6.71795
 30
0.0
 11
141.873
 21
7.31876
 31
0.0
  0
LINE
  8
0
 62
     0
 10
141.873
 20
7.31876
 30
0.0
 11
181.497
 21
7.31876
 31
0.0
  0
LINE
  8
0
 62
     0
 10
181.497
 20
7.31876
 30
0.0
 11
181.497
 21
2.84841
 31
0.0
  0
LINE
  8
0
 62
     0
 10
181.497
 20
2.84841
 30
0.0
 11
183.223
 21
2.84841
 31
0.0
  0
LINE
  8
0
 62
     0
 10
183.223
 20
2.84841
 30
0.0
 11
183.223
 21
1.86724
 31
0.0
  0
LINE
  8
0
 62
     0
 10
183.223
 20
1.86724
 30
0.0
 11
186.523
 21
1.86724
 31
0.0
  0
LINE
  8
0
 62
     0
 10
186.523
 20
1.86724
 30
0.0
 11
186.523
 21
2.84841
 31
0.0
  0
LINE
  8
0
 62
     0
 10
186.523
 20
2.84841
 30
0.0
 11
188.248
 21
2.84841
 31
0.0
  0
LINE
  8
0
 62
     0
 10
188.248
 20
2.84841
 30
0.0
 11
188.248
 21
9.11712
 31
0.0
  0
LINE
  8
0
 62
     0
 10
188.248
 20
9.11712
 30
0.0
 11
189.072
 21
9.11712
 31
0.0
  0
LINE
  8
0
 62
     0
 10
189.072
 20
9.11712
 30
0.0
 11
189.072
 21
11.9173
 31
0.0
  0
LINE
  8
0
 62
     0
 10
189.072
 20
11.9173
 30
0.0
 11
188.248
 21
11.9173
 31
0.0
  0
LINE
  8
0
 62
     0
 10
188.248
 20
11.9173
 30
0.0
 11
188.248
 21
15.1474
 31
0.0
  0
LINE
  8
0
 62
     0
 10
188.248
 20
15.1474
 30
0.0
 11
186.523
 21
15.1474
 31
0.0
  0
LINE
  8
0
 62
     0
 10
186.523
 20
15.1474
 30
0.0
 11
186.523
 21
16.0693
 31
0.0
  0
LINE
  8
0
 62
     0
 10
186.523
 20
16.0693
 30
0.0
 11
183.223
 21
16.0693
 31
0.0
  0
LINE
  8
0
 62
     0
 10
183.223
 20
16.0693
 30
0.0
 11
183.223
 21
15.1474
 31
0.0
  0
LINE
  8
0
 62
     0
 10
183.223
 20
15.1474
 30
0.0
 11
181.497
 21
15.1474
 31
0.0
  0
LINE
  8
0
 62
     0
 10
181.497
 20
15.1474
 30
0.0
 11
181.497
 21
11.9173
 31
0.0
  0
LINE
  8
0
 62
     0
 10
181.497
 20
11.9173
 30
0.0
 11
141.873
 21
11.9173
 31
0.0
  0
LINE
  8
0
 62
     0
 10
141.873
 20
11.9173
 30
0.0
 11
141.873
 21
12.5181
 31
0.0
  0
LINE
  8
0
 62
     0
 10
141.873
 20
12.5181
 30
0.0
 11
142.673
 21
12.5181
 31
0.0
  0
LINE
  8
0
 62
     0
 10
142.673
 20
12.5181
 30
0.0
 11
142.673
 21
15.6173
 31
0.0
  0
LINE
  8
0
 62
     0
 10
142.673
 20
15.6173
 30
0.0
 11
141.873
 21
15.6173
 31
0.0
  0
LINE
  8
0
 62
     0
 10
141.873
 20
15.6173
 30
0.0
 11
141.873
 21
16.6178
 31
0.0
  0
LINE
  8
0
 62
     0
 10
141.873
 20
16.6178
 30
0.0
 11
127.872
 21
16.6178
 31
0.0
  0
LINE
  8
0
 62
     0
 10
5.00091
 20
16.6178
 30
0.0
 11
5.00091
 21
15.6173
 31
0.0
  0
LINE
  8
0
 62
     0
 10
5.00091
 20
15.6173
 30
0.0
 11
4.20028
 21
15.6173
 31
0.0
  0
LINE
  8
0
 62
     0
 10
4.20028
 20
15.6173
 30
0.0
 11
4.20028
 21
12.5181
 31
0.0
  0
LINE
  8
0
 62
     0
 10
4.20028
 20
12.5181
 30
0.0
 11
5.00091
 21
12.5181
 31
0.0
  0
LINE
  8
0
 62
     0
 10
5.00091
 20
12.5181
 30
0.0
 11
5.00091
 21
6.71795
 31
0.0
  0
LINE
  8
0
 62
     0
 10
5.00091
 20
6.71795
 30
0.0
 11
4.20028
 21
6.71795
 31
0.0
  0
LINE
  8
0
 62
     0
 10
4.20028
 20
6.71795
 30
0.0
 11
4.20028
 21
3.61735
 31
0.0
  0
LINE
  8
0
 62
     0
 10
4.20028
 20
3.61735
 30
0.0
 11
5.00091
 21
3.61735
 31
0.0
  0
LINE
  8
0
 62
     0
 10
5.00091
 20
3.61735
 30
0.0
 11
5.00091
 21
2.61827
 31
0.0
  0
LINE
  8
0
 62
     0
 10
5.00091
 20
2.61827
 30
0.0
 11
19.0004
 21
2.61827
 31
0.0
  0
LINE
  8
0
 62
     0
 10
19.0004
 20
2.61827
 30
0.0
 11
19.0004
 21
3.61735
 31
0.0
  0
LINE
  8
0
 62
     0
 10
19.0004
 20
3.61735
 30
0.0
 11
19.801
 21
3.61735
 31
0.0
  0
LINE
  8
0
 62
     0
 10
19.801
 20
3.61735
 30
0.0
 11
19.801
 21
6.71795
 31
0.0
  0
LINE
  8
0
 62
     0
 10
19.801
 20
6.71795
 30
0.0
 11
19.0004
 21
6.71795
 31
0.0
  0
LINE
  8
0
 62
     0
 10
19.0004
 20
6.71795
 30
0.0
 11
19.0004
 21
12.5181
 31
0.0
  0
LINE
  8
0
 62
     0
 10
19.0004
 20
12.5181
 30
0.0
 11
19.801
 21
12.5181
 31
0.0
  0
LINE
  8
0
 62
     0
 10
19.801
 20
12.5181
 30
0.0
 11
19.801
 21
15.6173
 31
0.0
  0
LINE
  8
0
 62
     0
 10
19.801
 20
15.6173
 30
0.0
 11
19.0004
 21
15.6173
 31
0.0
  0
LINE
  8
0
 62
     0
 10
19.0004
 20
15.6173
 30
0.0
 11
19.0004
 21
16.6178
 31
0.0
  0
LINE
  8
0
 62
     0
 10
19.0004
 20
16.6178
 30
0.0
 11
5.00091
 21
16.6178
 31
0.0
  0
LINE
  8
0
 62
     0
 10
29.9558
 20
16.6178
 30
0.0
 11
29.9558
 21
15.6173
 31
0.0
  0
LINE
  8
0
 62
     0
 10
29.9558
 20
15.6173
 30
0.0
 11
29.1551
 21
15.6173
 31
0.0
  0
LINE
  8
0
 62
     0
 10
29.1551
 20
15.6173
 30
0.0
 11
29.1551
 21
12.5181
 31
0.0
  0
LINE
  8
0
 62
     0
 10
29.1551
 20
12.5181
 30
0.0
 11
29.9558
 21
12.5181
 31
0.0
  0
LINE
  8
0
 62
     0
 10
29.9558
 20
12.5181
 30
0.0
 11
29.9558
 21
6.71795
 31
0.0
  0
LINE
  8
0
 62
     0
 10
29.9558
 20
6.71795
 30
0.0
 11
29.1551
 21
6.71795
 31
0.0
  0
LINE
  8
0
 62
     0
 10
29.1551
 20
6.71795
 30
0.0
 11
29.1551
 21
3.61735
 31
0.0
  0
LINE
  8
0
 62
     0
 10
29.1551
 20
3.61735
 30
0.0
 11
29.9558
 21
3.61735
 31
0.0
  0
LINE
  8
0
 62
     0
 10
29.9558
 20
3.61735
 30
0.0
 11
29.9558
 21
2.61827
 31
0.0
  0
LINE
  8
0
 62
     0
 10
29.9558
 20
2.61827
 30
0.0
 11
43.9554
 21
2.61827
 31
0.0
  0
LINE
  8
0
 62
     0
 10
43.9554
 20
2.61827
 30
0.0
 11
43.9554
 21
3.61735
 31
0.0
  0
LINE
  8
0
 62
     0
 10
43.9554
 20
3.61735
 30
0.0
 11
44.7559
 21
3.61735
 31
0.0
  0
LINE
  8
0
 62
     0
 10
44.7559
 20
3.61735
 30
0.0
 11
44.7559
 21
6.71795
 31
0.0
  0
LINE
  8
0
 62
     0
 10
44.7559
 20
6.71795
 30
0.0
 11
43.9554
 21
6.71795
 31
0.0
  0
LINE
  8
0
 62
     0
 10
43.9554
 20
6.71795
 30
0.0
 11
43.9554
 21
12.5181
 31
0.0
  0
LINE
  8
0
 62
     0
 10
43.9554
 20
12.5181
 30
0.0
 11
44.7559
 21
12.5181
 31
0.0
  0
LINE
  8
0
 62
     0
 10
44.7559
 20
12.5181
 30
0.0
 11
44.7559
 21
15.6173
 31
0.0
  0
LINE
  8
0
 62
     0
 10
44.7559
 20
15.6173
 30
0.0
 11
43.9554
 21
15.6173
 31
0.0
  0
LINE
  8
0
 62
     0
 10
43.9554
 20
15.6173
 30
0.0
 11
43.9554
 21
16.6178
 31
0.0
  0
LINE
  8
0
 62
     0
 10
43.9554
 20
16.6178
 30
0.0
 11
29.9558
 21
16.6178
 31
0.0
  0
LINE
  8
0
 62
     0
 10
55.1021
 20
16.6178
 30
0.0
 11
55.1021
 21
15.6173
 31
0.0
  0
LINE
  8
0
 62
     0
 10
55.1021
 20
15.6173
 30
0.0
 11
54.3017
 21
15.6173
 31
0.0
  0
LINE
  8
0
 62
     0
 10
54.3017
 20
15.6173
 30
0.0
 11
54.3017
 21
12.5181
 31
0.0
  0
LINE
  8
0
 62
     0
 10
54.3017
 20
12.5181
 30
0.0
 11
55.1021
 21
12.5181
 31
0.0
  0
LINE
  8
0
 62
     0
 10
55.1021
 20
12.5181
 30
0.0
 11
55.1021
 21
6.71795
 31
0.0
  0
LINE
  8
0
 62
     0
 10
55.1021
 20
6.71795
 30
0.0
 11
54.3017
 21
6.71795
 31
0.0
  0
LINE
  8
0
 62
     0
 10
54.3017
 20
6.71795
 30
0.0
 11
54.3017
 21
3.61735
 31
0.0
  0
LINE
  8
0
 62
     0
 10
54.3017
 20
3.61735
 30
0.0
 11
55.1021
 21
3.61735
 31
0.0
  0
LINE
  8
0
 62
     0
 10
55.1021
 20
3.61735
 30
0.0
 11
55.1021
 21
2.61827
 31
0.0
  0
LINE
  8
0
 62
     0
 10
55.1021
 20
2.61827
 30
0.0
 11
69.1018
 21
2.61827
 31
0.0
  0
LINE
  8
0
 62
     0
 10
69.1018
 20
2.61827
 30
0.0
 11
69.1018
 21
3.61735
 31
0.0
  0
LINE
  8
0
 62
     0
 10
69.1018
 20
3.61735
 30
0.0
 11
69.9022
 21
3.61735
 31
0.0
  0
LINE
  8
0
 62
     0
 10
69.9022
 20
3.61735
 30
0.0
 11
69.9022
 21
6.71795
 31
0.0
  0
LINE
  8
0
 62
     0
 10
69.9022
 20
6.71795
 30
0.0
 11
69.1018
 21
6.71795
 31
0.0
  0
LINE
  8
0
 62
     0
 10
69.1018
 20
6.71795
 30
0.0
 11
69.1018
 21
12.5181
 31
0.0
  0
LINE
  8
0
 62
     0
 10
69.1018
 20
12.5181
 30
0.0
 11
69.9022
 21
12.5181
 31
0.0
  0
LINE
  8
0
 62
     0
 10
69.9022
 20
12.5181
 30
0.0
 11
69.9022
 21
15.6173
 31
0.0
  0
LINE
  8
0
 62
     0
 10
69.9022
 20
15.6173
 30
0.0
 11
69.1018
 21
15.6173
 31
0.0
  0
LINE
  8
0
 62
     0
 10
69.1018
 20
15.6173
 30
0.0
 11
69.1018
 21
16.6178
 31
0.0
  0
LINE
  8
0
 62
     0
 10
69.1018
 20
16.6178
 30
0.0
 11
55.1021
 21
16.6178
 31
0.0
  0
LINE
  8
0
 62
     0
 10
200.644
 20
16.6178
 30
0.0
 11
200.644
 21
15.6173
 31
0.0
  0
LINE
  8
0
 62
     0
 10
200.644
 20
15.6173
 30
0.0
 11
199.843
 21
15.6173
 31
0.0
  0
LINE
  8
0
 62
     0
 10
199.843
 20
15.6173
 30
0.0
 11
199.843
 21
12.5181
 31
0.0
  0
LINE
  8
0
 62
     0
 10
199.843
 20
12.5181
 30
0.0
 11
200.644
 21
12.5181
 31
0.0
  0
LINE
  8
0
 62
     0
 10
200.644
 20
12.5181
 30
0.0
 11
200.644
 21
6.71795
 31
0.0
  0
LINE
  8
0
 62
     0
 10
200.644
 20
6.71795
 30
0.0
 11
199.843
 21
6.71795
 31
0.0
  0
LINE
  8
0
 62
     0
 10
199.843
 20
6.71795
 30
0.0
 11
199.843
 21
3.61735
 31
0.0
  0
LINE
  8
0
 62
     0
 10
199.843
 20
3.61735
 30
0.0
 11
200.644
 21
3.61735
 31
0.0
  0
LINE
  8
0
 62
     0
 10
200.644
 20
3.61735
 30
0.0
 11
200.644
 21
2.61827
 31
0.0
  0
LINE
  8
0
 62
     0
 10
200.644
 20
2.61827
 30
0.0
 11
214.643
 21
2.61827
 31
0.0
  0
LINE
  8
0
 62
     0
 10
214.643
 20
2.61827
 30
0.0
 11
214.643
 21
3.61735
 31
0.0
  0
LINE
  8
0
 62
     0
 10
214.643
 20
3.61735
 30
0.0
 11
215.444
 21
3.61735
 31
0.0
  0
LINE
  8
0
 62
     0
 10
215.444
 20
3.61735
 30
0.0
 11
215.444
 21
6.71795
 31
0.0
  0
LINE
  8
0
 62
     0
 10
215.444
 20
6.71795
 30
0.0
 11
214.643
 21
6.71795
 31
0.0
  0
LINE
  8
0
 62
     0
 10
214.643
 20
6.71795
 30
0.0
 11
214.643
 21
12.5181
 31
0.0
  0
LINE
  8
0
 62
     0
 10
214.643
 20
12.5181
 30
0.0
 11
215.444
 21
12.5181
 31
0.0
  0
LINE
  8
0
 62
     0
 10
215.444
 20
12.5181
 30
0.0
 11
215.444
 21
15.6173
 31
0.0
  0
LINE
  8
0
 62
     0
 10
215.444
 20
15.6173
 30
0.0
 11
214.643
 21
15.6173
 31
0.0
  0
LINE
  8
0
 62
     0
 10
214.643
 20
15.6173
 30
0.0
 11
214.643
 21
16.6178
 31
0.0
  0
LINE
  8
0
 62
     0
 10
214.643
 20
16.6178
 30
0.0
 11
200.644
 21
16.6178
 31
0.0
  0
LINE
  8
0
 62
     0
 10
225.79
 20
16.6178
 30
0.0
 11
225.79
 21
15.6173
 31
0.0
  0
LINE
  8
0
 62
     0
 10
225.79
 20
15.6173
 30
0.0
 11
224.99
 21
15.6173
 31
0.0
  0
LINE
  8
0
 62
     0
 10
224.99
 20
15.6173
 30
0.0
 11
224.99
 21
12.5181
 31
0.0
  0
LINE
  8
0
 62
     0
 10
224.99
 20
12.5181
 30
0.0
 11
225.79
 21
12.5181
 31
0.0
  0
LINE
  8
0
 62
     0
 10
225.79
 20
12.5181
 30
0.0
 11
225.79
 21
6.71795
 31
0.0
  0
LINE
  8
0
 62
     0
 10
225.79
 20
6.71795
 30
0.0
 11
224.99
 21
6.71795
 31
0.0
  0
LINE
  8
0
 62
     0
 10
224.99
 20
6.71795
 30
0.0
 11
224.99
 21
3.61735
 31
0.0
  0
LINE
  8
0
 62
     0
 10
224.99
 20
3.61735
 30
0.0
 11
225.79
 21
3.61735
 31
0.0
  0
LINE
  8
0
 62
     0
 10
225.79
 20
3.61735
 30
0.0
 11
225.79
 21
2.61827
 31
0.0
  0
LINE
  8
0
 62
     0
 10
225.79
 20
2.61827
 30
0.0
 11
239.79
 21
2.61827
 31
0.0
  0
LINE
  8
0
 62
     0
 10
239.79
 20
2.61827
 30
0.0
 11
239.79
 21
3.61735
 31
0.0
  0
LINE
  8
0
 62
     0
 10
239.79
 20
3.61735
 30
0.0
 11
240.59
 21
3.61735
 31
0.0
  0
LINE
  8
0
 62
     0
 10
240.59
 20
3.61735
 30
0.0
 11
240.59
 21
6.71795
 31
0.0
  0
LINE
  8
0
 62
     0
 10
240.59
 20
6.71795
 30
0.0
 11
239.79
 21
6.71795
 31
0.0
  0
LINE
  8
0
 62
     0
 10
239.79
 20
6.71795
 30
0.0
 11
239.79
 21
12.5181
 31
0.0
  0
LINE
  8
0
 62
     0
 10
239.79
 20
12.5181
 30
0.0
 11
240.59
 21
12.5181
 31
0.0
  0
LINE
  8
0
 62
     0
 10
240.59
 20
12.5181
 30
0.0
 11
240.59
 21
15.6173
 31
0.0
  0
LINE
  8
0
 62
     0
 10
240.59
 20
15.6173
 30
0.0
 11
239.79
 21
15.6173
 31
0.0
  0
LINE
  8
0
 62
     0
 10
239.79
 20
15.6173
 30
0.0
 11
239.79
 21
16.6178
 31
0.0
  0
LINE
  8
0
 62
     0
 10
239.79
 20
16.6178
 30
0.0
 11
225.79
 21
16.6178
 31
0.0
  0
LINE
  8
0
 62
     0
 10
250.935
 20
16.6178
 30
0.0
 11
250.935
 21
15.6173
 31
0.0
  0
LINE
  8
0
 62
     0
 10
250.935
 20
15.6173
 30
0.0
 11
250.136
 21
15.6173
 31
0.0
  0
LINE
  8
0
 62
     0
 10
250.136
 20
15.6173
 30
0.0
 11
250.136
 21
12.5181
 31
0.0
  0
LINE
  8
0
 62
     0
 10
250.136
 20
12.5181
 30
0.0
 11
250.935
 21
12.5181
 31
0.0
  0
LINE
  8
0
 62
     0
 10
250.935
 20
12.5181
 30
0.0
 11
250.935
 21
6.71795
 31
0.0
  0
LINE
  8
0
 62
     0
 10
250.935
 20
6.71795
 30
0.0
 11
250.136
 21
6.71795
 31
0.0
  0
LINE
  8
0
 62
     0
 10
250.136
 20
6.71795
 30
0.0
 11
250.136
 21
3.61735
 31
0.0
  0
LINE
  8
0
 62
     0
 10
250.136
 20
3.61735
 30
0.0
 11
250.935
 21
3.61735
 31
0.0
  0
LINE
  8
0
 62
     0
 10
250.935
 20
3.61735
 30
0.0
 11
250.935
 21
2.61827
 31
0.0
  0
LINE
  8
0
 62
     0
 10
250.935
 20
2.61827
 30
0.0
 11
264.936
 21
2.61827
 31
0.0
  0
LINE
  8
0
 62
     0
 10
264.936
 20
2.61827
 30
0.0
 11
264.936
 21
3.61735
 31
0.0
  0
LINE
  8
0
 62
     0
 10
264.936
 20
3.61735
 30
0.0
 11
265.736
 21
3.61735
 31
0.0
  0
LINE
  8
0
 62
     0
 10
265.736
 20
3.61735
 30
0.0
 11
265.736
 21
6.71795
 31
0.0
  0
LINE
  8
0
 62
     0
 10
265.736
 20
6.71795
 30
0.0
 11
264.936
 21
6.71795
 31
0.0
  0
LINE
  8
0
 62
     0
 10
264.936
 20
6.71795
 30
0.0
 11
264.936
 21
12.5181
 31
0.0
  0
LINE
  8
0
 62
     0
 10
264.936
 20
12.5181
 30
0.0
 11
265.736
 21
12.5181
 31
0.0
  0
LINE
  8
0
 62
     0
 10
265.736
 20
12.5181
 30
0.0
 11
265.736
 21
15.6173
 31
0.0
  0
LINE
  8
0
 62
     0
 10
265.736
 20
15.6173
 30
0.0
 11
264.936
 21
15.6173
 31
0.0
  0
LINE
  8
0
 62
     0
 10
264.936
 20
15.6173
 30
0.0
 11
264.936
 21
16.6178
 31
0.0
  0
LINE
  8
0
 62
     0
 10
264.936
 20
16.6178
 30
0.0
 11
250.935
 21
16.6178
 31
0.0
  0
LINE
  8
0
 62
     0
 10
276.082
 20
16.6178
 30
0.0
 11
276.082
 21
15.6173
 31
0.0
  0
LINE
  8
0
 62
     0
 10
276.082
 20
15.6173
 30
0.0
 11
275.282
 21
15.6173
 31
0.0
  0
LINE
  8
0
 62
     0
 10
275.282
 20
15.6173
 30
0.0
 11
275.282
 21
12.5181
 31
0.0
  0
LINE
  8
0
 62
     0
 10
275.282
 20
12.5181
 30
0.0
 11
276.082
 21
12.5181
 31
0.0
  0
LINE
  8
0
 62
     0
 10
276.082
 20
12.5181
 30
0.0
 11
276.082
 21
6.71795
 31
0.0
  0
LINE
  8
0
 62
     0
 10
276.082
 20
6.71795
 30
0.0
 11
275.282
 21
6.71795
 31
0.0
  0
LINE
  8
0
 62
     0
 10
275.282
 20
6.71795
 30
0.0
 11
275.282
 21
3.61735
 31
0.0
  0
LINE
  8
0
 62
     0
 10
275.282
 20
3.61735
 30
0.0
 11
276.082
 21
3.61735
 31
0.0
  0
LINE
  8
0
 62
     0
 10
276.082
 20
3.61735
 30
0.0
 11
276.082
 21
2.61827
 31
0.0
  0
LINE
  8
0
 62
     0
 10
276.082
 20
2.61827
 30
0.0
 11
290.081
 21
2.61827
 31
0.0
  0
LINE
  8
0
 62
     0
 10
290.081
 20
2.61827
 30
0.0
 11
290.081
 21
3.61735
 31
0.0
  0
LINE
  8
0
 62
     0
 10
290.081
 20
3.61735
 30
0.0
 11
290.882
 21
3.61735
 31
0.0
  0
LINE
  8
0
 62
     0
 10
290.882
 20
3.61735
 30
0.0
 11
290.882
 21
6.71795
 31
0.0
  0
LINE
  8
0
 62
     0
 10
290.882
 20
6.71795
 30
0.0
 11
290.081
 21
6.71795
 31
0.0
  0
LINE
  8
0
 62
     0
 10
290.081
 20
6.71795
 30
0.0
 11
290.081
 21
12.5181
 31
0.0
  0
LINE
  8
0
 62
     0
 10
290.081
 20
12.5181
 30
0.0
 11
290.882
 21
12.5181
 31
0.0
  0
LINE
  8
0
 62
     0
 10
290.882
 20
12.5181
 30
0.0
 11
290.882
 21
15.6173
 31
0.0
  0
LINE
  8
0
 62
     0
 10
290.882
 20
15.6173
 30
0.0
 11
290.081
 21
15.6173
 31
0.0
  0
LINE
  8
0
 62
     0
 10
290.081
 20
15.6173
 30
0.0
 11
290.081
 21
16.6178
 31
0.0
  0
LINE
  8
0
 62
     0
 10
290.081
 20
16.6178
 30
0.0
 11
276.082
 21
16.6178
 31
0.0
  0
LINE
  8
0
 62
     0
 10
14.5259
 20
35.6676
 30
0.0
 11
14.5259
 21
34.6673
 31
0.0
  0
LINE
  8
0
 62
     0
 10
14.5259
 20
34.6673
 30
0.0
 11
13.7253
 21
34.6673
 31
0.0
  0
LINE
  8
0
 62
     0
 10
13.7253
 20
34.6673
 30
0.0
 11
13.7253
 21
31.5681
 31
0.0
  0
LINE
  8
0
 62
     0
 10
13.7253
 20
31.5681
 30
0.0
 11
14.5259
 21
31.5681
 31
0.0
  0
LINE
  8
0
 62
     0
 10
14.5259
 20
31.5681
 30
0.0
 11
14.5259
 21
30.9673
 31
0.0
  0
LINE
  8
0
 62
     0
 10
14.5259
 20
30.9673
 30
0.0
 11
13.0004
 21
30.9673
 31
0.0
  0
LINE
  8
0
 62
     0
 10
13.0004
 20
30.9673
 30
0.0
 11
13.0004
 21
34.1974
 31
0.0
  0
LINE
  8
0
 62
     0
 10
13.0004
 20
34.1974
 30
0.0
 11
11.2751
 21
34.1974
 31
0.0
  0
LINE
  8
0
 62
     0
 10
11.2751
 20
34.1974
 30
0.0
 11
11.2751
 21
35.1193
 31
0.0
  0
LINE
  8
0
 62
     0
 10
11.2751
 20
35.1193
 30
0.0
 11
7.97609
 21
35.1193
 31
0.0
  0
LINE
  8
0
 62
     0
 10
7.97609
 20
35.1193
 30
0.0
 11
7.97609
 21
34.1974
 31
0.0
  0
LINE
  8
0
 62
     0
 10
7.97609
 20
34.1974
 30
0.0
 11
6.2508
 21
34.1974
 31
0.0
  0
LINE
  8
0
 62
     0
 10
6.2508
 20
34.1974
 30
0.0
 11
6.2508
 21
30.9673
 31
0.0
  0
LINE
  8
0
 62
     0
 10
6.2508
 20
30.9673
 30
0.0
 11
5.42533
 21
30.9673
 31
0.0
  0
LINE
  8
0
 62
     0
 10
5.42533
 20
30.9673
 30
0.0
 11
5.42533
 21
28.1671
 31
0.0
  0
LINE
  8
0
 62
     0
 10
5.42533
 20
28.1671
 30
0.0
 11
6.2508
 21
28.1671
 31
0.0
  0
LINE
  8
0
 62
     0
 10
6.2508
 20
28.1671
 30
0.0
 11
6.2508
 21
21.897
 31
0.0
  0
LINE
  8
0
 62
     0
 10
6.2508
 20
21.897
 30
0.0
 11
7.97609
 21
21.897
 31
0.0
  0
LINE
  8
0
 62
     0
 10
7.97609
 20
21.897
 30
0.0
 11
7.97609
 21
20.9173
 31
0.0
  0
LINE
  8
0
 62
     0
 10
7.97609
 20
20.9173
 30
0.0
 11
11.2751
 21
20.9173
 31
0.0
  0
LINE
  8
0
 62
     0
 10
11.2751
 20
20.9173
 30
0.0
 11
11.2751
 21
21.897
 31
0.0
  0
LINE
  8
0
 62
     0
 10
11.2751
 20
21.897
 30
0.0
 11
13.0004
 21
21.897
 31
0.0
  0
LINE
  8
0
 62
     0
 10
13.0004
 20
21.897
 30
0.0
 11
13.0004
 21
26.3674
 31
0.0
  0
LINE
  8
0
 62
     0
 10
13.0004
 20
26.3674
 30
0.0
 11
14.5259
 21
26.3674
 31
0.0
  0
LINE
  8
0
 62
     0
 10
14.5259
 20
26.3674
 30
0.0
 11
14.5259
 21
25.7679
 31
0.0
  0
LINE
  8
0
 62
     0
 10
14.5259
 20
25.7679
 30
0.0
 11
13.7253
 21
25.7679
 31
0.0
  0
LINE
  8
0
 62
     0
 10
13.7253
 20
25.7679
 30
0.0
 11
13.7253
 21
22.6673
 31
0.0
  0
LINE
  8
0
 62
     0
 10
13.7253
 20
22.6673
 30
0.0
 11
14.5259
 21
22.6673
 31
0.0
  0
LINE
  8
0
 62
     0
 10
14.5259
 20
22.6673
 30
0.0
 11
14.5259
 21
21.6683
 31
0.0
  0
LINE
  8
0
 62
     0
 10
14.5259
 20
21.6683
 30
0.0
 11
28.5254
 21
21.6683
 31
0.0
  0
LINE
  8
0
 62
     0
 10
28.5254
 20
21.6683
 30
0.0
 11
28.5254
 21
22.6673
 31
0.0
  0
LINE
  8
0
 62
     0
 10
28.5254
 20
22.6673
 30
0.0
 11
29.326
 21
22.6673
 31
0.0
  0
LINE
  8
0
 62
     0
 10
29.326
 20
22.6673
 30
0.0
 11
29.326
 21
25.7679
 31
0.0
  0
LINE
  8
0
 62
     0
 10
29.326
 20
25.7679
 30
0.0
 11
28.5254
 21
25.7679
 31
0.0
  0
LINE
  8
0
 62
     0
 10
28.5254
 20
25.7679
 30
0.0
 11
28.5254
 21
26.3674
 31
0.0
  0
LINE
  8
0
 62
     0
 10
28.5254
 20
26.3674
 30
0.0
 11
30.0509
 21
26.3674
 31
0.0
  0
LINE
  8
0
 62
     0
 10
30.0509
 20
26.3674
 30
0.0
 11
30.0509
 21
21.897
 31
0.0
  0
LINE
  8
0
 62
     0
 10
30.0509
 20
21.897
 30
0.0
 11
31.7762
 21
21.897
 31
0.0
  0
LINE
  8
0
 62
     0
 10
31.7762
 20
21.897
 30
0.0
 11
31.7762
 21
20.9173
 31
0.0
  0
LINE
  8
0
 62
     0
 10
31.7762
 20
20.9173
 30
0.0
 11
35.0752
 21
20.9173
 31
0.0
  0
LINE
  8
0
 62
     0
 10
35.0752
 20
20.9173
 30
0.0
 11
35.0752
 21
21.897
 31
0.0
  0
LINE
  8
0
 62
     0
 10
35.0752
 20
21.897
 30
0.0
 11
36.8004
 21
21.897
 31
0.0
  0
LINE
  8
0
 62
     0
 10
36.8004
 20
21.897
 30
0.0
 11
36.8004
 21
28.1671
 31
0.0
  0
LINE
  8
0
 62
     0
 10
36.8004
 20
28.1671
 30
0.0
 11
37.6259
 21
28.1671
 31
0.0
  0
LINE
  8
0
 62
     0
 10
37.6259
 20
28.1671
 30
0.0
 11
37.6259
 21
30.9673
 31
0.0
  0
LINE
  8
0
 62
     0
 10
37.6259
 20
30.9673
 30
0.0
 11
36.8004
 21
30.9673
 31
0.0
  0
LINE
  8
0
 62
     0
 10
36.8004
 20
30.9673
 30
0.0
 11
36.8004
 21
34.1974
 31
0.0
  0
LINE
  8
0
 62
     0
 10
36.8004
 20
34.1974
 30
0.0
 11
35.0752
 21
34.1974
 31
0.0
  0
LINE
  8
0
 62
     0
 10
35.0752
 20
34.1974
 30
0.0
 11
35.0752
 21
35.1193
 31
0.0
  0
LINE
  8
0
 62
     0
 10
35.0752
 20
35.1193
 30
0.0
 11
31.7762
 21
35.1193
 31
0.0
  0
LINE
  8
0
 62
     0
 10
31.7762
 20
35.1193
 30
0.0
 11
31.7762
 21
34.1974
 31
0.0
  0
LINE
  8
0
 62
     0
 10
31.7762
 20
34.1974
 30
0.0
 11
30.0509
 21
34.1974
 31
0.0
  0
LINE
  8
0
 62
     0
 10
30.0509
 20
34.1974
 30
0.0
 11
30.0509
 21
30.9673
 31
0.0
  0
LINE
  8
0
 62
     0
 10
30.0509
 20
30.9673
 30
0.0
 11
28.5254
 21
30.9673
 31
0.0
  0
LINE
  8
0
 62
     0
 10
28.5254
 20
30.9673
 30
0.0
 11
28.5254
 21
31.5681
 31
0.0
  0
LINE
  8
0
 62
     0
 10
28.5254
 20
31.5681
 30
0.0
 11
29.326
 21
31.5681
 31
0.0
  0
LINE
  8
0
 62
     0
 10
29.326
 20
31.5681
 30
0.0
 11
29.326
 21
34.6673
 31
0.0
  0
LINE
  8
0
 62
     0
 10
29.326
 20
34.6673
 30
0.0
 11
28.5254
 21
34.6673
 31
0.0
  0
LINE
  8
0
 62
     0
 10
28.5254
 20
34.6673
 30
0.0
 11
28.5254
 21
35.6676
 31
0.0
  0
LINE
  8
0
 62
     0
 10
28.5254
 20
35.6676
 30
0.0
 11
14.5259
 21
35.6676
 31
0.0
  0
LINE
  8
0
 62
     0
 10
263.128
 20
35.6676
 30
0.0
 11
263.128
 21
34.6673
 31
0.0
  0
LINE
  8
0
 62
     0
 10
263.128
 20
34.6673
 30
0.0
 11
262.327
 21
34.6673
 31
0.0
  0
LINE
  8
0
 62
     0
 10
262.327
 20
34.6673
 30
0.0
 11
262.327
 21
31.5681
 31
0.0
  0
LINE
  8
0
 62
     0
 10
262.327
 20
31.5681
 30
0.0
 11
263.128
 21
31.5681
 31
0.0
  0
LINE
  8
0
 62
     0
 10
263.128
 20
31.5681
 30
0.0
 11
263.128
 21
30.9673
 31
0.0
  0
LINE
  8
0
 62
     0
 10
263.128
 20
30.9673
 30
0.0
 11
261.603
 21
30.9673
 31
0.0
  0
LINE
  8
0
 62
     0
 10
261.603
 20
30.9673
 30
0.0
 11
261.603
 21
34.1974
 31
0.0
  0
LINE
  8
0
 62
     0
 10
261.603
 20
34.1974
 30
0.0
 11
259.877
 21
34.1974
 31
0.0
  0
LINE
  8
0
 62
     0
 10
259.877
 20
34.1974
 30
0.0
 11
259.877
 21
35.1193
 31
0.0
  0
LINE
  8
0
 62
     0
 10
259.877
 20
35.1193
 30
0.0
 11
256.578
 21
35.1193
 31
0.0
  0
LINE
  8
0
 62
     0
 10
256.578
 20
35.1193
 30
0.0
 11
256.578
 21
34.1974
 31
0.0
  0
LINE
  8
0
 62
     0
 10
256.578
 20
34.1974
 30
0.0
 11
254.852
 21
34.1974
 31
0.0
  0
LINE
  8
0
 62
     0
 10
254.852
 20
34.1974
 30
0.0
 11
254.852
 21
30.9673
 31
0.0
  0
LINE
  8
0
 62
     0
 10
254.852
 20
30.9673
 30
0.0
 11
254.028
 21
30.9673
 31
0.0
  0
LINE
  8
0
 62
     0
 10
254.028
 20
30.9673
 30
0.0
 11
254.028
 21
28.1671
 31
0.0
  0
LINE
  8
0
 62
     0
 10
254.028
 20
28.1671
 30
0.0
 11
254.852
 21
28.1671
 31
0.0
  0
LINE
  8
0
 62
     0
 10
254.852
 20
28.1671
 30
0.0
 11
254.852
 21
21.897
 31
0.0
  0
LINE
  8
0
 62
     0
 10
254.852
 20
21.897
 30
0.0
 11
256.578
 21
21.897
 31
0.0
  0
LINE
  8
0
 62
     0
 10
256.578
 20
21.897
 30
0.0
 11
256.578
 21
20.9173
 31
0.0
  0
LINE
  8
0
 62
     0
 10
256.578
 20
20.9173
 30
0.0
 11
259.877
 21
20.9173
 31
0.0
  0
LINE
  8
0
 62
     0
 10
259.877
 20
20.9173
 30
0.0
 11
259.877
 21
21.897
 31
0.0
  0
LINE
  8
0
 62
     0
 10
259.877
 20
21.897
 30
0.0
 11
261.603
 21
21.897
 31
0.0
  0
LINE
  8
0
 62
     0
 10
261.603
 20
21.897
 30
0.0
 11
261.603
 21
26.3674
 31
0.0
  0
LINE
  8
0
 62
     0
 10
261.603
 20
26.3674
 30
0.0
 11
263.128
 21
26.3674
 31
0.0
  0
LINE
  8
0
 62
     0
 10
263.128
 20
26.3674
 30
0.0
 11
263.128
 21
25.7679
 31
0.0
  0
LINE
  8
0
 62
     0
 10
263.128
 20
25.7679
 30
0.0
 11
262.327
 21
25.7679
 31
0.0
  0
LINE
  8
0
 62
     0
 10
262.327
 20
25.7679
 30
0.0
 11
262.327
 21
22.6673
 31
0.0
  0
LINE
  8
0
 62
     0
 10
262.327
 20
22.6673
 30
0.0
 11
263.128
 21
22.6673
 31
0.0
  0
LINE
  8
0
 62
     0
 10
263.128
 20
22.6673
 30
0.0
 11
263.128
 21
21.6683
 31
0.0
  0
LINE
  8
0
 62
     0
 10
263.128
 20
21.6683
 30
0.0
 11
277.128
 21
21.6683
 31
0.0
  0
LINE
  8
0
 62
     0
 10
277.128
 20
21.6683
 30
0.0
 11
277.128
 21
22.6673
 31
0.0
  0
LINE
  8
0
 62
     0
 10
277.128
 20
22.6673
 30
0.0
 11
277.928
 21
22.6673
 31
0.0
  0
LINE
  8
0
 62
     0
 10
277.928
 20
22.6673
 30
0.0
 11
277.928
 21
25.7679
 31
0.0
  0
LINE
  8
0
 62
     0
 10
277.928
 20
25.7679
 30
0.0
 11
277.128
 21
25.7679
 31
0.0
  0
LINE
  8
0
 62
     0
 10
277.128
 20
25.7679
 30
0.0
 11
277.128
 21
26.3674
 31
0.0
  0
LINE
  8
0
 62
     0
 10
277.128
 20
26.3674
 30
0.0
 11
278.653
 21
26.3674
 31
0.0
  0
LINE
  8
0
 62
     0
 10
278.653
 20
26.3674
 30
0.0
 11
278.653
 21
21.897
 31
0.0
  0
LINE
  8
0
 62
     0
 10
278.653
 20
21.897
 30
0.0
 11
280.378
 21
21.897
 31
0.0
  0
LINE
  8
0
 62
     0
 10
280.378
 20
21.897
 30
0.0
 11
280.378
 21
20.9173
 31
0.0
  0
LINE
  8
0
 62
     0
 10
280.378
 20
20.9173
 30
0.0
 11
283.677
 21
20.9173
 31
0.0
  0
LINE
  8
0
 62
     0
 10
283.677
 20
20.9173
 30
0.0
 11
283.677
 21
21.897
 31
0.0
  0
LINE
  8
0
 62
     0
 10
283.677
 20
21.897
 30
0.0
 11
285.403
 21
21.897
 31
0.0
  0
LINE
  8
0
 62
     0
 10
285.403
 20
21.897
 30
0.0
 11
285.403
 21
28.1671
 31
0.0
  0
LINE
  8
0
 62
     0
 10
285.403
 20
28.1671
 30
0.0
 11
286.228
 21
28.1671
 31
0.0
  0
LINE
  8
0
 62
     0
 10
286.228
 20
28.1671
 30
0.0
 11
286.228
 21
30.9673
 31
0.0
  0
LINE
  8
0
 62
     0
 10
286.228
 20
30.9673
 30
0.0
 11
285.403
 21
30.9673
 31
0.0
  0
LINE
  8
0
 62
     0
 10
285.403
 20
30.9673
 30
0.0
 11
285.403
 21
34.1974
 31
0.0
  0
LINE
  8
0
 62
     0
 10
285.403
 20
34.1974
 30
0.0
 11
283.677
 21
34.1974
 31
0.0
  0
LINE
  8
0
 62
     0
 10
283.677
 20
34.1974
 30
0.0
 11
283.677
 21
35.1193
 31
0.0
  0
LINE
  8
0
 62
     0
 10
283.677
 20
35.1193
 30
0.0
 11
280.378
 21
35.1193
 31
0.0
  0
LINE
  8
0
 62
     0
 10
280.378
 20
35.1193
 30
0.0
 11
280.378
 21
34.1974
 31
0.0
  0
LINE
  8
0
 62
     0
 10
280.378
 20
34.1974
 30
0.0
 11
278.653
 21
34.1974
 31
0.0
  0
LINE
  8
0
 62
     0
 10
278.653
 20
34.1974
 30
0.0
 11
278.653
 21
30.9673
 31
0.0
  0
LINE
  8
0
 62
     0
 10
278.653
 20
30.9673
 30
0.0
 11
277.128
 21
30.9673
 31
0.0
  0
LINE
  8
0
 62
     0
 10
277.128
 20
30.9673
 30
0.0
 11
277.128
 21
31.5681
 31
0.0
  0
LINE
  8
0
 62
     0
 10
277.128
 20
31.5681
 30
0.0
 11
277.928
 21
31.5681
 31
0.0
  0
LINE
  8
0
 62
     0
 10
277.928
 20
31.5681
 30
0.0
 11
277.928
 21
34.6673
 31
0.0
  0
LINE
  8
0
 62
     0
 10
277.928
 20
34.6673
 30
0.0
 11
277.128
 21
34.6673
 31
0.0
  0
LINE
  8
0
 62
     0
 10
277.128
 20
34.6673
 30
0.0
 11
277.128
 21
35.6676
 31
0.0
  0
LINE
  8
0
 62
     0
 10
277.128
 20
35.6676
 30
0.0
 11
263.128
 21
35.6676
 31
0.0
  0
LINE
  8
0
 62
     0
 10
46.4344
 20
35.6676
 30
0.0
 11
46.4344
 21
34.6673
 31
0.0
  0
LINE
  8
0
 62
     0
 10
46.4344
 20
34.6673
 30
0.0
 11
45.635
 21
34.6673
 31
0.0
  0
LINE
  8
0
 62
     0
 10
45.635
 20
34.6673
 30
0.0
 11
45.635
 21
31.5681
 31
0.0
  0
LINE
  8
0
 62
     0
 10
45.635
 20
31.5681
 30
0.0
 11
46.4344
 21
31.5681
 31
0.0
  0
LINE
  8
0
 62
     0
 10
46.4344
 20
31.5681
 30
0.0
 11
46.4344
 21
25.7679
 31
0.0
  0
LINE
  8
0
 62
     0
 10
46.4344
 20
25.7679
 30
0.0
 11
45.635
 21
25.7679
 31
0.0
  0
LINE
  8
0
 62
     0
 10
45.635
 20
25.7679
 30
0.0
 11
45.635
 21
22.6673
 31
0.0
  0
LINE
  8
0
 62
     0
 10
45.635
 20
22.6673
 30
0.0
 11
46.4344
 21
22.6673
 31
0.0
  0
LINE
  8
0
 62
     0
 10
46.4344
 20
22.6673
 30
0.0
 11
46.4344
 21
21.6683
 31
0.0
  0
LINE
  8
0
 62
     0
 10
46.4344
 20
21.6683
 30
0.0
 11
60.4354
 21
21.6683
 31
0.0
  0
LINE
  8
0
 62
     0
 10
60.4354
 20
21.6683
 30
0.0
 11
60.4354
 21
22.6673
 31
0.0
  0
LINE
  8
0
 62
     0
 10
60.4354
 20
22.6673
 30
0.0
 11
61.2345
 21
22.6673
 31
0.0
  0
LINE
  8
0
 62
     0
 10
61.2345
 20
22.6673
 30
0.0
 11
61.2345
 21
25.7679
 31
0.0
  0
LINE
  8
0
 62
     0
 10
61.2345
 20
25.7679
 30
0.0
 11
60.4354
 21
25.7679
 31
0.0
  0
LINE
  8
0
 62
     0
 10
60.4354
 20
25.7679
 30
0.0
 11
60.4354
 21
31.5681
 31
0.0
  0
LINE
  8
0
 62
     0
 10
60.4354
 20
31.5681
 30
0.0
 11
61.2345
 21
31.5681
 31
0.0
  0
LINE
  8
0
 62
     0
 10
61.2345
 20
31.5681
 30
0.0
 11
61.2345
 21
34.6673
 31
0.0
  0
LINE
  8
0
 62
     0
 10
61.2345
 20
34.6673
 30
0.0
 11
60.4354
 21
34.6673
 31
0.0
  0
LINE
  8
0
 62
     0
 10
60.4354
 20
34.6673
 30
0.0
 11
60.4354
 21
35.6676
 31
0.0
  0
LINE
  8
0
 62
     0
 10
60.4354
 20
35.6676
 30
0.0
 11
46.4344
 21
35.6676
 31
0.0
  0
LINE
  8
0
 62
     0
 10
66.4365
 20
35.6676
 30
0.0
 11
66.4365
 21
34.6673
 31
0.0
  0
LINE
  8
0
 62
     0
 10
66.4365
 20
34.6673
 30
0.0
 11
65.6375
 21
34.6673
 31
0.0
  0
LINE
  8
0
 62
     0
 10
65.6375
 20
34.6673
 30
0.0
 11
65.6375
 21
31.5681
 31
0.0
  0
LINE
  8
0
 62
     0
 10
65.6375
 20
31.5681
 30
0.0
 11
66.4365
 21
31.5681
 31
0.0
  0
LINE
  8
0
 62
     0
 10
66.4365
 20
31.5681
 30
0.0
 11
66.4365
 21
25.7679
 31
0.0
  0
LINE
  8
0
 62
     0
 10
66.4365
 20
25.7679
 30
0.0
 11
65.6375
 21
25.7679
 31
0.0
  0
LINE
  8
0
 62
     0
 10
65.6375
 20
25.7679
 30
0.0
 11
65.6375
 21
22.6673
 31
0.0
  0
LINE
  8
0
 62
     0
 10
65.6375
 20
22.6673
 30
0.0
 11
66.4365
 21
22.6673
 31
0.0
  0
LINE
  8
0
 62
     0
 10
66.4365
 20
22.6673
 30
0.0
 11
66.4365
 21
21.6683
 31
0.0
  0
LINE
  8
0
 62
     0
 10
66.4365
 20
21.6683
 30
0.0
 11
80.4362
 21
21.6683
 31
0.0
  0
LINE
  8
0
 62
     0
 10
80.4362
 20
21.6683
 30
0.0
 11
80.4362
 21
22.6673
 31
0.0
  0
LINE
  8
0
 62
     0
 10
80.4362
 20
22.6673
 30
0.0
 11
81.2366
 21
22.6673
 31
0.0
  0
LINE
  8
0
 62
     0
 10
81.2366
 20
22.6673
 30
0.0
 11
81.2366
 21
25.7679
 31
0.0
  0
LINE
  8
0
 62
     0
 10
81.2366
 20
25.7679
 30
0.0
 11
80.4362
 21
25.7679
 31
0.0
  0
LINE
  8
0
 62
     0
 10
80.4362
 20
25.7679
 30
0.0
 11
80.4362
 21
31.5681
 31
0.0
  0
LINE
  8
0
 62
     0
 10
80.4362
 20
31.5681
 30
0.0
 11
81.2366
 21
31.5681
 31
0.0
  0
LINE
  8
0
 62
     0
 10
81.2366
 20
31.5681
 30
0.0
 11
81.2366
 21
34.6673
 31
0.0
  0
LINE
  8
0
 62
     0
 10
81.2366
 20
34.6673
 30
0.0
 11
80.4362
 21
34.6673
 31
0.0
  0
LINE
  8
0
 62
     0
 10
80.4362
 20
34.6673
 30
0.0
 11
80.4362
 21
35.6676
 31
0.0
  0
LINE
  8
0
 62
     0
 10
80.4362
 20
35.6676
 30
0.0
 11
66.4365
 21
35.6676
 31
0.0
  0
LINE
  8
0
 62
     0
 10
86.4401
 20
35.6676
 30
0.0
 11
86.4401
 21
34.6673
 31
0.0
  0
LINE
  8
0
 62
     0
 10
86.4401
 20
34.6673
 30
0.0
 11
85.6396
 21
34.6673
 31
0.0
  0
LINE
  8
0
 62
     0
 10
85.6396
 20
34.6673
 30
0.0
 11
85.6396
 21
31.5681
 31
0.0
  0
LINE
  8
0
 62
     0
 10
85.6396
 20
31.5681
 30
0.0
 11
86.4401
 21
31.5681
 31
0.0
  0
LINE
  8
0
 62
     0
 10
86.4401
 20
31.5681
 30
0.0
 11
86.4401
 21
25.7679
 31
0.0
  0
LINE
  8
0
 62
     0
 10
86.4401
 20
25.7679
 30
0.0
 11
85.6396
 21
25.7679
 31
0.0
  0
LINE
  8
0
 62
     0
 10
85.6396
 20
25.7679
 30
0.0
 11
85.6396
 21
22.6673
 31
0.0
  0
LINE
  8
0
 62
     0
 10
85.6396
 20
22.6673
 30
0.0
 11
86.4401
 21
22.6673
 31
0.0
  0
LINE
  8
0
 62
     0
 10
86.4401
 20
22.6673
 30
0.0
 11
86.4401
 21
21.6683
 31
0.0
  0
LINE
  8
0
 62
     0
 10
86.4401
 20
21.6683
 30
0.0
 11
100.44
 21
21.6683
 31
0.0
  0
LINE
  8
0
 62
     0
 10
100.44
 20
21.6683
 30
0.0
 11
100.44
 21
22.6673
 31
0.0
  0
LINE
  8
0
 62
     0
 10
100.44
 20
22.6673
 30
0.0
 11
101.24
 21
22.6673
 31
0.0
  0
LINE
  8
0
 62
     0
 10
101.24
 20
22.6673
 30
0.0
 11
101.24
 21
25.7679
 31
0.0
  0
LINE
  8
0
 62
     0
 10
101.24
 20
25.7679
 30
0.0
 11
100.44
 21
25.7679
 31
0.0
  0
LINE
  8
0
 62
     0
 10
100.44
 20
25.7679
 30
0.0
 11
100.44
 21
31.5681
 31
0.0
  0
LINE
  8
0
 62
     0
 10
100.44
 20
31.5681
 30
0.0
 11
101.24
 21
31.5681
 31
0.0
  0
LINE
  8
0
 62
     0
 10
101.24
 20
31.5681
 30
0.0
 11
101.24
 21
34.6673
 31
0.0
  0
LINE
  8
0
 62
     0
 10
101.24
 20
34.6673
 30
0.0
 11
100.44
 21
34.6673
 31
0.0
  0
LINE
  8
0
 62
     0
 10
100.44
 20
34.6673
 30
0.0
 11
100.44
 21
35.6676
 31
0.0
  0
LINE
  8
0
 62
     0
 10
100.44
 20
35.6676
 30
0.0
 11
86.4401
 21
35.6676
 31
0.0
  0
LINE
  8
0
 62
     0
 10
106.443
 20
35.6676
 30
0.0
 11
106.443
 21
34.6673
 31
0.0
  0
LINE
  8
0
 62
     0
 10
106.443
 20
34.6673
 30
0.0
 11
105.642
 21
34.6673
 31
0.0
  0
LINE
  8
0
 62
     0
 10
105.642
 20
34.6673
 30
0.0
 11
105.642
 21
31.5681
 31
0.0
  0
LINE
  8
0
 62
     0
 10
105.642
 20
31.5681
 30
0.0
 11
106.443
 21
31.5681
 31
0.0
  0
LINE
  8
0
 62
     0
 10
106.443
 20
31.5681
 30
0.0
 11
106.443
 21
25.7679
 31
0.0
  0
LINE
  8
0
 62
     0
 10
106.443
 20
25.7679
 30
0.0
 11
105.642
 21
25.7679
 31
0.0
  0
LINE
  8
0
 62
     0
 10
105.642
 20
25.7679
 30
0.0
 11
105.642
 21
22.6673
 31
0.0
  0
LINE
  8
0
 62
     0
 10
105.642
 20
22.6673
 30
0.0
 11
106.443
 21
22.6673
 31
0.0
  0
LINE
  8
0
 62
     0
 10
106.443
 20
22.6673
 30
0.0
 11
106.443
 21
21.6683
 31
0.0
  0
LINE
  8
0
 62
     0
 10
106.443
 20
21.6683
 30
0.0
 11
120.442
 21
21.6683
 31
0.0
  0
LINE
  8
0
 62
     0
 10
120.442
 20
21.6683
 30
0.0
 11
120.442
 21
22.6673
 31
0.0
  0
LINE
  8
0
 62
     0
 10
120.442
 20
22.6673
 30
0.0
 11
121.241
 21
22.6673
 31
0.0
  0
LINE
  8
0
 62
     0
 10
121.241
 20
22.6673
 30
0.0
 11
121.241
 21
25.7679
 31
0.0
  0
LINE
  8
0
 62
     0
 10
121.241
 20
25.7679
 30
0.0
 11
120.442
 21
25.7679
 31
0.0
  0
LINE
  8
0
 62
     0
 10
120.442
 20
25.7679
 30
0.0
 11
120.442
 21
31.5681
 31
0.0
  0
LINE
  8
0
 62
     0
 10
120.442
 20
31.5681
 30
0.0
 11
121.241
 21
31.5681
 31
0.0
  0
LINE
  8
0
 62
     0
 10
121.241
 20
31.5681
 30
0.0
 11
121.241
 21
34.6673
 31
0.0
  0
LINE
  8
0
 62
     0
 10
121.241
 20
34.6673
 30
0.0
 11
120.442
 21
34.6673
 31
0.0
  0
LINE
  8
0
 62
     0
 10
120.442
 20
34.6673
 30
0.0
 11
120.442
 21
35.6676
 31
0.0
  0
LINE
  8
0
 62
     0
 10
120.442
 20
35.6676
 30
0.0
 11
106.443
 21
35.6676
 31
0.0
  0
LINE
  8
0
 62
     0
 10
126.445
 20
35.6676
 30
0.0
 11
126.445
 21
34.6673
 31
0.0
  0
LINE
  8
0
 62
     0
 10
126.445
 20
34.6673
 30
0.0
 11
125.644
 21
34.6673
 31
0.0
  0
LINE
  8
0
 62
     0
 10
125.644
 20
34.6673
 30
0.0
 11
125.644
 21
31.5681
 31
0.0
  0
LINE
  8
0
 62
     0
 10
125.644
 20
31.5681
 30
0.0
 11
126.445
 21
31.5681
 31
0.0
  0
LINE
  8
0
 62
     0
 10
126.445
 20
31.5681
 30
0.0
 11
126.445
 21
25.7679
 31
0.0
  0
LINE
  8
0
 62
     0
 10
126.445
 20
25.7679
 30
0.0
 11
125.644
 21
25.7679
 31
0.0
  0
LINE
  8
0
 62
     0
 10
125.644
 20
25.7679
 30
0.0
 11
125.644
 21
22.6673
 31
0.0
  0
LINE
  8
0
 62
     0
 10
125.644
 20
22.6673
 30
0.0
 11
126.445
 21
22.6673
 31
0.0
  0
LINE
  8
0
 62
     0
 10
126.445
 20
22.6673
 30
0.0
 11
126.445
 21
21.6683
 31
0.0
  0
LINE
  8
0
 62
     0
 10
126.445
 20
21.6683
 30
0.0
 11
140.444
 21
21.6683
 31
0.0
  0
LINE
  8
0
 62
     0
 10
140.444
 20
21.6683
 30
0.0
 11
140.444
 21
22.6673
 31
0.0
  0
LINE
  8
0
 62
     0
 10
140.444
 20
22.6673
 30
0.0
 11
141.245
 21
22.6673
 31
0.0
  0
LINE
  8
0
 62
     0
 10
141.245
 20
22.6673
 30
0.0
 11
141.245
 21
25.7679
 31
0.0
  0
LINE
  8
0
 62
     0
 10
141.245
 20
25.7679
 30
0.0
 11
140.444
 21
25.7679
 31
0.0
  0
LINE
  8
0
 62
     0
 10
140.444
 20
25.7679
 30
0.0
 11
140.444
 21
31.5681
 31
0.0
  0
LINE
  8
0
 62
     0
 10
140.444
 20
31.5681
 30
0.0
 11
141.245
 21
31.5681
 31
0.0
  0
LINE
  8
0
 62
     0
 10
141.245
 20
31.5681
 30
0.0
 11
141.245
 21
34.6673
 31
0.0
  0
LINE
  8
0
 62
     0
 10
141.245
 20
34.6673
 30
0.0
 11
140.444
 21
34.6673
 31
0.0
  0
LINE
  8
0
 62
     0
 10
140.444
 20
34.6673
 30
0.0
 11
140.444
 21
35.6676
 31
0.0
  0
LINE
  8
0
 62
     0
 10
140.444
 20
35.6676
 30
0.0
 11
126.445
 21
35.6676
 31
0.0
  0
LINE
  8
0
 62
     0
 10
146.447
 20
35.6676
 30
0.0
 11
146.447
 21
34.6673
 31
0.0
  0
LINE
  8
0
 62
     0
 10
146.447
 20
34.6673
 30
0.0
 11
145.646
 21
34.6673
 31
0.0
  0
LINE
  8
0
 62
     0
 10
145.646
 20
34.6673
 30
0.0
 11
145.646
 21
31.5681
 31
0.0
  0
LINE
  8
0
 62
     0
 10
145.646
 20
31.5681
 30
0.0
 11
146.447
 21
31.5681
 31
0.0
  0
LINE
  8
0
 62
     0
 10
146.447
 20
31.5681
 30
0.0
 11
146.447
 21
25.7679
 31
0.0
  0
LINE
  8
0
 62
     0
 10
146.447
 20
25.7679
 30
0.0
 11
145.646
 21
25.7679
 31
0.0
  0
LINE
  8
0
 62
     0
 10
145.646
 20
25.7679
 30
0.0
 11
145.646
 21
22.6673
 31
0.0
  0
LINE
  8
0
 62
     0
 10
145.646
 20
22.6673
 30
0.0
 11
146.447
 21
22.6673
 31
0.0
  0
LINE
  8
0
 62
     0
 10
146.447
 20
22.6673
 30
0.0
 11
146.447
 21
21.6683
 31
0.0
  0
LINE
  8
0
 62
     0
 10
146.447
 20
21.6683
 30
0.0
 11
160.447
 21
21.6683
 31
0.0
  0
LINE
  8
0
 62
     0
 10
160.447
 20
21.6683
 30
0.0
 11
160.447
 21
22.6673
 31
0.0
  0
LINE
  8
0
 62
     0
 10
160.447
 20
22.6673
 30
0.0
 11
161.247
 21
22.6673
 31
0.0
  0
LINE
  8
0
 62
     0
 10
161.247
 20
22.6673
 30
0.0
 11
161.247
 21
25.7679
 31
0.0
  0
LINE
  8
0
 62
     0
 10
161.247
 20
25.7679
 30
0.0
 11
160.447
 21
25.7679
 31
0.0
  0
LINE
  8
0
 62
     0
 10
160.447
 20
25.7679
 30
0.0
 11
160.447
 21
31.5681
 31
0.0
  0
LINE
  8
0
 62
     0
 10
160.447
 20
31.5681
 30
0.0
 11
161.247
 21
31.5681
 31
0.0
  0
LINE
  8
0
 62
     0
 10
161.247
 20
31.5681
 30
0.0
 11
161.247
 21
34.6673
 31
0.0
  0
LINE
  8
0
 62
     0
 10
161.247
 20
34.6673
 30
0.0
 11
160.447
 21
34.6673
 31
0.0
  0
LINE
  8
0
 62
     0
 10
160.447
 20
34.6673
 30
0.0
 11
160.447
 21
35.6676
 31
0.0
  0
LINE
  8
0
 62
     0
 10
160.447
 20
35.6676
 30
0.0
 11
146.447
 21
35.6676
 31
0.0
  0
LINE
  8
0
 62
     0
 10
166.449
 20
35.6676
 30
0.0
 11
166.449
 21
34.6673
 31
0.0
  0
LINE
  8
0
 62
     0
 10
166.449
 20
34.6673
 30
0.0
 11
165.649
 21
34.6673
 31
0.0
  0
LINE
  8
0
 62
     0
 10
165.649
 20
34.6673
 30
0.0
 11
165.649
 21
31.5681
 31
0.0
  0
LINE
  8
0
 62
     0
 10
165.649
 20
31.5681
 30
0.0
 11
166.449
 21
31.5681
 31
0.0
  0
LINE
  8
0
 62
     0
 10
166.449
 20
31.5681
 30
0.0
 11
166.449
 21
25.7679
 31
0.0
  0
LINE
  8
0
 62
     0
 10
166.449
 20
25.7679
 30
0.0
 11
165.649
 21
25.7679
 31
0.0
  0
LINE
  8
0
 62
     0
 10
165.649
 20
25.7679
 30
0.0
 11
165.649
 21
22.6673
 31
0.0
  0
LINE
  8
0
 62
     0
 10
165.649
 20
22.6673
 30
0.0
 11
166.449
 21
22.6673
 31
0.0
  0
LINE
  8
0
 62
     0
 10
166.449
 20
22.6673
 30
0.0
 11
166.449
 21
21.6683
 31
0.0
  0
LINE
  8
0
 62
     0
 10
166.449
 20
21.6683
 30
0.0
 11
180.45
 21
21.6683
 31
0.0
  0
LINE
  8
0
 62
     0
 10
180.45
 20
21.6683
 30
0.0
 11
180.45
 21
22.6673
 31
0.0
  0
LINE
  8
0
 62
     0
 10
180.45
 20
22.6673
 30
0.0
 11
181.249
 21
22.6673
 31
0.0
  0
LINE
  8
0
 62
     0
 10
181.249
 20
22.6673
 30
0.0
 11
181.249
 21
25.7679
 31
0.0
  0
LINE
  8
0
 62
     0
 10
181.249
 20
25.7679
 30
0.0
 11
180.45
 21
25.7679
 31
0.0
  0
LINE
  8
0
 62
     0
 10
180.45
 20
25.7679
 30
0.0
 11
180.45
 21
31.5681
 31
0.0
  0
LINE
  8
0
 62
     0
 10
180.45
 20
31.5681
 30
0.0
 11
181.249
 21
31.5681
 31
0.0
  0
LINE
  8
0
 62
     0
 10
181.249
 20
31.5681
 30
0.0
 11
181.249
 21
34.6673
 31
0.0
  0
LINE
  8
0
 62
     0
 10
181.249
 20
34.6673
 30
0.0
 11
180.45
 21
34.6673
 31
0.0
  0
LINE
  8
0
 62
     0
 10
180.45
 20
34.6673
 30
0.0
 11
180.45
 21
35.6676
 31
0.0
  0
LINE
  8
0
 62
     0
 10
180.45
 20
35.6676
 30
0.0
 11
166.449
 21
35.6676
 31
0.0
  0
LINE
  8
0
 62
     0
 10
186.451
 20
35.6676
 30
0.0
 11
186.451
 21
34.6673
 31
0.0
  0
LINE
  8
0
 62
     0
 10
186.451
 20
34.6673
 30
0.0
 11
185.652
 21
34.6673
 31
0.0
  0
LINE
  8
0
 62
     0
 10
185.652
 20
34.6673
 30
0.0
 11
185.652
 21
31.5681
 31
0.0
  0
LINE
  8
0
 62
     0
 10
185.652
 20
31.5681
 30
0.0
 11
186.451
 21
31.5681
 31
0.0
  0
LINE
  8
0
 62
     0
 10
186.451
 20
31.5681
 30
0.0
 11
186.451
 21
25.7679
 31
0.0
  0
LINE
  8
0
 62
     0
 10
186.451
 20
25.7679
 30
0.0
 11
185.652
 21
25.7679
 31
0.0
  0
LINE
  8
0
 62
     0
 10
185.652
 20
25.7679
 30
0.0
 11
185.652
 21
22.6673
 31
0.0
  0
LINE
  8
0
 62
     0
 10
185.652
 20
22.6673
 30
0.0
 11
186.451
 21
22.6673
 31
0.0
  0
LINE
  8
0
 62
     0
 10
186.451
 20
22.6673
 30
0.0
 11
186.451
 21
21.6683
 31
0.0
  0
LINE
  8
0
 62
     0
 10
186.451
 20
21.6683
 30
0.0
 11
200.452
 21
21.6683
 31
0.0
  0
LINE
  8
0
 62
     0
 10
200.452
 20
21.6683
 30
0.0
 11
200.452
 21
22.6673
 31
0.0
  0
LINE
  8
0
 62
     0
 10
200.452
 20
22.6673
 30
0.0
 11
201.252
 21
22.6673
 31
0.0
  0
LINE
  8
0
 62
     0
 10
201.252
 20
22.6673
 30
0.0
 11
201.252
 21
25.7679
 31
0.0
  0
LINE
  8
0
 62
     0
 10
201.252
 20
25.7679
 30
0.0
 11
200.452
 21
25.7679
 31
0.0
  0
LINE
  8
0
 62
     0
 10
200.452
 20
25.7679
 30
0.0
 11
200.452
 21
31.5681
 31
0.0
  0
LINE
  8
0
 62
     0
 10
200.452
 20
31.5681
 30
0.0
 11
201.252
 21
31.5681
 31
0.0
  0
LINE
  8
0
 62
     0
 10
201.252
 20
31.5681
 30
0.0
 11
201.252
 21
34.6673
 31
0.0
  0
LINE
  8
0
 62
     0
 10
201.252
 20
34.6673
 30
0.0
 11
200.452
 21
34.6673
 31
0.0
  0
LINE
  8
0
 62
     0
 10
200.452
 20
34.6673
 30
0.0
 11
200.452
 21
35.6676
 31
0.0
  0
LINE
  8
0
 62
     0
 10
200.452
 20
35.6676
 30
0.0
 11
186.451
 21
35.6676
 31
0.0
  0
LINE
  8
0
 62
     0
 10
206.454
 20
35.6676
 30
0.0
 11
206.454
 21
34.6673
 31
0.0
  0
LINE
  8
0
 62
     0
 10
206.454
 20
34.6673
 30
0.0
 11
205.654
 21
34.6673
 31
0.0
  0
LINE
  8
0
 62
     0
 10
205.654
 20
34.6673
 30
0.0
 11
205.654
 21
31.5681
 31
0.0
  0
LINE
  8
0
 62
     0
 10
205.654
 20
31.5681
 30
0.0
 11
206.454
 21
31.5681
 31
0.0
  0
LINE
  8
0
 62
     0
 10
206.454
 20
31.5681
 30
0.0
 11
206.454
 21
25.7679
 31
0.0
  0
LINE
  8
0
 62
     0
 10
206.454
 20
25.7679
 30
0.0
 11
205.654
 21
25.7679
 31
0.0
  0
LINE
  8
0
 62
     0
 10
205.654
 20
25.7679
 30
0.0
 11
205.654
 21
22.6673
 31
0.0
  0
LINE
  8
0
 62
     0
 10
205.654
 20
22.6673
 30
0.0
 11
206.454
 21
22.6673
 31
0.0
  0
LINE
  8
0
 62
     0
 10
206.454
 20
22.6673
 30
0.0
 11
206.454
 21
21.6683
 31
0.0
  0
LINE
  8
0
 62
     0
 10
206.454
 20
21.6683
 30
0.0
 11
220.454
 21
21.6683
 31
0.0
  0
LINE
  8
0
 62
     0
 10
220.454
 20
21.6683
 30
0.0
 11
220.454
 21
22.6673
 31
0.0
  0
LINE
  8
0
 62
     0
 10
220.454
 20
22.6673
 30
0.0
 11
221.255
 21
22.6673
 31
0.0
  0
LINE
  8
0
 62
     0
 10
221.255
 20
22.6673
 30
0.0
 11
221.255
 21
25.7679
 31
0.0
  0
LINE
  8
0
 62
     0
 10
221.255
 20
25.7679
 30
0.0
 11
220.454
 21
25.7679
 31
0.0
  0
LINE
  8
0
 62
     0
 10
220.454
 20
25.7679
 30
0.0
 11
220.454
 21
31.5681
 31
0.0
  0
LINE
  8
0
 62
     0
 10
220.454
 20
31.5681
 30
0.0
 11
221.255
 21
31.5681
 31
0.0
  0
LINE
  8
0
 62
     0
 10
221.255
 20
31.5681
 30
0.0
 11
221.255
 21
34.6673
 31
0.0
  0
LINE
  8
0
 62
     0
 10
221.255
 20
34.6673
 30
0.0
 11
220.454
 21
34.6673
 31
0.0
  0
LINE
  8
0
 62
     0
 10
220.454
 20
34.6673
 30
0.0
 11
220.454
 21
35.6676
 31
0.0
  0
LINE
  8
0
 62
     0
 10
220.454
 20
35.6676
 30
0.0
 11
206.454
 21
35.6676
 31
0.0
  0
LINE
  8
0
 62
     0
 10
226.457
 20
35.6676
 30
0.0
 11
226.457
 21
34.6673
 31
0.0
  0
LINE
  8
0
 62
     0
 10
226.457
 20
34.6673
 30
0.0
 11
225.656
 21
34.6673
 31
0.0
  0
LINE
  8
0
 62
     0
 10
225.656
 20
34.6673
 30
0.0
 11
225.656
 21
31.5681
 31
0.0
  0
LINE
  8
0
 62
     0
 10
225.656
 20
31.5681
 30
0.0
 11
226.457
 21
31.5681
 31
0.0
  0
LINE
  8
0
 62
     0
 10
226.457
 20
31.5681
 30
0.0
 11
226.457
 21
25.7679
 31
0.0
  0
LINE
  8
0
 62
     0
 10
226.457
 20
25.7679
 30
0.0
 11
225.656
 21
25.7679
 31
0.0
  0
LINE
  8
0
 62
     0
 10
225.656
 20
25.7679
 30
0.0
 11
225.656
 21
22.6673
 31
0.0
  0
LINE
  8
0
 62
     0
 10
225.656
 20
22.6673
 30
0.0
 11
226.457
 21
22.6673
 31
0.0
  0
LINE
  8
0
 62
     0
 10
226.457
 20
22.6673
 30
0.0
 11
226.457
 21
21.6683
 31
0.0
  0
LINE
  8
0
 62
     0
 10
226.457
 20
21.6683
 30
0.0
 11
240.457
 21
21.6683
 31
0.0
  0
LINE
  8
0
 62
     0
 10
240.457
 20
21.6683
 30
0.0
 11
240.457
 21
22.6673
 31
0.0
  0
LINE
  8
0
 62
     0
 10
240.457
 20
22.6673
 30
0.0
 11
241.257
 21
22.6673
 31
0.0
  0
LINE
  8
0
 62
     0
 10
241.257
 20
22.6673
 30
0.0
 11
241.257
 21
25.7679
 31
0.0
  0
LINE
  8
0
 62
     0
 10
241.257
 20
25.7679
 30
0.0
 11
240.457
 21
25.7679
 31
0.0
  0
LINE
  8
0
 62
     0
 10
240.457
 20
25.7679
 30
0.0
 11
240.457
 21
31.5681
 31
0.0
  0
LINE
  8
0
 62
     0
 10
240.457
 20
31.5681
 30
0.0
 11
241.257
 21
31.5681
 31
0.0
  0
LINE
  8
0
 62
     0
 10
241.257
 20
31.5681
 30
0.0
 11
241.257
 21
34.6673
 31
0.0
  0
LINE
  8
0
 62
     0
 10
241.257
 20
34.6673
 30
0.0
 11
240.457
 21
34.6673
 31
0.0
  0
LINE
  8
0
 62
     0
 10
240.457
 20
34.6673
 30
0.0
 11
240.457
 21
35.6676
 31
0.0
  0
LINE
  8
0
 62
     0
 10
240.457
 20
35.6676
 30
0.0
 11
226.457
 21
35.6676
 31
0.0
  0
LINE
  8
0
 62
     0
 10
269.415
 20
54.7176
 30
0.0
 11
269.415
 21
53.7175
 31
0.0
  0
LINE
  8
0
 62
     0
 10
269.415
 20
53.7175
 30
0.0
 11
268.614
 21
53.7175
 31
0.0
  0
LINE
  8
0
 62
     0
 10
268.614
 20
53.7175
 30
0.0
 11
268.614
 21
50.618
 31
0.0
  0
LINE
  8
0
 62
     0
 10
268.614
 20
50.618
 30
0.0
 11
269.415
 21
50.618
 31
0.0
  0
LINE
  8
0
 62
     0
 10
269.415
 20
50.618
 30
0.0
 11
269.415
 21
50.0172
 31
0.0
  0
LINE
  8
0
 62
     0
 10
269.415
 20
50.0172
 30
0.0
 11
267.889
 21
50.0172
 31
0.0
  0
LINE
  8
0
 62
     0
 10
267.889
 20
50.0172
 30
0.0
 11
267.889
 21
53.2476
 31
0.0
  0
LINE
  8
0
 62
     0
 10
267.889
 20
53.2476
 30
0.0
 11
266.165
 21
53.2476
 31
0.0
  0
LINE
  8
0
 62
     0
 10
266.165
 20
53.2476
 30
0.0
 11
266.165
 21
54.168
 31
0.0
  0
LINE
  8
0
 62
     0
 10
266.165
 20
54.168
 30
0.0
 11
262.865
 21
54.168
 31
0.0
  0
LINE
  8
0
 62
     0
 10
262.865
 20
54.168
 30
0.0
 11
262.865
 21
53.2476
 31
0.0
  0
LINE
  8
0
 62
     0
 10
262.865
 20
53.2476
 30
0.0
 11
261.14
 21
53.2476
 31
0.0
  0
LINE
  8
0
 62
     0
 10
261.14
 20
53.2476
 30
0.0
 11
261.14
 21
50.0172
 31
0.0
  0
LINE
  8
0
 62
     0
 10
261.14
 20
50.0172
 30
0.0
 11
260.314
 21
50.0172
 31
0.0
  0
LINE
  8
0
 62
     0
 10
260.314
 20
50.0172
 30
0.0
 11
260.314
 21
47.2172
 31
0.0
  0
LINE
  8
0
 62
     0
 10
260.314
 20
47.2172
 30
0.0
 11
261.14
 21
47.2172
 31
0.0
  0
LINE
  8
0
 62
     0
 10
261.14
 20
47.2172
 30
0.0
 11
261.14
 21
40.9483
 31
0.0
  0
LINE
  8
0
 62
     0
 10
261.14
 20
40.9483
 30
0.0
 11
262.865
 21
40.9483
 31
0.0
  0
LINE
  8
0
 62
     0
 10
262.865
 20
40.9483
 30
0.0
 11
262.865
 21
39.9673
 31
0.0
  0
LINE
  8
0
 62
     0
 10
262.865
 20
39.9673
 30
0.0
 11
266.165
 21
39.9673
 31
0.0
  0
LINE
  8
0
 62
     0
 10
266.165
 20
39.9673
 30
0.0
 11
266.165
 21
40.9483
 31
0.0
  0
LINE
  8
0
 62
     0
 10
266.165
 20
40.9483
 30
0.0
 11
267.889
 21
40.9483
 31
0.0
  0
LINE
  8
0
 62
     0
 10
267.889
 20
40.9483
 30
0.0
 11
267.889
 21
45.4173
 31
0.0
  0
LINE
  8
0
 62
     0
 10
267.889
 20
45.4173
 30
0.0
 11
269.415
 21
45.4173
 31
0.0
  0
LINE
  8
0
 62
     0
 10
269.415
 20
45.4173
 30
0.0
 11
269.415
 21
44.8179
 31
0.0
  0
LINE
  8
0
 62
     0
 10
269.415
 20
44.8179
 30
0.0
 11
268.614
 21
44.8179
 31
0.0
  0
LINE
  8
0
 62
     0
 10
268.614
 20
44.8179
 30
0.0
 11
268.614
 21
41.7174
 31
0.0
  0
LINE
  8
0
 62
     0
 10
268.614
 20
41.7174
 30
0.0
 11
269.415
 21
41.7174
 31
0.0
  0
LINE
  8
0
 62
     0
 10
269.415
 20
41.7174
 30
0.0
 11
269.415
 21
40.7183
 31
0.0
  0
LINE
  8
0
 62
     0
 10
269.415
 20
40.7183
 30
0.0
 11
283.414
 21
40.7183
 31
0.0
  0
LINE
  8
0
 62
     0
 10
283.414
 20
40.7183
 30
0.0
 11
283.414
 21
41.7174
 31
0.0
  0
LINE
  8
0
 62
     0
 10
283.414
 20
41.7174
 30
0.0
 11
284.215
 21
41.7174
 31
0.0
  0
LINE
  8
0
 62
     0
 10
284.215
 20
41.7174
 30
0.0
 11
284.215
 21
44.8179
 31
0.0
  0
LINE
  8
0
 62
     0
 10
284.215
 20
44.8179
 30
0.0
 11
283.414
 21
44.8179
 31
0.0
  0
LINE
  8
0
 62
     0
 10
283.414
 20
44.8179
 30
0.0
 11
283.414
 21
45.4173
 31
0.0
  0
LINE
  8
0
 62
     0
 10
283.414
 20
45.4173
 30
0.0
 11
284.94
 21
45.4173
 31
0.0
  0
LINE
  8
0
 62
     0
 10
284.94
 20
45.4173
 30
0.0
 11
284.94
 21
40.9483
 31
0.0
  0
LINE
  8
0
 62
     0
 10
284.94
 20
40.9483
 30
0.0
 11
286.665
 21
40.9483
 31
0.0
  0
LINE
  8
0
 62
     0
 10
286.665
 20
40.9483
 30
0.0
 11
286.665
 21
39.9673
 31
0.0
  0
LINE
  8
0
 62
     0
 10
286.665
 20
39.9673
 30
0.0
 11
289.965
 21
39.9673
 31
0.0
  0
LINE
  8
0
 62
     0
 10
289.965
 20
39.9673
 30
0.0
 11
289.965
 21
40.9483
 31
0.0
  0
LINE
  8
0
 62
     0
 10
289.965
 20
40.9483
 30
0.0
 11
291.689
 21
40.9483
 31
0.0
  0
LINE
  8
0
 62
     0
 10
291.689
 20
40.9483
 30
0.0
 11
291.689
 21
47.2172
 31
0.0
  0
LINE
  8
0
 62
     0
 10
291.689
 20
47.2172
 30
0.0
 11
292.515
 21
47.2172
 31
0.0
  0
LINE
  8
0
 62
     0
 10
292.515
 20
47.2172
 30
0.0
 11
292.515
 21
50.0172
 31
0.0
  0
LINE
  8
0
 62
     0
 10
292.515
 20
50.0172
 30
0.0
 11
291.689
 21
50.0172
 31
0.0
  0
LINE
  8
0
 62
     0
 10
291.689
 20
50.0172
 30
0.0
 11
291.689
 21
53.2476
 31
0.0
  0
LINE
  8
0
 62
     0
 10
291.689
 20
53.2476
 30
0.0
 11
289.965
 21
53.2476
 31
0.0
  0
LINE
  8
0
 62
     0
 10
289.965
 20
53.2476
 30
0.0
 11
289.965
 21
54.168
 31
0.0
  0
LINE
  8
0
 62
     0
 10
289.965
 20
54.168
 30
0.0
 11
286.665
 21
54.168
 31
0.0
  0
LINE
  8
0
 62
     0
 10
286.665
 20
54.168
 30
0.0
 11
286.665
 21
53.2476
 31
0.0
  0
LINE
  8
0
 62
     0
 10
286.665
 20
53.2476
 30
0.0
 11
284.94
 21
53.2476
 31
0.0
  0
LINE
  8
0
 62
     0
 10
284.94
 20
53.2476
 30
0.0
 11
284.94
 21
50.0172
 31
0.0
  0
LINE
  8
0
 62
     0
 10
284.94
 20
50.0172
 30
0.0
 11
283.414
 21
50.0172
 31
0.0
  0
LINE
  8
0
 62
     0
 10
283.414
 20
50.0172
 30
0.0
 11
283.414
 21
50.618
 31
0.0
  0
LINE
  8
0
 62
     0
 10
283.414
 20
50.618
 30
0.0
 11
284.215
 21
50.618
 31
0.0
  0
LINE
  8
0
 62
     0
 10
284.215
 20
50.618
 30
0.0
 11
284.215
 21
53.7175
 31
0.0
  0
LINE
  8
0
 62
     0
 10
284.215
 20
53.7175
 30
0.0
 11
283.414
 21
53.7175
 31
0.0
  0
LINE
  8
0
 62
     0
 10
283.414
 20
53.7175
 30
0.0
 11
283.414
 21
54.7176
 31
0.0
  0
LINE
  8
0
 62
     0
 10
283.414
 20
54.7176
 30
0.0
 11
269.415
 21
54.7176
 31
0.0
  0
LINE
  8
0
 62
     0
 10
9.76341
 20
54.7176
 30
0.0
 11
9.76341
 21
53.7175
 31
0.0
  0
LINE
  8
0
 62
     0
 10
9.76341
 20
53.7175
 30
0.0
 11
8.96278
 21
53.7175
 31
0.0
  0
LINE
  8
0
 62
     0
 10
8.96278
 20
53.7175
 30
0.0
 11
8.96278
 21
50.618
 31
0.0
  0
LINE
  8
0
 62
     0
 10
8.96278
 20
50.618
 30
0.0
 11
9.76341
 21
50.618
 31
0.0
  0
LINE
  8
0
 62
     0
 10
9.76341
 20
50.618
 30
0.0
 11
9.76341
 21
44.8179
 31
0.0
  0
LINE
  8
0
 62
     0
 10
9.76341
 20
44.8179
 30
0.0
 11
8.96278
 21
44.8179
 31
0.0
  0
LINE
  8
0
 62
     0
 10
8.96278
 20
44.8179
 30
0.0
 11
8.96278
 21
41.7174
 31
0.0
  0
LINE
  8
0
 62
     0
 10
8.96278
 20
41.7174
 30
0.0
 11
9.76341
 21
41.7174
 31
0.0
  0
LINE
  8
0
 62
     0
 10
9.76341
 20
41.7174
 30
0.0
 11
9.76341
 21
40.7183
 31
0.0
  0
LINE
  8
0
 62
     0
 10
9.76341
 20
40.7183
 30
0.0
 11
23.7629
 21
40.7183
 31
0.0
  0
LINE
  8
0
 62
     0
 10
23.7629
 20
40.7183
 30
0.0
 11
23.7629
 21
41.7174
 31
0.0
  0
LINE
  8
0
 62
     0
 10
23.7629
 20
41.7174
 30
0.0
 11
24.5622
 21
41.7174
 31
0.0
  0
LINE
  8
0
 62
     0
 10
24.5622
 20
41.7174
 30
0.0
 11
24.5622
 21
44.8179
 31
0.0
  0
LINE
  8
0
 62
     0
 10
24.5622
 20
44.8179
 30
0.0
 11
23.7629
 21
44.8179
 31
0.0
  0
LINE
  8
0
 62
     0
 10
23.7629
 20
44.8179
 30
0.0
 11
23.7629
 21
50.618
 31
0.0
  0
LINE
  8
0
 62
     0
 10
23.7629
 20
50.618
 30
0.0
 11
24.5622
 21
50.618
 31
0.0
  0
LINE
  8
0
 62
     0
 10
24.5622
 20
50.618
 30
0.0
 11
24.5622
 21
53.7175
 31
0.0
  0
LINE
  8
0
 62
     0
 10
24.5622
 20
53.7175
 30
0.0
 11
23.7629
 21
53.7175
 31
0.0
  0
LINE
  8
0
 62
     0
 10
23.7629
 20
53.7175
 30
0.0
 11
23.7629
 21
54.7176
 31
0.0
  0
LINE
  8
0
 62
     0
 10
23.7629
 20
54.7176
 30
0.0
 11
9.76341
 21
54.7176
 31
0.0
  0
LINE
  8
0
 62
     0
 10
36.9094
 20
54.7176
 30
0.0
 11
36.9094
 21
53.7175
 31
0.0
  0
LINE
  8
0
 62
     0
 10
36.9094
 20
53.7175
 30
0.0
 11
36.11
 21
53.7175
 31
0.0
  0
LINE
  8
0
 62
     0
 10
36.11
 20
53.7175
 30
0.0
 11
36.11
 21
50.618
 31
0.0
  0
LINE
  8
0
 62
     0
 10
36.11
 20
50.618
 30
0.0
 11
36.9094
 21
50.618
 31
0.0
  0
LINE
  8
0
 62
     0
 10
36.9094
 20
50.618
 30
0.0
 11
36.9094
 21
44.8179
 31
0.0
  0
LINE
  8
0
 62
     0
 10
36.9094
 20
44.8179
 30
0.0
 11
36.11
 21
44.8179
 31
0.0
  0
LINE
  8
0
 62
     0
 10
36.11
 20
44.8179
 30
0.0
 11
36.11
 21
41.7174
 31
0.0
  0
LINE
  8
0
 62
     0
 10
36.11
 20
41.7174
 30
0.0
 11
36.9094
 21
41.7174
 31
0.0
  0
LINE
  8
0
 62
     0
 10
36.9094
 20
41.7174
 30
0.0
 11
36.9094
 21
40.7183
 31
0.0
  0
LINE
  8
0
 62
     0
 10
36.9094
 20
40.7183
 30
0.0
 11
50.9104
 21
40.7183
 31
0.0
  0
LINE
  8
0
 62
     0
 10
50.9104
 20
40.7183
 30
0.0
 11
50.9104
 21
41.7174
 31
0.0
  0
LINE
  8
0
 62
     0
 10
50.9104
 20
41.7174
 30
0.0
 11
51.7081
 21
41.7174
 31
0.0
  0
LINE
  8
0
 62
     0
 10
51.7081
 20
41.7174
 30
0.0
 11
51.7081
 21
44.8179
 31
0.0
  0
LINE
  8
0
 62
     0
 10
51.7081
 20
44.8179
 30
0.0
 11
50.9104
 21
44.8179
 31
0.0
  0
LINE
  8
0
 62
     0
 10
50.9104
 20
44.8179
 30
0.0
 11
50.9104
 21
50.618
 31
0.0
  0
LINE
  8
0
 62
     0
 10
50.9104
 20
50.618
 30
0.0
 11
51.7081
 21
50.618
 31
0.0
  0
LINE
  8
0
 62
     0
 10
51.7081
 20
50.618
 30
0.0
 11
51.7081
 21
53.7175
 31
0.0
  0
LINE
  8
0
 62
     0
 10
51.7081
 20
53.7175
 30
0.0
 11
50.9104
 21
53.7175
 31
0.0
  0
LINE
  8
0
 62
     0
 10
50.9104
 20
53.7175
 30
0.0
 11
50.9104
 21
54.7176
 31
0.0
  0
LINE
  8
0
 62
     0
 10
50.9104
 20
54.7176
 30
0.0
 11
36.9094
 21
54.7176
 31
0.0
  0
LINE
  8
0
 62
     0
 10
56.9115
 20
54.7176
 30
0.0
 11
56.9115
 21
53.7175
 31
0.0
  0
LINE
  8
0
 62
     0
 10
56.9115
 20
53.7175
 30
0.0
 11
56.1125
 21
53.7175
 31
0.0
  0
LINE
  8
0
 62
     0
 10
56.1125
 20
53.7175
 30
0.0
 11
56.1125
 21
50.618
 31
0.0
  0
LINE
  8
0
 62
     0
 10
56.1125
 20
50.618
 30
0.0
 11
56.9115
 21
50.618
 31
0.0
  0
LINE
  8
0
 62
     0
 10
56.9115
 20
50.618
 30
0.0
 11
56.9115
 21
44.8179
 31
0.0
  0
LINE
  8
0
 62
     0
 10
56.9115
 20
44.8179
 30
0.0
 11
56.1125
 21
44.8179
 31
0.0
  0
LINE
  8
0
 62
     0
 10
56.1125
 20
44.8179
 30
0.0
 11
56.1125
 21
41.7174
 31
0.0
  0
LINE
  8
0
 62
     0
 10
56.1125
 20
41.7174
 30
0.0
 11
56.9115
 21
41.7174
 31
0.0
  0
LINE
  8
0
 62
     0
 10
56.9115
 20
41.7174
 30
0.0
 11
56.9115
 21
40.7183
 31
0.0
  0
LINE
  8
0
 62
     0
 10
56.9115
 20
40.7183
 30
0.0
 11
70.9112
 21
40.7183
 31
0.0
  0
LINE
  8
0
 62
     0
 10
70.9112
 20
40.7183
 30
0.0
 11
70.9112
 21
41.7174
 31
0.0
  0
LINE
  8
0
 62
     0
 10
70.9112
 20
41.7174
 30
0.0
 11
71.7116
 21
41.7174
 31
0.0
  0
LINE
  8
0
 62
     0
 10
71.7116
 20
41.7174
 30
0.0
 11
71.7116
 21
44.8179
 31
0.0
  0
LINE
  8
0
 62
     0
 10
71.7116
 20
44.8179
 30
0.0
 11
70.9112
 21
44.8179
 31
0.0
  0
LINE
  8
0
 62
     0
 10
70.9112
 20
44.8179
 30
0.0
 11
70.9112
 21
50.618
 31
0.0
  0
LINE
  8
0
 62
     0
 10
70.9112
 20
50.618
 30
0.0
 11
71.7116
 21
50.618
 31
0.0
  0
LINE
  8
0
 62
     0
 10
71.7116
 20
50.618
 30
0.0
 11
71.7116
 21
53.7175
 31
0.0
  0
LINE
  8
0
 62
     0
 10
71.7116
 20
53.7175
 30
0.0
 11
70.9112
 21
53.7175
 31
0.0
  0
LINE
  8
0
 62
     0
 10
70.9112
 20
53.7175
 30
0.0
 11
70.9112
 21
54.7176
 31
0.0
  0
LINE
  8
0
 62
     0
 10
70.9112
 20
54.7176
 30
0.0
 11
56.9115
 21
54.7176
 31
0.0
  0
LINE
  8
0
 62
     0
 10
76.9151
 20
54.7176
 30
0.0
 11
76.9151
 21
53.7175
 31
0.0
  0
LINE
  8
0
 62
     0
 10
76.9151
 20
53.7175
 30
0.0
 11
76.1146
 21
53.7175
 31
0.0
  0
LINE
  8
0
 62
     0
 10
76.1146
 20
53.7175
 30
0.0
 11
76.1146
 21
50.618
 31
0.0
  0
LINE
  8
0
 62
     0
 10
76.1146
 20
50.618
 30
0.0
 11
76.9151
 21
50.618
 31
0.0
  0
LINE
  8
0
 62
     0
 10
76.9151
 20
50.618
 30
0.0
 11
76.9151
 21
44.8179
 31
0.0
  0
LINE
  8
0
 62
     0
 10
76.9151
 20
44.8179
 30
0.0
 11
76.1146
 21
44.8179
 31
0.0
  0
LINE
  8
0
 62
     0
 10
76.1146
 20
44.8179
 30
0.0
 11
76.1146
 21
41.7174
 31
0.0
  0
LINE
  8
0
 62
     0
 10
76.1146
 20
41.7174
 30
0.0
 11
76.9151
 21
41.7174
 31
0.0
  0
LINE
  8
0
 62
     0
 10
76.9151
 20
41.7174
 30
0.0
 11
76.9151
 21
40.7183
 31
0.0
  0
LINE
  8
0
 62
     0
 10
76.9151
 20
40.7183
 30
0.0
 11
90.9147
 21
40.7183
 31
0.0
  0
LINE
  8
0
 62
     0
 10
90.9147
 20
40.7183
 30
0.0
 11
90.9147
 21
41.7174
 31
0.0
  0
LINE
  8
0
 62
     0
 10
90.9147
 20
41.7174
 30
0.0
 11
91.7141
 21
41.7174
 31
0.0
  0
LINE
  8
0
 62
     0
 10
91.7141
 20
41.7174
 30
0.0
 11
91.7141
 21
44.8179
 31
0.0
  0
LINE
  8
0
 62
     0
 10
91.7141
 20
44.8179
 30
0.0
 11
90.9147
 21
44.8179
 31
0.0
  0
LINE
  8
0
 62
     0
 10
90.9147
 20
44.8179
 30
0.0
 11
90.9147
 21
50.618
 31
0.0
  0
LINE
  8
0
 62
     0
 10
90.9147
 20
50.618
 30
0.0
 11
91.7141
 21
50.618
 31
0.0
  0
LINE
  8
0
 62
     0
 10
91.7141
 20
50.618
 30
0.0
 11
91.7141
 21
53.7175
 31
0.0
  0
LINE
  8
0
 62
     0
 10
91.7141
 20
53.7175
 30
0.0
 11
90.9147
 21
53.7175
 31
0.0
  0
LINE
  8
0
 62
     0
 10
90.9147
 20
53.7175
 30
0.0
 11
90.9147
 21
54.7176
 31
0.0
  0
LINE
  8
0
 62
     0
 10
90.9147
 20
54.7176
 30
0.0
 11
76.9151
 21
54.7176
 31
0.0
  0
LINE
  8
0
 62
     0
 10
96.9176
 20
54.7176
 30
0.0
 11
96.9176
 21
53.7175
 31
0.0
  0
LINE
  8
0
 62
     0
 10
96.9176
 20
53.7175
 30
0.0
 11
96.1168
 21
53.7175
 31
0.0
  0
LINE
  8
0
 62
     0
 10
96.1168
 20
53.7175
 30
0.0
 11
96.1168
 21
50.618
 31
0.0
  0
LINE
  8
0
 62
     0
 10
96.1168
 20
50.618
 30
0.0
 11
96.9176
 21
50.618
 31
0.0
  0
LINE
  8
0
 62
     0
 10
96.9176
 20
50.618
 30
0.0
 11
96.9176
 21
44.8179
 31
0.0
  0
LINE
  8
0
 62
     0
 10
96.9176
 20
44.8179
 30
0.0
 11
96.1168
 21
44.8179
 31
0.0
  0
LINE
  8
0
 62
     0
 10
96.1168
 20
44.8179
 30
0.0
 11
96.1168
 21
41.7174
 31
0.0
  0
LINE
  8
0
 62
     0
 10
96.1168
 20
41.7174
 30
0.0
 11
96.9176
 21
41.7174
 31
0.0
  0
LINE
  8
0
 62
     0
 10
96.9176
 20
41.7174
 30
0.0
 11
96.9176
 21
40.7183
 31
0.0
  0
LINE
  8
0
 62
     0
 10
96.9176
 20
40.7183
 30
0.0
 11
110.917
 21
40.7183
 31
0.0
  0
LINE
  8
0
 62
     0
 10
110.917
 20
40.7183
 30
0.0
 11
110.917
 21
41.7174
 31
0.0
  0
LINE
  8
0
 62
     0
 10
110.917
 20
41.7174
 30
0.0
 11
111.716
 21
41.7174
 31
0.0
  0
LINE
  8
0
 62
     0
 10
111.716
 20
41.7174
 30
0.0
 11
111.716
 21
44.8179
 31
0.0
  0
LINE
  8
0
 62
     0
 10
111.716
 20
44.8179
 30
0.0
 11
110.917
 21
44.8179
 31
0.0
  0
LINE
  8
0
 62
     0
 10
110.917
 20
44.8179
 30
0.0
 11
110.917
 21
50.618
 31
0.0
  0
LINE
  8
0
 62
     0
 10
110.917
 20
50.618
 30
0.0
 11
111.716
 21
50.618
 31
0.0
  0
LINE
  8
0
 62
     0
 10
111.716
 20
50.618
 30
0.0
 11
111.716
 21
53.7175
 31
0.0
  0
LINE
  8
0
 62
     0
 10
111.716
 20
53.7175
 30
0.0
 11
110.917
 21
53.7175
 31
0.0
  0
LINE
  8
0
 62
     0
 10
110.917
 20
53.7175
 30
0.0
 11
110.917
 21
54.7176
 31
0.0
  0
LINE
  8
0
 62
     0
 10
110.917
 20
54.7176
 30
0.0
 11
96.9176
 21
54.7176
 31
0.0
  0
LINE
  8
0
 62
     0
 10
116.918
 20
54.7176
 30
0.0
 11
116.918
 21
53.7175
 31
0.0
  0
LINE
  8
0
 62
     0
 10
116.918
 20
53.7175
 30
0.0
 11
116.119
 21
53.7175
 31
0.0
  0
LINE
  8
0
 62
     0
 10
116.119
 20
53.7175
 30
0.0
 11
116.119
 21
50.618
 31
0.0
  0
LINE
  8
0
 62
     0
 10
116.119
 20
50.618
 30
0.0
 11
116.918
 21
50.618
 31
0.0
  0
LINE
  8
0
 62
     0
 10
116.918
 20
50.618
 30
0.0
 11
116.918
 21
44.8179
 31
0.0
  0
LINE
  8
0
 62
     0
 10
116.918
 20
44.8179
 30
0.0
 11
116.119
 21
44.8179
 31
0.0
  0
LINE
  8
0
 62
     0
 10
116.119
 20
44.8179
 30
0.0
 11
116.119
 21
41.7174
 31
0.0
  0
LINE
  8
0
 62
     0
 10
116.119
 20
41.7174
 30
0.0
 11
116.918
 21
41.7174
 31
0.0
  0
LINE
  8
0
 62
     0
 10
116.918
 20
41.7174
 30
0.0
 11
116.918
 21
40.7183
 31
0.0
  0
LINE
  8
0
 62
     0
 10
116.918
 20
40.7183
 30
0.0
 11
130.919
 21
40.7183
 31
0.0
  0
LINE
  8
0
 62
     0
 10
130.919
 20
40.7183
 30
0.0
 11
130.919
 21
41.7174
 31
0.0
  0
LINE
  8
0
 62
     0
 10
130.919
 20
41.7174
 30
0.0
 11
131.72
 21
41.7174
 31
0.0
  0
LINE
  8
0
 62
     0
 10
131.72
 20
41.7174
 30
0.0
 11
131.72
 21
44.8179
 31
0.0
  0
LINE
  8
0
 62
     0
 10
131.72
 20
44.8179
 30
0.0
 11
130.919
 21
44.8179
 31
0.0
  0
LINE
  8
0
 62
     0
 10
130.919
 20
44.8179
 30
0.0
 11
130.919
 21
50.618
 31
0.0
  0
LINE
  8
0
 62
     0
 10
130.919
 20
50.618
 30
0.0
 11
131.72
 21
50.618
 31
0.0
  0
LINE
  8
0
 62
     0
 10
131.72
 20
50.618
 30
0.0
 11
131.72
 21
53.7175
 31
0.0
  0
LINE
  8
0
 62
     0
 10
131.72
 20
53.7175
 30
0.0
 11
130.919
 21
53.7175
 31
0.0
  0
LINE
  8
0
 62
     0
 10
130.919
 20
53.7175
 30
0.0
 11
130.919
 21
54.7176
 31
0.0
  0
LINE
  8
0
 62
     0
 10
130.919
 20
54.7176
 30
0.0
 11
116.918
 21
54.7176
 31
0.0
  0
LINE
  8
0
 62
     0
 10
136.922
 20
54.7176
 30
0.0
 11
136.922
 21
53.7175
 31
0.0
  0
LINE
  8
0
 62
     0
 10
136.922
 20
53.7175
 30
0.0
 11
136.121
 21
53.7175
 31
0.0
  0
LINE
  8
0
 62
     0
 10
136.121
 20
53.7175
 30
0.0
 11
136.121
 21
50.618
 31
0.0
  0
LINE
  8
0
 62
     0
 10
136.121
 20
50.618
 30
0.0
 11
136.922
 21
50.618
 31
0.0
  0
LINE
  8
0
 62
     0
 10
136.922
 20
50.618
 30
0.0
 11
136.922
 21
44.8179
 31
0.0
  0
LINE
  8
0
 62
     0
 10
136.922
 20
44.8179
 30
0.0
 11
136.121
 21
44.8179
 31
0.0
  0
LINE
  8
0
 62
     0
 10
136.121
 20
44.8179
 30
0.0
 11
136.121
 21
41.7174
 31
0.0
  0
LINE
  8
0
 62
     0
 10
136.121
 20
41.7174
 30
0.0
 11
136.922
 21
41.7174
 31
0.0
  0
LINE
  8
0
 62
     0
 10
136.922
 20
41.7174
 30
0.0
 11
136.922
 21
40.7183
 31
0.0
  0
LINE
  8
0
 62
     0
 10
136.922
 20
40.7183
 30
0.0
 11
150.922
 21
40.7183
 31
0.0
  0
LINE
  8
0
 62
     0
 10
150.922
 20
40.7183
 30
0.0
 11
150.922
 21
41.7174
 31
0.0
  0
LINE
  8
0
 62
     0
 10
150.922
 20
41.7174
 30
0.0
 11
151.722
 21
41.7174
 31
0.0
  0
LINE
  8
0
 62
     0
 10
151.722
 20
41.7174
 30
0.0
 11
151.722
 21
44.8179
 31
0.0
  0
LINE
  8
0
 62
     0
 10
151.722
 20
44.8179
 30
0.0
 11
150.922
 21
44.8179
 31
0.0
  0
LINE
  8
0
 62
     0
 10
150.922
 20
44.8179
 30
0.0
 11
150.922
 21
50.618
 31
0.0
  0
LINE
  8
0
 62
     0
 10
150.922
 20
50.618
 30
0.0
 11
151.722
 21
50.618
 31
0.0
  0
LINE
  8
0
 62
     0
 10
151.722
 20
50.618
 30
0.0
 11
151.722
 21
53.7175
 31
0.0
  0
LINE
  8
0
 62
     0
 10
151.722
 20
53.7175
 30
0.0
 11
150.922
 21
53.7175
 31
0.0
  0
LINE
  8
0
 62
     0
 10
150.922
 20
53.7175
 30
0.0
 11
150.922
 21
54.7176
 31
0.0
  0
LINE
  8
0
 62
     0
 10
150.922
 20
54.7176
 30
0.0
 11
136.922
 21
54.7176
 31
0.0
  0
LINE
  8
0
 62
     0
 10
156.924
 20
54.7176
 30
0.0
 11
156.924
 21
53.7175
 31
0.0
  0
LINE
  8
0
 62
     0
 10
156.924
 20
53.7175
 30
0.0
 11
156.124
 21
53.7175
 31
0.0
  0
LINE
  8
0
 62
     0
 10
156.124
 20
53.7175
 30
0.0
 11
156.124
 21
50.618
 31
0.0
  0
LINE
  8
0
 62
     0
 10
156.124
 20
50.618
 30
0.0
 11
156.924
 21
50.618
 31
0.0
  0
LINE
  8
0
 62
     0
 10
156.924
 20
50.618
 30
0.0
 11
156.924
 21
44.8179
 31
0.0
  0
LINE
  8
0
 62
     0
 10
156.924
 20
44.8179
 30
0.0
 11
156.124
 21
44.8179
 31
0.0
  0
LINE
  8
0
 62
     0
 10
156.124
 20
44.8179
 30
0.0
 11
156.124
 21
41.7174
 31
0.0
  0
LINE
  8
0
 62
     0
 10
156.124
 20
41.7174
 30
0.0
 11
156.924
 21
41.7174
 31
0.0
  0
LINE
  8
0
 62
     0
 10
156.924
 20
41.7174
 30
0.0
 11
156.924
 21
40.7183
 31
0.0
  0
LINE
  8
0
 62
     0
 10
156.924
 20
40.7183
 30
0.0
 11
170.924
 21
40.7183
 31
0.0
  0
LINE
  8
0
 62
     0
 10
170.924
 20
40.7183
 30
0.0
 11
170.924
 21
41.7174
 31
0.0
  0
LINE
  8
0
 62
     0
 10
170.924
 20
41.7174
 30
0.0
 11
171.724
 21
41.7174
 31
0.0
  0
LINE
  8
0
 62
     0
 10
171.724
 20
41.7174
 30
0.0
 11
171.724
 21
44.8179
 31
0.0
  0
LINE
  8
0
 62
     0
 10
171.724
 20
44.8179
 30
0.0
 11
170.924
 21
44.8179
 31
0.0
  0
LINE
  8
0
 62
     0
 10
170.924
 20
44.8179
 30
0.0
 11
170.924
 21
50.618
 31
0.0
  0
LINE
  8
0
 62
     0
 10
170.924
 20
50.618
 30
0.0
 11
171.724
 21
50.618
 31
0.0
  0
LINE
  8
0
 62
     0
 10
171.724
 20
50.618
 30
0.0
 11
171.724
 21
53.7175
 31
0.0
  0
LINE
  8
0
 62
     0
 10
171.724
 20
53.7175
 30
0.0
 11
170.924
 21
53.7175
 31
0.0
  0
LINE
  8
0
 62
     0
 10
170.924
 20
53.7175
 30
0.0
 11
170.924
 21
54.7176
 31
0.0
  0
LINE
  8
0
 62
     0
 10
170.924
 20
54.7176
 30
0.0
 11
156.924
 21
54.7176
 31
0.0
  0
LINE
  8
0
 62
     0
 10
176.926
 20
54.7176
 30
0.0
 11
176.926
 21
53.7175
 31
0.0
  0
LINE
  8
0
 62
     0
 10
176.926
 20
53.7175
 30
0.0
 11
176.127
 21
53.7175
 31
0.0
  0
LINE
  8
0
 62
     0
 10
176.127
 20
53.7175
 30
0.0
 11
176.127
 21
50.618
 31
0.0
  0
LINE
  8
0
 62
     0
 10
176.127
 20
50.618
 30
0.0
 11
176.926
 21
50.618
 31
0.0
  0
LINE
  8
0
 62
     0
 10
176.926
 20
50.618
 30
0.0
 11
176.926
 21
44.8179
 31
0.0
  0
LINE
  8
0
 62
     0
 10
176.926
 20
44.8179
 30
0.0
 11
176.127
 21
44.8179
 31
0.0
  0
LINE
  8
0
 62
     0
 10
176.127
 20
44.8179
 30
0.0
 11
176.127
 21
41.7174
 31
0.0
  0
LINE
  8
0
 62
     0
 10
176.127
 20
41.7174
 30
0.0
 11
176.926
 21
41.7174
 31
0.0
  0
LINE
  8
0
 62
     0
 10
176.926
 20
41.7174
 30
0.0
 11
176.926
 21
40.7183
 31
0.0
  0
LINE
  8
0
 62
     0
 10
176.926
 20
40.7183
 30
0.0
 11
190.927
 21
40.7183
 31
0.0
  0
LINE
  8
0
 62
     0
 10
190.927
 20
40.7183
 30
0.0
 11
190.927
 21
41.7174
 31
0.0
  0
LINE
  8
0
 62
     0
 10
190.927
 20
41.7174
 30
0.0
 11
191.727
 21
41.7174
 31
0.0
  0
LINE
  8
0
 62
     0
 10
191.727
 20
41.7174
 30
0.0
 11
191.727
 21
44.8179
 31
0.0
  0
LINE
  8
0
 62
     0
 10
191.727
 20
44.8179
 30
0.0
 11
190.927
 21
44.8179
 31
0.0
  0
LINE
  8
0
 62
     0
 10
190.927
 20
44.8179
 30
0.0
 11
190.927
 21
50.618
 31
0.0
  0
LINE
  8
0
 62
     0
 10
190.927
 20
50.618
 30
0.0
 11
191.727
 21
50.618
 31
0.0
  0
LINE
  8
0
 62
     0
 10
191.727
 20
50.618
 30
0.0
 11
191.727
 21
53.7175
 31
0.0
  0
LINE
  8
0
 62
     0
 10
191.727
 20
53.7175
 30
0.0
 11
190.927
 21
53.7175
 31
0.0
  0
LINE
  8
0
 62
     0
 10
190.927
 20
53.7175
 30
0.0
 11
190.927
 21
54.7176
 31
0.0
  0
LINE
  8
0
 62
     0
 10
190.927
 20
54.7176
 30
0.0
 11
176.926
 21
54.7176
 31
0.0
  0
LINE
  8
0
 62
     0
 10
196.929
 20
54.7176
 30
0.0
 11
196.929
 21
53.7175
 31
0.0
  0
LINE
  8
0
 62
     0
 10
196.929
 20
53.7175
 30
0.0
 11
196.129
 21
53.7175
 31
0.0
  0
LINE
  8
0
 62
     0
 10
196.129
 20
53.7175
 30
0.0
 11
196.129
 21
50.618
 31
0.0
  0
LINE
  8
0
 62
     0
 10
196.129
 20
50.618
 30
0.0
 11
196.929
 21
50.618
 31
0.0
  0
LINE
  8
0
 62
     0
 10
196.929
 20
50.618
 30
0.0
 11
196.929
 21
44.8179
 31
0.0
  0
LINE
  8
0
 62
     0
 10
196.929
 20
44.8179
 30
0.0
 11
196.129
 21
44.8179
 31
0.0
  0
LINE
  8
0
 62
     0
 10
196.129
 20
44.8179
 30
0.0
 11
196.129
 21
41.7174
 31
0.0
  0
LINE
  8
0
 62
     0
 10
196.129
 20
41.7174
 30
0.0
 11
196.929
 21
41.7174
 31
0.0
  0
LINE
  8
0
 62
     0
 10
196.929
 20
41.7174
 30
0.0
 11
196.929
 21
40.7183
 31
0.0
  0
LINE
  8
0
 62
     0
 10
196.929
 20
40.7183
 30
0.0
 11
210.929
 21
40.7183
 31
0.0
  0
LINE
  8
0
 62
     0
 10
210.929
 20
40.7183
 30
0.0
 11
210.929
 21
41.7174
 31
0.0
  0
LINE
  8
0
 62
     0
 10
210.929
 20
41.7174
 30
0.0
 11
211.73
 21
41.7174
 31
0.0
  0
LINE
  8
0
 62
     0
 10
211.73
 20
41.7174
 30
0.0
 11
211.73
 21
44.8179
 31
0.0
  0
LINE
  8
0
 62
     0
 10
211.73
 20
44.8179
 30
0.0
 11
210.929
 21
44.8179
 31
0.0
  0
LINE
  8
0
 62
     0
 10
210.929
 20
44.8179
 30
0.0
 11
210.929
 21
50.618
 31
0.0
  0
LINE
  8
0
 62
     0
 10
210.929
 20
50.618
 30
0.0
 11
211.73
 21
50.618
 31
0.0
  0
LINE
  8
0
 62
     0
 10
211.73
 20
50.618
 30
0.0
 11
211.73
 21
53.7175
 31
0.0
  0
LINE
  8
0
 62
     0
 10
211.73
 20
53.7175
 30
0.0
 11
210.929
 21
53.7175
 31
0.0
  0
LINE
  8
0
 62
     0
 10
210.929
 20
53.7175
 30
0.0
 11
210.929
 21
54.7176
 31
0.0
  0
LINE
  8
0
 62
     0
 10
210.929
 20
54.7176
 30
0.0
 11
196.929
 21
54.7176
 31
0.0
  0
LINE
  8
0
 62
     0
 10
217.122
 20
54.7176
 30
0.0
 11
217.122
 21
53.7175
 31
0.0
  0
LINE
  8
0
 62
     0
 10
217.122
 20
53.7175
 30
0.0
 11
216.322
 21
53.7175
 31
0.0
  0
LINE
  8
0
 62
     0
 10
216.322
 20
53.7175
 30
0.0
 11
216.322
 21
50.618
 31
0.0
  0
LINE
  8
0
 62
     0
 10
216.322
 20
50.618
 30
0.0
 11
217.122
 21
50.618
 31
0.0
  0
LINE
  8
0
 62
     0
 10
217.122
 20
50.618
 30
0.0
 11
217.122
 21
44.8179
 31
0.0
  0
LINE
  8
0
 62
     0
 10
217.122
 20
44.8179
 30
0.0
 11
216.322
 21
44.8179
 31
0.0
  0
LINE
  8
0
 62
     0
 10
216.322
 20
44.8179
 30
0.0
 11
216.322
 21
41.7174
 31
0.0
  0
LINE
  8
0
 62
     0
 10
216.322
 20
41.7174
 30
0.0
 11
217.122
 21
41.7174
 31
0.0
  0
LINE
  8
0
 62
     0
 10
217.122
 20
41.7174
 30
0.0
 11
217.122
 21
40.7183
 31
0.0
  0
LINE
  8
0
 62
     0
 10
217.122
 20
40.7183
 30
0.0
 11
231.123
 21
40.7183
 31
0.0
  0
LINE
  8
0
 62
     0
 10
231.123
 20
40.7183
 30
0.0
 11
231.123
 21
41.7174
 31
0.0
  0
LINE
  8
0
 62
     0
 10
231.123
 20
41.7174
 30
0.0
 11
231.922
 21
41.7174
 31
0.0
  0
LINE
  8
0
 62
     0
 10
231.922
 20
41.7174
 30
0.0
 11
231.922
 21
44.8179
 31
0.0
  0
LINE
  8
0
 62
     0
 10
231.922
 20
44.8179
 30
0.0
 11
231.123
 21
44.8179
 31
0.0
  0
LINE
  8
0
 62
     0
 10
231.123
 20
44.8179
 30
0.0
 11
231.123
 21
50.618
 31
0.0
  0
LINE
  8
0
 62
     0
 10
231.123
 20
50.618
 30
0.0
 11
231.922
 21
50.618
 31
0.0
  0
LINE
  8
0
 62
     0
 10
231.922
 20
50.618
 30
0.0
 11
231.922
 21
53.7175
 31
0.0
  0
LINE
  8
0
 62
     0
 10
231.922
 20
53.7175
 30
0.0
 11
231.123
 21
53.7175
 31
0.0
  0
LINE
  8
0
 62
     0
 10
231.123
 20
53.7175
 30
0.0
 11
231.123
 21
54.7176
 31
0.0
  0
LINE
  8
0
 62
     0
 10
231.123
 20
54.7176
 30
0.0
 11
217.122
 21
54.7176
 31
0.0
  0
LINE
  8
0
 62
     0
 10
237.316
 20
54.7176
 30
0.0
 11
237.316
 21
53.7175
 31
0.0
  0
LINE
  8
0
 62
     0
 10
237.316
 20
53.7175
 30
0.0
 11
236.516
 21
53.7175
 31
0.0
  0
LINE
  8
0
 62
     0
 10
236.516
 20
53.7175
 30
0.0
 11
236.516
 21
50.618
 31
0.0
  0
LINE
  8
0
 62
     0
 10
236.516
 20
50.618
 30
0.0
 11
237.316
 21
50.618
 31
0.0
  0
LINE
  8
0
 62
     0
 10
237.316
 20
50.618
 30
0.0
 11
237.316
 21
44.8179
 31
0.0
  0
LINE
  8
0
 62
     0
 10
237.316
 20
44.8179
 30
0.0
 11
236.516
 21
44.8179
 31
0.0
  0
LINE
  8
0
 62
     0
 10
236.516
 20
44.8179
 30
0.0
 11
236.516
 21
41.7174
 31
0.0
  0
LINE
  8
0
 62
     0
 10
236.516
 20
41.7174
 30
0.0
 11
237.316
 21
41.7174
 31
0.0
  0
LINE
  8
0
 62
     0
 10
237.316
 20
41.7174
 30
0.0
 11
237.316
 21
40.7183
 31
0.0
  0
LINE
  8
0
 62
     0
 10
237.316
 20
40.7183
 30
0.0
 11
251.316
 21
40.7183
 31
0.0
  0
LINE
  8
0
 62
     0
 10
251.316
 20
40.7183
 30
0.0
 11
251.316
 21
41.7174
 31
0.0
  0
LINE
  8
0
 62
     0
 10
251.316
 20
41.7174
 30
0.0
 11
252.116
 21
41.7174
 31
0.0
  0
LINE
  8
0
 62
     0
 10
252.116
 20
41.7174
 30
0.0
 11
252.116
 21
44.8179
 31
0.0
  0
LINE
  8
0
 62
     0
 10
252.116
 20
44.8179
 30
0.0
 11
251.316
 21
44.8179
 31
0.0
  0
LINE
  8
0
 62
     0
 10
251.316
 20
44.8179
 30
0.0
 11
251.316
 21
50.618
 31
0.0
  0
LINE
  8
0
 62
     0
 10
251.316
 20
50.618
 30
0.0
 11
252.116
 21
50.618
 31
0.0
  0
LINE
  8
0
 62
     0
 10
252.116
 20
50.618
 30
0.0
 11
252.116
 21
53.7175
 31
0.0
  0
LINE
  8
0
 62
     0
 10
252.116
 20
53.7175
 30
0.0
 11
251.316
 21
53.7175
 31
0.0
  0
LINE
  8
0
 62
     0
 10
251.316
 20
53.7175
 30
0.0
 11
251.316
 21
54.7176
 31
0.0
  0
LINE
  8
0
 62
     0
 10
251.316
 20
54.7176
 30
0.0
 11
237.316
 21
54.7176
 31
0.0
  0
LINE
  8
0
 62
     0
 10
7.38216
 20
73.7676
 30
0.0
 11
7.38216
 21
72.7675
 31
0.0
  0
LINE
  8
0
 62
     0
 10
7.38216
 20
72.7675
 30
0.0
 11
6.58153
 21
72.7675
 31
0.0
  0
LINE
  8
0
 62
     0
 10
6.58153
 20
72.7675
 30
0.0
 11
6.58153
 21
69.668
 31
0.0
  0
LINE
  8
0
 62
     0
 10
6.58153
 20
69.668
 30
0.0
 11
7.38216
 21
69.668
 31
0.0
  0
LINE
  8
0
 62
     0
 10
7.38216
 20
69.668
 30
0.0
 11
7.38216
 21
63.8679
 31
0.0
  0
LINE
  8
0
 62
     0
 10
7.38216
 20
63.8679
 30
0.0
 11
6.58153
 21
63.8679
 31
0.0
  0
LINE
  8
0
 62
     0
 10
6.58153
 20
63.8679
 30
0.0
 11
6.58153
 21
60.7674
 31
0.0
  0
LINE
  8
0
 62
     0
 10
6.58153
 20
60.7674
 30
0.0
 11
7.38216
 21
60.7674
 31
0.0
  0
LINE
  8
0
 62
     0
 10
7.38216
 20
60.7674
 30
0.0
 11
7.38216
 21
59.7683
 31
0.0
  0
LINE
  8
0
 62
     0
 10
7.38216
 20
59.7683
 30
0.0
 11
21.3817
 21
59.7683
 31
0.0
  0
LINE
  8
0
 62
     0
 10
21.3817
 20
59.7683
 30
0.0
 11
21.3817
 21
60.7674
 31
0.0
  0
LINE
  8
0
 62
     0
 10
21.3817
 20
60.7674
 30
0.0
 11
22.1823
 21
60.7674
 31
0.0
  0
LINE
  8
0
 62
     0
 10
22.1823
 20
60.7674
 30
0.0
 11
22.1823
 21
63.8679
 31
0.0
  0
LINE
  8
0
 62
     0
 10
22.1823
 20
63.8679
 30
0.0
 11
21.3817
 21
63.8679
 31
0.0
  0
LINE
  8
0
 62
     0
 10
21.3817
 20
63.8679
 30
0.0
 11
21.3817
 21
69.668
 31
0.0
  0
LINE
  8
0
 62
     0
 10
21.3817
 20
69.668
 30
0.0
 11
22.1823
 21
69.668
 31
0.0
  0
LINE
  8
0
 62
     0
 10
22.1823
 20
69.668
 30
0.0
 11
22.1823
 21
72.7675
 31
0.0
  0
LINE
  8
0
 62
     0
 10
22.1823
 20
72.7675
 30
0.0
 11
21.3817
 21
72.7675
 31
0.0
  0
LINE
  8
0
 62
     0
 10
21.3817
 20
72.7675
 30
0.0
 11
21.3817
 21
73.7676
 31
0.0
  0
LINE
  8
0
 62
     0
 10
21.3817
 20
73.7676
 30
0.0
 11
7.38216
 21
73.7676
 31
0.0
  0
LINE
  8
0
 62
     0
 10
32.1469
 20
73.7676
 30
0.0
 11
32.1469
 21
72.7675
 31
0.0
  0
LINE
  8
0
 62
     0
 10
32.1469
 20
72.7675
 30
0.0
 11
31.3462
 21
72.7675
 31
0.0
  0
LINE
  8
0
 62
     0
 10
31.3462
 20
72.7675
 30
0.0
 11
31.3462
 21
69.668
 31
0.0
  0
LINE
  8
0
 62
     0
 10
31.3462
 20
69.668
 30
0.0
 11
32.1469
 21
69.668
 31
0.0
  0
LINE
  8
0
 62
     0
 10
32.1469
 20
69.668
 30
0.0
 11
32.1469
 21
63.8679
 31
0.0
  0
LINE
  8
0
 62
     0
 10
32.1469
 20
63.8679
 30
0.0
 11
31.3462
 21
63.8679
 31
0.0
  0
LINE
  8
0
 62
     0
 10
31.3462
 20
63.8679
 30
0.0
 11
31.3462
 21
60.7674
 31
0.0
  0
LINE
  8
0
 62
     0
 10
31.3462
 20
60.7674
 30
0.0
 11
32.1469
 21
60.7674
 31
0.0
  0
LINE
  8
0
 62
     0
 10
32.1469
 20
60.7674
 30
0.0
 11
32.1469
 21
59.7683
 31
0.0
  0
LINE
  8
0
 62
     0
 10
32.1469
 20
59.7683
 30
0.0
 11
46.1465
 21
59.7683
 31
0.0
  0
LINE
  8
0
 62
     0
 10
46.1465
 20
59.7683
 30
0.0
 11
46.1465
 21
60.7674
 31
0.0
  0
LINE
  8
0
 62
     0
 10
46.1465
 20
60.7674
 30
0.0
 11
46.947
 21
60.7674
 31
0.0
  0
LINE
  8
0
 62
     0
 10
46.947
 20
60.7674
 30
0.0
 11
46.947
 21
63.8679
 31
0.0
  0
LINE
  8
0
 62
     0
 10
46.947
 20
63.8679
 30
0.0
 11
46.1465
 21
63.8679
 31
0.0
  0
LINE
  8
0
 62
     0
 10
46.1465
 20
63.8679
 30
0.0
 11
46.1465
 21
69.668
 31
0.0
  0
LINE
  8
0
 62
     0
 10
46.1465
 20
69.668
 30
0.0
 11
46.947
 21
69.668
 31
0.0
  0
LINE
  8
0
 62
     0
 10
46.947
 20
69.668
 30
0.0
 11
46.947
 21
72.7675
 31
0.0
  0
LINE
  8
0
 62
     0
 10
46.947
 20
72.7675
 30
0.0
 11
46.1465
 21
72.7675
 31
0.0
  0
LINE
  8
0
 62
     0
 10
46.1465
 20
72.7675
 30
0.0
 11
46.1465
 21
73.7676
 31
0.0
  0
LINE
  8
0
 62
     0
 10
46.1465
 20
73.7676
 30
0.0
 11
32.1469
 21
73.7676
 31
0.0
  0
LINE
  8
0
 62
     0
 10
52.149
 20
73.7676
 30
0.0
 11
52.149
 21
72.7675
 31
0.0
  0
LINE
  8
0
 62
     0
 10
52.149
 20
72.7675
 30
0.0
 11
51.35
 21
72.7675
 31
0.0
  0
LINE
  8
0
 62
     0
 10
51.35
 20
72.7675
 30
0.0
 11
51.35
 21
69.668
 31
0.0
  0
LINE
  8
0
 62
     0
 10
51.35
 20
69.668
 30
0.0
 11
52.149
 21
69.668
 31
0.0
  0
LINE
  8
0
 62
     0
 10
52.149
 20
69.668
 30
0.0
 11
52.149
 21
63.8679
 31
0.0
  0
LINE
  8
0
 62
     0
 10
52.149
 20
63.8679
 30
0.0
 11
51.35
 21
63.8679
 31
0.0
  0
LINE
  8
0
 62
     0
 10
51.35
 20
63.8679
 30
0.0
 11
51.35
 21
60.7674
 31
0.0
  0
LINE
  8
0
 62
     0
 10
51.35
 20
60.7674
 30
0.0
 11
52.149
 21
60.7674
 31
0.0
  0
LINE
  8
0
 62
     0
 10
52.149
 20
60.7674
 30
0.0
 11
52.149
 21
59.7683
 31
0.0
  0
LINE
  8
0
 62
     0
 10
52.149
 20
59.7683
 30
0.0
 11
66.1501
 21
59.7683
 31
0.0
  0
LINE
  8
0
 62
     0
 10
66.1501
 20
59.7683
 30
0.0
 11
66.1501
 21
60.7674
 31
0.0
  0
LINE
  8
0
 62
     0
 10
66.1501
 20
60.7674
 30
0.0
 11
66.9491
 21
60.7674
 31
0.0
  0
LINE
  8
0
 62
     0
 10
66.9491
 20
60.7674
 30
0.0
 11
66.9491
 21
63.8679
 31
0.0
  0
LINE
  8
0
 62
     0
 10
66.9491
 20
63.8679
 30
0.0
 11
66.1501
 21
63.8679
 31
0.0
  0
LINE
  8
0
 62
     0
 10
66.1501
 20
63.8679
 30
0.0
 11
66.1501
 21
69.668
 31
0.0
  0
LINE
  8
0
 62
     0
 10
66.1501
 20
69.668
 30
0.0
 11
66.9491
 21
69.668
 31
0.0
  0
LINE
  8
0
 62
     0
 10
66.9491
 20
69.668
 30
0.0
 11
66.9491
 21
72.7675
 31
0.0
  0
LINE
  8
0
 62
     0
 10
66.9491
 20
72.7675
 30
0.0
 11
66.1501
 21
72.7675
 31
0.0
  0
LINE
  8
0
 62
     0
 10
66.1501
 20
72.7675
 30
0.0
 11
66.1501
 21
73.7676
 31
0.0
  0
LINE
  8
0
 62
     0
 10
66.1501
 20
73.7676
 30
0.0
 11
52.149
 21
73.7676
 31
0.0
  0
LINE
  8
0
 62
     0
 10
72.1512
 20
73.7676
 30
0.0
 11
72.1512
 21
72.7675
 31
0.0
  0
LINE
  8
0
 62
     0
 10
72.1512
 20
72.7675
 30
0.0
 11
71.3521
 21
72.7675
 31
0.0
  0
LINE
  8
0
 62
     0
 10
71.3521
 20
72.7675
 30
0.0
 11
71.3521
 21
69.668
 31
0.0
  0
LINE
  8
0
 62
     0
 10
71.3521
 20
69.668
 30
0.0
 11
72.1512
 21
69.668
 31
0.0
  0
LINE
  8
0
 62
     0
 10
72.1512
 20
69.668
 30
0.0
 11
72.1512
 21
63.8679
 31
0.0
  0
LINE
  8
0
 62
     0
 10
72.1512
 20
63.8679
 30
0.0
 11
71.3521
 21
63.8679
 31
0.0
  0
LINE
  8
0
 62
     0
 10
71.3521
 20
63.8679
 30
0.0
 11
71.3521
 21
60.7674
 31
0.0
  0
LINE
  8
0
 62
     0
 10
71.3521
 20
60.7674
 30
0.0
 11
72.1512
 21
60.7674
 31
0.0
  0
LINE
  8
0
 62
     0
 10
72.1512
 20
60.7674
 30
0.0
 11
72.1512
 21
59.7683
 31
0.0
  0
LINE
  8
0
 62
     0
 10
72.1512
 20
59.7683
 30
0.0
 11
86.1522
 21
59.7683
 31
0.0
  0
LINE
  8
0
 62
     0
 10
86.1522
 20
59.7683
 30
0.0
 11
86.1522
 21
60.7674
 31
0.0
  0
LINE
  8
0
 62
     0
 10
86.1522
 20
60.7674
 30
0.0
 11
86.9516
 21
60.7674
 31
0.0
  0
LINE
  8
0
 62
     0
 10
86.9516
 20
60.7674
 30
0.0
 11
86.9516
 21
63.8679
 31
0.0
  0
LINE
  8
0
 62
     0
 10
86.9516
 20
63.8679
 30
0.0
 11
86.1522
 21
63.8679
 31
0.0
  0
LINE
  8
0
 62
     0
 10
86.1522
 20
63.8679
 30
0.0
 11
86.1522
 21
69.668
 31
0.0
  0
LINE
  8
0
 62
     0
 10
86.1522
 20
69.668
 30
0.0
 11
86.9516
 21
69.668
 31
0.0
  0
LINE
  8
0
 62
     0
 10
86.9516
 20
69.668
 30
0.0
 11
86.9516
 21
72.7675
 31
0.0
  0
LINE
  8
0
 62
     0
 10
86.9516
 20
72.7675
 30
0.0
 11
86.1522
 21
72.7675
 31
0.0
  0
LINE
  8
0
 62
     0
 10
86.1522
 20
72.7675
 30
0.0
 11
86.1522
 21
73.7676
 31
0.0
  0
LINE
  8
0
 62
     0
 10
86.1522
 20
73.7676
 30
0.0
 11
72.1512
 21
73.7676
 31
0.0
  0
LINE
  8
0
 62
     0
 10
92.1551
 20
73.7676
 30
0.0
 11
92.1551
 21
72.7675
 31
0.0
  0
LINE
  8
0
 62
     0
 10
92.1551
 20
72.7675
 30
0.0
 11
91.3543
 21
72.7675
 31
0.0
  0
LINE
  8
0
 62
     0
 10
91.3543
 20
72.7675
 30
0.0
 11
91.3543
 21
69.668
 31
0.0
  0
LINE
  8
0
 62
     0
 10
91.3543
 20
69.668
 30
0.0
 11
92.1551
 21
69.668
 31
0.0
  0
LINE
  8
0
 62
     0
 10
92.1551
 20
69.668
 30
0.0
 11
92.1551
 21
63.8679
 31
0.0
  0
LINE
  8
0
 62
     0
 10
92.1551
 20
63.8679
 30
0.0
 11
91.3543
 21
63.8679
 31
0.0
  0
LINE
  8
0
 62
     0
 10
91.3543
 20
63.8679
 30
0.0
 11
91.3543
 21
60.7674
 31
0.0
  0
LINE
  8
0
 62
     0
 10
91.3543
 20
60.7674
 30
0.0
 11
92.1551
 21
60.7674
 31
0.0
  0
LINE
  8
0
 62
     0
 10
92.1551
 20
60.7674
 30
0.0
 11
92.1551
 21
59.7683
 31
0.0
  0
LINE
  8
0
 62
     0
 10
92.1551
 20
59.7683
 30
0.0
 11
106.154
 21
59.7683
 31
0.0
  0
LINE
  8
0
 62
     0
 10
106.154
 20
59.7683
 30
0.0
 11
106.154
 21
60.7674
 31
0.0
  0
LINE
  8
0
 62
     0
 10
106.154
 20
60.7674
 30
0.0
 11
106.955
 21
60.7674
 31
0.0
  0
LINE
  8
0
 62
     0
 10
106.955
 20
60.7674
 30
0.0
 11
106.955
 21
63.8679
 31
0.0
  0
LINE
  8
0
 62
     0
 10
106.955
 20
63.8679
 30
0.0
 11
106.154
 21
63.8679
 31
0.0
  0
LINE
  8
0
 62
     0
 10
106.154
 20
63.8679
 30
0.0
 11
106.154
 21
69.668
 31
0.0
  0
LINE
  8
0
 62
     0
 10
106.154
 20
69.668
 30
0.0
 11
106.955
 21
69.668
 31
0.0
  0
LINE
  8
0
 62
     0
 10
106.955
 20
69.668
 30
0.0
 11
106.955
 21
72.7675
 31
0.0
  0
LINE
  8
0
 62
     0
 10
106.955
 20
72.7675
 30
0.0
 11
106.154
 21
72.7675
 31
0.0
  0
LINE
  8
0
 62
     0
 10
106.154
 20
72.7675
 30
0.0
 11
106.154
 21
73.7676
 31
0.0
  0
LINE
  8
0
 62
     0
 10
106.154
 20
73.7676
 30
0.0
 11
92.1551
 21
73.7676
 31
0.0
  0
LINE
  8
0
 62
     0
 10
112.157
 20
73.7676
 30
0.0
 11
112.157
 21
72.7675
 31
0.0
  0
LINE
  8
0
 62
     0
 10
112.157
 20
72.7675
 30
0.0
 11
111.356
 21
72.7675
 31
0.0
  0
LINE
  8
0
 62
     0
 10
111.356
 20
72.7675
 30
0.0
 11
111.356
 21
69.668
 31
0.0
  0
LINE
  8
0
 62
     0
 10
111.356
 20
69.668
 30
0.0
 11
112.157
 21
69.668
 31
0.0
  0
LINE
  8
0
 62
     0
 10
112.157
 20
69.668
 30
0.0
 11
112.157
 21
63.8679
 31
0.0
  0
LINE
  8
0
 62
     0
 10
112.157
 20
63.8679
 30
0.0
 11
111.356
 21
63.8679
 31
0.0
  0
LINE
  8
0
 62
     0
 10
111.356
 20
63.8679
 30
0.0
 11
111.356
 21
60.7674
 31
0.0
  0
LINE
  8
0
 62
     0
 10
111.356
 20
60.7674
 30
0.0
 11
112.157
 21
60.7674
 31
0.0
  0
LINE
  8
0
 62
     0
 10
112.157
 20
60.7674
 30
0.0
 11
112.157
 21
59.7683
 31
0.0
  0
LINE
  8
0
 62
     0
 10
112.157
 20
59.7683
 30
0.0
 11
126.157
 21
59.7683
 31
0.0
  0
LINE
  8
0
 62
     0
 10
126.157
 20
59.7683
 30
0.0
 11
126.157
 21
60.7674
 31
0.0
  0
LINE
  8
0
 62
     0
 10
126.157
 20
60.7674
 30
0.0
 11
126.957
 21
60.7674
 31
0.0
  0
LINE
  8
0
 62
     0
 10
126.957
 20
60.7674
 30
0.0
 11
126.957
 21
63.8679
 31
0.0
  0
LINE
  8
0
 62
     0
 10
126.957
 20
63.8679
 30
0.0
 11
126.157
 21
63.8679
 31
0.0
  0
LINE
  8
0
 62
     0
 10
126.157
 20
63.8679
 30
0.0
 11
126.157
 21
69.668
 31
0.0
  0
LINE
  8
0
 62
     0
 10
126.157
 20
69.668
 30
0.0
 11
126.957
 21
69.668
 31
0.0
  0
LINE
  8
0
 62
     0
 10
126.957
 20
69.668
 30
0.0
 11
126.957
 21
72.7675
 31
0.0
  0
LINE
  8
0
 62
     0
 10
126.957
 20
72.7675
 30
0.0
 11
126.157
 21
72.7675
 31
0.0
  0
LINE
  8
0
 62
     0
 10
126.157
 20
72.7675
 30
0.0
 11
126.157
 21
73.7676
 31
0.0
  0
LINE
  8
0
 62
     0
 10
126.157
 20
73.7676
 30
0.0
 11
112.157
 21
73.7676
 31
0.0
  0
LINE
  8
0
 62
     0
 10
132.159
 20
73.7676
 30
0.0
 11
132.159
 21
72.7675
 31
0.0
  0
LINE
  8
0
 62
     0
 10
132.159
 20
72.7675
 30
0.0
 11
131.36
 21
72.7675
 31
0.0
  0
LINE
  8
0
 62
     0
 10
131.36
 20
72.7675
 30
0.0
 11
131.36
 21
69.668
 31
0.0
  0
LINE
  8
0
 62
     0
 10
131.36
 20
69.668
 30
0.0
 11
132.159
 21
69.668
 31
0.0
  0
LINE
  8
0
 62
     0
 10
132.159
 20
69.668
 30
0.0
 11
132.159
 21
63.8679
 31
0.0
  0
LINE
  8
0
 62
     0
 10
132.159
 20
63.8679
 30
0.0
 11
131.36
 21
63.8679
 31
0.0
  0
LINE
  8
0
 62
     0
 10
131.36
 20
63.8679
 30
0.0
 11
131.36
 21
60.7674
 31
0.0
  0
LINE
  8
0
 62
     0
 10
131.36
 20
60.7674
 30
0.0
 11
132.159
 21
60.7674
 31
0.0
  0
LINE
  8
0
 62
     0
 10
132.159
 20
60.7674
 30
0.0
 11
132.159
 21
59.7683
 31
0.0
  0
LINE
  8
0
 62
     0
 10
132.159
 20
59.7683
 30
0.0
 11
146.16
 21
59.7683
 31
0.0
  0
LINE
  8
0
 62
     0
 10
146.16
 20
59.7683
 30
0.0
 11
146.16
 21
60.7674
 31
0.0
  0
LINE
  8
0
 62
     0
 10
146.16
 20
60.7674
 30
0.0
 11
146.959
 21
60.7674
 31
0.0
  0
LINE
  8
0
 62
     0
 10
146.959
 20
60.7674
 30
0.0
 11
146.959
 21
63.8679
 31
0.0
  0
LINE
  8
0
 62
     0
 10
146.959
 20
63.8679
 30
0.0
 11
146.16
 21
63.8679
 31
0.0
  0
LINE
  8
0
 62
     0
 10
146.16
 20
63.8679
 30
0.0
 11
146.16
 21
69.668
 31
0.0
  0
LINE
  8
0
 62
     0
 10
146.16
 20
69.668
 30
0.0
 11
146.959
 21
69.668
 31
0.0
  0
LINE
  8
0
 62
     0
 10
146.959
 20
69.668
 30
0.0
 11
146.959
 21
72.7675
 31
0.0
  0
LINE
  8
0
 62
     0
 10
146.959
 20
72.7675
 30
0.0
 11
146.16
 21
72.7675
 31
0.0
  0
LINE
  8
0
 62
     0
 10
146.16
 20
72.7675
 30
0.0
 11
146.16
 21
73.7676
 31
0.0
  0
LINE
  8
0
 62
     0
 10
146.16
 20
73.7676
 30
0.0
 11
132.159
 21
73.7676
 31
0.0
  0
LINE
  8
0
 62
     0
 10
152.162
 20
73.7676
 30
0.0
 11
152.162
 21
72.7675
 31
0.0
  0
LINE
  8
0
 62
     0
 10
152.162
 20
72.7675
 30
0.0
 11
151.362
 21
72.7675
 31
0.0
  0
LINE
  8
0
 62
     0
 10
151.362
 20
72.7675
 30
0.0
 11
151.362
 21
69.668
 31
0.0
  0
LINE
  8
0
 62
     0
 10
151.362
 20
69.668
 30
0.0
 11
152.162
 21
69.668
 31
0.0
  0
LINE
  8
0
 62
     0
 10
152.162
 20
69.668
 30
0.0
 11
152.162
 21
63.8679
 31
0.0
  0
LINE
  8
0
 62
     0
 10
152.162
 20
63.8679
 30
0.0
 11
151.362
 21
63.8679
 31
0.0
  0
LINE
  8
0
 62
     0
 10
151.362
 20
63.8679
 30
0.0
 11
151.362
 21
60.7674
 31
0.0
  0
LINE
  8
0
 62
     0
 10
151.362
 20
60.7674
 30
0.0
 11
152.162
 21
60.7674
 31
0.0
  0
LINE
  8
0
 62
     0
 10
152.162
 20
60.7674
 30
0.0
 11
152.162
 21
59.7683
 31
0.0
  0
LINE
  8
0
 62
     0
 10
152.162
 20
59.7683
 30
0.0
 11
166.161
 21
59.7683
 31
0.0
  0
LINE
  8
0
 62
     0
 10
166.161
 20
59.7683
 30
0.0
 11
166.161
 21
60.7674
 31
0.0
  0
LINE
  8
0
 62
     0
 10
166.161
 20
60.7674
 30
0.0
 11
166.962
 21
60.7674
 31
0.0
  0
LINE
  8
0
 62
     0
 10
166.962
 20
60.7674
 30
0.0
 11
166.962
 21
63.8679
 31
0.0
  0
LINE
  8
0
 62
     0
 10
166.962
 20
63.8679
 30
0.0
 11
166.161
 21
63.8679
 31
0.0
  0
LINE
  8
0
 62
     0
 10
166.161
 20
63.8679
 30
0.0
 11
166.161
 21
69.668
 31
0.0
  0
LINE
  8
0
 62
     0
 10
166.161
 20
69.668
 30
0.0
 11
166.962
 21
69.668
 31
0.0
  0
LINE
  8
0
 62
     0
 10
166.962
 20
69.668
 30
0.0
 11
166.962
 21
72.7675
 31
0.0
  0
LINE
  8
0
 62
     0
 10
166.962
 20
72.7675
 30
0.0
 11
166.161
 21
72.7675
 31
0.0
  0
LINE
  8
0
 62
     0
 10
166.161
 20
72.7675
 30
0.0
 11
166.161
 21
73.7676
 31
0.0
  0
LINE
  8
0
 62
     0
 10
166.161
 20
73.7676
 30
0.0
 11
152.162
 21
73.7676
 31
0.0
  0
LINE
  8
0
 62
     0
 10
172.165
 20
73.7676
 30
0.0
 11
172.165
 21
72.7675
 31
0.0
  0
LINE
  8
0
 62
     0
 10
172.165
 20
72.7675
 30
0.0
 11
171.363
 21
72.7675
 31
0.0
  0
LINE
  8
0
 62
     0
 10
171.363
 20
72.7675
 30
0.0
 11
171.363
 21
69.668
 31
0.0
  0
LINE
  8
0
 62
     0
 10
171.363
 20
69.668
 30
0.0
 11
172.165
 21
69.668
 31
0.0
  0
LINE
  8
0
 62
     0
 10
172.165
 20
69.668
 30
0.0
 11
172.165
 21
63.8679
 31
0.0
  0
LINE
  8
0
 62
     0
 10
172.165
 20
63.8679
 30
0.0
 11
171.363
 21
63.8679
 31
0.0
  0
LINE
  8
0
 62
     0
 10
171.363
 20
63.8679
 30
0.0
 11
171.363
 21
60.7674
 31
0.0
  0
LINE
  8
0
 62
     0
 10
171.363
 20
60.7674
 30
0.0
 11
172.165
 21
60.7674
 31
0.0
  0
LINE
  8
0
 62
     0
 10
172.165
 20
60.7674
 30
0.0
 11
172.165
 21
59.7683
 31
0.0
  0
LINE
  8
0
 62
     0
 10
172.165
 20
59.7683
 30
0.0
 11
186.165
 21
59.7683
 31
0.0
  0
LINE
  8
0
 62
     0
 10
186.165
 20
59.7683
 30
0.0
 11
186.165
 21
60.7674
 31
0.0
  0
LINE
  8
0
 62
     0
 10
186.165
 20
60.7674
 30
0.0
 11
186.965
 21
60.7674
 31
0.0
  0
LINE
  8
0
 62
     0
 10
186.965
 20
60.7674
 30
0.0
 11
186.965
 21
63.8679
 31
0.0
  0
LINE
  8
0
 62
     0
 10
186.965
 20
63.8679
 30
0.0
 11
186.165
 21
63.8679
 31
0.0
  0
LINE
  8
0
 62
     0
 10
186.165
 20
63.8679
 30
0.0
 11
186.165
 21
69.668
 31
0.0
  0
LINE
  8
0
 62
     0
 10
186.165
 20
69.668
 30
0.0
 11
186.965
 21
69.668
 31
0.0
  0
LINE
  8
0
 62
     0
 10
186.965
 20
69.668
 30
0.0
 11
186.965
 21
72.7675
 31
0.0
  0
LINE
  8
0
 62
     0
 10
186.965
 20
72.7675
 30
0.0
 11
186.165
 21
72.7675
 31
0.0
  0
LINE
  8
0
 62
     0
 10
186.165
 20
72.7675
 30
0.0
 11
186.165
 21
73.7676
 31
0.0
  0
LINE
  8
0
 62
     0
 10
186.165
 20
73.7676
 30
0.0
 11
172.165
 21
73.7676
 31
0.0
  0
LINE
  8
0
 62
     0
 10
192.168
 20
73.7676
 30
0.0
 11
192.168
 21
72.7675
 31
0.0
  0
LINE
  8
0
 62
     0
 10
192.168
 20
72.7675
 30
0.0
 11
191.367
 21
72.7675
 31
0.0
  0
LINE
  8
0
 62
     0
 10
191.367
 20
72.7675
 30
0.0
 11
191.367
 21
69.668
 31
0.0
  0
LINE
  8
0
 62
     0
 10
191.367
 20
69.668
 30
0.0
 11
192.168
 21
69.668
 31
0.0
  0
LINE
  8
0
 62
     0
 10
192.168
 20
69.668
 30
0.0
 11
192.168
 21
63.8679
 31
0.0
  0
LINE
  8
0
 62
     0
 10
192.168
 20
63.8679
 30
0.0
 11
191.367
 21
63.8679
 31
0.0
  0
LINE
  8
0
 62
     0
 10
191.367
 20
63.8679
 30
0.0
 11
191.367
 21
60.7674
 31
0.0
  0
LINE
  8
0
 62
     0
 10
191.367
 20
60.7674
 30
0.0
 11
192.168
 21
60.7674
 31
0.0
  0
LINE
  8
0
 62
     0
 10
192.168
 20
60.7674
 30
0.0
 11
192.168
 21
59.7683
 31
0.0
  0
LINE
  8
0
 62
     0
 10
192.168
 20
59.7683
 30
0.0
 11
206.167
 21
59.7683
 31
0.0
  0
LINE
  8
0
 62
     0
 10
206.167
 20
59.7683
 30
0.0
 11
206.167
 21
60.7674
 31
0.0
  0
LINE
  8
0
 62
     0
 10
206.167
 20
60.7674
 30
0.0
 11
206.966
 21
60.7674
 31
0.0
  0
LINE
  8
0
 62
     0
 10
206.966
 20
60.7674
 30
0.0
 11
206.966
 21
63.8679
 31
0.0
  0
LINE
  8
0
 62
     0
 10
206.966
 20
63.8679
 30
0.0
 11
206.167
 21
63.8679
 31
0.0
  0
LINE
  8
0
 62
     0
 10
206.167
 20
63.8679
 30
0.0
 11
206.167
 21
69.668
 31
0.0
  0
LINE
  8
0
 62
     0
 10
206.167
 20
69.668
 30
0.0
 11
206.966
 21
69.668
 31
0.0
  0
LINE
  8
0
 62
     0
 10
206.966
 20
69.668
 30
0.0
 11
206.966
 21
72.7675
 31
0.0
  0
LINE
  8
0
 62
     0
 10
206.966
 20
72.7675
 30
0.0
 11
206.167
 21
72.7675
 31
0.0
  0
LINE
  8
0
 62
     0
 10
206.167
 20
72.7675
 30
0.0
 11
206.167
 21
73.7676
 31
0.0
  0
LINE
  8
0
 62
     0
 10
206.167
 20
73.7676
 30
0.0
 11
192.168
 21
73.7676
 31
0.0
  0
LINE
  8
0
 62
     0
 10
212.17
 20
73.7676
 30
0.0
 11
212.17
 21
72.7675
 31
0.0
  0
LINE
  8
0
 62
     0
 10
212.17
 20
72.7675
 30
0.0
 11
211.369
 21
72.7675
 31
0.0
  0
LINE
  8
0
 62
     0
 10
211.369
 20
72.7675
 30
0.0
 11
211.369
 21
69.668
 31
0.0
  0
LINE
  8
0
 62
     0
 10
211.369
 20
69.668
 30
0.0
 11
212.17
 21
69.668
 31
0.0
  0
LINE
  8
0
 62
     0
 10
212.17
 20
69.668
 30
0.0
 11
212.17
 21
63.8679
 31
0.0
  0
LINE
  8
0
 62
     0
 10
212.17
 20
63.8679
 30
0.0
 11
211.369
 21
63.8679
 31
0.0
  0
LINE
  8
0
 62
     0
 10
211.369
 20
63.8679
 30
0.0
 11
211.369
 21
60.7674
 31
0.0
  0
LINE
  8
0
 62
     0
 10
211.369
 20
60.7674
 30
0.0
 11
212.17
 21
60.7674
 31
0.0
  0
LINE
  8
0
 62
     0
 10
212.17
 20
60.7674
 30
0.0
 11
212.17
 21
59.7683
 31
0.0
  0
LINE
  8
0
 62
     0
 10
212.17
 20
59.7683
 30
0.0
 11
226.169
 21
59.7683
 31
0.0
  0
LINE
  8
0
 62
     0
 10
226.169
 20
59.7683
 30
0.0
 11
226.169
 21
60.7674
 31
0.0
  0
LINE
  8
0
 62
     0
 10
226.169
 20
60.7674
 30
0.0
 11
226.97
 21
60.7674
 31
0.0
  0
LINE
  8
0
 62
     0
 10
226.97
 20
60.7674
 30
0.0
 11
226.97
 21
63.8679
 31
0.0
  0
LINE
  8
0
 62
     0
 10
226.97
 20
63.8679
 30
0.0
 11
226.169
 21
63.8679
 31
0.0
  0
LINE
  8
0
 62
     0
 10
226.169
 20
63.8679
 30
0.0
 11
226.169
 21
69.668
 31
0.0
  0
LINE
  8
0
 62
     0
 10
226.169
 20
69.668
 30
0.0
 11
226.97
 21
69.668
 31
0.0
  0
LINE
  8
0
 62
     0
 10
226.97
 20
69.668
 30
0.0
 11
226.97
 21
72.7675
 31
0.0
  0
LINE
  8
0
 62
     0
 10
226.97
 20
72.7675
 30
0.0
 11
226.169
 21
72.7675
 31
0.0
  0
LINE
  8
0
 62
     0
 10
226.169
 20
72.7675
 30
0.0
 11
226.169
 21
73.7676
 31
0.0
  0
LINE
  8
0
 62
     0
 10
226.169
 20
73.7676
 30
0.0
 11
212.17
 21
73.7676
 31
0.0
  0
LINE
  8
0
 62
     0
 10
232.172
 20
73.7676
 30
0.0
 11
232.172
 21
72.7675
 31
0.0
  0
LINE
  8
0
 62
     0
 10
232.172
 20
72.7675
 30
0.0
 11
231.371
 21
72.7675
 31
0.0
  0
LINE
  8
0
 62
     0
 10
231.371
 20
72.7675
 30
0.0
 11
231.371
 21
69.668
 31
0.0
  0
LINE
  8
0
 62
     0
 10
231.371
 20
69.668
 30
0.0
 11
232.172
 21
69.668
 31
0.0
  0
LINE
  8
0
 62
     0
 10
232.172
 20
69.668
 30
0.0
 11
232.172
 21
63.8679
 31
0.0
  0
LINE
  8
0
 62
     0
 10
232.172
 20
63.8679
 30
0.0
 11
231.371
 21
63.8679
 31
0.0
  0
LINE
  8
0
 62
     0
 10
231.371
 20
63.8679
 30
0.0
 11
231.371
 21
60.7674
 31
0.0
  0
LINE
  8
0
 62
     0
 10
231.371
 20
60.7674
 30
0.0
 11
232.172
 21
60.7674
 31
0.0
  0
LINE
  8
0
 62
     0
 10
232.172
 20
60.7674
 30
0.0
 11
232.172
 21
59.7683
 31
0.0
  0
LINE
  8
0
 62
     0
 10
232.172
 20
59.7683
 30
0.0
 11
246.172
 21
59.7683
 31
0.0
  0
LINE
  8
0
 62
     0
 10
246.172
 20
59.7683
 30
0.0
 11
246.172
 21
60.7674
 31
0.0
  0
LINE
  8
0
 62
     0
 10
246.172
 20
60.7674
 30
0.0
 11
246.972
 21
60.7674
 31
0.0
  0
LINE
  8
0
 62
     0
 10
246.972
 20
60.7674
 30
0.0
 11
246.972
 21
63.8679
 31
0.0
  0
LINE
  8
0
 62
     0
 10
246.972
 20
63.8679
 30
0.0
 11
246.172
 21
63.8679
 31
0.0
  0
LINE
  8
0
 62
     0
 10
246.172
 20
63.8679
 30
0.0
 11
246.172
 21
69.668
 31
0.0
  0
LINE
  8
0
 62
     0
 10
246.172
 20
69.668
 30
0.0
 11
246.972
 21
69.668
 31
0.0
  0
LINE
  8
0
 62
     0
 10
246.972
 20
69.668
 30
0.0
 11
246.972
 21
72.7675
 31
0.0
  0
LINE
  8
0
 62
     0
 10
246.972
 20
72.7675
 30
0.0
 11
246.172
 21
72.7675
 31
0.0
  0
LINE
  8
0
 62
     0
 10
246.172
 20
72.7675
 30
0.0
 11
246.172
 21
73.7676
 31
0.0
  0
LINE
  8
0
 62
     0
 10
246.172
 20
73.7676
 30
0.0
 11
232.172
 21
73.7676
 31
0.0
  0
LINE
  8
0
 62
     0
 10
252.174
 20
73.7676
 30
0.0
 11
252.174
 21
72.7675
 31
0.0
  0
LINE
  8
0
 62
     0
 10
252.174
 20
72.7675
 30
0.0
 11
251.374
 21
72.7675
 31
0.0
  0
LINE
  8
0
 62
     0
 10
251.374
 20
72.7675
 30
0.0
 11
251.374
 21
69.668
 31
0.0
  0
LINE
  8
0
 62
     0
 10
251.374
 20
69.668
 30
0.0
 11
252.174
 21
69.668
 31
0.0
  0
LINE
  8
0
 62
     0
 10
252.174
 20
69.668
 30
0.0
 11
252.174
 21
63.8679
 31
0.0
  0
LINE
  8
0
 62
     0
 10
252.174
 20
63.8679
 30
0.0
 11
251.374
 21
63.8679
 31
0.0
  0
LINE
  8
0
 62
     0
 10
251.374
 20
63.8679
 30
0.0
 11
251.374
 21
60.7674
 31
0.0
  0
LINE
  8
0
 62
     0
 10
251.374
 20
60.7674
 30
0.0
 11
252.174
 21
60.7674
 31
0.0
  0
LINE
  8
0
 62
     0
 10
252.174
 20
60.7674
 30
0.0
 11
252.174
 21
59.7683
 31
0.0
  0
LINE
  8
0
 62
     0
 10
252.174
 20
59.7683
 30
0.0
 11
266.175
 21
59.7683
 31
0.0
  0
LINE
  8
0
 62
     0
 10
266.175
 20
59.7683
 30
0.0
 11
266.175
 21
60.7674
 31
0.0
  0
LINE
  8
0
 62
     0
 10
266.175
 20
60.7674
 30
0.0
 11
266.974
 21
60.7674
 31
0.0
  0
LINE
  8
0
 62
     0
 10
266.974
 20
60.7674
 30
0.0
 11
266.974
 21
63.8679
 31
0.0
  0
LINE
  8
0
 62
     0
 10
266.974
 20
63.8679
 30
0.0
 11
266.175
 21
63.8679
 31
0.0
  0
LINE
  8
0
 62
     0
 10
266.175
 20
63.8679
 30
0.0
 11
266.175
 21
69.668
 31
0.0
  0
LINE
  8
0
 62
     0
 10
266.175
 20
69.668
 30
0.0
 11
266.974
 21
69.668
 31
0.0
  0
LINE
  8
0
 62
     0
 10
266.974
 20
69.668
 30
0.0
 11
266.974
 21
72.7675
 31
0.0
  0
LINE
  8
0
 62
     0
 10
266.974
 20
72.7675
 30
0.0
 11
266.175
 21
72.7675
 31
0.0
  0
LINE
  8
0
 62
     0
 10
266.175
 20
72.7675
 30
0.0
 11
266.175
 21
73.7676
 31
0.0
  0
LINE
  8
0
 62
     0
 10
266.175
 20
73.7676
 30
0.0
 11
252.174
 21
73.7676
 31
0.0
  0
LINE
  8
0
 62
     0
 10
276.939
 20
73.7676
 30
0.0
 11
276.939
 21
72.7675
 31
0.0
  0
LINE
  8
0
 62
     0
 10
276.939
 20
72.7675
 30
0.0
 11
276.138
 21
72.7675
 31
0.0
  0
LINE
  8
0
 62
     0
 10
276.138
 20
72.7675
 30
0.0
 11
276.138
 21
69.668
 31
0.0
  0
LINE
  8
0
 62
     0
 10
276.138
 20
69.668
 30
0.0
 11
276.939
 21
69.668
 31
0.0
  0
LINE
  8
0
 62
     0
 10
276.939
 20
69.668
 30
0.0
 11
276.939
 21
63.8679
 31
0.0
  0
LINE
  8
0
 62
     0
 10
276.939
 20
63.8679
 30
0.0
 11
276.138
 21
63.8679
 31
0.0
  0
LINE
  8
0
 62
     0
 10
276.138
 20
63.8679
 30
0.0
 11
276.138
 21
60.7674
 31
0.0
  0
LINE
  8
0
 62
     0
 10
276.138
 20
60.7674
 30
0.0
 11
276.939
 21
60.7674
 31
0.0
  0
LINE
  8
0
 62
     0
 10
276.939
 20
60.7674
 30
0.0
 11
276.939
 21
59.7683
 31
0.0
  0
LINE
  8
0
 62
     0
 10
276.939
 20
59.7683
 30
0.0
 11
290.938
 21
59.7683
 31
0.0
  0
LINE
  8
0
 62
     0
 10
290.938
 20
59.7683
 30
0.0
 11
290.938
 21
60.7674
 31
0.0
  0
LINE
  8
0
 62
     0
 10
290.938
 20
60.7674
 30
0.0
 11
291.74
 21
60.7674
 31
0.0
  0
LINE
  8
0
 62
     0
 10
291.74
 20
60.7674
 30
0.0
 11
291.74
 21
63.8679
 31
0.0
  0
LINE
  8
0
 62
     0
 10
291.74
 20
63.8679
 30
0.0
 11
290.938
 21
63.8679
 31
0.0
  0
LINE
  8
0
 62
     0
 10
290.938
 20
63.8679
 30
0.0
 11
290.938
 21
69.668
 31
0.0
  0
LINE
  8
0
 62
     0
 10
290.938
 20
69.668
 30
0.0
 11
291.74
 21
69.668
 31
0.0
  0
LINE
  8
0
 62
     0
 10
291.74
 20
69.668
 30
0.0
 11
291.74
 21
72.7675
 31
0.0
  0
LINE
  8
0
 62
     0
 10
291.74
 20
72.7675
 30
0.0
 11
290.938
 21
72.7675
 31
0.0
  0
LINE
  8
0
 62
     0
 10
290.938
 20
72.7675
 30
0.0
 11
290.938
 21
73.7676
 31
0.0
  0
LINE
  8
0
 62
     0
 10
290.938
 20
73.7676
 30
0.0
 11
276.939
 21
73.7676
 31
0.0
  0
LINE
  8
0
 62
     0
 10
272.176
 20
92.8176
 30
0.0
 11
272.176
 21
91.8175
 31
0.0
  0
LINE
  8
0
 62
     0
 10
272.176
 20
91.8175
 30
0.0
 11
271.377
 21
91.8175
 31
0.0
  0
LINE
  8
0
 62
     0
 10
271.377
 20
91.8175
 30
0.0
 11
271.377
 21
88.718
 31
0.0
  0
LINE
  8
0
 62
     0
 10
271.377
 20
88.718
 30
0.0
 11
272.176
 21
88.718
 31
0.0
  0
LINE
  8
0
 62
     0
 10
272.176
 20
88.718
 30
0.0
 11
272.176
 21
88.1172
 31
0.0
  0
LINE
  8
0
 62
     0
 10
272.176
 20
88.1172
 30
0.0
 11
270.652
 21
88.1172
 31
0.0
  0
LINE
  8
0
 62
     0
 10
270.652
 20
88.1172
 30
0.0
 11
270.652
 21
91.3476
 31
0.0
  0
LINE
  8
0
 62
     0
 10
270.652
 20
91.3476
 30
0.0
 11
268.927
 21
91.3476
 31
0.0
  0
LINE
  8
0
 62
     0
 10
268.927
 20
91.3476
 30
0.0
 11
268.927
 21
92.2694
 31
0.0
  0
LINE
  8
0
 62
     0
 10
268.927
 20
92.2694
 30
0.0
 11
265.626
 21
92.2694
 31
0.0
  0
LINE
  8
0
 62
     0
 10
265.626
 20
92.2694
 30
0.0
 11
265.626
 21
91.3476
 31
0.0
  0
LINE
  8
0
 62
     0
 10
265.626
 20
91.3476
 30
0.0
 11
263.901
 21
91.3476
 31
0.0
  0
LINE
  8
0
 62
     0
 10
263.901
 20
91.3476
 30
0.0
 11
263.901
 21
88.1172
 31
0.0
  0
LINE
  8
0
 62
     0
 10
263.901
 20
88.1172
 30
0.0
 11
263.077
 21
88.1172
 31
0.0
  0
LINE
  8
0
 62
     0
 10
263.077
 20
88.1172
 30
0.0
 11
263.077
 21
85.3172
 31
0.0
  0
LINE
  8
0
 62
     0
 10
263.077
 20
85.3172
 30
0.0
 11
263.901
 21
85.3172
 31
0.0
  0
LINE
  8
0
 62
     0
 10
263.901
 20
85.3172
 30
0.0
 11
263.901
 21
79.0469
 31
0.0
  0
LINE
  8
0
 62
     0
 10
263.901
 20
79.0469
 30
0.0
 11
265.626
 21
79.0469
 31
0.0
  0
LINE
  8
0
 62
     0
 10
265.626
 20
79.0469
 30
0.0
 11
265.626
 21
78.0673
 31
0.0
  0
LINE
  8
0
 62
     0
 10
265.626
 20
78.0673
 30
0.0
 11
268.927
 21
78.0673
 31
0.0
  0
LINE
  8
0
 62
     0
 10
268.927
 20
78.0673
 30
0.0
 11
268.927
 21
79.0469
 31
0.0
  0
LINE
  8
0
 62
     0
 10
268.927
 20
79.0469
 30
0.0
 11
270.652
 21
79.0469
 31
0.0
  0
LINE
  8
0
 62
     0
 10
270.652
 20
79.0469
 30
0.0
 11
270.652
 21
83.5173
 31
0.0
  0
LINE
  8
0
 62
     0
 10
270.652
 20
83.5173
 30
0.0
 11
272.176
 21
83.5173
 31
0.0
  0
LINE
  8
0
 62
     0
 10
272.176
 20
83.5173
 30
0.0
 11
272.176
 21
82.9179
 31
0.0
  0
LINE
  8
0
 62
     0
 10
272.176
 20
82.9179
 30
0.0
 11
271.377
 21
82.9179
 31
0.0
  0
LINE
  8
0
 62
     0
 10
271.377
 20
82.9179
 30
0.0
 11
271.377
 21
79.8174
 31
0.0
  0
LINE
  8
0
 62
     0
 10
271.377
 20
79.8174
 30
0.0
 11
272.176
 21
79.8174
 31
0.0
  0
LINE
  8
0
 62
     0
 10
272.176
 20
79.8174
 30
0.0
 11
272.176
 21
78.8183
 31
0.0
  0
LINE
  8
0
 62
     0
 10
272.176
 20
78.8183
 30
0.0
 11
286.177
 21
78.8183
 31
0.0
  0
LINE
  8
0
 62
     0
 10
286.177
 20
78.8183
 30
0.0
 11
286.177
 21
79.8174
 31
0.0
  0
LINE
  8
0
 62
     0
 10
286.177
 20
79.8174
 30
0.0
 11
286.977
 21
79.8174
 31
0.0
  0
LINE
  8
0
 62
     0
 10
286.977
 20
79.8174
 30
0.0
 11
286.977
 21
82.9179
 31
0.0
  0
LINE
  8
0
 62
     0
 10
286.977
 20
82.9179
 30
0.0
 11
286.177
 21
82.9179
 31
0.0
  0
LINE
  8
0
 62
     0
 10
286.177
 20
82.9179
 30
0.0
 11
286.177
 21
83.5173
 31
0.0
  0
LINE
  8
0
 62
     0
 10
286.177
 20
83.5173
 30
0.0
 11
287.701
 21
83.5173
 31
0.0
  0
LINE
  8
0
 62
     0
 10
287.701
 20
83.5173
 30
0.0
 11
287.701
 21
79.0469
 31
0.0
  0
LINE
  8
0
 62
     0
 10
287.701
 20
79.0469
 30
0.0
 11
289.427
 21
79.0469
 31
0.0
  0
LINE
  8
0
 62
     0
 10
289.427
 20
79.0469
 30
0.0
 11
289.427
 21
78.0673
 31
0.0
  0
LINE
  8
0
 62
     0
 10
289.427
 20
78.0673
 30
0.0
 11
292.727
 21
78.0673
 31
0.0
  0
LINE
  8
0
 62
     0
 10
292.727
 20
78.0673
 30
0.0
 11
292.727
 21
79.0469
 31
0.0
  0
LINE
  8
0
 62
     0
 10
292.727
 20
79.0469
 30
0.0
 11
294.452
 21
79.0469
 31
0.0
  0
LINE
  8
0
 62
     0
 10
294.452
 20
79.0469
 30
0.0
 11
294.452
 21
85.3172
 31
0.0
  0
LINE
  8
0
 62
     0
 10
294.452
 20
85.3172
 30
0.0
 11
295.276
 21
85.3172
 31
0.0
  0
LINE
  8
0
 62
     0
 10
295.276
 20
85.3172
 30
0.0
 11
295.276
 21
88.1172
 31
0.0
  0
LINE
  8
0
 62
     0
 10
295.276
 20
88.1172
 30
0.0
 11
294.452
 21
88.1172
 31
0.0
  0
LINE
  8
0
 62
     0
 10
294.452
 20
88.1172
 30
0.0
 11
294.452
 21
91.3476
 31
0.0
  0
LINE
  8
0
 62
     0
 10
294.452
 20
91.3476
 30
0.0
 11
292.727
 21
91.3476
 31
0.0
  0
LINE
  8
0
 62
     0
 10
292.727
 20
91.3476
 30
0.0
 11
292.727
 21
92.2694
 31
0.0
  0
LINE
  8
0
 62
     0
 10
292.727
 20
92.2694
 30
0.0
 11
289.427
 21
92.2694
 31
0.0
  0
LINE
  8
0
 62
     0
 10
289.427
 20
92.2694
 30
0.0
 11
289.427
 21
91.3476
 31
0.0
  0
LINE
  8
0
 62
     0
 10
289.427
 20
91.3476
 30
0.0
 11
287.701
 21
91.3476
 31
0.0
  0
LINE
  8
0
 62
     0
 10
287.701
 20
91.3476
 30
0.0
 11
287.701
 21
88.1172
 31
0.0
  0
LINE
  8
0
 62
     0
 10
287.701
 20
88.1172
 30
0.0
 11
286.177
 21
88.1172
 31
0.0
  0
LINE
  8
0
 62
     0
 10
286.177
 20
88.1172
 30
0.0
 11
286.177
 21
88.718
 31
0.0
  0
LINE
  8
0
 62
     0
 10
286.177
 20
88.718
 30
0.0
 11
286.977
 21
88.718
 31
0.0
  0
LINE
  8
0
 62
     0
 10
286.977
 20
88.718
 30
0.0
 11
286.977
 21
91.8175
 31
0.0
  0
LINE
  8
0
 62
     0
 10
286.977
 20
91.8175
 30
0.0
 11
286.177
 21
91.8175
 31
0.0
  0
LINE
  8
0
 62
     0
 10
286.177
 20
91.8175
 30
0.0
 11
286.177
 21
92.8176
 31
0.0
  0
LINE
  8
0
 62
     0
 10
286.177
 20
92.8176
 30
0.0
 11
272.176
 21
92.8176
 31
0.0
  0
LINE
  8
0
 62
     0
 10
2.61965
 20
92.8176
 30
0.0
 11
2.61965
 21
91.8175
 31
0.0
  0
LINE
  8
0
 62
     0
 10
2.61965
 20
91.8175
 30
0.0
 11
1.82039
 21
91.8175
 31
0.0
  0
LINE
  8
0
 62
     0
 10
1.82039
 20
91.8175
 30
0.0
 11
1.82039
 21
88.718
 31
0.0
  0
LINE
  8
0
 62
     0
 10
1.82039
 20
88.718
 30
0.0
 11
2.61965
 21
88.718
 31
0.0
  0
LINE
  8
0
 62
     0
 10
2.61965
 20
88.718
 30
0.0
 11
2.61965
 21
82.9179
 31
0.0
  0
LINE
  8
0
 62
     0
 10
2.61965
 20
82.9179
 30
0.0
 11
1.82039
 21
82.9179
 31
0.0
  0
LINE
  8
0
 62
     0
 10
1.82039
 20
82.9179
 30
0.0
 11
1.82039
 21
79.8174
 31
0.0
  0
LINE
  8
0
 62
     0
 10
1.82039
 20
79.8174
 30
0.0
 11
2.61965
 21
79.8174
 31
0.0
  0
LINE
  8
0
 62
     0
 10
2.61965
 20
79.8174
 30
0.0
 11
2.61965
 21
78.8183
 31
0.0
  0
LINE
  8
0
 62
     0
 10
2.61965
 20
78.8183
 30
0.0
 11
16.6192
 21
78.8183
 31
0.0
  0
LINE
  8
0
 62
     0
 10
16.6192
 20
78.8183
 30
0.0
 11
16.6192
 21
79.8174
 31
0.0
  0
LINE
  8
0
 62
     0
 10
16.6192
 20
79.8174
 30
0.0
 11
17.4198
 21
79.8174
 31
0.0
  0
LINE
  8
0
 62
     0
 10
17.4198
 20
79.8174
 30
0.0
 11
17.4198
 21
82.9179
 31
0.0
  0
LINE
  8
0
 62
     0
 10
17.4198
 20
82.9179
 30
0.0
 11
16.6192
 21
82.9179
 31
0.0
  0
LINE
  8
0
 62
     0
 10
16.6192
 20
82.9179
 30
0.0
 11
16.6192
 21
88.718
 31
0.0
  0
LINE
  8
0
 62
     0
 10
16.6192
 20
88.718
 30
0.0
 11
17.4198
 21
88.718
 31
0.0
  0
LINE
  8
0
 62
     0
 10
17.4198
 20
88.718
 30
0.0
 11
17.4198
 21
91.8175
 31
0.0
  0
LINE
  8
0
 62
     0
 10
17.4198
 20
91.8175
 30
0.0
 11
16.6192
 21
91.8175
 31
0.0
  0
LINE
  8
0
 62
     0
 10
16.6192
 20
91.8175
 30
0.0
 11
16.6192
 21
92.8176
 31
0.0
  0
LINE
  8
0
 62
     0
 10
16.6192
 20
92.8176
 30
0.0
 11
2.61965
 21
92.8176
 31
0.0
  0
LINE
  8
0
 62
     0
 10
22.6219
 20
92.8176
 30
0.0
 11
22.6219
 21
91.8175
 31
0.0
  0
LINE
  8
0
 62
     0
 10
22.6219
 20
91.8175
 30
0.0
 11
21.8212
 21
91.8175
 31
0.0
  0
LINE
  8
0
 62
     0
 10
21.8212
 20
91.8175
 30
0.0
 11
21.8212
 21
88.718
 31
0.0
  0
LINE
  8
0
 62
     0
 10
21.8212
 20
88.718
 30
0.0
 11
22.6219
 21
88.718
 31
0.0
  0
LINE
  8
0
 62
     0
 10
22.6219
 20
88.718
 30
0.0
 11
22.6219
 21
82.9179
 31
0.0
  0
LINE
  8
0
 62
     0
 10
22.6219
 20
82.9179
 30
0.0
 11
21.8212
 21
82.9179
 31
0.0
  0
LINE
  8
0
 62
     0
 10
21.8212
 20
82.9179
 30
0.0
 11
21.8212
 21
79.8174
 31
0.0
  0
LINE
  8
0
 62
     0
 10
21.8212
 20
79.8174
 30
0.0
 11
22.6219
 21
79.8174
 31
0.0
  0
LINE
  8
0
 62
     0
 10
22.6219
 20
79.8174
 30
0.0
 11
22.6219
 21
78.8183
 31
0.0
  0
LINE
  8
0
 62
     0
 10
22.6219
 20
78.8183
 30
0.0
 11
36.6215
 21
78.8183
 31
0.0
  0
LINE
  8
0
 62
     0
 10
36.6215
 20
78.8183
 30
0.0
 11
36.6215
 21
79.8174
 31
0.0
  0
LINE
  8
0
 62
     0
 10
36.6215
 20
79.8174
 30
0.0
 11
37.422
 21
79.8174
 31
0.0
  0
LINE
  8
0
 62
     0
 10
37.422
 20
79.8174
 30
0.0
 11
37.422
 21
82.9179
 31
0.0
  0
LINE
  8
0
 62
     0
 10
37.422
 20
82.9179
 30
0.0
 11
36.6215
 21
82.9179
 31
0.0
  0
LINE
  8
0
 62
     0
 10
36.6215
 20
82.9179
 30
0.0
 11
36.6215
 21
88.718
 31
0.0
  0
LINE
  8
0
 62
     0
 10
36.6215
 20
88.718
 30
0.0
 11
37.422
 21
88.718
 31
0.0
  0
LINE
  8
0
 62
     0
 10
37.422
 20
88.718
 30
0.0
 11
37.422
 21
91.8175
 31
0.0
  0
LINE
  8
0
 62
     0
 10
37.422
 20
91.8175
 30
0.0
 11
36.6215
 21
91.8175
 31
0.0
  0
LINE
  8
0
 62
     0
 10
36.6215
 20
91.8175
 30
0.0
 11
36.6215
 21
92.8176
 31
0.0
  0
LINE
  8
0
 62
     0
 10
36.6215
 20
92.8176
 30
0.0
 11
22.6219
 21
92.8176
 31
0.0
  0
LINE
  8
0
 62
     0
 10
42.624
 20
92.8176
 30
0.0
 11
42.624
 21
91.8175
 31
0.0
  0
LINE
  8
0
 62
     0
 10
42.624
 20
91.8175
 30
0.0
 11
41.825
 21
91.8175
 31
0.0
  0
LINE
  8
0
 62
     0
 10
41.825
 20
91.8175
 30
0.0
 11
41.825
 21
88.718
 31
0.0
  0
LINE
  8
0
 62
     0
 10
41.825
 20
88.718
 30
0.0
 11
42.624
 21
88.718
 31
0.0
  0
LINE
  8
0
 62
     0
 10
42.624
 20
88.718
 30
0.0
 11
42.624
 21
82.9179
 31
0.0
  0
LINE
  8
0
 62
     0
 10
42.624
 20
82.9179
 30
0.0
 11
41.825
 21
82.9179
 31
0.0
  0
LINE
  8
0
 62
     0
 10
41.825
 20
82.9179
 30
0.0
 11
41.825
 21
79.8174
 31
0.0
  0
LINE
  8
0
 62
     0
 10
41.825
 20
79.8174
 30
0.0
 11
42.624
 21
79.8174
 31
0.0
  0
LINE
  8
0
 62
     0
 10
42.624
 20
79.8174
 30
0.0
 11
42.624
 21
78.8183
 31
0.0
  0
LINE
  8
0
 62
     0
 10
42.624
 20
78.8183
 30
0.0
 11
56.6251
 21
78.8183
 31
0.0
  0
LINE
  8
0
 62
     0
 10
56.6251
 20
78.8183
 30
0.0
 11
56.6251
 21
79.8174
 31
0.0
  0
LINE
  8
0
 62
     0
 10
56.6251
 20
79.8174
 30
0.0
 11
57.4241
 21
79.8174
 31
0.0
  0
LINE
  8
0
 62
     0
 10
57.4241
 20
79.8174
 30
0.0
 11
57.4241
 21
82.9179
 31
0.0
  0
LINE
  8
0
 62
     0
 10
57.4241
 20
82.9179
 30
0.0
 11
56.6251
 21
82.9179
 31
0.0
  0
LINE
  8
0
 62
     0
 10
56.6251
 20
82.9179
 30
0.0
 11
56.6251
 21
88.718
 31
0.0
  0
LINE
  8
0
 62
     0
 10
56.6251
 20
88.718
 30
0.0
 11
57.4241
 21
88.718
 31
0.0
  0
LINE
  8
0
 62
     0
 10
57.4241
 20
88.718
 30
0.0
 11
57.4241
 21
91.8175
 31
0.0
  0
LINE
  8
0
 62
     0
 10
57.4241
 20
91.8175
 30
0.0
 11
56.6251
 21
91.8175
 31
0.0
  0
LINE
  8
0
 62
     0
 10
56.6251
 20
91.8175
 30
0.0
 11
56.6251
 21
92.8176
 31
0.0
  0
LINE
  8
0
 62
     0
 10
56.6251
 20
92.8176
 30
0.0
 11
42.624
 21
92.8176
 31
0.0
  0
LINE
  8
0
 62
     0
 10
62.6262
 20
92.8176
 30
0.0
 11
62.6262
 21
91.8175
 31
0.0
  0
LINE
  8
0
 62
     0
 10
62.6262
 20
91.8175
 30
0.0
 11
61.8271
 21
91.8175
 31
0.0
  0
LINE
  8
0
 62
     0
 10
61.8271
 20
91.8175
 30
0.0
 11
61.8271
 21
88.718
 31
0.0
  0
LINE
  8
0
 62
     0
 10
61.8271
 20
88.718
 30
0.0
 11
62.6262
 21
88.718
 31
0.0
  0
LINE
  8
0
 62
     0
 10
62.6262
 20
88.718
 30
0.0
 11
62.6262
 21
82.9179
 31
0.0
  0
LINE
  8
0
 62
     0
 10
62.6262
 20
82.9179
 30
0.0
 11
61.8271
 21
82.9179
 31
0.0
  0
LINE
  8
0
 62
     0
 10
61.8271
 20
82.9179
 30
0.0
 11
61.8271
 21
79.8174
 31
0.0
  0
LINE
  8
0
 62
     0
 10
61.8271
 20
79.8174
 30
0.0
 11
62.6262
 21
79.8174
 31
0.0
  0
LINE
  8
0
 62
     0
 10
62.6262
 20
79.8174
 30
0.0
 11
62.6262
 21
78.8183
 31
0.0
  0
LINE
  8
0
 62
     0
 10
62.6262
 20
78.8183
 30
0.0
 11
76.6272
 21
78.8183
 31
0.0
  0
LINE
  8
0
 62
     0
 10
76.6272
 20
78.8183
 30
0.0
 11
76.6272
 21
79.8174
 31
0.0
  0
LINE
  8
0
 62
     0
 10
76.6272
 20
79.8174
 30
0.0
 11
77.4266
 21
79.8174
 31
0.0
  0
LINE
  8
0
 62
     0
 10
77.4266
 20
79.8174
 30
0.0
 11
77.4266
 21
82.9179
 31
0.0
  0
LINE
  8
0
 62
     0
 10
77.4266
 20
82.9179
 30
0.0
 11
76.6272
 21
82.9179
 31
0.0
  0
LINE
  8
0
 62
     0
 10
76.6272
 20
82.9179
 30
0.0
 11
76.6272
 21
88.718
 31
0.0
  0
LINE
  8
0
 62
     0
 10
76.6272
 20
88.718
 30
0.0
 11
77.4266
 21
88.718
 31
0.0
  0
LINE
  8
0
 62
     0
 10
77.4266
 20
88.718
 30
0.0
 11
77.4266
 21
91.8175
 31
0.0
  0
LINE
  8
0
 62
     0
 10
77.4266
 20
91.8175
 30
0.0
 11
76.6272
 21
91.8175
 31
0.0
  0
LINE
  8
0
 62
     0
 10
76.6272
 20
91.8175
 30
0.0
 11
76.6272
 21
92.8176
 31
0.0
  0
LINE
  8
0
 62
     0
 10
76.6272
 20
92.8176
 30
0.0
 11
62.6262
 21
92.8176
 31
0.0
  0
LINE
  8
0
 62
     0
 10
82.6301
 20
92.8176
 30
0.0
 11
82.6301
 21
91.8175
 31
0.0
  0
LINE
  8
0
 62
     0
 10
82.6301
 20
91.8175
 30
0.0
 11
81.8293
 21
91.8175
 31
0.0
  0
LINE
  8
0
 62
     0
 10
81.8293
 20
91.8175
 30
0.0
 11
81.8293
 21
88.718
 31
0.0
  0
LINE
  8
0
 62
     0
 10
81.8293
 20
88.718
 30
0.0
 11
82.6301
 21
88.718
 31
0.0
  0
LINE
  8
0
 62
     0
 10
82.6301
 20
88.718
 30
0.0
 11
82.6301
 21
82.9179
 31
0.0
  0
LINE
  8
0
 62
     0
 10
82.6301
 20
82.9179
 30
0.0
 11
81.8293
 21
82.9179
 31
0.0
  0
LINE
  8
0
 62
     0
 10
81.8293
 20
82.9179
 30
0.0
 11
81.8293
 21
79.8174
 31
0.0
  0
LINE
  8
0
 62
     0
 10
81.8293
 20
79.8174
 30
0.0
 11
82.6301
 21
79.8174
 31
0.0
  0
LINE
  8
0
 62
     0
 10
82.6301
 20
79.8174
 30
0.0
 11
82.6301
 21
78.8183
 31
0.0
  0
LINE
  8
0
 62
     0
 10
82.6301
 20
78.8183
 30
0.0
 11
96.6294
 21
78.8183
 31
0.0
  0
LINE
  8
0
 62
     0
 10
96.6294
 20
78.8183
 30
0.0
 11
96.6294
 21
79.8174
 31
0.0
  0
LINE
  8
0
 62
     0
 10
96.6294
 20
79.8174
 30
0.0
 11
97.4302
 21
79.8174
 31
0.0
  0
LINE
  8
0
 62
     0
 10
97.4302
 20
79.8174
 30
0.0
 11
97.4302
 21
82.9179
 31
0.0
  0
LINE
  8
0
 62
     0
 10
97.4302
 20
82.9179
 30
0.0
 11
96.6294
 21
82.9179
 31
0.0
  0
LINE
  8
0
 62
     0
 10
96.6294
 20
82.9179
 30
0.0
 11
96.6294
 21
88.718
 31
0.0
  0
LINE
  8
0
 62
     0
 10
96.6294
 20
88.718
 30
0.0
 11
97.4302
 21
88.718
 31
0.0
  0
LINE
  8
0
 62
     0
 10
97.4302
 20
88.718
 30
0.0
 11
97.4302
 21
91.8175
 31
0.0
  0
LINE
  8
0
 62
     0
 10
97.4302
 20
91.8175
 30
0.0
 11
96.6294
 21
91.8175
 31
0.0
  0
LINE
  8
0
 62
     0
 10
96.6294
 20
91.8175
 30
0.0
 11
96.6294
 21
92.8176
 31
0.0
  0
LINE
  8
0
 62
     0
 10
96.6294
 20
92.8176
 30
0.0
 11
82.6301
 21
92.8176
 31
0.0
  0
LINE
  8
0
 62
     0
 10
102.632
 20
92.8176
 30
0.0
 11
102.632
 21
91.8175
 31
0.0
  0
LINE
  8
0
 62
     0
 10
102.632
 20
91.8175
 30
0.0
 11
101.831
 21
91.8175
 31
0.0
  0
LINE
  8
0
 62
     0
 10
101.831
 20
91.8175
 30
0.0
 11
101.831
 21
88.718
 31
0.0
  0
LINE
  8
0
 62
     0
 10
101.831
 20
88.718
 30
0.0
 11
102.632
 21
88.718
 31
0.0
  0
LINE
  8
0
 62
     0
 10
102.632
 20
88.718
 30
0.0
 11
102.632
 21
82.9179
 31
0.0
  0
LINE
  8
0
 62
     0
 10
102.632
 20
82.9179
 30
0.0
 11
101.831
 21
82.9179
 31
0.0
  0
LINE
  8
0
 62
     0
 10
101.831
 20
82.9179
 30
0.0
 11
101.831
 21
79.8174
 31
0.0
  0
LINE
  8
0
 62
     0
 10
101.831
 20
79.8174
 30
0.0
 11
102.632
 21
79.8174
 31
0.0
  0
LINE
  8
0
 62
     0
 10
102.632
 20
79.8174
 30
0.0
 11
102.632
 21
78.8183
 31
0.0
  0
LINE
  8
0
 62
     0
 10
102.632
 20
78.8183
 30
0.0
 11
116.632
 21
78.8183
 31
0.0
  0
LINE
  8
0
 62
     0
 10
116.632
 20
78.8183
 30
0.0
 11
116.632
 21
79.8174
 31
0.0
  0
LINE
  8
0
 62
     0
 10
116.632
 20
79.8174
 30
0.0
 11
117.432
 21
79.8174
 31
0.0
  0
LINE
  8
0
 62
     0
 10
117.432
 20
79.8174
 30
0.0
 11
117.432
 21
82.9179
 31
0.0
  0
LINE
  8
0
 62
     0
 10
117.432
 20
82.9179
 30
0.0
 11
116.632
 21
82.9179
 31
0.0
  0
LINE
  8
0
 62
     0
 10
116.632
 20
82.9179
 30
0.0
 11
116.632
 21
88.718
 31
0.0
  0
LINE
  8
0
 62
     0
 10
116.632
 20
88.718
 30
0.0
 11
117.432
 21
88.718
 31
0.0
  0
LINE
  8
0
 62
     0
 10
117.432
 20
88.718
 30
0.0
 11
117.432
 21
91.8175
 31
0.0
  0
LINE
  8
0
 62
     0
 10
117.432
 20
91.8175
 30
0.0
 11
116.632
 21
91.8175
 31
0.0
  0
LINE
  8
0
 62
     0
 10
116.632
 20
91.8175
 30
0.0
 11
116.632
 21
92.8176
 31
0.0
  0
LINE
  8
0
 62
     0
 10
116.632
 20
92.8176
 30
0.0
 11
102.632
 21
92.8176
 31
0.0
  0
LINE
  8
0
 62
     0
 10
122.634
 20
92.8176
 30
0.0
 11
122.634
 21
91.8175
 31
0.0
  0
LINE
  8
0
 62
     0
 10
122.634
 20
91.8175
 30
0.0
 11
121.835
 21
91.8175
 31
0.0
  0
LINE
  8
0
 62
     0
 10
121.835
 20
91.8175
 30
0.0
 11
121.835
 21
88.718
 31
0.0
  0
LINE
  8
0
 62
     0
 10
121.835
 20
88.718
 30
0.0
 11
122.634
 21
88.718
 31
0.0
  0
LINE
  8
0
 62
     0
 10
122.634
 20
88.718
 30
0.0
 11
122.634
 21
82.9179
 31
0.0
  0
LINE
  8
0
 62
     0
 10
122.634
 20
82.9179
 30
0.0
 11
121.835
 21
82.9179
 31
0.0
  0
LINE
  8
0
 62
     0
 10
121.835
 20
82.9179
 30
0.0
 11
121.835
 21
79.8174
 31
0.0
  0
LINE
  8
0
 62
     0
 10
121.835
 20
79.8174
 30
0.0
 11
122.634
 21
79.8174
 31
0.0
  0
LINE
  8
0
 62
     0
 10
122.634
 20
79.8174
 30
0.0
 11
122.634
 21
78.8183
 31
0.0
  0
LINE
  8
0
 62
     0
 10
122.634
 20
78.8183
 30
0.0
 11
136.635
 21
78.8183
 31
0.0
  0
LINE
  8
0
 62
     0
 10
136.635
 20
78.8183
 30
0.0
 11
136.635
 21
79.8174
 31
0.0
  0
LINE
  8
0
 62
     0
 10
136.635
 20
79.8174
 30
0.0
 11
137.434
 21
79.8174
 31
0.0
  0
LINE
  8
0
 62
     0
 10
137.434
 20
79.8174
 30
0.0
 11
137.434
 21
82.9179
 31
0.0
  0
LINE
  8
0
 62
     0
 10
137.434
 20
82.9179
 30
0.0
 11
136.635
 21
82.9179
 31
0.0
  0
LINE
  8
0
 62
     0
 10
136.635
 20
82.9179
 30
0.0
 11
136.635
 21
88.718
 31
0.0
  0
LINE
  8
0
 62
     0
 10
136.635
 20
88.718
 30
0.0
 11
137.434
 21
88.718
 31
0.0
  0
LINE
  8
0
 62
     0
 10
137.434
 20
88.718
 30
0.0
 11
137.434
 21
91.8175
 31
0.0
  0
LINE
  8
0
 62
     0
 10
137.434
 20
91.8175
 30
0.0
 11
136.635
 21
91.8175
 31
0.0
  0
LINE
  8
0
 62
     0
 10
136.635
 20
91.8175
 30
0.0
 11
136.635
 21
92.8176
 31
0.0
  0
LINE
  8
0
 62
     0
 10
136.635
 20
92.8176
 30
0.0
 11
122.634
 21
92.8176
 31
0.0
  0
LINE
  8
0
 62
     0
 10
142.637
 20
92.8176
 30
0.0
 11
142.637
 21
91.8175
 31
0.0
  0
LINE
  8
0
 62
     0
 10
142.637
 20
91.8175
 30
0.0
 11
141.837
 21
91.8175
 31
0.0
  0
LINE
  8
0
 62
     0
 10
141.837
 20
91.8175
 30
0.0
 11
141.837
 21
88.718
 31
0.0
  0
LINE
  8
0
 62
     0
 10
141.837
 20
88.718
 30
0.0
 11
142.637
 21
88.718
 31
0.0
  0
LINE
  8
0
 62
     0
 10
142.637
 20
88.718
 30
0.0
 11
142.637
 21
82.9179
 31
0.0
  0
LINE
  8
0
 62
     0
 10
142.637
 20
82.9179
 30
0.0
 11
141.837
 21
82.9179
 31
0.0
  0
LINE
  8
0
 62
     0
 10
141.837
 20
82.9179
 30
0.0
 11
141.837
 21
79.8174
 31
0.0
  0
LINE
  8
0
 62
     0
 10
141.837
 20
79.8174
 30
0.0
 11
142.637
 21
79.8174
 31
0.0
  0
LINE
  8
0
 62
     0
 10
142.637
 20
79.8174
 30
0.0
 11
142.637
 21
78.8183
 31
0.0
  0
LINE
  8
0
 62
     0
 10
142.637
 20
78.8183
 30
0.0
 11
156.636
 21
78.8183
 31
0.0
  0
LINE
  8
0
 62
     0
 10
156.636
 20
78.8183
 30
0.0
 11
156.636
 21
79.8174
 31
0.0
  0
LINE
  8
0
 62
     0
 10
156.636
 20
79.8174
 30
0.0
 11
157.437
 21
79.8174
 31
0.0
  0
LINE
  8
0
 62
     0
 10
157.437
 20
79.8174
 30
0.0
 11
157.437
 21
82.9179
 31
0.0
  0
LINE
  8
0
 62
     0
 10
157.437
 20
82.9179
 30
0.0
 11
156.636
 21
82.9179
 31
0.0
  0
LINE
  8
0
 62
     0
 10
156.636
 20
82.9179
 30
0.0
 11
156.636
 21
88.718
 31
0.0
  0
LINE
  8
0
 62
     0
 10
156.636
 20
88.718
 30
0.0
 11
157.437
 21
88.718
 31
0.0
  0
LINE
  8
0
 62
     0
 10
157.437
 20
88.718
 30
0.0
 11
157.437
 21
91.8175
 31
0.0
  0
LINE
  8
0
 62
     0
 10
157.437
 20
91.8175
 30
0.0
 11
156.636
 21
91.8175
 31
0.0
  0
LINE
  8
0
 62
     0
 10
156.636
 20
91.8175
 30
0.0
 11
156.636
 21
92.8176
 31
0.0
  0
LINE
  8
0
 62
     0
 10
156.636
 20
92.8176
 30
0.0
 11
142.637
 21
92.8176
 31
0.0
  0
LINE
  8
0
 62
     0
 10
162.64
 20
92.8176
 30
0.0
 11
162.64
 21
91.8175
 31
0.0
  0
LINE
  8
0
 62
     0
 10
162.64
 20
91.8175
 30
0.0
 11
161.838
 21
91.8175
 31
0.0
  0
LINE
  8
0
 62
     0
 10
161.838
 20
91.8175
 30
0.0
 11
161.838
 21
88.718
 31
0.0
  0
LINE
  8
0
 62
     0
 10
161.838
 20
88.718
 30
0.0
 11
162.64
 21
88.718
 31
0.0
  0
LINE
  8
0
 62
     0
 10
162.64
 20
88.718
 30
0.0
 11
162.64
 21
82.9179
 31
0.0
  0
LINE
  8
0
 62
     0
 10
162.64
 20
82.9179
 30
0.0
 11
161.838
 21
82.9179
 31
0.0
  0
LINE
  8
0
 62
     0
 10
161.838
 20
82.9179
 30
0.0
 11
161.838
 21
79.8174
 31
0.0
  0
LINE
  8
0
 62
     0
 10
161.838
 20
79.8174
 30
0.0
 11
162.64
 21
79.8174
 31
0.0
  0
LINE
  8
0
 62
     0
 10
162.64
 20
79.8174
 30
0.0
 11
162.64
 21
78.8183
 31
0.0
  0
LINE
  8
0
 62
     0
 10
162.64
 20
78.8183
 30
0.0
 11
176.64
 21
78.8183
 31
0.0
  0
LINE
  8
0
 62
     0
 10
176.64
 20
78.8183
 30
0.0
 11
176.64
 21
79.8174
 31
0.0
  0
LINE
  8
0
 62
     0
 10
176.64
 20
79.8174
 30
0.0
 11
177.44
 21
79.8174
 31
0.0
  0
LINE
  8
0
 62
     0
 10
177.44
 20
79.8174
 30
0.0
 11
177.44
 21
82.9179
 31
0.0
  0
LINE
  8
0
 62
     0
 10
177.44
 20
82.9179
 30
0.0
 11
176.64
 21
82.9179
 31
0.0
  0
LINE
  8
0
 62
     0
 10
176.64
 20
82.9179
 30
0.0
 11
176.64
 21
88.718
 31
0.0
  0
LINE
  8
0
 62
     0
 10
176.64
 20
88.718
 30
0.0
 11
177.44
 21
88.718
 31
0.0
  0
LINE
  8
0
 62
     0
 10
177.44
 20
88.718
 30
0.0
 11
177.44
 21
91.8175
 31
0.0
  0
LINE
  8
0
 62
     0
 10
177.44
 20
91.8175
 30
0.0
 11
176.64
 21
91.8175
 31
0.0
  0
LINE
  8
0
 62
     0
 10
176.64
 20
91.8175
 30
0.0
 11
176.64
 21
92.8176
 31
0.0
  0
LINE
  8
0
 62
     0
 10
176.64
 20
92.8176
 30
0.0
 11
162.64
 21
92.8176
 31
0.0
  0
LINE
  8
0
 62
     0
 10
182.643
 20
92.8176
 30
0.0
 11
182.643
 21
91.8175
 31
0.0
  0
LINE
  8
0
 62
     0
 10
182.643
 20
91.8175
 30
0.0
 11
181.842
 21
91.8175
 31
0.0
  0
LINE
  8
0
 62
     0
 10
181.842
 20
91.8175
 30
0.0
 11
181.842
 21
88.718
 31
0.0
  0
LINE
  8
0
 62
     0
 10
181.842
 20
88.718
 30
0.0
 11
182.643
 21
88.718
 31
0.0
  0
LINE
  8
0
 62
     0
 10
182.643
 20
88.718
 30
0.0
 11
182.643
 21
82.9179
 31
0.0
  0
LINE
  8
0
 62
     0
 10
182.643
 20
82.9179
 30
0.0
 11
181.842
 21
82.9179
 31
0.0
  0
LINE
  8
0
 62
     0
 10
181.842
 20
82.9179
 30
0.0
 11
181.842
 21
79.8174
 31
0.0
  0
LINE
  8
0
 62
     0
 10
181.842
 20
79.8174
 30
0.0
 11
182.643
 21
79.8174
 31
0.0
  0
LINE
  8
0
 62
     0
 10
182.643
 20
79.8174
 30
0.0
 11
182.643
 21
78.8183
 31
0.0
  0
LINE
  8
0
 62
     0
 10
182.643
 20
78.8183
 30
0.0
 11
196.642
 21
78.8183
 31
0.0
  0
LINE
  8
0
 62
     0
 10
196.642
 20
78.8183
 30
0.0
 11
196.642
 21
79.8174
 31
0.0
  0
LINE
  8
0
 62
     0
 10
196.642
 20
79.8174
 30
0.0
 11
197.441
 21
79.8174
 31
0.0
  0
LINE
  8
0
 62
     0
 10
197.441
 20
79.8174
 30
0.0
 11
197.441
 21
82.9179
 31
0.0
  0
LINE
  8
0
 62
     0
 10
197.441
 20
82.9179
 30
0.0
 11
196.642
 21
82.9179
 31
0.0
  0
LINE
  8
0
 62
     0
 10
196.642
 20
82.9179
 30
0.0
 11
196.642
 21
88.718
 31
0.0
  0
LINE
  8
0
 62
     0
 10
196.642
 20
88.718
 30
0.0
 11
197.441
 21
88.718
 31
0.0
  0
LINE
  8
0
 62
     0
 10
197.441
 20
88.718
 30
0.0
 11
197.441
 21
91.8175
 31
0.0
  0
LINE
  8
0
 62
     0
 10
197.441
 20
91.8175
 30
0.0
 11
196.642
 21
91.8175
 31
0.0
  0
LINE
  8
0
 62
     0
 10
196.642
 20
91.8175
 30
0.0
 11
196.642
 21
92.8176
 31
0.0
  0
LINE
  8
0
 62
     0
 10
196.642
 20
92.8176
 30
0.0
 11
182.643
 21
92.8176
 31
0.0
  0
LINE
  8
0
 62
     0
 10
202.643
 20
92.8176
 30
0.0
 11
202.643
 21
91.8175
 31
0.0
  0
LINE
  8
0
 62
     0
 10
202.643
 20
91.8175
 30
0.0
 11
201.844
 21
91.8175
 31
0.0
  0
LINE
  8
0
 62
     0
 10
201.844
 20
91.8175
 30
0.0
 11
201.844
 21
88.718
 31
0.0
  0
LINE
  8
0
 62
     0
 10
201.844
 20
88.718
 30
0.0
 11
202.643
 21
88.718
 31
0.0
  0
LINE
  8
0
 62
     0
 10
202.643
 20
88.718
 30
0.0
 11
202.643
 21
82.9179
 31
0.0
  0
LINE
  8
0
 62
     0
 10
202.643
 20
82.9179
 30
0.0
 11
201.844
 21
82.9179
 31
0.0
  0
LINE
  8
0
 62
     0
 10
201.844
 20
82.9179
 30
0.0
 11
201.844
 21
79.8174
 31
0.0
  0
LINE
  8
0
 62
     0
 10
201.844
 20
79.8174
 30
0.0
 11
202.643
 21
79.8174
 31
0.0
  0
LINE
  8
0
 62
     0
 10
202.643
 20
79.8174
 30
0.0
 11
202.643
 21
78.8183
 31
0.0
  0
LINE
  8
0
 62
     0
 10
202.643
 20
78.8183
 30
0.0
 11
216.644
 21
78.8183
 31
0.0
  0
LINE
  8
0
 62
     0
 10
216.644
 20
78.8183
 30
0.0
 11
216.644
 21
79.8174
 31
0.0
  0
LINE
  8
0
 62
     0
 10
216.644
 20
79.8174
 30
0.0
 11
217.445
 21
79.8174
 31
0.0
  0
LINE
  8
0
 62
     0
 10
217.445
 20
79.8174
 30
0.0
 11
217.445
 21
82.9179
 31
0.0
  0
LINE
  8
0
 62
     0
 10
217.445
 20
82.9179
 30
0.0
 11
216.644
 21
82.9179
 31
0.0
  0
LINE
  8
0
 62
     0
 10
216.644
 20
82.9179
 30
0.0
 11
216.644
 21
88.718
 31
0.0
  0
LINE
  8
0
 62
     0
 10
216.644
 20
88.718
 30
0.0
 11
217.445
 21
88.718
 31
0.0
  0
LINE
  8
0
 62
     0
 10
217.445
 20
88.718
 30
0.0
 11
217.445
 21
91.8175
 31
0.0
  0
LINE
  8
0
 62
     0
 10
217.445
 20
91.8175
 30
0.0
 11
216.644
 21
91.8175
 31
0.0
  0
LINE
  8
0
 62
     0
 10
216.644
 20
91.8175
 30
0.0
 11
216.644
 21
92.8176
 31
0.0
  0
LINE
  8
0
 62
     0
 10
216.644
 20
92.8176
 30
0.0
 11
202.643
 21
92.8176
 31
0.0
  0
LINE
  8
0
 62
     0
 10
222.647
 20
92.8176
 30
0.0
 11
222.647
 21
91.8175
 31
0.0
  0
LINE
  8
0
 62
     0
 10
222.647
 20
91.8175
 30
0.0
 11
221.846
 21
91.8175
 31
0.0
  0
LINE
  8
0
 62
     0
 10
221.846
 20
91.8175
 30
0.0
 11
221.846
 21
88.718
 31
0.0
  0
LINE
  8
0
 62
     0
 10
221.846
 20
88.718
 30
0.0
 11
222.647
 21
88.718
 31
0.0
  0
LINE
  8
0
 62
     0
 10
222.647
 20
88.718
 30
0.0
 11
222.647
 21
82.9179
 31
0.0
  0
LINE
  8
0
 62
     0
 10
222.647
 20
82.9179
 30
0.0
 11
221.846
 21
82.9179
 31
0.0
  0
LINE
  8
0
 62
     0
 10
221.846
 20
82.9179
 30
0.0
 11
221.846
 21
79.8174
 31
0.0
  0
LINE
  8
0
 62
     0
 10
221.846
 20
79.8174
 30
0.0
 11
222.647
 21
79.8174
 31
0.0
  0
LINE
  8
0
 62
     0
 10
222.647
 20
79.8174
 30
0.0
 11
222.647
 21
78.8183
 31
0.0
  0
LINE
  8
0
 62
     0
 10
222.647
 20
78.8183
 30
0.0
 11
236.647
 21
78.8183
 31
0.0
  0
LINE
  8
0
 62
     0
 10
236.647
 20
78.8183
 30
0.0
 11
236.647
 21
79.8174
 31
0.0
  0
LINE
  8
0
 62
     0
 10
236.647
 20
79.8174
 30
0.0
 11
237.447
 21
79.8174
 31
0.0
  0
LINE
  8
0
 62
     0
 10
237.447
 20
79.8174
 30
0.0
 11
237.447
 21
82.9179
 31
0.0
  0
LINE
  8
0
 62
     0
 10
237.447
 20
82.9179
 30
0.0
 11
236.647
 21
82.9179
 31
0.0
  0
LINE
  8
0
 62
     0
 10
236.647
 20
82.9179
 30
0.0
 11
236.647
 21
88.718
 31
0.0
  0
LINE
  8
0
 62
     0
 10
236.647
 20
88.718
 30
0.0
 11
237.447
 21
88.718
 31
0.0
  0
LINE
  8
0
 62
     0
 10
237.447
 20
88.718
 30
0.0
 11
237.447
 21
91.8175
 31
0.0
  0
LINE
  8
0
 62
     0
 10
237.447
 20
91.8175
 30
0.0
 11
236.647
 21
91.8175
 31
0.0
  0
LINE
  8
0
 62
     0
 10
236.647
 20
91.8175
 30
0.0
 11
236.647
 21
92.8176
 31
0.0
  0
LINE
  8
0
 62
     0
 10
236.647
 20
92.8176
 30
0.0
 11
222.647
 21
92.8176
 31
0.0
  0
LINE
  8
0
 62
     0
 10
242.649
 20
92.8176
 30
0.0
 11
242.649
 21
91.8175
 31
0.0
  0
LINE
  8
0
 62
     0
 10
242.649
 20
91.8175
 30
0.0
 11
241.849
 21
91.8175
 31
0.0
  0
LINE
  8
0
 62
     0
 10
241.849
 20
91.8175
 30
0.0
 11
241.849
 21
88.718
 31
0.0
  0
LINE
  8
0
 62
     0
 10
241.849
 20
88.718
 30
0.0
 11
242.649
 21
88.718
 31
0.0
  0
LINE
  8
0
 62
     0
 10
242.649
 20
88.718
 30
0.0
 11
242.649
 21
82.9179
 31
0.0
  0
LINE
  8
0
 62
     0
 10
242.649
 20
82.9179
 30
0.0
 11
241.849
 21
82.9179
 31
0.0
  0
LINE
  8
0
 62
     0
 10
241.849
 20
82.9179
 30
0.0
 11
241.849
 21
79.8174
 31
0.0
  0
LINE
  8
0
 62
     0
 10
241.849
 20
79.8174
 30
0.0
 11
242.649
 21
79.8174
 31
0.0
  0
LINE
  8
0
 62
     0
 10
242.649
 20
79.8174
 30
0.0
 11
242.649
 21
78.8183
 31
0.0
  0
LINE
  8
0
 62
     0
 10
242.649
 20
78.8183
 30
0.0
 11
256.647
 21
78.8183
 31
0.0
  0
LINE
  8
0
 62
     0
 10
256.647
 20
78.8183
 30
0.0
 11
256.647
 21
79.8174
 31
0.0
  0
LINE
  8
0
 62
     0
 10
256.647
 20
79.8174
 30
0.0
 11
257.449
 21
79.8174
 31
0.0
  0
LINE
  8
0
 62
     0
 10
257.449
 20
79.8174
 30
0.0
 11
257.449
 21
82.9179
 31
0.0
  0
LINE
  8
0
 62
     0
 10
257.449
 20
82.9179
 30
0.0
 11
256.647
 21
82.9179
 31
0.0
  0
LINE
  8
0
 62
     0
 10
256.647
 20
82.9179
 30
0.0
 11
256.647
 21
88.718
 31
0.0
  0
LINE
  8
0
 62
     0
 10
256.647
 20
88.718
 30
0.0
 11
257.449
 21
88.718
 31
0.0
  0
LINE
  8
0
 62
     0
 10
257.449
 20
88.718
 30
0.0
 11
257.449
 21
91.8175
 31
0.0
  0
LINE
  8
0
 62
     0
 10
257.449
 20
91.8175
 30
0.0
 11
256.647
 21
91.8175
 31
0.0
  0
LINE
  8
0
 62
     0
 10
256.647
 20
91.8175
 30
0.0
 11
256.647
 21
92.8176
 31
0.0
  0
LINE
  8
0
 62
     0
 10
256.647
 20
92.8176
 30
0.0
 11
242.649
 21
92.8176
 31
0.0
  0
ENDSEC
  0
EOF
