  0
SECTION
  2
HEADER
  9
$ACADVER
  1
AC1009
  9
$EXTMIN
 10
0.0
 20
0.0
 30
0.0
  9
$EXTMAX
 10
1000.0
 20
1000.0
 30
0.0
  9
$FILLMODE
 70
 0
  9
$SPLFRAME
 70
 1
  0
ENDSEC
  0
SECTION
  2
TABLES
  0
TABLE
  2
LAYER
 70
1
  0
LAYER
  2
0
 70
     0
 62
     7
  6
CONTINUOUS
  0
ENDTAB
  0
ENDSEC
  0
SECTION
  2
ENTITIES
  0
LINE
  8
0
 62
     0
 10
0.0950846
 20
127.716
 30
0.0
 11
362.045
 21
127.716
 31
0.0
  0
LINE
  8
0
 62
     0
 10
362.045
 20
127.716
 30
0.0
 11
362.045
 21
0.0813043
 31
0.0
  0
LINE
  8
0
 62
     0
 10
362.045
 20
0.0813043
 30
0.0
 11
0.0950846
 21
0.0813043
 31
0.0
  0
LINE
  8
0
 62
     0
 10
0.0950846
 20
0.0813043
 30
0.0
 11
0.0950846
 21
127.716
 31
0.0
  0
LINE
  8
0
 62
     0
 10
128.444
 20
16.6067
 30
0.0
 11
128.444
 21
15.6077
 31
0.0
  0
LINE
  8
0
 62
     0
 10
128.444
 20
15.6077
 30
0.0
 11
127.645
 21
15.6077
 31
0.0
  0
LINE
  8
0
 62
     0
 10
127.645
 20
15.6077
 30
0.0
 11
127.645
 21
12.5084
 31
0.0
  0
LINE
  8
0
 62
     0
 10
127.645
 20
12.5084
 30
0.0
 11
128.444
 21
12.5084
 31
0.0
  0
LINE
  8
0
 62
     0
 10
128.444
 20
12.5084
 30
0.0
 11
128.444
 21
11.9076
 31
0.0
  0
LINE
  8
0
 62
     0
 10
128.444
 20
11.9076
 30
0.0
 11
88.8199
 21
11.9076
 31
0.0
  0
LINE
  8
0
 62
     0
 10
88.8199
 20
11.9076
 30
0.0
 11
88.8199
 21
15.1364
 31
0.0
  0
LINE
  8
0
 62
     0
 10
88.8199
 20
15.1364
 30
0.0
 11
87.0948
 21
15.1364
 31
0.0
  0
LINE
  8
0
 62
     0
 10
87.0948
 20
15.1364
 30
0.0
 11
87.0948
 21
16.0583
 31
0.0
  0
LINE
  8
0
 62
     0
 10
87.0948
 20
16.0583
 30
0.0
 11
83.7942
 21
16.0583
 31
0.0
  0
LINE
  8
0
 62
     0
 10
83.7942
 20
16.0583
 30
0.0
 11
83.7942
 21
15.1364
 31
0.0
  0
LINE
  8
0
 62
     0
 10
83.7942
 20
15.1364
 30
0.0
 11
82.0692
 21
15.1364
 31
0.0
  0
LINE
  8
0
 62
     0
 10
82.0692
 20
15.1364
 30
0.0
 11
82.0692
 21
11.9076
 31
0.0
  0
LINE
  8
0
 62
     0
 10
82.0692
 20
11.9076
 30
0.0
 11
81.2451
 21
11.9076
 31
0.0
  0
LINE
  8
0
 62
     0
 10
81.2451
 20
11.9076
 30
0.0
 11
81.2451
 21
9.10883
 31
0.0
  0
LINE
  8
0
 62
     0
 10
81.2451
 20
9.10883
 30
0.0
 11
82.0692
 21
9.10883
 31
0.0
  0
LINE
  8
0
 62
     0
 10
82.0692
 20
9.10883
 30
0.0
 11
82.0692
 21
2.83876
 31
0.0
  0
LINE
  8
0
 62
     0
 10
82.0692
 20
2.83876
 30
0.0
 11
83.7942
 21
2.83876
 31
0.0
  0
LINE
  8
0
 62
     0
 10
83.7942
 20
2.83876
 30
0.0
 11
83.7942
 21
1.85897
 31
0.0
  0
LINE
  8
0
 62
     0
 10
83.7942
 20
1.85897
 30
0.0
 11
87.0948
 21
1.85897
 31
0.0
  0
LINE
  8
0
 62
     0
 10
87.0948
 20
1.85897
 30
0.0
 11
87.0948
 21
2.83876
 31
0.0
  0
LINE
  8
0
 62
     0
 10
87.0948
 20
2.83876
 30
0.0
 11
88.8199
 21
2.83876
 31
0.0
  0
LINE
  8
0
 62
     0
 10
88.8199
 20
2.83876
 30
0.0
 11
88.8199
 21
7.30772
 31
0.0
  0
LINE
  8
0
 62
     0
 10
88.8199
 20
7.30772
 30
0.0
 11
128.444
 21
7.30772
 31
0.0
  0
LINE
  8
0
 62
     0
 10
128.444
 20
7.30772
 30
0.0
 11
128.444
 21
6.70828
 31
0.0
  0
LINE
  8
0
 62
     0
 10
128.444
 20
6.70828
 30
0.0
 11
127.645
 21
6.70828
 31
0.0
  0
LINE
  8
0
 62
     0
 10
127.645
 20
6.70828
 30
0.0
 11
127.645
 21
3.60772
 31
0.0
  0
LINE
  8
0
 62
     0
 10
127.645
 20
3.60772
 30
0.0
 11
128.444
 21
3.60772
 31
0.0
  0
LINE
  8
0
 62
     0
 10
128.444
 20
3.60772
 30
0.0
 11
128.444
 21
2.60863
 31
0.0
  0
LINE
  8
0
 62
     0
 10
128.444
 20
2.60863
 30
0.0
 11
142.445
 21
2.60863
 31
0.0
  0
LINE
  8
0
 62
     0
 10
142.445
 20
2.60863
 30
0.0
 11
142.445
 21
3.60772
 31
0.0
  0
LINE
  8
0
 62
     0
 10
142.445
 20
3.60772
 30
0.0
 11
143.244
 21
3.60772
 31
0.0
  0
LINE
  8
0
 62
     0
 10
143.244
 20
3.60772
 30
0.0
 11
143.244
 21
6.70828
 31
0.0
  0
LINE
  8
0
 62
     0
 10
143.244
 20
6.70828
 30
0.0
 11
142.445
 21
6.70828
 31
0.0
  0
LINE
  8
0
 62
     0
 10
142.445
 20
6.70828
 30
0.0
 11
142.445
 21
7.30772
 31
0.0
  0
LINE
  8
0
 62
     0
 10
142.445
 20
7.30772
 30
0.0
 11
182.069
 21
7.30772
 31
0.0
  0
LINE
  8
0
 62
     0
 10
182.069
 20
7.30772
 30
0.0
 11
182.069
 21
2.83876
 31
0.0
  0
LINE
  8
0
 62
     0
 10
182.069
 20
2.83876
 30
0.0
 11
183.794
 21
2.83876
 31
0.0
  0
LINE
  8
0
 62
     0
 10
183.794
 20
2.83876
 30
0.0
 11
183.794
 21
1.85897
 31
0.0
  0
LINE
  8
0
 62
     0
 10
183.794
 20
1.85897
 30
0.0
 11
187.095
 21
1.85897
 31
0.0
  0
LINE
  8
0
 62
     0
 10
187.095
 20
1.85897
 30
0.0
 11
187.095
 21
2.83876
 31
0.0
  0
LINE
  8
0
 62
     0
 10
187.095
 20
2.83876
 30
0.0
 11
188.82
 21
2.83876
 31
0.0
  0
LINE
  8
0
 62
     0
 10
188.82
 20
2.83876
 30
0.0
 11
188.82
 21
9.10883
 31
0.0
  0
LINE
  8
0
 62
     0
 10
188.82
 20
9.10883
 30
0.0
 11
189.644
 21
9.10883
 31
0.0
  0
LINE
  8
0
 62
     0
 10
189.644
 20
9.10883
 30
0.0
 11
189.644
 21
11.9076
 31
0.0
  0
LINE
  8
0
 62
     0
 10
189.644
 20
11.9076
 30
0.0
 11
188.82
 21
11.9076
 31
0.0
  0
LINE
  8
0
 62
     0
 10
188.82
 20
11.9076
 30
0.0
 11
188.82
 21
15.1364
 31
0.0
  0
LINE
  8
0
 62
     0
 10
188.82
 20
15.1364
 30
0.0
 11
187.095
 21
15.1364
 31
0.0
  0
LINE
  8
0
 62
     0
 10
187.095
 20
15.1364
 30
0.0
 11
187.095
 21
16.0583
 31
0.0
  0
LINE
  8
0
 62
     0
 10
187.095
 20
16.0583
 30
0.0
 11
183.794
 21
16.0583
 31
0.0
  0
LINE
  8
0
 62
     0
 10
183.794
 20
16.0583
 30
0.0
 11
183.794
 21
15.1364
 31
0.0
  0
LINE
  8
0
 62
     0
 10
183.794
 20
15.1364
 30
0.0
 11
182.069
 21
15.1364
 31
0.0
  0
LINE
  8
0
 62
     0
 10
182.069
 20
15.1364
 30
0.0
 11
182.069
 21
11.9076
 31
0.0
  0
LINE
  8
0
 62
     0
 10
182.069
 20
11.9076
 30
0.0
 11
142.445
 21
11.9076
 31
0.0
  0
LINE
  8
0
 62
     0
 10
142.445
 20
11.9076
 30
0.0
 11
142.445
 21
12.5084
 31
0.0
  0
LINE
  8
0
 62
     0
 10
142.445
 20
12.5084
 30
0.0
 11
143.244
 21
12.5084
 31
0.0
  0
LINE
  8
0
 62
     0
 10
143.244
 20
12.5084
 30
0.0
 11
143.244
 21
15.6077
 31
0.0
  0
LINE
  8
0
 62
     0
 10
143.244
 20
15.6077
 30
0.0
 11
142.445
 21
15.6077
 31
0.0
  0
LINE
  8
0
 62
     0
 10
142.445
 20
15.6077
 30
0.0
 11
142.445
 21
16.6067
 31
0.0
  0
LINE
  8
0
 62
     0
 10
142.445
 20
16.6067
 30
0.0
 11
128.444
 21
16.6067
 31
0.0
  0
LINE
  8
0
 62
     0
 10
5.00091
 20
16.6067
 30
0.0
 11
5.00091
 21
15.6077
 31
0.0
  0
LINE
  8
0
 62
     0
 10
5.00091
 20
15.6077
 30
0.0
 11
4.20028
 21
15.6077
 31
0.0
  0
LINE
  8
0
 62
     0
 10
4.20028
 20
15.6077
 30
0.0
 11
4.20028
 21
12.5084
 31
0.0
  0
LINE
  8
0
 62
     0
 10
4.20028
 20
12.5084
 30
0.0
 11
5.00091
 21
12.5084
 31
0.0
  0
LINE
  8
0
 62
     0
 10
5.00091
 20
12.5084
 30
0.0
 11
5.00091
 21
6.70828
 31
0.0
  0
LINE
  8
0
 62
     0
 10
5.00091
 20
6.70828
 30
0.0
 11
4.20028
 21
6.70828
 31
0.0
  0
LINE
  8
0
 62
     0
 10
4.20028
 20
6.70828
 30
0.0
 11
4.20028
 21
3.60772
 31
0.0
  0
LINE
  8
0
 62
     0
 10
4.20028
 20
3.60772
 30
0.0
 11
5.00091
 21
3.60772
 31
0.0
  0
LINE
  8
0
 62
     0
 10
5.00091
 20
3.60772
 30
0.0
 11
5.00091
 21
2.60863
 31
0.0
  0
LINE
  8
0
 62
     0
 10
5.00091
 20
2.60863
 30
0.0
 11
19.0004
 21
2.60863
 31
0.0
  0
LINE
  8
0
 62
     0
 10
19.0004
 20
2.60863
 30
0.0
 11
19.0004
 21
3.60772
 31
0.0
  0
LINE
  8
0
 62
     0
 10
19.0004
 20
3.60772
 30
0.0
 11
19.801
 21
3.60772
 31
0.0
  0
LINE
  8
0
 62
     0
 10
19.801
 20
3.60772
 30
0.0
 11
19.801
 21
6.70828
 31
0.0
  0
LINE
  8
0
 62
     0
 10
19.801
 20
6.70828
 30
0.0
 11
19.0004
 21
6.70828
 31
0.0
  0
LINE
  8
0
 62
     0
 10
19.0004
 20
6.70828
 30
0.0
 11
19.0004
 21
12.5084
 31
0.0
  0
LINE
  8
0
 62
     0
 10
19.0004
 20
12.5084
 30
0.0
 11
19.801
 21
12.5084
 31
0.0
  0
LINE
  8
0
 62
     0
 10
19.801
 20
12.5084
 30
0.0
 11
19.801
 21
15.6077
 31
0.0
  0
LINE
  8
0
 62
     0
 10
19.801
 20
15.6077
 30
0.0
 11
19.0004
 21
15.6077
 31
0.0
  0
LINE
  8
0
 62
     0
 10
19.0004
 20
15.6077
 30
0.0
 11
19.0004
 21
16.6067
 31
0.0
  0
LINE
  8
0
 62
     0
 10
19.0004
 20
16.6067
 30
0.0
 11
5.00091
 21
16.6067
 31
0.0
  0
LINE
  8
0
 62
     0
 10
29.9558
 20
16.6067
 30
0.0
 11
29.9558
 21
15.6077
 31
0.0
  0
LINE
  8
0
 62
     0
 10
29.9558
 20
15.6077
 30
0.0
 11
29.1551
 21
15.6077
 31
0.0
  0
LINE
  8
0
 62
     0
 10
29.1551
 20
15.6077
 30
0.0
 11
29.1551
 21
12.5084
 31
0.0
  0
LINE
  8
0
 62
     0
 10
29.1551
 20
12.5084
 30
0.0
 11
29.9558
 21
12.5084
 31
0.0
  0
LINE
  8
0
 62
     0
 10
29.9558
 20
12.5084
 30
0.0
 11
29.9558
 21
6.70828
 31
0.0
  0
LINE
  8
0
 62
     0
 10
29.9558
 20
6.70828
 30
0.0
 11
29.1551
 21
6.70828
 31
0.0
  0
LINE
  8
0
 62
     0
 10
29.1551
 20
6.70828
 30
0.0
 11
29.1551
 21
3.60772
 31
0.0
  0
LINE
  8
0
 62
     0
 10
29.1551
 20
3.60772
 30
0.0
 11
29.9558
 21
3.60772
 31
0.0
  0
LINE
  8
0
 62
     0
 10
29.9558
 20
3.60772
 30
0.0
 11
29.9558
 21
2.60863
 31
0.0
  0
LINE
  8
0
 62
     0
 10
29.9558
 20
2.60863
 30
0.0
 11
43.9554
 21
2.60863
 31
0.0
  0
LINE
  8
0
 62
     0
 10
43.9554
 20
2.60863
 30
0.0
 11
43.9554
 21
3.60772
 31
0.0
  0
LINE
  8
0
 62
     0
 10
43.9554
 20
3.60772
 30
0.0
 11
44.7559
 21
3.60772
 31
0.0
  0
LINE
  8
0
 62
     0
 10
44.7559
 20
3.60772
 30
0.0
 11
44.7559
 21
6.70828
 31
0.0
  0
LINE
  8
0
 62
     0
 10
44.7559
 20
6.70828
 30
0.0
 11
43.9554
 21
6.70828
 31
0.0
  0
LINE
  8
0
 62
     0
 10
43.9554
 20
6.70828
 30
0.0
 11
43.9554
 21
12.5084
 31
0.0
  0
LINE
  8
0
 62
     0
 10
43.9554
 20
12.5084
 30
0.0
 11
44.7559
 21
12.5084
 31
0.0
  0
LINE
  8
0
 62
     0
 10
44.7559
 20
12.5084
 30
0.0
 11
44.7559
 21
15.6077
 31
0.0
  0
LINE
  8
0
 62
     0
 10
44.7559
 20
15.6077
 30
0.0
 11
43.9554
 21
15.6077
 31
0.0
  0
LINE
  8
0
 62
     0
 10
43.9554
 20
15.6077
 30
0.0
 11
43.9554
 21
16.6067
 31
0.0
  0
LINE
  8
0
 62
     0
 10
43.9554
 20
16.6067
 30
0.0
 11
29.9558
 21
16.6067
 31
0.0
  0
LINE
  8
0
 62
     0
 10
55.1021
 20
16.6067
 30
0.0
 11
55.1021
 21
15.6077
 31
0.0
  0
LINE
  8
0
 62
     0
 10
55.1021
 20
15.6077
 30
0.0
 11
54.3017
 21
15.6077
 31
0.0
  0
LINE
  8
0
 62
     0
 10
54.3017
 20
15.6077
 30
0.0
 11
54.3017
 21
12.5084
 31
0.0
  0
LINE
  8
0
 62
     0
 10
54.3017
 20
12.5084
 30
0.0
 11
55.1021
 21
12.5084
 31
0.0
  0
LINE
  8
0
 62
     0
 10
55.1021
 20
12.5084
 30
0.0
 11
55.1021
 21
6.70828
 31
0.0
  0
LINE
  8
0
 62
     0
 10
55.1021
 20
6.70828
 30
0.0
 11
54.3017
 21
6.70828
 31
0.0
  0
LINE
  8
0
 62
     0
 10
54.3017
 20
6.70828
 30
0.0
 11
54.3017
 21
3.60772
 31
0.0
  0
LINE
  8
0
 62
     0
 10
54.3017
 20
3.60772
 30
0.0
 11
55.1021
 21
3.60772
 31
0.0
  0
LINE
  8
0
 62
     0
 10
55.1021
 20
3.60772
 30
0.0
 11
55.1021
 21
2.60863
 31
0.0
  0
LINE
  8
0
 62
     0
 10
55.1021
 20
2.60863
 30
0.0
 11
69.1018
 21
2.60863
 31
0.0
  0
LINE
  8
0
 62
     0
 10
69.1018
 20
2.60863
 30
0.0
 11
69.1018
 21
3.60772
 31
0.0
  0
LINE
  8
0
 62
     0
 10
69.1018
 20
3.60772
 30
0.0
 11
69.9022
 21
3.60772
 31
0.0
  0
LINE
  8
0
 62
     0
 10
69.9022
 20
3.60772
 30
0.0
 11
69.9022
 21
6.70828
 31
0.0
  0
LINE
  8
0
 62
     0
 10
69.9022
 20
6.70828
 30
0.0
 11
69.1018
 21
6.70828
 31
0.0
  0
LINE
  8
0
 62
     0
 10
69.1018
 20
6.70828
 30
0.0
 11
69.1018
 21
12.5084
 31
0.0
  0
LINE
  8
0
 62
     0
 10
69.1018
 20
12.5084
 30
0.0
 11
69.9022
 21
12.5084
 31
0.0
  0
LINE
  8
0
 62
     0
 10
69.9022
 20
12.5084
 30
0.0
 11
69.9022
 21
15.6077
 31
0.0
  0
LINE
  8
0
 62
     0
 10
69.9022
 20
15.6077
 30
0.0
 11
69.1018
 21
15.6077
 31
0.0
  0
LINE
  8
0
 62
     0
 10
69.1018
 20
15.6077
 30
0.0
 11
69.1018
 21
16.6067
 31
0.0
  0
LINE
  8
0
 62
     0
 10
69.1018
 20
16.6067
 30
0.0
 11
55.1021
 21
16.6067
 31
0.0
  0
LINE
  8
0
 62
     0
 10
201.786
 20
16.6067
 30
0.0
 11
201.786
 21
15.6077
 31
0.0
  0
LINE
  8
0
 62
     0
 10
201.786
 20
15.6077
 30
0.0
 11
200.987
 21
15.6077
 31
0.0
  0
LINE
  8
0
 62
     0
 10
200.987
 20
15.6077
 30
0.0
 11
200.987
 21
12.5084
 31
0.0
  0
LINE
  8
0
 62
     0
 10
200.987
 20
12.5084
 30
0.0
 11
201.786
 21
12.5084
 31
0.0
  0
LINE
  8
0
 62
     0
 10
201.786
 20
12.5084
 30
0.0
 11
201.786
 21
6.70828
 31
0.0
  0
LINE
  8
0
 62
     0
 10
201.786
 20
6.70828
 30
0.0
 11
200.987
 21
6.70828
 31
0.0
  0
LINE
  8
0
 62
     0
 10
200.987
 20
6.70828
 30
0.0
 11
200.987
 21
3.60772
 31
0.0
  0
LINE
  8
0
 62
     0
 10
200.987
 20
3.60772
 30
0.0
 11
201.786
 21
3.60772
 31
0.0
  0
LINE
  8
0
 62
     0
 10
201.786
 20
3.60772
 30
0.0
 11
201.786
 21
2.60863
 31
0.0
  0
LINE
  8
0
 62
     0
 10
201.786
 20
2.60863
 30
0.0
 11
215.787
 21
2.60863
 31
0.0
  0
LINE
  8
0
 62
     0
 10
215.787
 20
2.60863
 30
0.0
 11
215.787
 21
3.60772
 31
0.0
  0
LINE
  8
0
 62
     0
 10
215.787
 20
3.60772
 30
0.0
 11
216.586
 21
3.60772
 31
0.0
  0
LINE
  8
0
 62
     0
 10
216.586
 20
3.60772
 30
0.0
 11
216.586
 21
6.70828
 31
0.0
  0
LINE
  8
0
 62
     0
 10
216.586
 20
6.70828
 30
0.0
 11
215.787
 21
6.70828
 31
0.0
  0
LINE
  8
0
 62
     0
 10
215.787
 20
6.70828
 30
0.0
 11
215.787
 21
12.5084
 31
0.0
  0
LINE
  8
0
 62
     0
 10
215.787
 20
12.5084
 30
0.0
 11
216.586
 21
12.5084
 31
0.0
  0
LINE
  8
0
 62
     0
 10
216.586
 20
12.5084
 30
0.0
 11
216.586
 21
15.6077
 31
0.0
  0
LINE
  8
0
 62
     0
 10
216.586
 20
15.6077
 30
0.0
 11
215.787
 21
15.6077
 31
0.0
  0
LINE
  8
0
 62
     0
 10
215.787
 20
15.6077
 30
0.0
 11
215.787
 21
16.6067
 31
0.0
  0
LINE
  8
0
 62
     0
 10
215.787
 20
16.6067
 30
0.0
 11
201.786
 21
16.6067
 31
0.0
  0
LINE
  8
0
 62
     0
 10
226.932
 20
16.6067
 30
0.0
 11
226.932
 21
15.6077
 31
0.0
  0
LINE
  8
0
 62
     0
 10
226.932
 20
15.6077
 30
0.0
 11
226.133
 21
15.6077
 31
0.0
  0
LINE
  8
0
 62
     0
 10
226.133
 20
15.6077
 30
0.0
 11
226.133
 21
12.5084
 31
0.0
  0
LINE
  8
0
 62
     0
 10
226.133
 20
12.5084
 30
0.0
 11
226.932
 21
12.5084
 31
0.0
  0
LINE
  8
0
 62
     0
 10
226.932
 20
12.5084
 30
0.0
 11
226.932
 21
6.70828
 31
0.0
  0
LINE
  8
0
 62
     0
 10
226.932
 20
6.70828
 30
0.0
 11
226.133
 21
6.70828
 31
0.0
  0
LINE
  8
0
 62
     0
 10
226.133
 20
6.70828
 30
0.0
 11
226.133
 21
3.60772
 31
0.0
  0
LINE
  8
0
 62
     0
 10
226.133
 20
3.60772
 30
0.0
 11
226.932
 21
3.60772
 31
0.0
  0
LINE
  8
0
 62
     0
 10
226.932
 20
3.60772
 30
0.0
 11
226.932
 21
2.60863
 31
0.0
  0
LINE
  8
0
 62
     0
 10
226.932
 20
2.60863
 30
0.0
 11
240.932
 21
2.60863
 31
0.0
  0
LINE
  8
0
 62
     0
 10
240.932
 20
2.60863
 30
0.0
 11
240.932
 21
3.60772
 31
0.0
  0
LINE
  8
0
 62
     0
 10
240.932
 20
3.60772
 30
0.0
 11
241.733
 21
3.60772
 31
0.0
  0
LINE
  8
0
 62
     0
 10
241.733
 20
3.60772
 30
0.0
 11
241.733
 21
6.70828
 31
0.0
  0
LINE
  8
0
 62
     0
 10
241.733
 20
6.70828
 30
0.0
 11
240.932
 21
6.70828
 31
0.0
  0
LINE
  8
0
 62
     0
 10
240.932
 20
6.70828
 30
0.0
 11
240.932
 21
12.5084
 31
0.0
  0
LINE
  8
0
 62
     0
 10
240.932
 20
12.5084
 30
0.0
 11
241.733
 21
12.5084
 31
0.0
  0
LINE
  8
0
 62
     0
 10
241.733
 20
12.5084
 30
0.0
 11
241.733
 21
15.6077
 31
0.0
  0
LINE
  8
0
 62
     0
 10
241.733
 20
15.6077
 30
0.0
 11
240.932
 21
15.6077
 31
0.0
  0
LINE
  8
0
 62
     0
 10
240.932
 20
15.6077
 30
0.0
 11
240.932
 21
16.6067
 31
0.0
  0
LINE
  8
0
 62
     0
 10
240.932
 20
16.6067
 30
0.0
 11
226.932
 21
16.6067
 31
0.0
  0
LINE
  8
0
 62
     0
 10
252.078
 20
16.6067
 30
0.0
 11
252.078
 21
15.6077
 31
0.0
  0
LINE
  8
0
 62
     0
 10
252.078
 20
15.6077
 30
0.0
 11
251.278
 21
15.6077
 31
0.0
  0
LINE
  8
0
 62
     0
 10
251.278
 20
15.6077
 30
0.0
 11
251.278
 21
12.5084
 31
0.0
  0
LINE
  8
0
 62
     0
 10
251.278
 20
12.5084
 30
0.0
 11
252.078
 21
12.5084
 31
0.0
  0
LINE
  8
0
 62
     0
 10
252.078
 20
12.5084
 30
0.0
 11
252.078
 21
6.70828
 31
0.0
  0
LINE
  8
0
 62
     0
 10
252.078
 20
6.70828
 30
0.0
 11
251.278
 21
6.70828
 31
0.0
  0
LINE
  8
0
 62
     0
 10
251.278
 20
6.70828
 30
0.0
 11
251.278
 21
3.60772
 31
0.0
  0
LINE
  8
0
 62
     0
 10
251.278
 20
3.60772
 30
0.0
 11
252.078
 21
3.60772
 31
0.0
  0
LINE
  8
0
 62
     0
 10
252.078
 20
3.60772
 30
0.0
 11
252.078
 21
2.60863
 31
0.0
  0
LINE
  8
0
 62
     0
 10
252.078
 20
2.60863
 30
0.0
 11
266.078
 21
2.60863
 31
0.0
  0
LINE
  8
0
 62
     0
 10
266.078
 20
2.60863
 30
0.0
 11
266.078
 21
3.60772
 31
0.0
  0
LINE
  8
0
 62
     0
 10
266.078
 20
3.60772
 30
0.0
 11
266.879
 21
3.60772
 31
0.0
  0
LINE
  8
0
 62
     0
 10
266.879
 20
3.60772
 30
0.0
 11
266.879
 21
6.70828
 31
0.0
  0
LINE
  8
0
 62
     0
 10
266.879
 20
6.70828
 30
0.0
 11
266.078
 21
6.70828
 31
0.0
  0
LINE
  8
0
 62
     0
 10
266.078
 20
6.70828
 30
0.0
 11
266.078
 21
12.5084
 31
0.0
  0
LINE
  8
0
 62
     0
 10
266.078
 20
12.5084
 30
0.0
 11
266.879
 21
12.5084
 31
0.0
  0
LINE
  8
0
 62
     0
 10
266.879
 20
12.5084
 30
0.0
 11
266.879
 21
15.6077
 31
0.0
  0
LINE
  8
0
 62
     0
 10
266.879
 20
15.6077
 30
0.0
 11
266.078
 21
15.6077
 31
0.0
  0
LINE
  8
0
 62
     0
 10
266.078
 20
15.6077
 30
0.0
 11
266.078
 21
16.6067
 31
0.0
  0
LINE
  8
0
 62
     0
 10
266.078
 20
16.6067
 30
0.0
 11
252.078
 21
16.6067
 31
0.0
  0
LINE
  8
0
 62
     0
 10
277.224
 20
16.6067
 30
0.0
 11
277.224
 21
15.6077
 31
0.0
  0
LINE
  8
0
 62
     0
 10
277.224
 20
15.6077
 30
0.0
 11
276.425
 21
15.6077
 31
0.0
  0
LINE
  8
0
 62
     0
 10
276.425
 20
15.6077
 30
0.0
 11
276.425
 21
12.5084
 31
0.0
  0
LINE
  8
0
 62
     0
 10
276.425
 20
12.5084
 30
0.0
 11
277.224
 21
12.5084
 31
0.0
  0
LINE
  8
0
 62
     0
 10
277.224
 20
12.5084
 30
0.0
 11
277.224
 21
6.70828
 31
0.0
  0
LINE
  8
0
 62
     0
 10
277.224
 20
6.70828
 30
0.0
 11
276.425
 21
6.70828
 31
0.0
  0
LINE
  8
0
 62
     0
 10
276.425
 20
6.70828
 30
0.0
 11
276.425
 21
3.60772
 31
0.0
  0
LINE
  8
0
 62
     0
 10
276.425
 20
3.60772
 30
0.0
 11
277.224
 21
3.60772
 31
0.0
  0
LINE
  8
0
 62
     0
 10
277.224
 20
3.60772
 30
0.0
 11
277.224
 21
2.60863
 31
0.0
  0
LINE
  8
0
 62
     0
 10
277.224
 20
2.60863
 30
0.0
 11
291.225
 21
2.60863
 31
0.0
  0
LINE
  8
0
 62
     0
 10
291.225
 20
2.60863
 30
0.0
 11
291.225
 21
3.60772
 31
0.0
  0
LINE
  8
0
 62
     0
 10
291.225
 20
3.60772
 30
0.0
 11
292.024
 21
3.60772
 31
0.0
  0
LINE
  8
0
 62
     0
 10
292.024
 20
3.60772
 30
0.0
 11
292.024
 21
6.70828
 31
0.0
  0
LINE
  8
0
 62
     0
 10
292.024
 20
6.70828
 30
0.0
 11
291.225
 21
6.70828
 31
0.0
  0
LINE
  8
0
 62
     0
 10
291.225
 20
6.70828
 30
0.0
 11
291.225
 21
12.5084
 31
0.0
  0
LINE
  8
0
 62
     0
 10
291.225
 20
12.5084
 30
0.0
 11
292.024
 21
12.5084
 31
0.0
  0
LINE
  8
0
 62
     0
 10
292.024
 20
12.5084
 30
0.0
 11
292.024
 21
15.6077
 31
0.0
  0
LINE
  8
0
 62
     0
 10
292.024
 20
15.6077
 30
0.0
 11
291.225
 21
15.6077
 31
0.0
  0
LINE
  8
0
 62
     0
 10
291.225
 20
15.6077
 30
0.0
 11
291.225
 21
16.6067
 31
0.0
  0
LINE
  8
0
 62
     0
 10
291.225
 20
16.6067
 30
0.0
 11
277.224
 21
16.6067
 31
0.0
  0
LINE
  8
0
 62
     0
 10
303.419
 20
16.6067
 30
0.0
 11
303.419
 21
15.6077
 31
0.0
  0
LINE
  8
0
 62
     0
 10
303.419
 20
15.6077
 30
0.0
 11
302.618
 21
15.6077
 31
0.0
  0
LINE
  8
0
 62
     0
 10
302.618
 20
15.6077
 30
0.0
 11
302.618
 21
12.5084
 31
0.0
  0
LINE
  8
0
 62
     0
 10
302.618
 20
12.5084
 30
0.0
 11
303.419
 21
12.5084
 31
0.0
  0
LINE
  8
0
 62
     0
 10
303.419
 20
12.5084
 30
0.0
 11
303.419
 21
6.70828
 31
0.0
  0
LINE
  8
0
 62
     0
 10
303.419
 20
6.70828
 30
0.0
 11
302.618
 21
6.70828
 31
0.0
  0
LINE
  8
0
 62
     0
 10
302.618
 20
6.70828
 30
0.0
 11
302.618
 21
3.60772
 31
0.0
  0
LINE
  8
0
 62
     0
 10
302.618
 20
3.60772
 30
0.0
 11
303.419
 21
3.60772
 31
0.0
  0
LINE
  8
0
 62
     0
 10
303.419
 20
3.60772
 30
0.0
 11
303.419
 21
2.60863
 31
0.0
  0
LINE
  8
0
 62
     0
 10
303.419
 20
2.60863
 30
0.0
 11
317.419
 21
2.60863
 31
0.0
  0
LINE
  8
0
 62
     0
 10
317.419
 20
2.60863
 30
0.0
 11
317.419
 21
3.60772
 31
0.0
  0
LINE
  8
0
 62
     0
 10
317.419
 20
3.60772
 30
0.0
 11
318.219
 21
3.60772
 31
0.0
  0
LINE
  8
0
 62
     0
 10
318.219
 20
3.60772
 30
0.0
 11
318.219
 21
6.70828
 31
0.0
  0
LINE
  8
0
 62
     0
 10
318.219
 20
6.70828
 30
0.0
 11
317.419
 21
6.70828
 31
0.0
  0
LINE
  8
0
 62
     0
 10
317.419
 20
6.70828
 30
0.0
 11
317.419
 21
12.5084
 31
0.0
  0
LINE
  8
0
 62
     0
 10
317.419
 20
12.5084
 30
0.0
 11
318.219
 21
12.5084
 31
0.0
  0
LINE
  8
0
 62
     0
 10
318.219
 20
12.5084
 30
0.0
 11
318.219
 21
15.6077
 31
0.0
  0
LINE
  8
0
 62
     0
 10
318.219
 20
15.6077
 30
0.0
 11
317.419
 21
15.6077
 31
0.0
  0
LINE
  8
0
 62
     0
 10
317.419
 20
15.6077
 30
0.0
 11
317.419
 21
16.6067
 31
0.0
  0
LINE
  8
0
 62
     0
 10
317.419
 20
16.6067
 30
0.0
 11
303.419
 21
16.6067
 31
0.0
  0
LINE
  8
0
 62
     0
 10
323.612
 20
16.6067
 30
0.0
 11
323.612
 21
15.6077
 31
0.0
  0
LINE
  8
0
 62
     0
 10
323.612
 20
15.6077
 30
0.0
 11
322.812
 21
15.6077
 31
0.0
  0
LINE
  8
0
 62
     0
 10
322.812
 20
15.6077
 30
0.0
 11
322.812
 21
12.5084
 31
0.0
  0
LINE
  8
0
 62
     0
 10
322.812
 20
12.5084
 30
0.0
 11
323.612
 21
12.5084
 31
0.0
  0
LINE
  8
0
 62
     0
 10
323.612
 20
12.5084
 30
0.0
 11
323.612
 21
6.70828
 31
0.0
  0
LINE
  8
0
 62
     0
 10
323.612
 20
6.70828
 30
0.0
 11
322.812
 21
6.70828
 31
0.0
  0
LINE
  8
0
 62
     0
 10
322.812
 20
6.70828
 30
0.0
 11
322.812
 21
3.60772
 31
0.0
  0
LINE
  8
0
 62
     0
 10
322.812
 20
3.60772
 30
0.0
 11
323.612
 21
3.60772
 31
0.0
  0
LINE
  8
0
 62
     0
 10
323.612
 20
3.60772
 30
0.0
 11
323.612
 21
2.60863
 31
0.0
  0
LINE
  8
0
 62
     0
 10
323.612
 20
2.60863
 30
0.0
 11
337.611
 21
2.60863
 31
0.0
  0
LINE
  8
0
 62
     0
 10
337.611
 20
2.60863
 30
0.0
 11
337.611
 21
3.60772
 31
0.0
  0
LINE
  8
0
 62
     0
 10
337.611
 20
3.60772
 30
0.0
 11
338.412
 21
3.60772
 31
0.0
  0
LINE
  8
0
 62
     0
 10
338.412
 20
3.60772
 30
0.0
 11
338.412
 21
6.70828
 31
0.0
  0
LINE
  8
0
 62
     0
 10
338.412
 20
6.70828
 30
0.0
 11
337.611
 21
6.70828
 31
0.0
  0
LINE
  8
0
 62
     0
 10
337.611
 20
6.70828
 30
0.0
 11
337.611
 21
12.5084
 31
0.0
  0
LINE
  8
0
 62
     0
 10
337.611
 20
12.5084
 30
0.0
 11
338.412
 21
12.5084
 31
0.0
  0
LINE
  8
0
 62
     0
 10
338.412
 20
12.5084
 30
0.0
 11
338.412
 21
15.6077
 31
0.0
  0
LINE
  8
0
 62
     0
 10
338.412
 20
15.6077
 30
0.0
 11
337.611
 21
15.6077
 31
0.0
  0
LINE
  8
0
 62
     0
 10
337.611
 20
15.6077
 30
0.0
 11
337.611
 21
16.6067
 31
0.0
  0
LINE
  8
0
 62
     0
 10
337.611
 20
16.6067
 30
0.0
 11
323.612
 21
16.6067
 31
0.0
  0
LINE
  8
0
 62
     0
 10
343.615
 20
16.6067
 30
0.0
 11
343.615
 21
15.6077
 31
0.0
  0
LINE
  8
0
 62
     0
 10
343.615
 20
15.6077
 30
0.0
 11
342.815
 21
15.6077
 31
0.0
  0
LINE
  8
0
 62
     0
 10
342.815
 20
15.6077
 30
0.0
 11
342.815
 21
12.5084
 31
0.0
  0
LINE
  8
0
 62
     0
 10
342.815
 20
12.5084
 30
0.0
 11
343.615
 21
12.5084
 31
0.0
  0
LINE
  8
0
 62
     0
 10
343.615
 20
12.5084
 30
0.0
 11
343.615
 21
6.70828
 31
0.0
  0
LINE
  8
0
 62
     0
 10
343.615
 20
6.70828
 30
0.0
 11
342.815
 21
6.70828
 31
0.0
  0
LINE
  8
0
 62
     0
 10
342.815
 20
6.70828
 30
0.0
 11
342.815
 21
3.60772
 31
0.0
  0
LINE
  8
0
 62
     0
 10
342.815
 20
3.60772
 30
0.0
 11
343.615
 21
3.60772
 31
0.0
  0
LINE
  8
0
 62
     0
 10
343.615
 20
3.60772
 30
0.0
 11
343.615
 21
2.60863
 31
0.0
  0
LINE
  8
0
 62
     0
 10
343.615
 20
2.60863
 30
0.0
 11
357.614
 21
2.60863
 31
0.0
  0
LINE
  8
0
 62
     0
 10
357.614
 20
2.60863
 30
0.0
 11
357.614
 21
3.60772
 31
0.0
  0
LINE
  8
0
 62
     0
 10
357.614
 20
3.60772
 30
0.0
 11
358.415
 21
3.60772
 31
0.0
  0
LINE
  8
0
 62
     0
 10
358.415
 20
3.60772
 30
0.0
 11
358.415
 21
6.70828
 31
0.0
  0
LINE
  8
0
 62
     0
 10
358.415
 20
6.70828
 30
0.0
 11
357.614
 21
6.70828
 31
0.0
  0
LINE
  8
0
 62
     0
 10
357.614
 20
6.70828
 30
0.0
 11
357.614
 21
12.5084
 31
0.0
  0
LINE
  8
0
 62
     0
 10
357.614
 20
12.5084
 30
0.0
 11
358.415
 21
12.5084
 31
0.0
  0
LINE
  8
0
 62
     0
 10
358.415
 20
12.5084
 30
0.0
 11
358.415
 21
15.6077
 31
0.0
  0
LINE
  8
0
 62
     0
 10
358.415
 20
15.6077
 30
0.0
 11
357.614
 21
15.6077
 31
0.0
  0
LINE
  8
0
 62
     0
 10
357.614
 20
15.6077
 30
0.0
 11
357.614
 21
16.6067
 31
0.0
  0
LINE
  8
0
 62
     0
 10
357.614
 20
16.6067
 30
0.0
 11
343.615
 21
16.6067
 31
0.0
  0
LINE
  8
0
 62
     0
 10
14.5259
 20
36.6116
 30
0.0
 11
14.5259
 21
35.6112
 31
0.0
  0
LINE
  8
0
 62
     0
 10
14.5259
 20
35.6112
 30
0.0
 11
13.7253
 21
35.6112
 31
0.0
  0
LINE
  8
0
 62
     0
 10
13.7253
 20
35.6112
 30
0.0
 11
13.7253
 21
32.5107
 31
0.0
  0
LINE
  8
0
 62
     0
 10
13.7253
 20
32.5107
 30
0.0
 11
14.5259
 21
32.5107
 31
0.0
  0
LINE
  8
0
 62
     0
 10
14.5259
 20
32.5107
 30
0.0
 11
14.5259
 21
31.9112
 31
0.0
  0
LINE
  8
0
 62
     0
 10
14.5259
 20
31.9112
 30
0.0
 11
13.0004
 21
31.9112
 31
0.0
  0
LINE
  8
0
 62
     0
 10
13.0004
 20
31.9112
 30
0.0
 11
13.0004
 21
35.1414
 31
0.0
  0
LINE
  8
0
 62
     0
 10
13.0004
 20
35.1414
 30
0.0
 11
11.2751
 21
35.1414
 31
0.0
  0
LINE
  8
0
 62
     0
 10
11.2751
 20
35.1414
 30
0.0
 11
11.2751
 21
36.062
 31
0.0
  0
LINE
  8
0
 62
     0
 10
11.2751
 20
36.062
 30
0.0
 11
7.97609
 21
36.062
 31
0.0
  0
LINE
  8
0
 62
     0
 10
7.97609
 20
36.062
 30
0.0
 11
7.97609
 21
35.1414
 31
0.0
  0
LINE
  8
0
 62
     0
 10
7.97609
 20
35.1414
 30
0.0
 11
6.2508
 21
35.1414
 31
0.0
  0
LINE
  8
0
 62
     0
 10
6.2508
 20
35.1414
 30
0.0
 11
6.2508
 21
31.9112
 31
0.0
  0
LINE
  8
0
 62
     0
 10
6.2508
 20
31.9112
 30
0.0
 11
5.42533
 21
31.9112
 31
0.0
  0
LINE
  8
0
 62
     0
 10
5.42533
 20
31.9112
 30
0.0
 11
5.42533
 21
29.111
 31
0.0
  0
LINE
  8
0
 62
     0
 10
5.42533
 20
29.111
 30
0.0
 11
6.2508
 21
29.111
 31
0.0
  0
LINE
  8
0
 62
     0
 10
6.2508
 20
29.111
 30
0.0
 11
6.2508
 21
22.8396
 31
0.0
  0
LINE
  8
0
 62
     0
 10
6.2508
 20
22.8396
 30
0.0
 11
7.97609
 21
22.8396
 31
0.0
  0
LINE
  8
0
 62
     0
 10
7.97609
 20
22.8396
 30
0.0
 11
7.97609
 21
21.8612
 31
0.0
  0
LINE
  8
0
 62
     0
 10
7.97609
 20
21.8612
 30
0.0
 11
11.2751
 21
21.8612
 31
0.0
  0
LINE
  8
0
 62
     0
 10
11.2751
 20
21.8612
 30
0.0
 11
11.2751
 21
22.8396
 31
0.0
  0
LINE
  8
0
 62
     0
 10
11.2751
 20
22.8396
 30
0.0
 11
13.0004
 21
22.8396
 31
0.0
  0
LINE
  8
0
 62
     0
 10
13.0004
 20
22.8396
 30
0.0
 11
13.0004
 21
27.3113
 31
0.0
  0
LINE
  8
0
 62
     0
 10
13.0004
 20
27.3113
 30
0.0
 11
14.5259
 21
27.3113
 31
0.0
  0
LINE
  8
0
 62
     0
 10
14.5259
 20
27.3113
 30
0.0
 11
14.5259
 21
26.7119
 31
0.0
  0
LINE
  8
0
 62
     0
 10
14.5259
 20
26.7119
 30
0.0
 11
13.7253
 21
26.7119
 31
0.0
  0
LINE
  8
0
 62
     0
 10
13.7253
 20
26.7119
 30
0.0
 11
13.7253
 21
23.6113
 31
0.0
  0
LINE
  8
0
 62
     0
 10
13.7253
 20
23.6113
 30
0.0
 11
14.5259
 21
23.6113
 31
0.0
  0
LINE
  8
0
 62
     0
 10
14.5259
 20
23.6113
 30
0.0
 11
14.5259
 21
22.6109
 31
0.0
  0
LINE
  8
0
 62
     0
 10
14.5259
 20
22.6109
 30
0.0
 11
28.5254
 21
22.6109
 31
0.0
  0
LINE
  8
0
 62
     0
 10
28.5254
 20
22.6109
 30
0.0
 11
28.5254
 21
23.6113
 31
0.0
  0
LINE
  8
0
 62
     0
 10
28.5254
 20
23.6113
 30
0.0
 11
29.326
 21
23.6113
 31
0.0
  0
LINE
  8
0
 62
     0
 10
29.326
 20
23.6113
 30
0.0
 11
29.326
 21
26.7119
 31
0.0
  0
LINE
  8
0
 62
     0
 10
29.326
 20
26.7119
 30
0.0
 11
28.5254
 21
26.7119
 31
0.0
  0
LINE
  8
0
 62
     0
 10
28.5254
 20
26.7119
 30
0.0
 11
28.5254
 21
27.3113
 31
0.0
  0
LINE
  8
0
 62
     0
 10
28.5254
 20
27.3113
 30
0.0
 11
30.0509
 21
27.3113
 31
0.0
  0
LINE
  8
0
 62
     0
 10
30.0509
 20
27.3113
 30
0.0
 11
30.0509
 21
22.8396
 31
0.0
  0
LINE
  8
0
 62
     0
 10
30.0509
 20
22.8396
 30
0.0
 11
31.7762
 21
22.8396
 31
0.0
  0
LINE
  8
0
 62
     0
 10
31.7762
 20
22.8396
 30
0.0
 11
31.7762
 21
21.8612
 31
0.0
  0
LINE
  8
0
 62
     0
 10
31.7762
 20
21.8612
 30
0.0
 11
35.0752
 21
21.8612
 31
0.0
  0
LINE
  8
0
 62
     0
 10
35.0752
 20
21.8612
 30
0.0
 11
35.0752
 21
22.8396
 31
0.0
  0
LINE
  8
0
 62
     0
 10
35.0752
 20
22.8396
 30
0.0
 11
36.8004
 21
22.8396
 31
0.0
  0
LINE
  8
0
 62
     0
 10
36.8004
 20
22.8396
 30
0.0
 11
36.8004
 21
29.111
 31
0.0
  0
LINE
  8
0
 62
     0
 10
36.8004
 20
29.111
 30
0.0
 11
37.6259
 21
29.111
 31
0.0
  0
LINE
  8
0
 62
     0
 10
37.6259
 20
29.111
 30
0.0
 11
37.6259
 21
31.9112
 31
0.0
  0
LINE
  8
0
 62
     0
 10
37.6259
 20
31.9112
 30
0.0
 11
36.8004
 21
31.9112
 31
0.0
  0
LINE
  8
0
 62
     0
 10
36.8004
 20
31.9112
 30
0.0
 11
36.8004
 21
35.1414
 31
0.0
  0
LINE
  8
0
 62
     0
 10
36.8004
 20
35.1414
 30
0.0
 11
35.0752
 21
35.1414
 31
0.0
  0
LINE
  8
0
 62
     0
 10
35.0752
 20
35.1414
 30
0.0
 11
35.0752
 21
36.062
 31
0.0
  0
LINE
  8
0
 62
     0
 10
35.0752
 20
36.062
 30
0.0
 11
31.7762
 21
36.062
 31
0.0
  0
LINE
  8
0
 62
     0
 10
31.7762
 20
36.062
 30
0.0
 11
31.7762
 21
35.1414
 31
0.0
  0
LINE
  8
0
 62
     0
 10
31.7762
 20
35.1414
 30
0.0
 11
30.0509
 21
35.1414
 31
0.0
  0
LINE
  8
0
 62
     0
 10
30.0509
 20
35.1414
 30
0.0
 11
30.0509
 21
31.9112
 31
0.0
  0
LINE
  8
0
 62
     0
 10
30.0509
 20
31.9112
 30
0.0
 11
28.5254
 21
31.9112
 31
0.0
  0
LINE
  8
0
 62
     0
 10
28.5254
 20
31.9112
 30
0.0
 11
28.5254
 21
32.5107
 31
0.0
  0
LINE
  8
0
 62
     0
 10
28.5254
 20
32.5107
 30
0.0
 11
29.326
 21
32.5107
 31
0.0
  0
LINE
  8
0
 62
     0
 10
29.326
 20
32.5107
 30
0.0
 11
29.326
 21
35.6112
 31
0.0
  0
LINE
  8
0
 62
     0
 10
29.326
 20
35.6112
 30
0.0
 11
28.5254
 21
35.6112
 31
0.0
  0
LINE
  8
0
 62
     0
 10
28.5254
 20
35.6112
 30
0.0
 11
28.5254
 21
36.6116
 31
0.0
  0
LINE
  8
0
 62
     0
 10
28.5254
 20
36.6116
 30
0.0
 11
14.5259
 21
36.6116
 31
0.0
  0
LINE
  8
0
 62
     0
 10
263.7
 20
36.6116
 30
0.0
 11
263.7
 21
35.6112
 31
0.0
  0
LINE
  8
0
 62
     0
 10
263.7
 20
35.6112
 30
0.0
 11
262.9
 21
35.6112
 31
0.0
  0
LINE
  8
0
 62
     0
 10
262.9
 20
35.6112
 30
0.0
 11
262.9
 21
32.5107
 31
0.0
  0
LINE
  8
0
 62
     0
 10
262.9
 20
32.5107
 30
0.0
 11
263.7
 21
32.5107
 31
0.0
  0
LINE
  8
0
 62
     0
 10
263.7
 20
32.5107
 30
0.0
 11
263.7
 21
31.9112
 31
0.0
  0
LINE
  8
0
 62
     0
 10
263.7
 20
31.9112
 30
0.0
 11
262.175
 21
31.9112
 31
0.0
  0
LINE
  8
0
 62
     0
 10
262.175
 20
31.9112
 30
0.0
 11
262.175
 21
35.1414
 31
0.0
  0
LINE
  8
0
 62
     0
 10
262.175
 20
35.1414
 30
0.0
 11
260.449
 21
35.1414
 31
0.0
  0
LINE
  8
0
 62
     0
 10
260.449
 20
35.1414
 30
0.0
 11
260.449
 21
36.062
 31
0.0
  0
LINE
  8
0
 62
     0
 10
260.449
 20
36.062
 30
0.0
 11
257.15
 21
36.062
 31
0.0
  0
LINE
  8
0
 62
     0
 10
257.15
 20
36.062
 30
0.0
 11
257.15
 21
35.1414
 31
0.0
  0
LINE
  8
0
 62
     0
 10
257.15
 20
35.1414
 30
0.0
 11
255.423
 21
35.1414
 31
0.0
  0
LINE
  8
0
 62
     0
 10
255.423
 20
35.1414
 30
0.0
 11
255.423
 21
31.9112
 31
0.0
  0
LINE
  8
0
 62
     0
 10
255.423
 20
31.9112
 30
0.0
 11
254.599
 21
31.9112
 31
0.0
  0
LINE
  8
0
 62
     0
 10
254.599
 20
31.9112
 30
0.0
 11
254.599
 21
29.111
 31
0.0
  0
LINE
  8
0
 62
     0
 10
254.599
 20
29.111
 30
0.0
 11
255.423
 21
29.111
 31
0.0
  0
LINE
  8
0
 62
     0
 10
255.423
 20
29.111
 30
0.0
 11
255.423
 21
22.8396
 31
0.0
  0
LINE
  8
0
 62
     0
 10
255.423
 20
22.8396
 30
0.0
 11
257.15
 21
22.8396
 31
0.0
  0
LINE
  8
0
 62
     0
 10
257.15
 20
22.8396
 30
0.0
 11
257.15
 21
21.8612
 31
0.0
  0
LINE
  8
0
 62
     0
 10
257.15
 20
21.8612
 30
0.0
 11
260.449
 21
21.8612
 31
0.0
  0
LINE
  8
0
 62
     0
 10
260.449
 20
21.8612
 30
0.0
 11
260.449
 21
22.8396
 31
0.0
  0
LINE
  8
0
 62
     0
 10
260.449
 20
22.8396
 30
0.0
 11
262.175
 21
22.8396
 31
0.0
  0
LINE
  8
0
 62
     0
 10
262.175
 20
22.8396
 30
0.0
 11
262.175
 21
27.3113
 31
0.0
  0
LINE
  8
0
 62
     0
 10
262.175
 20
27.3113
 30
0.0
 11
263.7
 21
27.3113
 31
0.0
  0
LINE
  8
0
 62
     0
 10
263.7
 20
27.3113
 30
0.0
 11
263.7
 21
26.7119
 31
0.0
  0
LINE
  8
0
 62
     0
 10
263.7
 20
26.7119
 30
0.0
 11
262.9
 21
26.7119
 31
0.0
  0
LINE
  8
0
 62
     0
 10
262.9
 20
26.7119
 30
0.0
 11
262.9
 21
23.6113
 31
0.0
  0
LINE
  8
0
 62
     0
 10
262.9
 20
23.6113
 30
0.0
 11
263.7
 21
23.6113
 31
0.0
  0
LINE
  8
0
 62
     0
 10
263.7
 20
23.6113
 30
0.0
 11
263.7
 21
22.6109
 31
0.0
  0
LINE
  8
0
 62
     0
 10
263.7
 20
22.6109
 30
0.0
 11
277.7
 21
22.6109
 31
0.0
  0
LINE
  8
0
 62
     0
 10
277.7
 20
22.6109
 30
0.0
 11
277.7
 21
23.6113
 31
0.0
  0
LINE
  8
0
 62
     0
 10
277.7
 20
23.6113
 30
0.0
 11
278.5
 21
23.6113
 31
0.0
  0
LINE
  8
0
 62
     0
 10
278.5
 20
23.6113
 30
0.0
 11
278.5
 21
26.7119
 31
0.0
  0
LINE
  8
0
 62
     0
 10
278.5
 20
26.7119
 30
0.0
 11
277.7
 21
26.7119
 31
0.0
  0
LINE
  8
0
 62
     0
 10
277.7
 20
26.7119
 30
0.0
 11
277.7
 21
27.3113
 31
0.0
  0
LINE
  8
0
 62
     0
 10
277.7
 20
27.3113
 30
0.0
 11
279.225
 21
27.3113
 31
0.0
  0
LINE
  8
0
 62
     0
 10
279.225
 20
27.3113
 30
0.0
 11
279.225
 21
22.8396
 31
0.0
  0
LINE
  8
0
 62
     0
 10
279.225
 20
22.8396
 30
0.0
 11
280.95
 21
22.8396
 31
0.0
  0
LINE
  8
0
 62
     0
 10
280.95
 20
22.8396
 30
0.0
 11
280.95
 21
21.8612
 31
0.0
  0
LINE
  8
0
 62
     0
 10
280.95
 20
21.8612
 30
0.0
 11
284.249
 21
21.8612
 31
0.0
  0
LINE
  8
0
 62
     0
 10
284.249
 20
21.8612
 30
0.0
 11
284.249
 21
22.8396
 31
0.0
  0
LINE
  8
0
 62
     0
 10
284.249
 20
22.8396
 30
0.0
 11
285.975
 21
22.8396
 31
0.0
  0
LINE
  8
0
 62
     0
 10
285.975
 20
22.8396
 30
0.0
 11
285.975
 21
29.111
 31
0.0
  0
LINE
  8
0
 62
     0
 10
285.975
 20
29.111
 30
0.0
 11
286.8
 21
29.111
 31
0.0
  0
LINE
  8
0
 62
     0
 10
286.8
 20
29.111
 30
0.0
 11
286.8
 21
31.9112
 31
0.0
  0
LINE
  8
0
 62
     0
 10
286.8
 20
31.9112
 30
0.0
 11
285.975
 21
31.9112
 31
0.0
  0
LINE
  8
0
 62
     0
 10
285.975
 20
31.9112
 30
0.0
 11
285.975
 21
35.1414
 31
0.0
  0
LINE
  8
0
 62
     0
 10
285.975
 20
35.1414
 30
0.0
 11
284.249
 21
35.1414
 31
0.0
  0
LINE
  8
0
 62
     0
 10
284.249
 20
35.1414
 30
0.0
 11
284.249
 21
36.062
 31
0.0
  0
LINE
  8
0
 62
     0
 10
284.249
 20
36.062
 30
0.0
 11
280.95
 21
36.062
 31
0.0
  0
LINE
  8
0
 62
     0
 10
280.95
 20
36.062
 30
0.0
 11
280.95
 21
35.1414
 31
0.0
  0
LINE
  8
0
 62
     0
 10
280.95
 20
35.1414
 30
0.0
 11
279.225
 21
35.1414
 31
0.0
  0
LINE
  8
0
 62
     0
 10
279.225
 20
35.1414
 30
0.0
 11
279.225
 21
31.9112
 31
0.0
  0
LINE
  8
0
 62
     0
 10
279.225
 20
31.9112
 30
0.0
 11
277.7
 21
31.9112
 31
0.0
  0
LINE
  8
0
 62
     0
 10
277.7
 20
31.9112
 30
0.0
 11
277.7
 21
32.5107
 31
0.0
  0
LINE
  8
0
 62
     0
 10
277.7
 20
32.5107
 30
0.0
 11
278.5
 21
32.5107
 31
0.0
  0
LINE
  8
0
 62
     0
 10
278.5
 20
32.5107
 30
0.0
 11
278.5
 21
35.6112
 31
0.0
  0
LINE
  8
0
 62
     0
 10
278.5
 20
35.6112
 30
0.0
 11
277.7
 21
35.6112
 31
0.0
  0
LINE
  8
0
 62
     0
 10
277.7
 20
35.6112
 30
0.0
 11
277.7
 21
36.6116
 31
0.0
  0
LINE
  8
0
 62
     0
 10
277.7
 20
36.6116
 30
0.0
 11
263.7
 21
36.6116
 31
0.0
  0
LINE
  8
0
 62
     0
 10
46.4344
 20
36.6116
 30
0.0
 11
46.4344
 21
35.6112
 31
0.0
  0
LINE
  8
0
 62
     0
 10
46.4344
 20
35.6112
 30
0.0
 11
45.635
 21
35.6112
 31
0.0
  0
LINE
  8
0
 62
     0
 10
45.635
 20
35.6112
 30
0.0
 11
45.635
 21
32.5107
 31
0.0
  0
LINE
  8
0
 62
     0
 10
45.635
 20
32.5107
 30
0.0
 11
46.4344
 21
32.5107
 31
0.0
  0
LINE
  8
0
 62
     0
 10
46.4344
 20
32.5107
 30
0.0
 11
46.4344
 21
26.7119
 31
0.0
  0
LINE
  8
0
 62
     0
 10
46.4344
 20
26.7119
 30
0.0
 11
45.635
 21
26.7119
 31
0.0
  0
LINE
  8
0
 62
     0
 10
45.635
 20
26.7119
 30
0.0
 11
45.635
 21
23.6113
 31
0.0
  0
LINE
  8
0
 62
     0
 10
45.635
 20
23.6113
 30
0.0
 11
46.4344
 21
23.6113
 31
0.0
  0
LINE
  8
0
 62
     0
 10
46.4344
 20
23.6113
 30
0.0
 11
46.4344
 21
22.6109
 31
0.0
  0
LINE
  8
0
 62
     0
 10
46.4344
 20
22.6109
 30
0.0
 11
60.4354
 21
22.6109
 31
0.0
  0
LINE
  8
0
 62
     0
 10
60.4354
 20
22.6109
 30
0.0
 11
60.4354
 21
23.6113
 31
0.0
  0
LINE
  8
0
 62
     0
 10
60.4354
 20
23.6113
 30
0.0
 11
61.2345
 21
23.6113
 31
0.0
  0
LINE
  8
0
 62
     0
 10
61.2345
 20
23.6113
 30
0.0
 11
61.2345
 21
26.7119
 31
0.0
  0
LINE
  8
0
 62
     0
 10
61.2345
 20
26.7119
 30
0.0
 11
60.4354
 21
26.7119
 31
0.0
  0
LINE
  8
0
 62
     0
 10
60.4354
 20
26.7119
 30
0.0
 11
60.4354
 21
32.5107
 31
0.0
  0
LINE
  8
0
 62
     0
 10
60.4354
 20
32.5107
 30
0.0
 11
61.2345
 21
32.5107
 31
0.0
  0
LINE
  8
0
 62
     0
 10
61.2345
 20
32.5107
 30
0.0
 11
61.2345
 21
35.6112
 31
0.0
  0
LINE
  8
0
 62
     0
 10
61.2345
 20
35.6112
 30
0.0
 11
60.4354
 21
35.6112
 31
0.0
  0
LINE
  8
0
 62
     0
 10
60.4354
 20
35.6112
 30
0.0
 11
60.4354
 21
36.6116
 31
0.0
  0
LINE
  8
0
 62
     0
 10
60.4354
 20
36.6116
 30
0.0
 11
46.4344
 21
36.6116
 31
0.0
  0
LINE
  8
0
 62
     0
 10
66.4365
 20
36.6116
 30
0.0
 11
66.4365
 21
35.6112
 31
0.0
  0
LINE
  8
0
 62
     0
 10
66.4365
 20
35.6112
 30
0.0
 11
65.6375
 21
35.6112
 31
0.0
  0
LINE
  8
0
 62
     0
 10
65.6375
 20
35.6112
 30
0.0
 11
65.6375
 21
32.5107
 31
0.0
  0
LINE
  8
0
 62
     0
 10
65.6375
 20
32.5107
 30
0.0
 11
66.4365
 21
32.5107
 31
0.0
  0
LINE
  8
0
 62
     0
 10
66.4365
 20
32.5107
 30
0.0
 11
66.4365
 21
26.7119
 31
0.0
  0
LINE
  8
0
 62
     0
 10
66.4365
 20
26.7119
 30
0.0
 11
65.6375
 21
26.7119
 31
0.0
  0
LINE
  8
0
 62
     0
 10
65.6375
 20
26.7119
 30
0.0
 11
65.6375
 21
23.6113
 31
0.0
  0
LINE
  8
0
 62
     0
 10
65.6375
 20
23.6113
 30
0.0
 11
66.4365
 21
23.6113
 31
0.0
  0
LINE
  8
0
 62
     0
 10
66.4365
 20
23.6113
 30
0.0
 11
66.4365
 21
22.6109
 31
0.0
  0
LINE
  8
0
 62
     0
 10
66.4365
 20
22.6109
 30
0.0
 11
80.4362
 21
22.6109
 31
0.0
  0
LINE
  8
0
 62
     0
 10
80.4362
 20
22.6109
 30
0.0
 11
80.4362
 21
23.6113
 31
0.0
  0
LINE
  8
0
 62
     0
 10
80.4362
 20
23.6113
 30
0.0
 11
81.2366
 21
23.6113
 31
0.0
  0
LINE
  8
0
 62
     0
 10
81.2366
 20
23.6113
 30
0.0
 11
81.2366
 21
26.7119
 31
0.0
  0
LINE
  8
0
 62
     0
 10
81.2366
 20
26.7119
 30
0.0
 11
80.4362
 21
26.7119
 31
0.0
  0
LINE
  8
0
 62
     0
 10
80.4362
 20
26.7119
 30
0.0
 11
80.4362
 21
32.5107
 31
0.0
  0
LINE
  8
0
 62
     0
 10
80.4362
 20
32.5107
 30
0.0
 11
81.2366
 21
32.5107
 31
0.0
  0
LINE
  8
0
 62
     0
 10
81.2366
 20
32.5107
 30
0.0
 11
81.2366
 21
35.6112
 31
0.0
  0
LINE
  8
0
 62
     0
 10
81.2366
 20
35.6112
 30
0.0
 11
80.4362
 21
35.6112
 31
0.0
  0
LINE
  8
0
 62
     0
 10
80.4362
 20
35.6112
 30
0.0
 11
80.4362
 21
36.6116
 31
0.0
  0
LINE
  8
0
 62
     0
 10
80.4362
 20
36.6116
 30
0.0
 11
66.4365
 21
36.6116
 31
0.0
  0
LINE
  8
0
 62
     0
 10
86.4401
 20
36.6116
 30
0.0
 11
86.4401
 21
35.6112
 31
0.0
  0
LINE
  8
0
 62
     0
 10
86.4401
 20
35.6112
 30
0.0
 11
85.6396
 21
35.6112
 31
0.0
  0
LINE
  8
0
 62
     0
 10
85.6396
 20
35.6112
 30
0.0
 11
85.6396
 21
32.5107
 31
0.0
  0
LINE
  8
0
 62
     0
 10
85.6396
 20
32.5107
 30
0.0
 11
86.4401
 21
32.5107
 31
0.0
  0
LINE
  8
0
 62
     0
 10
86.4401
 20
32.5107
 30
0.0
 11
86.4401
 21
26.7119
 31
0.0
  0
LINE
  8
0
 62
     0
 10
86.4401
 20
26.7119
 30
0.0
 11
85.6396
 21
26.7119
 31
0.0
  0
LINE
  8
0
 62
     0
 10
85.6396
 20
26.7119
 30
0.0
 11
85.6396
 21
23.6113
 31
0.0
  0
LINE
  8
0
 62
     0
 10
85.6396
 20
23.6113
 30
0.0
 11
86.4401
 21
23.6113
 31
0.0
  0
LINE
  8
0
 62
     0
 10
86.4401
 20
23.6113
 30
0.0
 11
86.4401
 21
22.6109
 31
0.0
  0
LINE
  8
0
 62
     0
 10
86.4401
 20
22.6109
 30
0.0
 11
100.44
 21
22.6109
 31
0.0
  0
LINE
  8
0
 62
     0
 10
100.44
 20
22.6109
 30
0.0
 11
100.44
 21
23.6113
 31
0.0
  0
LINE
  8
0
 62
     0
 10
100.44
 20
23.6113
 30
0.0
 11
101.24
 21
23.6113
 31
0.0
  0
LINE
  8
0
 62
     0
 10
101.24
 20
23.6113
 30
0.0
 11
101.24
 21
26.7119
 31
0.0
  0
LINE
  8
0
 62
     0
 10
101.24
 20
26.7119
 30
0.0
 11
100.44
 21
26.7119
 31
0.0
  0
LINE
  8
0
 62
     0
 10
100.44
 20
26.7119
 30
0.0
 11
100.44
 21
32.5107
 31
0.0
  0
LINE
  8
0
 62
     0
 10
100.44
 20
32.5107
 30
0.0
 11
101.24
 21
32.5107
 31
0.0
  0
LINE
  8
0
 62
     0
 10
101.24
 20
32.5107
 30
0.0
 11
101.24
 21
35.6112
 31
0.0
  0
LINE
  8
0
 62
     0
 10
101.24
 20
35.6112
 30
0.0
 11
100.44
 21
35.6112
 31
0.0
  0
LINE
  8
0
 62
     0
 10
100.44
 20
35.6112
 30
0.0
 11
100.44
 21
36.6116
 31
0.0
  0
LINE
  8
0
 62
     0
 10
100.44
 20
36.6116
 30
0.0
 11
86.4401
 21
36.6116
 31
0.0
  0
LINE
  8
0
 62
     0
 10
106.443
 20
36.6116
 30
0.0
 11
106.443
 21
35.6112
 31
0.0
  0
LINE
  8
0
 62
     0
 10
106.443
 20
35.6112
 30
0.0
 11
105.642
 21
35.6112
 31
0.0
  0
LINE
  8
0
 62
     0
 10
105.642
 20
35.6112
 30
0.0
 11
105.642
 21
32.5107
 31
0.0
  0
LINE
  8
0
 62
     0
 10
105.642
 20
32.5107
 30
0.0
 11
106.443
 21
32.5107
 31
0.0
  0
LINE
  8
0
 62
     0
 10
106.443
 20
32.5107
 30
0.0
 11
106.443
 21
26.7119
 31
0.0
  0
LINE
  8
0
 62
     0
 10
106.443
 20
26.7119
 30
0.0
 11
105.642
 21
26.7119
 31
0.0
  0
LINE
  8
0
 62
     0
 10
105.642
 20
26.7119
 30
0.0
 11
105.642
 21
23.6113
 31
0.0
  0
LINE
  8
0
 62
     0
 10
105.642
 20
23.6113
 30
0.0
 11
106.443
 21
23.6113
 31
0.0
  0
LINE
  8
0
 62
     0
 10
106.443
 20
23.6113
 30
0.0
 11
106.443
 21
22.6109
 31
0.0
  0
LINE
  8
0
 62
     0
 10
106.443
 20
22.6109
 30
0.0
 11
120.442
 21
22.6109
 31
0.0
  0
LINE
  8
0
 62
     0
 10
120.442
 20
22.6109
 30
0.0
 11
120.442
 21
23.6113
 31
0.0
  0
LINE
  8
0
 62
     0
 10
120.442
 20
23.6113
 30
0.0
 11
121.241
 21
23.6113
 31
0.0
  0
LINE
  8
0
 62
     0
 10
121.241
 20
23.6113
 30
0.0
 11
121.241
 21
26.7119
 31
0.0
  0
LINE
  8
0
 62
     0
 10
121.241
 20
26.7119
 30
0.0
 11
120.442
 21
26.7119
 31
0.0
  0
LINE
  8
0
 62
     0
 10
120.442
 20
26.7119
 30
0.0
 11
120.442
 21
32.5107
 31
0.0
  0
LINE
  8
0
 62
     0
 10
120.442
 20
32.5107
 30
0.0
 11
121.241
 21
32.5107
 31
0.0
  0
LINE
  8
0
 62
     0
 10
121.241
 20
32.5107
 30
0.0
 11
121.241
 21
35.6112
 31
0.0
  0
LINE
  8
0
 62
     0
 10
121.241
 20
35.6112
 30
0.0
 11
120.442
 21
35.6112
 31
0.0
  0
LINE
  8
0
 62
     0
 10
120.442
 20
35.6112
 30
0.0
 11
120.442
 21
36.6116
 31
0.0
  0
LINE
  8
0
 62
     0
 10
120.442
 20
36.6116
 30
0.0
 11
106.443
 21
36.6116
 31
0.0
  0
LINE
  8
0
 62
     0
 10
126.445
 20
36.6116
 30
0.0
 11
126.445
 21
35.6112
 31
0.0
  0
LINE
  8
0
 62
     0
 10
126.445
 20
35.6112
 30
0.0
 11
125.644
 21
35.6112
 31
0.0
  0
LINE
  8
0
 62
     0
 10
125.644
 20
35.6112
 30
0.0
 11
125.644
 21
32.5107
 31
0.0
  0
LINE
  8
0
 62
     0
 10
125.644
 20
32.5107
 30
0.0
 11
126.445
 21
32.5107
 31
0.0
  0
LINE
  8
0
 62
     0
 10
126.445
 20
32.5107
 30
0.0
 11
126.445
 21
26.7119
 31
0.0
  0
LINE
  8
0
 62
     0
 10
126.445
 20
26.7119
 30
0.0
 11
125.644
 21
26.7119
 31
0.0
  0
LINE
  8
0
 62
     0
 10
125.644
 20
26.7119
 30
0.0
 11
125.644
 21
23.6113
 31
0.0
  0
LINE
  8
0
 62
     0
 10
125.644
 20
23.6113
 30
0.0
 11
126.445
 21
23.6113
 31
0.0
  0
LINE
  8
0
 62
     0
 10
126.445
 20
23.6113
 30
0.0
 11
126.445
 21
22.6109
 31
0.0
  0
LINE
  8
0
 62
     0
 10
126.445
 20
22.6109
 30
0.0
 11
140.444
 21
22.6109
 31
0.0
  0
LINE
  8
0
 62
     0
 10
140.444
 20
22.6109
 30
0.0
 11
140.444
 21
23.6113
 31
0.0
  0
LINE
  8
0
 62
     0
 10
140.444
 20
23.6113
 30
0.0
 11
141.245
 21
23.6113
 31
0.0
  0
LINE
  8
0
 62
     0
 10
141.245
 20
23.6113
 30
0.0
 11
141.245
 21
26.7119
 31
0.0
  0
LINE
  8
0
 62
     0
 10
141.245
 20
26.7119
 30
0.0
 11
140.444
 21
26.7119
 31
0.0
  0
LINE
  8
0
 62
     0
 10
140.444
 20
26.7119
 30
0.0
 11
140.444
 21
32.5107
 31
0.0
  0
LINE
  8
0
 62
     0
 10
140.444
 20
32.5107
 30
0.0
 11
141.245
 21
32.5107
 31
0.0
  0
LINE
  8
0
 62
     0
 10
141.245
 20
32.5107
 30
0.0
 11
141.245
 21
35.6112
 31
0.0
  0
LINE
  8
0
 62
     0
 10
141.245
 20
35.6112
 30
0.0
 11
140.444
 21
35.6112
 31
0.0
  0
LINE
  8
0
 62
     0
 10
140.444
 20
35.6112
 30
0.0
 11
140.444
 21
36.6116
 31
0.0
  0
LINE
  8
0
 62
     0
 10
140.444
 20
36.6116
 30
0.0
 11
126.445
 21
36.6116
 31
0.0
  0
LINE
  8
0
 62
     0
 10
146.447
 20
36.6116
 30
0.0
 11
146.447
 21
35.6112
 31
0.0
  0
LINE
  8
0
 62
     0
 10
146.447
 20
35.6112
 30
0.0
 11
145.646
 21
35.6112
 31
0.0
  0
LINE
  8
0
 62
     0
 10
145.646
 20
35.6112
 30
0.0
 11
145.646
 21
32.5107
 31
0.0
  0
LINE
  8
0
 62
     0
 10
145.646
 20
32.5107
 30
0.0
 11
146.447
 21
32.5107
 31
0.0
  0
LINE
  8
0
 62
     0
 10
146.447
 20
32.5107
 30
0.0
 11
146.447
 21
26.7119
 31
0.0
  0
LINE
  8
0
 62
     0
 10
146.447
 20
26.7119
 30
0.0
 11
145.646
 21
26.7119
 31
0.0
  0
LINE
  8
0
 62
     0
 10
145.646
 20
26.7119
 30
0.0
 11
145.646
 21
23.6113
 31
0.0
  0
LINE
  8
0
 62
     0
 10
145.646
 20
23.6113
 30
0.0
 11
146.447
 21
23.6113
 31
0.0
  0
LINE
  8
0
 62
     0
 10
146.447
 20
23.6113
 30
0.0
 11
146.447
 21
22.6109
 31
0.0
  0
LINE
  8
0
 62
     0
 10
146.447
 20
22.6109
 30
0.0
 11
160.447
 21
22.6109
 31
0.0
  0
LINE
  8
0
 62
     0
 10
160.447
 20
22.6109
 30
0.0
 11
160.447
 21
23.6113
 31
0.0
  0
LINE
  8
0
 62
     0
 10
160.447
 20
23.6113
 30
0.0
 11
161.247
 21
23.6113
 31
0.0
  0
LINE
  8
0
 62
     0
 10
161.247
 20
23.6113
 30
0.0
 11
161.247
 21
26.7119
 31
0.0
  0
LINE
  8
0
 62
     0
 10
161.247
 20
26.7119
 30
0.0
 11
160.447
 21
26.7119
 31
0.0
  0
LINE
  8
0
 62
     0
 10
160.447
 20
26.7119
 30
0.0
 11
160.447
 21
32.5107
 31
0.0
  0
LINE
  8
0
 62
     0
 10
160.447
 20
32.5107
 30
0.0
 11
161.247
 21
32.5107
 31
0.0
  0
LINE
  8
0
 62
     0
 10
161.247
 20
32.5107
 30
0.0
 11
161.247
 21
35.6112
 31
0.0
  0
LINE
  8
0
 62
     0
 10
161.247
 20
35.6112
 30
0.0
 11
160.447
 21
35.6112
 31
0.0
  0
LINE
  8
0
 62
     0
 10
160.447
 20
35.6112
 30
0.0
 11
160.447
 21
36.6116
 31
0.0
  0
LINE
  8
0
 62
     0
 10
160.447
 20
36.6116
 30
0.0
 11
146.447
 21
36.6116
 31
0.0
  0
LINE
  8
0
 62
     0
 10
166.449
 20
36.6116
 30
0.0
 11
166.449
 21
35.6112
 31
0.0
  0
LINE
  8
0
 62
     0
 10
166.449
 20
35.6112
 30
0.0
 11
165.649
 21
35.6112
 31
0.0
  0
LINE
  8
0
 62
     0
 10
165.649
 20
35.6112
 30
0.0
 11
165.649
 21
32.5107
 31
0.0
  0
LINE
  8
0
 62
     0
 10
165.649
 20
32.5107
 30
0.0
 11
166.449
 21
32.5107
 31
0.0
  0
LINE
  8
0
 62
     0
 10
166.449
 20
32.5107
 30
0.0
 11
166.449
 21
26.7119
 31
0.0
  0
LINE
  8
0
 62
     0
 10
166.449
 20
26.7119
 30
0.0
 11
165.649
 21
26.7119
 31
0.0
  0
LINE
  8
0
 62
     0
 10
165.649
 20
26.7119
 30
0.0
 11
165.649
 21
23.6113
 31
0.0
  0
LINE
  8
0
 62
     0
 10
165.649
 20
23.6113
 30
0.0
 11
166.449
 21
23.6113
 31
0.0
  0
LINE
  8
0
 62
     0
 10
166.449
 20
23.6113
 30
0.0
 11
166.449
 21
22.6109
 31
0.0
  0
LINE
  8
0
 62
     0
 10
166.449
 20
22.6109
 30
0.0
 11
180.45
 21
22.6109
 31
0.0
  0
LINE
  8
0
 62
     0
 10
180.45
 20
22.6109
 30
0.0
 11
180.45
 21
23.6113
 31
0.0
  0
LINE
  8
0
 62
     0
 10
180.45
 20
23.6113
 30
0.0
 11
181.249
 21
23.6113
 31
0.0
  0
LINE
  8
0
 62
     0
 10
181.249
 20
23.6113
 30
0.0
 11
181.249
 21
26.7119
 31
0.0
  0
LINE
  8
0
 62
     0
 10
181.249
 20
26.7119
 30
0.0
 11
180.45
 21
26.7119
 31
0.0
  0
LINE
  8
0
 62
     0
 10
180.45
 20
26.7119
 30
0.0
 11
180.45
 21
32.5107
 31
0.0
  0
LINE
  8
0
 62
     0
 10
180.45
 20
32.5107
 30
0.0
 11
181.249
 21
32.5107
 31
0.0
  0
LINE
  8
0
 62
     0
 10
181.249
 20
32.5107
 30
0.0
 11
181.249
 21
35.6112
 31
0.0
  0
LINE
  8
0
 62
     0
 10
181.249
 20
35.6112
 30
0.0
 11
180.45
 21
35.6112
 31
0.0
  0
LINE
  8
0
 62
     0
 10
180.45
 20
35.6112
 30
0.0
 11
180.45
 21
36.6116
 31
0.0
  0
LINE
  8
0
 62
     0
 10
180.45
 20
36.6116
 30
0.0
 11
166.449
 21
36.6116
 31
0.0
  0
LINE
  8
0
 62
     0
 10
186.643
 20
36.6116
 30
0.0
 11
186.643
 21
35.6112
 31
0.0
  0
LINE
  8
0
 62
     0
 10
186.643
 20
35.6112
 30
0.0
 11
185.842
 21
35.6112
 31
0.0
  0
LINE
  8
0
 62
     0
 10
185.842
 20
35.6112
 30
0.0
 11
185.842
 21
32.5107
 31
0.0
  0
LINE
  8
0
 62
     0
 10
185.842
 20
32.5107
 30
0.0
 11
186.643
 21
32.5107
 31
0.0
  0
LINE
  8
0
 62
     0
 10
186.643
 20
32.5107
 30
0.0
 11
186.643
 21
26.7119
 31
0.0
  0
LINE
  8
0
 62
     0
 10
186.643
 20
26.7119
 30
0.0
 11
185.842
 21
26.7119
 31
0.0
  0
LINE
  8
0
 62
     0
 10
185.842
 20
26.7119
 30
0.0
 11
185.842
 21
23.6113
 31
0.0
  0
LINE
  8
0
 62
     0
 10
185.842
 20
23.6113
 30
0.0
 11
186.643
 21
23.6113
 31
0.0
  0
LINE
  8
0
 62
     0
 10
186.643
 20
23.6113
 30
0.0
 11
186.643
 21
22.6109
 31
0.0
  0
LINE
  8
0
 62
     0
 10
186.643
 20
22.6109
 30
0.0
 11
200.642
 21
22.6109
 31
0.0
  0
LINE
  8
0
 62
     0
 10
200.642
 20
22.6109
 30
0.0
 11
200.642
 21
23.6113
 31
0.0
  0
LINE
  8
0
 62
     0
 10
200.642
 20
23.6113
 30
0.0
 11
201.443
 21
23.6113
 31
0.0
  0
LINE
  8
0
 62
     0
 10
201.443
 20
23.6113
 30
0.0
 11
201.443
 21
26.7119
 31
0.0
  0
LINE
  8
0
 62
     0
 10
201.443
 20
26.7119
 30
0.0
 11
200.642
 21
26.7119
 31
0.0
  0
LINE
  8
0
 62
     0
 10
200.642
 20
26.7119
 30
0.0
 11
200.642
 21
32.5107
 31
0.0
  0
LINE
  8
0
 62
     0
 10
200.642
 20
32.5107
 30
0.0
 11
201.443
 21
32.5107
 31
0.0
  0
LINE
  8
0
 62
     0
 10
201.443
 20
32.5107
 30
0.0
 11
201.443
 21
35.6112
 31
0.0
  0
LINE
  8
0
 62
     0
 10
201.443
 20
35.6112
 30
0.0
 11
200.642
 21
35.6112
 31
0.0
  0
LINE
  8
0
 62
     0
 10
200.642
 20
35.6112
 30
0.0
 11
200.642
 21
36.6116
 31
0.0
  0
LINE
  8
0
 62
     0
 10
200.642
 20
36.6116
 30
0.0
 11
186.643
 21
36.6116
 31
0.0
  0
LINE
  8
0
 62
     0
 10
206.645
 20
36.6116
 30
0.0
 11
206.645
 21
35.6112
 31
0.0
  0
LINE
  8
0
 62
     0
 10
206.645
 20
35.6112
 30
0.0
 11
205.844
 21
35.6112
 31
0.0
  0
LINE
  8
0
 62
     0
 10
205.844
 20
35.6112
 30
0.0
 11
205.844
 21
32.5107
 31
0.0
  0
LINE
  8
0
 62
     0
 10
205.844
 20
32.5107
 30
0.0
 11
206.645
 21
32.5107
 31
0.0
  0
LINE
  8
0
 62
     0
 10
206.645
 20
32.5107
 30
0.0
 11
206.645
 21
26.7119
 31
0.0
  0
LINE
  8
0
 62
     0
 10
206.645
 20
26.7119
 30
0.0
 11
205.844
 21
26.7119
 31
0.0
  0
LINE
  8
0
 62
     0
 10
205.844
 20
26.7119
 30
0.0
 11
205.844
 21
23.6113
 31
0.0
  0
LINE
  8
0
 62
     0
 10
205.844
 20
23.6113
 30
0.0
 11
206.645
 21
23.6113
 31
0.0
  0
LINE
  8
0
 62
     0
 10
206.645
 20
23.6113
 30
0.0
 11
206.645
 21
22.6109
 31
0.0
  0
LINE
  8
0
 62
     0
 10
206.645
 20
22.6109
 30
0.0
 11
220.645
 21
22.6109
 31
0.0
  0
LINE
  8
0
 62
     0
 10
220.645
 20
22.6109
 30
0.0
 11
220.645
 21
23.6113
 31
0.0
  0
LINE
  8
0
 62
     0
 10
220.645
 20
23.6113
 30
0.0
 11
221.445
 21
23.6113
 31
0.0
  0
LINE
  8
0
 62
     0
 10
221.445
 20
23.6113
 30
0.0
 11
221.445
 21
26.7119
 31
0.0
  0
LINE
  8
0
 62
     0
 10
221.445
 20
26.7119
 30
0.0
 11
220.645
 21
26.7119
 31
0.0
  0
LINE
  8
0
 62
     0
 10
220.645
 20
26.7119
 30
0.0
 11
220.645
 21
32.5107
 31
0.0
  0
LINE
  8
0
 62
     0
 10
220.645
 20
32.5107
 30
0.0
 11
221.445
 21
32.5107
 31
0.0
  0
LINE
  8
0
 62
     0
 10
221.445
 20
32.5107
 30
0.0
 11
221.445
 21
35.6112
 31
0.0
  0
LINE
  8
0
 62
     0
 10
221.445
 20
35.6112
 30
0.0
 11
220.645
 21
35.6112
 31
0.0
  0
LINE
  8
0
 62
     0
 10
220.645
 20
35.6112
 30
0.0
 11
220.645
 21
36.6116
 31
0.0
  0
LINE
  8
0
 62
     0
 10
220.645
 20
36.6116
 30
0.0
 11
206.645
 21
36.6116
 31
0.0
  0
LINE
  8
0
 62
     0
 10
226.838
 20
36.6116
 30
0.0
 11
226.838
 21
35.6112
 31
0.0
  0
LINE
  8
0
 62
     0
 10
226.838
 20
35.6112
 30
0.0
 11
226.038
 21
35.6112
 31
0.0
  0
LINE
  8
0
 62
     0
 10
226.038
 20
35.6112
 30
0.0
 11
226.038
 21
32.5107
 31
0.0
  0
LINE
  8
0
 62
     0
 10
226.038
 20
32.5107
 30
0.0
 11
226.838
 21
32.5107
 31
0.0
  0
LINE
  8
0
 62
     0
 10
226.838
 20
32.5107
 30
0.0
 11
226.838
 21
26.7119
 31
0.0
  0
LINE
  8
0
 62
     0
 10
226.838
 20
26.7119
 30
0.0
 11
226.038
 21
26.7119
 31
0.0
  0
LINE
  8
0
 62
     0
 10
226.038
 20
26.7119
 30
0.0
 11
226.038
 21
23.6113
 31
0.0
  0
LINE
  8
0
 62
     0
 10
226.038
 20
23.6113
 30
0.0
 11
226.838
 21
23.6113
 31
0.0
  0
LINE
  8
0
 62
     0
 10
226.838
 20
23.6113
 30
0.0
 11
226.838
 21
22.6109
 31
0.0
  0
LINE
  8
0
 62
     0
 10
226.838
 20
22.6109
 30
0.0
 11
240.838
 21
22.6109
 31
0.0
  0
LINE
  8
0
 62
     0
 10
240.838
 20
22.6109
 30
0.0
 11
240.838
 21
23.6113
 31
0.0
  0
LINE
  8
0
 62
     0
 10
240.838
 20
23.6113
 30
0.0
 11
241.638
 21
23.6113
 31
0.0
  0
LINE
  8
0
 62
     0
 10
241.638
 20
23.6113
 30
0.0
 11
241.638
 21
26.7119
 31
0.0
  0
LINE
  8
0
 62
     0
 10
241.638
 20
26.7119
 30
0.0
 11
240.838
 21
26.7119
 31
0.0
  0
LINE
  8
0
 62
     0
 10
240.838
 20
26.7119
 30
0.0
 11
240.838
 21
32.5107
 31
0.0
  0
LINE
  8
0
 62
     0
 10
240.838
 20
32.5107
 30
0.0
 11
241.638
 21
32.5107
 31
0.0
  0
LINE
  8
0
 62
     0
 10
241.638
 20
32.5107
 30
0.0
 11
241.638
 21
35.6112
 31
0.0
  0
LINE
  8
0
 62
     0
 10
241.638
 20
35.6112
 30
0.0
 11
240.838
 21
35.6112
 31
0.0
  0
LINE
  8
0
 62
     0
 10
240.838
 20
35.6112
 30
0.0
 11
240.838
 21
36.6116
 31
0.0
  0
LINE
  8
0
 62
     0
 10
240.838
 20
36.6116
 30
0.0
 11
226.838
 21
36.6116
 31
0.0
  0
LINE
  8
0
 62
     0
 10
323.231
 20
36.6116
 30
0.0
 11
323.231
 21
35.6112
 31
0.0
  0
LINE
  8
0
 62
     0
 10
323.231
 20
35.6112
 30
0.0
 11
322.431
 21
35.6112
 31
0.0
  0
LINE
  8
0
 62
     0
 10
322.431
 20
35.6112
 30
0.0
 11
322.431
 21
32.5107
 31
0.0
  0
LINE
  8
0
 62
     0
 10
322.431
 20
32.5107
 30
0.0
 11
323.231
 21
32.5107
 31
0.0
  0
LINE
  8
0
 62
     0
 10
323.231
 20
32.5107
 30
0.0
 11
323.231
 21
26.7119
 31
0.0
  0
LINE
  8
0
 62
     0
 10
323.231
 20
26.7119
 30
0.0
 11
322.431
 21
26.7119
 31
0.0
  0
LINE
  8
0
 62
     0
 10
322.431
 20
26.7119
 30
0.0
 11
322.431
 21
23.6113
 31
0.0
  0
LINE
  8
0
 62
     0
 10
322.431
 20
23.6113
 30
0.0
 11
323.231
 21
23.6113
 31
0.0
  0
LINE
  8
0
 62
     0
 10
323.231
 20
23.6113
 30
0.0
 11
323.231
 21
22.6109
 31
0.0
  0
LINE
  8
0
 62
     0
 10
323.231
 20
22.6109
 30
0.0
 11
337.231
 21
22.6109
 31
0.0
  0
LINE
  8
0
 62
     0
 10
337.231
 20
22.6109
 30
0.0
 11
337.231
 21
23.6113
 31
0.0
  0
LINE
  8
0
 62
     0
 10
337.231
 20
23.6113
 30
0.0
 11
338.031
 21
23.6113
 31
0.0
  0
LINE
  8
0
 62
     0
 10
338.031
 20
23.6113
 30
0.0
 11
338.031
 21
26.7119
 31
0.0
  0
LINE
  8
0
 62
     0
 10
338.031
 20
26.7119
 30
0.0
 11
337.231
 21
26.7119
 31
0.0
  0
LINE
  8
0
 62
     0
 10
337.231
 20
26.7119
 30
0.0
 11
337.231
 21
32.5107
 31
0.0
  0
LINE
  8
0
 62
     0
 10
337.231
 20
32.5107
 30
0.0
 11
338.031
 21
32.5107
 31
0.0
  0
LINE
  8
0
 62
     0
 10
338.031
 20
32.5107
 30
0.0
 11
338.031
 21
35.6112
 31
0.0
  0
LINE
  8
0
 62
     0
 10
338.031
 20
35.6112
 30
0.0
 11
337.231
 21
35.6112
 31
0.0
  0
LINE
  8
0
 62
     0
 10
337.231
 20
35.6112
 30
0.0
 11
337.231
 21
36.6116
 31
0.0
  0
LINE
  8
0
 62
     0
 10
337.231
 20
36.6116
 30
0.0
 11
323.231
 21
36.6116
 31
0.0
  0
LINE
  8
0
 62
     0
 10
269.415
 20
56.6138
 30
0.0
 11
269.415
 21
55.6137
 31
0.0
  0
LINE
  8
0
 62
     0
 10
269.415
 20
55.6137
 30
0.0
 11
268.614
 21
55.6137
 31
0.0
  0
LINE
  8
0
 62
     0
 10
268.614
 20
55.6137
 30
0.0
 11
268.614
 21
52.5127
 31
0.0
  0
LINE
  8
0
 62
     0
 10
268.614
 20
52.5127
 30
0.0
 11
269.415
 21
52.5127
 31
0.0
  0
LINE
  8
0
 62
     0
 10
269.415
 20
52.5127
 30
0.0
 11
269.415
 21
51.9134
 31
0.0
  0
LINE
  8
0
 62
     0
 10
269.415
 20
51.9134
 30
0.0
 11
267.889
 21
51.9134
 31
0.0
  0
LINE
  8
0
 62
     0
 10
267.889
 20
51.9134
 30
0.0
 11
267.889
 21
55.1438
 31
0.0
  0
LINE
  8
0
 62
     0
 10
267.889
 20
55.1438
 30
0.0
 11
266.165
 21
55.1438
 31
0.0
  0
LINE
  8
0
 62
     0
 10
266.165
 20
55.1438
 30
0.0
 11
266.165
 21
56.0627
 31
0.0
  0
LINE
  8
0
 62
     0
 10
266.165
 20
56.0627
 30
0.0
 11
262.865
 21
56.0627
 31
0.0
  0
LINE
  8
0
 62
     0
 10
262.865
 20
56.0627
 30
0.0
 11
262.865
 21
55.1438
 31
0.0
  0
LINE
  8
0
 62
     0
 10
262.865
 20
55.1438
 30
0.0
 11
261.14
 21
55.1438
 31
0.0
  0
LINE
  8
0
 62
     0
 10
261.14
 20
55.1438
 30
0.0
 11
261.14
 21
51.9134
 31
0.0
  0
LINE
  8
0
 62
     0
 10
261.14
 20
51.9134
 30
0.0
 11
260.314
 21
51.9134
 31
0.0
  0
LINE
  8
0
 62
     0
 10
260.314
 20
51.9134
 30
0.0
 11
260.314
 21
49.1134
 31
0.0
  0
LINE
  8
0
 62
     0
 10
260.314
 20
49.1134
 30
0.0
 11
261.14
 21
49.1134
 31
0.0
  0
LINE
  8
0
 62
     0
 10
261.14
 20
49.1134
 30
0.0
 11
261.14
 21
42.8431
 31
0.0
  0
LINE
  8
0
 62
     0
 10
261.14
 20
42.8431
 30
0.0
 11
262.865
 21
42.8431
 31
0.0
  0
LINE
  8
0
 62
     0
 10
262.865
 20
42.8431
 30
0.0
 11
262.865
 21
41.8634
 31
0.0
  0
LINE
  8
0
 62
     0
 10
262.865
 20
41.8634
 30
0.0
 11
266.165
 21
41.8634
 31
0.0
  0
LINE
  8
0
 62
     0
 10
266.165
 20
41.8634
 30
0.0
 11
266.165
 21
42.8431
 31
0.0
  0
LINE
  8
0
 62
     0
 10
266.165
 20
42.8431
 30
0.0
 11
267.889
 21
42.8431
 31
0.0
  0
LINE
  8
0
 62
     0
 10
267.889
 20
42.8431
 30
0.0
 11
267.889
 21
47.3121
 31
0.0
  0
LINE
  8
0
 62
     0
 10
267.889
 20
47.3121
 30
0.0
 11
269.415
 21
47.3121
 31
0.0
  0
LINE
  8
0
 62
     0
 10
269.415
 20
47.3121
 30
0.0
 11
269.415
 21
46.7113
 31
0.0
  0
LINE
  8
0
 62
     0
 10
269.415
 20
46.7113
 30
0.0
 11
268.614
 21
46.7113
 31
0.0
  0
LINE
  8
0
 62
     0
 10
268.614
 20
46.7113
 30
0.0
 11
268.614
 21
43.6136
 31
0.0
  0
LINE
  8
0
 62
     0
 10
268.614
 20
43.6136
 30
0.0
 11
269.415
 21
43.6136
 31
0.0
  0
LINE
  8
0
 62
     0
 10
269.415
 20
43.6136
 30
0.0
 11
269.415
 21
42.6131
 31
0.0
  0
LINE
  8
0
 62
     0
 10
269.415
 20
42.6131
 30
0.0
 11
283.414
 21
42.6131
 31
0.0
  0
LINE
  8
0
 62
     0
 10
283.414
 20
42.6131
 30
0.0
 11
283.414
 21
43.6136
 31
0.0
  0
LINE
  8
0
 62
     0
 10
283.414
 20
43.6136
 30
0.0
 11
284.215
 21
43.6136
 31
0.0
  0
LINE
  8
0
 62
     0
 10
284.215
 20
43.6136
 30
0.0
 11
284.215
 21
46.7113
 31
0.0
  0
LINE
  8
0
 62
     0
 10
284.215
 20
46.7113
 30
0.0
 11
283.414
 21
46.7113
 31
0.0
  0
LINE
  8
0
 62
     0
 10
283.414
 20
46.7113
 30
0.0
 11
283.414
 21
47.3121
 31
0.0
  0
LINE
  8
0
 62
     0
 10
283.414
 20
47.3121
 30
0.0
 11
284.94
 21
47.3121
 31
0.0
  0
LINE
  8
0
 62
     0
 10
284.94
 20
47.3121
 30
0.0
 11
284.94
 21
42.8431
 31
0.0
  0
LINE
  8
0
 62
     0
 10
284.94
 20
42.8431
 30
0.0
 11
286.665
 21
42.8431
 31
0.0
  0
LINE
  8
0
 62
     0
 10
286.665
 20
42.8431
 30
0.0
 11
286.665
 21
41.8634
 31
0.0
  0
LINE
  8
0
 62
     0
 10
286.665
 20
41.8634
 30
0.0
 11
289.965
 21
41.8634
 31
0.0
  0
LINE
  8
0
 62
     0
 10
289.965
 20
41.8634
 30
0.0
 11
289.965
 21
42.8431
 31
0.0
  0
LINE
  8
0
 62
     0
 10
289.965
 20
42.8431
 30
0.0
 11
291.689
 21
42.8431
 31
0.0
  0
LINE
  8
0
 62
     0
 10
291.689
 20
42.8431
 30
0.0
 11
291.689
 21
49.1134
 31
0.0
  0
LINE
  8
0
 62
     0
 10
291.689
 20
49.1134
 30
0.0
 11
292.515
 21
49.1134
 31
0.0
  0
LINE
  8
0
 62
     0
 10
292.515
 20
49.1134
 30
0.0
 11
292.515
 21
51.9134
 31
0.0
  0
LINE
  8
0
 62
     0
 10
292.515
 20
51.9134
 30
0.0
 11
291.689
 21
51.9134
 31
0.0
  0
LINE
  8
0
 62
     0
 10
291.689
 20
51.9134
 30
0.0
 11
291.689
 21
55.1438
 31
0.0
  0
LINE
  8
0
 62
     0
 10
291.689
 20
55.1438
 30
0.0
 11
289.965
 21
55.1438
 31
0.0
  0
LINE
  8
0
 62
     0
 10
289.965
 20
55.1438
 30
0.0
 11
289.965
 21
56.0627
 31
0.0
  0
LINE
  8
0
 62
     0
 10
289.965
 20
56.0627
 30
0.0
 11
286.665
 21
56.0627
 31
0.0
  0
LINE
  8
0
 62
     0
 10
286.665
 20
56.0627
 30
0.0
 11
286.665
 21
55.1438
 31
0.0
  0
LINE
  8
0
 62
     0
 10
286.665
 20
55.1438
 30
0.0
 11
284.94
 21
55.1438
 31
0.0
  0
LINE
  8
0
 62
     0
 10
284.94
 20
55.1438
 30
0.0
 11
284.94
 21
51.9134
 31
0.0
  0
LINE
  8
0
 62
     0
 10
284.94
 20
51.9134
 30
0.0
 11
283.414
 21
51.9134
 31
0.0
  0
LINE
  8
0
 62
     0
 10
283.414
 20
51.9134
 30
0.0
 11
283.414
 21
52.5127
 31
0.0
  0
LINE
  8
0
 62
     0
 10
283.414
 20
52.5127
 30
0.0
 11
284.215
 21
52.5127
 31
0.0
  0
LINE
  8
0
 62
     0
 10
284.215
 20
52.5127
 30
0.0
 11
284.215
 21
55.6137
 31
0.0
  0
LINE
  8
0
 62
     0
 10
284.215
 20
55.6137
 30
0.0
 11
283.414
 21
55.6137
 31
0.0
  0
LINE
  8
0
 62
     0
 10
283.414
 20
55.6137
 30
0.0
 11
283.414
 21
56.6138
 31
0.0
  0
LINE
  8
0
 62
     0
 10
283.414
 20
56.6138
 30
0.0
 11
269.415
 21
56.6138
 31
0.0
  0
LINE
  8
0
 62
     0
 10
9.76341
 20
56.6138
 30
0.0
 11
9.76341
 21
55.6137
 31
0.0
  0
LINE
  8
0
 62
     0
 10
9.76341
 20
55.6137
 30
0.0
 11
8.96278
 21
55.6137
 31
0.0
  0
LINE
  8
0
 62
     0
 10
8.96278
 20
55.6137
 30
0.0
 11
8.96278
 21
52.5127
 31
0.0
  0
LINE
  8
0
 62
     0
 10
8.96278
 20
52.5127
 30
0.0
 11
9.76341
 21
52.5127
 31
0.0
  0
LINE
  8
0
 62
     0
 10
9.76341
 20
52.5127
 30
0.0
 11
9.76341
 21
46.7113
 31
0.0
  0
LINE
  8
0
 62
     0
 10
9.76341
 20
46.7113
 30
0.0
 11
8.96278
 21
46.7113
 31
0.0
  0
LINE
  8
0
 62
     0
 10
8.96278
 20
46.7113
 30
0.0
 11
8.96278
 21
43.6136
 31
0.0
  0
LINE
  8
0
 62
     0
 10
8.96278
 20
43.6136
 30
0.0
 11
9.76341
 21
43.6136
 31
0.0
  0
LINE
  8
0
 62
     0
 10
9.76341
 20
43.6136
 30
0.0
 11
9.76341
 21
42.6131
 31
0.0
  0
LINE
  8
0
 62
     0
 10
9.76341
 20
42.6131
 30
0.0
 11
23.7629
 21
42.6131
 31
0.0
  0
LINE
  8
0
 62
     0
 10
23.7629
 20
42.6131
 30
0.0
 11
23.7629
 21
43.6136
 31
0.0
  0
LINE
  8
0
 62
     0
 10
23.7629
 20
43.6136
 30
0.0
 11
24.5622
 21
43.6136
 31
0.0
  0
LINE
  8
0
 62
     0
 10
24.5622
 20
43.6136
 30
0.0
 11
24.5622
 21
46.7113
 31
0.0
  0
LINE
  8
0
 62
     0
 10
24.5622
 20
46.7113
 30
0.0
 11
23.7629
 21
46.7113
 31
0.0
  0
LINE
  8
0
 62
     0
 10
23.7629
 20
46.7113
 30
0.0
 11
23.7629
 21
52.5127
 31
0.0
  0
LINE
  8
0
 62
     0
 10
23.7629
 20
52.5127
 30
0.0
 11
24.5622
 21
52.5127
 31
0.0
  0
LINE
  8
0
 62
     0
 10
24.5622
 20
52.5127
 30
0.0
 11
24.5622
 21
55.6137
 31
0.0
  0
LINE
  8
0
 62
     0
 10
24.5622
 20
55.6137
 30
0.0
 11
23.7629
 21
55.6137
 31
0.0
  0
LINE
  8
0
 62
     0
 10
23.7629
 20
55.6137
 30
0.0
 11
23.7629
 21
56.6138
 31
0.0
  0
LINE
  8
0
 62
     0
 10
23.7629
 20
56.6138
 30
0.0
 11
9.76341
 21
56.6138
 31
0.0
  0
LINE
  8
0
 62
     0
 10
36.9094
 20
56.6138
 30
0.0
 11
36.9094
 21
55.6137
 31
0.0
  0
LINE
  8
0
 62
     0
 10
36.9094
 20
55.6137
 30
0.0
 11
36.11
 21
55.6137
 31
0.0
  0
LINE
  8
0
 62
     0
 10
36.11
 20
55.6137
 30
0.0
 11
36.11
 21
52.5127
 31
0.0
  0
LINE
  8
0
 62
     0
 10
36.11
 20
52.5127
 30
0.0
 11
36.9094
 21
52.5127
 31
0.0
  0
LINE
  8
0
 62
     0
 10
36.9094
 20
52.5127
 30
0.0
 11
36.9094
 21
46.7113
 31
0.0
  0
LINE
  8
0
 62
     0
 10
36.9094
 20
46.7113
 30
0.0
 11
36.11
 21
46.7113
 31
0.0
  0
LINE
  8
0
 62
     0
 10
36.11
 20
46.7113
 30
0.0
 11
36.11
 21
43.6136
 31
0.0
  0
LINE
  8
0
 62
     0
 10
36.11
 20
43.6136
 30
0.0
 11
36.9094
 21
43.6136
 31
0.0
  0
LINE
  8
0
 62
     0
 10
36.9094
 20
43.6136
 30
0.0
 11
36.9094
 21
42.6131
 31
0.0
  0
LINE
  8
0
 62
     0
 10
36.9094
 20
42.6131
 30
0.0
 11
50.9104
 21
42.6131
 31
0.0
  0
LINE
  8
0
 62
     0
 10
50.9104
 20
42.6131
 30
0.0
 11
50.9104
 21
43.6136
 31
0.0
  0
LINE
  8
0
 62
     0
 10
50.9104
 20
43.6136
 30
0.0
 11
51.7081
 21
43.6136
 31
0.0
  0
LINE
  8
0
 62
     0
 10
51.7081
 20
43.6136
 30
0.0
 11
51.7081
 21
46.7113
 31
0.0
  0
LINE
  8
0
 62
     0
 10
51.7081
 20
46.7113
 30
0.0
 11
50.9104
 21
46.7113
 31
0.0
  0
LINE
  8
0
 62
     0
 10
50.9104
 20
46.7113
 30
0.0
 11
50.9104
 21
52.5127
 31
0.0
  0
LINE
  8
0
 62
     0
 10
50.9104
 20
52.5127
 30
0.0
 11
51.7081
 21
52.5127
 31
0.0
  0
LINE
  8
0
 62
     0
 10
51.7081
 20
52.5127
 30
0.0
 11
51.7081
 21
55.6137
 31
0.0
  0
LINE
  8
0
 62
     0
 10
51.7081
 20
55.6137
 30
0.0
 11
50.9104
 21
55.6137
 31
0.0
  0
LINE
  8
0
 62
     0
 10
50.9104
 20
55.6137
 30
0.0
 11
50.9104
 21
56.6138
 31
0.0
  0
LINE
  8
0
 62
     0
 10
50.9104
 20
56.6138
 30
0.0
 11
36.9094
 21
56.6138
 31
0.0
  0
LINE
  8
0
 62
     0
 10
56.9115
 20
56.6138
 30
0.0
 11
56.9115
 21
55.6137
 31
0.0
  0
LINE
  8
0
 62
     0
 10
56.9115
 20
55.6137
 30
0.0
 11
56.1125
 21
55.6137
 31
0.0
  0
LINE
  8
0
 62
     0
 10
56.1125
 20
55.6137
 30
0.0
 11
56.1125
 21
52.5127
 31
0.0
  0
LINE
  8
0
 62
     0
 10
56.1125
 20
52.5127
 30
0.0
 11
56.9115
 21
52.5127
 31
0.0
  0
LINE
  8
0
 62
     0
 10
56.9115
 20
52.5127
 30
0.0
 11
56.9115
 21
46.7113
 31
0.0
  0
LINE
  8
0
 62
     0
 10
56.9115
 20
46.7113
 30
0.0
 11
56.1125
 21
46.7113
 31
0.0
  0
LINE
  8
0
 62
     0
 10
56.1125
 20
46.7113
 30
0.0
 11
56.1125
 21
43.6136
 31
0.0
  0
LINE
  8
0
 62
     0
 10
56.1125
 20
43.6136
 30
0.0
 11
56.9115
 21
43.6136
 31
0.0
  0
LINE
  8
0
 62
     0
 10
56.9115
 20
43.6136
 30
0.0
 11
56.9115
 21
42.6131
 31
0.0
  0
LINE
  8
0
 62
     0
 10
56.9115
 20
42.6131
 30
0.0
 11
70.9112
 21
42.6131
 31
0.0
  0
LINE
  8
0
 62
     0
 10
70.9112
 20
42.6131
 30
0.0
 11
70.9112
 21
43.6136
 31
0.0
  0
LINE
  8
0
 62
     0
 10
70.9112
 20
43.6136
 30
0.0
 11
71.7116
 21
43.6136
 31
0.0
  0
LINE
  8
0
 62
     0
 10
71.7116
 20
43.6136
 30
0.0
 11
71.7116
 21
46.7113
 31
0.0
  0
LINE
  8
0
 62
     0
 10
71.7116
 20
46.7113
 30
0.0
 11
70.9112
 21
46.7113
 31
0.0
  0
LINE
  8
0
 62
     0
 10
70.9112
 20
46.7113
 30
0.0
 11
70.9112
 21
52.5127
 31
0.0
  0
LINE
  8
0
 62
     0
 10
70.9112
 20
52.5127
 30
0.0
 11
71.7116
 21
52.5127
 31
0.0
  0
LINE
  8
0
 62
     0
 10
71.7116
 20
52.5127
 30
0.0
 11
71.7116
 21
55.6137
 31
0.0
  0
LINE
  8
0
 62
     0
 10
71.7116
 20
55.6137
 30
0.0
 11
70.9112
 21
55.6137
 31
0.0
  0
LINE
  8
0
 62
     0
 10
70.9112
 20
55.6137
 30
0.0
 11
70.9112
 21
56.6138
 31
0.0
  0
LINE
  8
0
 62
     0
 10
70.9112
 20
56.6138
 30
0.0
 11
56.9115
 21
56.6138
 31
0.0
  0
LINE
  8
0
 62
     0
 10
76.9151
 20
56.6138
 30
0.0
 11
76.9151
 21
55.6137
 31
0.0
  0
LINE
  8
0
 62
     0
 10
76.9151
 20
55.6137
 30
0.0
 11
76.1146
 21
55.6137
 31
0.0
  0
LINE
  8
0
 62
     0
 10
76.1146
 20
55.6137
 30
0.0
 11
76.1146
 21
52.5127
 31
0.0
  0
LINE
  8
0
 62
     0
 10
76.1146
 20
52.5127
 30
0.0
 11
76.9151
 21
52.5127
 31
0.0
  0
LINE
  8
0
 62
     0
 10
76.9151
 20
52.5127
 30
0.0
 11
76.9151
 21
46.7113
 31
0.0
  0
LINE
  8
0
 62
     0
 10
76.9151
 20
46.7113
 30
0.0
 11
76.1146
 21
46.7113
 31
0.0
  0
LINE
  8
0
 62
     0
 10
76.1146
 20
46.7113
 30
0.0
 11
76.1146
 21
43.6136
 31
0.0
  0
LINE
  8
0
 62
     0
 10
76.1146
 20
43.6136
 30
0.0
 11
76.9151
 21
43.6136
 31
0.0
  0
LINE
  8
0
 62
     0
 10
76.9151
 20
43.6136
 30
0.0
 11
76.9151
 21
42.6131
 31
0.0
  0
LINE
  8
0
 62
     0
 10
76.9151
 20
42.6131
 30
0.0
 11
90.9147
 21
42.6131
 31
0.0
  0
LINE
  8
0
 62
     0
 10
90.9147
 20
42.6131
 30
0.0
 11
90.9147
 21
43.6136
 31
0.0
  0
LINE
  8
0
 62
     0
 10
90.9147
 20
43.6136
 30
0.0
 11
91.7141
 21
43.6136
 31
0.0
  0
LINE
  8
0
 62
     0
 10
91.7141
 20
43.6136
 30
0.0
 11
91.7141
 21
46.7113
 31
0.0
  0
LINE
  8
0
 62
     0
 10
91.7141
 20
46.7113
 30
0.0
 11
90.9147
 21
46.7113
 31
0.0
  0
LINE
  8
0
 62
     0
 10
90.9147
 20
46.7113
 30
0.0
 11
90.9147
 21
52.5127
 31
0.0
  0
LINE
  8
0
 62
     0
 10
90.9147
 20
52.5127
 30
0.0
 11
91.7141
 21
52.5127
 31
0.0
  0
LINE
  8
0
 62
     0
 10
91.7141
 20
52.5127
 30
0.0
 11
91.7141
 21
55.6137
 31
0.0
  0
LINE
  8
0
 62
     0
 10
91.7141
 20
55.6137
 30
0.0
 11
90.9147
 21
55.6137
 31
0.0
  0
LINE
  8
0
 62
     0
 10
90.9147
 20
55.6137
 30
0.0
 11
90.9147
 21
56.6138
 31
0.0
  0
LINE
  8
0
 62
     0
 10
90.9147
 20
56.6138
 30
0.0
 11
76.9151
 21
56.6138
 31
0.0
  0
LINE
  8
0
 62
     0
 10
96.9176
 20
56.6138
 30
0.0
 11
96.9176
 21
55.6137
 31
0.0
  0
LINE
  8
0
 62
     0
 10
96.9176
 20
55.6137
 30
0.0
 11
96.1168
 21
55.6137
 31
0.0
  0
LINE
  8
0
 62
     0
 10
96.1168
 20
55.6137
 30
0.0
 11
96.1168
 21
52.5127
 31
0.0
  0
LINE
  8
0
 62
     0
 10
96.1168
 20
52.5127
 30
0.0
 11
96.9176
 21
52.5127
 31
0.0
  0
LINE
  8
0
 62
     0
 10
96.9176
 20
52.5127
 30
0.0
 11
96.9176
 21
46.7113
 31
0.0
  0
LINE
  8
0
 62
     0
 10
96.9176
 20
46.7113
 30
0.0
 11
96.1168
 21
46.7113
 31
0.0
  0
LINE
  8
0
 62
     0
 10
96.1168
 20
46.7113
 30
0.0
 11
96.1168
 21
43.6136
 31
0.0
  0
LINE
  8
0
 62
     0
 10
96.1168
 20
43.6136
 30
0.0
 11
96.9176
 21
43.6136
 31
0.0
  0
LINE
  8
0
 62
     0
 10
96.9176
 20
43.6136
 30
0.0
 11
96.9176
 21
42.6131
 31
0.0
  0
LINE
  8
0
 62
     0
 10
96.9176
 20
42.6131
 30
0.0
 11
110.917
 21
42.6131
 31
0.0
  0
LINE
  8
0
 62
     0
 10
110.917
 20
42.6131
 30
0.0
 11
110.917
 21
43.6136
 31
0.0
  0
LINE
  8
0
 62
     0
 10
110.917
 20
43.6136
 30
0.0
 11
111.716
 21
43.6136
 31
0.0
  0
LINE
  8
0
 62
     0
 10
111.716
 20
43.6136
 30
0.0
 11
111.716
 21
46.7113
 31
0.0
  0
LINE
  8
0
 62
     0
 10
111.716
 20
46.7113
 30
0.0
 11
110.917
 21
46.7113
 31
0.0
  0
LINE
  8
0
 62
     0
 10
110.917
 20
46.7113
 30
0.0
 11
110.917
 21
52.5127
 31
0.0
  0
LINE
  8
0
 62
     0
 10
110.917
 20
52.5127
 30
0.0
 11
111.716
 21
52.5127
 31
0.0
  0
LINE
  8
0
 62
     0
 10
111.716
 20
52.5127
 30
0.0
 11
111.716
 21
55.6137
 31
0.0
  0
LINE
  8
0
 62
     0
 10
111.716
 20
55.6137
 30
0.0
 11
110.917
 21
55.6137
 31
0.0
  0
LINE
  8
0
 62
     0
 10
110.917
 20
55.6137
 30
0.0
 11
110.917
 21
56.6138
 31
0.0
  0
LINE
  8
0
 62
     0
 10
110.917
 20
56.6138
 30
0.0
 11
96.9176
 21
56.6138
 31
0.0
  0
LINE
  8
0
 62
     0
 10
116.918
 20
56.6138
 30
0.0
 11
116.918
 21
55.6137
 31
0.0
  0
LINE
  8
0
 62
     0
 10
116.918
 20
55.6137
 30
0.0
 11
116.119
 21
55.6137
 31
0.0
  0
LINE
  8
0
 62
     0
 10
116.119
 20
55.6137
 30
0.0
 11
116.119
 21
52.5127
 31
0.0
  0
LINE
  8
0
 62
     0
 10
116.119
 20
52.5127
 30
0.0
 11
116.918
 21
52.5127
 31
0.0
  0
LINE
  8
0
 62
     0
 10
116.918
 20
52.5127
 30
0.0
 11
116.918
 21
46.7113
 31
0.0
  0
LINE
  8
0
 62
     0
 10
116.918
 20
46.7113
 30
0.0
 11
116.119
 21
46.7113
 31
0.0
  0
LINE
  8
0
 62
     0
 10
116.119
 20
46.7113
 30
0.0
 11
116.119
 21
43.6136
 31
0.0
  0
LINE
  8
0
 62
     0
 10
116.119
 20
43.6136
 30
0.0
 11
116.918
 21
43.6136
 31
0.0
  0
LINE
  8
0
 62
     0
 10
116.918
 20
43.6136
 30
0.0
 11
116.918
 21
42.6131
 31
0.0
  0
LINE
  8
0
 62
     0
 10
116.918
 20
42.6131
 30
0.0
 11
130.919
 21
42.6131
 31
0.0
  0
LINE
  8
0
 62
     0
 10
130.919
 20
42.6131
 30
0.0
 11
130.919
 21
43.6136
 31
0.0
  0
LINE
  8
0
 62
     0
 10
130.919
 20
43.6136
 30
0.0
 11
131.72
 21
43.6136
 31
0.0
  0
LINE
  8
0
 62
     0
 10
131.72
 20
43.6136
 30
0.0
 11
131.72
 21
46.7113
 31
0.0
  0
LINE
  8
0
 62
     0
 10
131.72
 20
46.7113
 30
0.0
 11
130.919
 21
46.7113
 31
0.0
  0
LINE
  8
0
 62
     0
 10
130.919
 20
46.7113
 30
0.0
 11
130.919
 21
52.5127
 31
0.0
  0
LINE
  8
0
 62
     0
 10
130.919
 20
52.5127
 30
0.0
 11
131.72
 21
52.5127
 31
0.0
  0
LINE
  8
0
 62
     0
 10
131.72
 20
52.5127
 30
0.0
 11
131.72
 21
55.6137
 31
0.0
  0
LINE
  8
0
 62
     0
 10
131.72
 20
55.6137
 30
0.0
 11
130.919
 21
55.6137
 31
0.0
  0
LINE
  8
0
 62
     0
 10
130.919
 20
55.6137
 30
0.0
 11
130.919
 21
56.6138
 31
0.0
  0
LINE
  8
0
 62
     0
 10
130.919
 20
56.6138
 30
0.0
 11
116.918
 21
56.6138
 31
0.0
  0
LINE
  8
0
 62
     0
 10
136.922
 20
56.6138
 30
0.0
 11
136.922
 21
55.6137
 31
0.0
  0
LINE
  8
0
 62
     0
 10
136.922
 20
55.6137
 30
0.0
 11
136.121
 21
55.6137
 31
0.0
  0
LINE
  8
0
 62
     0
 10
136.121
 20
55.6137
 30
0.0
 11
136.121
 21
52.5127
 31
0.0
  0
LINE
  8
0
 62
     0
 10
136.121
 20
52.5127
 30
0.0
 11
136.922
 21
52.5127
 31
0.0
  0
LINE
  8
0
 62
     0
 10
136.922
 20
52.5127
 30
0.0
 11
136.922
 21
46.7113
 31
0.0
  0
LINE
  8
0
 62
     0
 10
136.922
 20
46.7113
 30
0.0
 11
136.121
 21
46.7113
 31
0.0
  0
LINE
  8
0
 62
     0
 10
136.121
 20
46.7113
 30
0.0
 11
136.121
 21
43.6136
 31
0.0
  0
LINE
  8
0
 62
     0
 10
136.121
 20
43.6136
 30
0.0
 11
136.922
 21
43.6136
 31
0.0
  0
LINE
  8
0
 62
     0
 10
136.922
 20
43.6136
 30
0.0
 11
136.922
 21
42.6131
 31
0.0
  0
LINE
  8
0
 62
     0
 10
136.922
 20
42.6131
 30
0.0
 11
150.922
 21
42.6131
 31
0.0
  0
LINE
  8
0
 62
     0
 10
150.922
 20
42.6131
 30
0.0
 11
150.922
 21
43.6136
 31
0.0
  0
LINE
  8
0
 62
     0
 10
150.922
 20
43.6136
 30
0.0
 11
151.722
 21
43.6136
 31
0.0
  0
LINE
  8
0
 62
     0
 10
151.722
 20
43.6136
 30
0.0
 11
151.722
 21
46.7113
 31
0.0
  0
LINE
  8
0
 62
     0
 10
151.722
 20
46.7113
 30
0.0
 11
150.922
 21
46.7113
 31
0.0
  0
LINE
  8
0
 62
     0
 10
150.922
 20
46.7113
 30
0.0
 11
150.922
 21
52.5127
 31
0.0
  0
LINE
  8
0
 62
     0
 10
150.922
 20
52.5127
 30
0.0
 11
151.722
 21
52.5127
 31
0.0
  0
LINE
  8
0
 62
     0
 10
151.722
 20
52.5127
 30
0.0
 11
151.722
 21
55.6137
 31
0.0
  0
LINE
  8
0
 62
     0
 10
151.722
 20
55.6137
 30
0.0
 11
150.922
 21
55.6137
 31
0.0
  0
LINE
  8
0
 62
     0
 10
150.922
 20
55.6137
 30
0.0
 11
150.922
 21
56.6138
 31
0.0
  0
LINE
  8
0
 62
     0
 10
150.922
 20
56.6138
 30
0.0
 11
136.922
 21
56.6138
 31
0.0
  0
LINE
  8
0
 62
     0
 10
156.924
 20
56.6138
 30
0.0
 11
156.924
 21
55.6137
 31
0.0
  0
LINE
  8
0
 62
     0
 10
156.924
 20
55.6137
 30
0.0
 11
156.124
 21
55.6137
 31
0.0
  0
LINE
  8
0
 62
     0
 10
156.124
 20
55.6137
 30
0.0
 11
156.124
 21
52.5127
 31
0.0
  0
LINE
  8
0
 62
     0
 10
156.124
 20
52.5127
 30
0.0
 11
156.924
 21
52.5127
 31
0.0
  0
LINE
  8
0
 62
     0
 10
156.924
 20
52.5127
 30
0.0
 11
156.924
 21
46.7113
 31
0.0
  0
LINE
  8
0
 62
     0
 10
156.924
 20
46.7113
 30
0.0
 11
156.124
 21
46.7113
 31
0.0
  0
LINE
  8
0
 62
     0
 10
156.124
 20
46.7113
 30
0.0
 11
156.124
 21
43.6136
 31
0.0
  0
LINE
  8
0
 62
     0
 10
156.124
 20
43.6136
 30
0.0
 11
156.924
 21
43.6136
 31
0.0
  0
LINE
  8
0
 62
     0
 10
156.924
 20
43.6136
 30
0.0
 11
156.924
 21
42.6131
 31
0.0
  0
LINE
  8
0
 62
     0
 10
156.924
 20
42.6131
 30
0.0
 11
170.924
 21
42.6131
 31
0.0
  0
LINE
  8
0
 62
     0
 10
170.924
 20
42.6131
 30
0.0
 11
170.924
 21
43.6136
 31
0.0
  0
LINE
  8
0
 62
     0
 10
170.924
 20
43.6136
 30
0.0
 11
171.724
 21
43.6136
 31
0.0
  0
LINE
  8
0
 62
     0
 10
171.724
 20
43.6136
 30
0.0
 11
171.724
 21
46.7113
 31
0.0
  0
LINE
  8
0
 62
     0
 10
171.724
 20
46.7113
 30
0.0
 11
170.924
 21
46.7113
 31
0.0
  0
LINE
  8
0
 62
     0
 10
170.924
 20
46.7113
 30
0.0
 11
170.924
 21
52.5127
 31
0.0
  0
LINE
  8
0
 62
     0
 10
170.924
 20
52.5127
 30
0.0
 11
171.724
 21
52.5127
 31
0.0
  0
LINE
  8
0
 62
     0
 10
171.724
 20
52.5127
 30
0.0
 11
171.724
 21
55.6137
 31
0.0
  0
LINE
  8
0
 62
     0
 10
171.724
 20
55.6137
 30
0.0
 11
170.924
 21
55.6137
 31
0.0
  0
LINE
  8
0
 62
     0
 10
170.924
 20
55.6137
 30
0.0
 11
170.924
 21
56.6138
 31
0.0
  0
LINE
  8
0
 62
     0
 10
170.924
 20
56.6138
 30
0.0
 11
156.924
 21
56.6138
 31
0.0
  0
LINE
  8
0
 62
     0
 10
176.926
 20
56.6138
 30
0.0
 11
176.926
 21
55.6137
 31
0.0
  0
LINE
  8
0
 62
     0
 10
176.926
 20
55.6137
 30
0.0
 11
176.127
 21
55.6137
 31
0.0
  0
LINE
  8
0
 62
     0
 10
176.127
 20
55.6137
 30
0.0
 11
176.127
 21
52.5127
 31
0.0
  0
LINE
  8
0
 62
     0
 10
176.127
 20
52.5127
 30
0.0
 11
176.926
 21
52.5127
 31
0.0
  0
LINE
  8
0
 62
     0
 10
176.926
 20
52.5127
 30
0.0
 11
176.926
 21
46.7113
 31
0.0
  0
LINE
  8
0
 62
     0
 10
176.926
 20
46.7113
 30
0.0
 11
176.127
 21
46.7113
 31
0.0
  0
LINE
  8
0
 62
     0
 10
176.127
 20
46.7113
 30
0.0
 11
176.127
 21
43.6136
 31
0.0
  0
LINE
  8
0
 62
     0
 10
176.127
 20
43.6136
 30
0.0
 11
176.926
 21
43.6136
 31
0.0
  0
LINE
  8
0
 62
     0
 10
176.926
 20
43.6136
 30
0.0
 11
176.926
 21
42.6131
 31
0.0
  0
LINE
  8
0
 62
     0
 10
176.926
 20
42.6131
 30
0.0
 11
190.927
 21
42.6131
 31
0.0
  0
LINE
  8
0
 62
     0
 10
190.927
 20
42.6131
 30
0.0
 11
190.927
 21
43.6136
 31
0.0
  0
LINE
  8
0
 62
     0
 10
190.927
 20
43.6136
 30
0.0
 11
191.727
 21
43.6136
 31
0.0
  0
LINE
  8
0
 62
     0
 10
191.727
 20
43.6136
 30
0.0
 11
191.727
 21
46.7113
 31
0.0
  0
LINE
  8
0
 62
     0
 10
191.727
 20
46.7113
 30
0.0
 11
190.927
 21
46.7113
 31
0.0
  0
LINE
  8
0
 62
     0
 10
190.927
 20
46.7113
 30
0.0
 11
190.927
 21
52.5127
 31
0.0
  0
LINE
  8
0
 62
     0
 10
190.927
 20
52.5127
 30
0.0
 11
191.727
 21
52.5127
 31
0.0
  0
LINE
  8
0
 62
     0
 10
191.727
 20
52.5127
 30
0.0
 11
191.727
 21
55.6137
 31
0.0
  0
LINE
  8
0
 62
     0
 10
191.727
 20
55.6137
 30
0.0
 11
190.927
 21
55.6137
 31
0.0
  0
LINE
  8
0
 62
     0
 10
190.927
 20
55.6137
 30
0.0
 11
190.927
 21
56.6138
 31
0.0
  0
LINE
  8
0
 62
     0
 10
190.927
 20
56.6138
 30
0.0
 11
176.926
 21
56.6138
 31
0.0
  0
LINE
  8
0
 62
     0
 10
196.929
 20
56.6138
 30
0.0
 11
196.929
 21
55.6137
 31
0.0
  0
LINE
  8
0
 62
     0
 10
196.929
 20
55.6137
 30
0.0
 11
196.129
 21
55.6137
 31
0.0
  0
LINE
  8
0
 62
     0
 10
196.129
 20
55.6137
 30
0.0
 11
196.129
 21
52.5127
 31
0.0
  0
LINE
  8
0
 62
     0
 10
196.129
 20
52.5127
 30
0.0
 11
196.929
 21
52.5127
 31
0.0
  0
LINE
  8
0
 62
     0
 10
196.929
 20
52.5127
 30
0.0
 11
196.929
 21
46.7113
 31
0.0
  0
LINE
  8
0
 62
     0
 10
196.929
 20
46.7113
 30
0.0
 11
196.129
 21
46.7113
 31
0.0
  0
LINE
  8
0
 62
     0
 10
196.129
 20
46.7113
 30
0.0
 11
196.129
 21
43.6136
 31
0.0
  0
LINE
  8
0
 62
     0
 10
196.129
 20
43.6136
 30
0.0
 11
196.929
 21
43.6136
 31
0.0
  0
LINE
  8
0
 62
     0
 10
196.929
 20
43.6136
 30
0.0
 11
196.929
 21
42.6131
 31
0.0
  0
LINE
  8
0
 62
     0
 10
196.929
 20
42.6131
 30
0.0
 11
210.929
 21
42.6131
 31
0.0
  0
LINE
  8
0
 62
     0
 10
210.929
 20
42.6131
 30
0.0
 11
210.929
 21
43.6136
 31
0.0
  0
LINE
  8
0
 62
     0
 10
210.929
 20
43.6136
 30
0.0
 11
211.73
 21
43.6136
 31
0.0
  0
LINE
  8
0
 62
     0
 10
211.73
 20
43.6136
 30
0.0
 11
211.73
 21
46.7113
 31
0.0
  0
LINE
  8
0
 62
     0
 10
211.73
 20
46.7113
 30
0.0
 11
210.929
 21
46.7113
 31
0.0
  0
LINE
  8
0
 62
     0
 10
210.929
 20
46.7113
 30
0.0
 11
210.929
 21
52.5127
 31
0.0
  0
LINE
  8
0
 62
     0
 10
210.929
 20
52.5127
 30
0.0
 11
211.73
 21
52.5127
 31
0.0
  0
LINE
  8
0
 62
     0
 10
211.73
 20
52.5127
 30
0.0
 11
211.73
 21
55.6137
 31
0.0
  0
LINE
  8
0
 62
     0
 10
211.73
 20
55.6137
 30
0.0
 11
210.929
 21
55.6137
 31
0.0
  0
LINE
  8
0
 62
     0
 10
210.929
 20
55.6137
 30
0.0
 11
210.929
 21
56.6138
 31
0.0
  0
LINE
  8
0
 62
     0
 10
210.929
 20
56.6138
 30
0.0
 11
196.929
 21
56.6138
 31
0.0
  0
LINE
  8
0
 62
     0
 10
217.122
 20
56.6138
 30
0.0
 11
217.122
 21
55.6137
 31
0.0
  0
LINE
  8
0
 62
     0
 10
217.122
 20
55.6137
 30
0.0
 11
216.322
 21
55.6137
 31
0.0
  0
LINE
  8
0
 62
     0
 10
216.322
 20
55.6137
 30
0.0
 11
216.322
 21
52.5127
 31
0.0
  0
LINE
  8
0
 62
     0
 10
216.322
 20
52.5127
 30
0.0
 11
217.122
 21
52.5127
 31
0.0
  0
LINE
  8
0
 62
     0
 10
217.122
 20
52.5127
 30
0.0
 11
217.122
 21
46.7113
 31
0.0
  0
LINE
  8
0
 62
     0
 10
217.122
 20
46.7113
 30
0.0
 11
216.322
 21
46.7113
 31
0.0
  0
LINE
  8
0
 62
     0
 10
216.322
 20
46.7113
 30
0.0
 11
216.322
 21
43.6136
 31
0.0
  0
LINE
  8
0
 62
     0
 10
216.322
 20
43.6136
 30
0.0
 11
217.122
 21
43.6136
 31
0.0
  0
LINE
  8
0
 62
     0
 10
217.122
 20
43.6136
 30
0.0
 11
217.122
 21
42.6131
 31
0.0
  0
LINE
  8
0
 62
     0
 10
217.122
 20
42.6131
 30
0.0
 11
231.123
 21
42.6131
 31
0.0
  0
LINE
  8
0
 62
     0
 10
231.123
 20
42.6131
 30
0.0
 11
231.123
 21
43.6136
 31
0.0
  0
LINE
  8
0
 62
     0
 10
231.123
 20
43.6136
 30
0.0
 11
231.922
 21
43.6136
 31
0.0
  0
LINE
  8
0
 62
     0
 10
231.922
 20
43.6136
 30
0.0
 11
231.922
 21
46.7113
 31
0.0
  0
LINE
  8
0
 62
     0
 10
231.922
 20
46.7113
 30
0.0
 11
231.123
 21
46.7113
 31
0.0
  0
LINE
  8
0
 62
     0
 10
231.123
 20
46.7113
 30
0.0
 11
231.123
 21
52.5127
 31
0.0
  0
LINE
  8
0
 62
     0
 10
231.123
 20
52.5127
 30
0.0
 11
231.922
 21
52.5127
 31
0.0
  0
LINE
  8
0
 62
     0
 10
231.922
 20
52.5127
 30
0.0
 11
231.922
 21
55.6137
 31
0.0
  0
LINE
  8
0
 62
     0
 10
231.922
 20
55.6137
 30
0.0
 11
231.123
 21
55.6137
 31
0.0
  0
LINE
  8
0
 62
     0
 10
231.123
 20
55.6137
 30
0.0
 11
231.123
 21
56.6138
 31
0.0
  0
LINE
  8
0
 62
     0
 10
231.123
 20
56.6138
 30
0.0
 11
217.122
 21
56.6138
 31
0.0
  0
LINE
  8
0
 62
     0
 10
237.316
 20
56.6138
 30
0.0
 11
237.316
 21
55.6137
 31
0.0
  0
LINE
  8
0
 62
     0
 10
237.316
 20
55.6137
 30
0.0
 11
236.516
 21
55.6137
 31
0.0
  0
LINE
  8
0
 62
     0
 10
236.516
 20
55.6137
 30
0.0
 11
236.516
 21
52.5127
 31
0.0
  0
LINE
  8
0
 62
     0
 10
236.516
 20
52.5127
 30
0.0
 11
237.316
 21
52.5127
 31
0.0
  0
LINE
  8
0
 62
     0
 10
237.316
 20
52.5127
 30
0.0
 11
237.316
 21
46.7113
 31
0.0
  0
LINE
  8
0
 62
     0
 10
237.316
 20
46.7113
 30
0.0
 11
236.516
 21
46.7113
 31
0.0
  0
LINE
  8
0
 62
     0
 10
236.516
 20
46.7113
 30
0.0
 11
236.516
 21
43.6136
 31
0.0
  0
LINE
  8
0
 62
     0
 10
236.516
 20
43.6136
 30
0.0
 11
237.316
 21
43.6136
 31
0.0
  0
LINE
  8
0
 62
     0
 10
237.316
 20
43.6136
 30
0.0
 11
237.316
 21
42.6131
 31
0.0
  0
LINE
  8
0
 62
     0
 10
237.316
 20
42.6131
 30
0.0
 11
251.316
 21
42.6131
 31
0.0
  0
LINE
  8
0
 62
     0
 10
251.316
 20
42.6131
 30
0.0
 11
251.316
 21
43.6136
 31
0.0
  0
LINE
  8
0
 62
     0
 10
251.316
 20
43.6136
 30
0.0
 11
252.116
 21
43.6136
 31
0.0
  0
LINE
  8
0
 62
     0
 10
252.116
 20
43.6136
 30
0.0
 11
252.116
 21
46.7113
 31
0.0
  0
LINE
  8
0
 62
     0
 10
252.116
 20
46.7113
 30
0.0
 11
251.316
 21
46.7113
 31
0.0
  0
LINE
  8
0
 62
     0
 10
251.316
 20
46.7113
 30
0.0
 11
251.316
 21
52.5127
 31
0.0
  0
LINE
  8
0
 62
     0
 10
251.316
 20
52.5127
 30
0.0
 11
252.116
 21
52.5127
 31
0.0
  0
LINE
  8
0
 62
     0
 10
252.116
 20
52.5127
 30
0.0
 11
252.116
 21
55.6137
 31
0.0
  0
LINE
  8
0
 62
     0
 10
252.116
 20
55.6137
 30
0.0
 11
251.316
 21
55.6137
 31
0.0
  0
LINE
  8
0
 62
     0
 10
251.316
 20
55.6137
 30
0.0
 11
251.316
 21
56.6138
 31
0.0
  0
LINE
  8
0
 62
     0
 10
251.316
 20
56.6138
 30
0.0
 11
237.316
 21
56.6138
 31
0.0
  0
LINE
  8
0
 62
     0
 10
7.38216
 20
76.6163
 30
0.0
 11
7.38216
 21
75.6158
 31
0.0
  0
LINE
  8
0
 62
     0
 10
7.38216
 20
75.6158
 30
0.0
 11
6.58153
 21
75.6158
 31
0.0
  0
LINE
  8
0
 62
     0
 10
6.58153
 20
75.6158
 30
0.0
 11
6.58153
 21
72.5166
 31
0.0
  0
LINE
  8
0
 62
     0
 10
6.58153
 20
72.5166
 30
0.0
 11
7.38216
 21
72.5166
 31
0.0
  0
LINE
  8
0
 62
     0
 10
7.38216
 20
72.5166
 30
0.0
 11
7.38216
 21
66.7149
 31
0.0
  0
LINE
  8
0
 62
     0
 10
7.38216
 20
66.7149
 30
0.0
 11
6.58153
 21
66.7149
 31
0.0
  0
LINE
  8
0
 62
     0
 10
6.58153
 20
66.7149
 30
0.0
 11
6.58153
 21
63.6143
 31
0.0
  0
LINE
  8
0
 62
     0
 10
6.58153
 20
63.6143
 30
0.0
 11
7.38216
 21
63.6143
 31
0.0
  0
LINE
  8
0
 62
     0
 10
7.38216
 20
63.6143
 30
0.0
 11
7.38216
 21
62.6152
 31
0.0
  0
LINE
  8
0
 62
     0
 10
7.38216
 20
62.6152
 30
0.0
 11
21.3817
 21
62.6152
 31
0.0
  0
LINE
  8
0
 62
     0
 10
21.3817
 20
62.6152
 30
0.0
 11
21.3817
 21
63.6143
 31
0.0
  0
LINE
  8
0
 62
     0
 10
21.3817
 20
63.6143
 30
0.0
 11
22.1823
 21
63.6143
 31
0.0
  0
LINE
  8
0
 62
     0
 10
22.1823
 20
63.6143
 30
0.0
 11
22.1823
 21
66.7149
 31
0.0
  0
LINE
  8
0
 62
     0
 10
22.1823
 20
66.7149
 30
0.0
 11
21.3817
 21
66.7149
 31
0.0
  0
LINE
  8
0
 62
     0
 10
21.3817
 20
66.7149
 30
0.0
 11
21.3817
 21
72.5166
 31
0.0
  0
LINE
  8
0
 62
     0
 10
21.3817
 20
72.5166
 30
0.0
 11
22.1823
 21
72.5166
 31
0.0
  0
LINE
  8
0
 62
     0
 10
22.1823
 20
72.5166
 30
0.0
 11
22.1823
 21
75.6158
 31
0.0
  0
LINE
  8
0
 62
     0
 10
22.1823
 20
75.6158
 30
0.0
 11
21.3817
 21
75.6158
 31
0.0
  0
LINE
  8
0
 62
     0
 10
21.3817
 20
75.6158
 30
0.0
 11
21.3817
 21
76.6163
 31
0.0
  0
LINE
  8
0
 62
     0
 10
21.3817
 20
76.6163
 30
0.0
 11
7.38216
 21
76.6163
 31
0.0
  0
LINE
  8
0
 62
     0
 10
32.1469
 20
76.6163
 30
0.0
 11
32.1469
 21
75.6158
 31
0.0
  0
LINE
  8
0
 62
     0
 10
32.1469
 20
75.6158
 30
0.0
 11
31.3462
 21
75.6158
 31
0.0
  0
LINE
  8
0
 62
     0
 10
31.3462
 20
75.6158
 30
0.0
 11
31.3462
 21
72.5166
 31
0.0
  0
LINE
  8
0
 62
     0
 10
31.3462
 20
72.5166
 30
0.0
 11
32.1469
 21
72.5166
 31
0.0
  0
LINE
  8
0
 62
     0
 10
32.1469
 20
72.5166
 30
0.0
 11
32.1469
 21
66.7149
 31
0.0
  0
LINE
  8
0
 62
     0
 10
32.1469
 20
66.7149
 30
0.0
 11
31.3462
 21
66.7149
 31
0.0
  0
LINE
  8
0
 62
     0
 10
31.3462
 20
66.7149
 30
0.0
 11
31.3462
 21
63.6143
 31
0.0
  0
LINE
  8
0
 62
     0
 10
31.3462
 20
63.6143
 30
0.0
 11
32.1469
 21
63.6143
 31
0.0
  0
LINE
  8
0
 62
     0
 10
32.1469
 20
63.6143
 30
0.0
 11
32.1469
 21
62.6152
 31
0.0
  0
LINE
  8
0
 62
     0
 10
32.1469
 20
62.6152
 30
0.0
 11
46.1465
 21
62.6152
 31
0.0
  0
LINE
  8
0
 62
     0
 10
46.1465
 20
62.6152
 30
0.0
 11
46.1465
 21
63.6143
 31
0.0
  0
LINE
  8
0
 62
     0
 10
46.1465
 20
63.6143
 30
0.0
 11
46.947
 21
63.6143
 31
0.0
  0
LINE
  8
0
 62
     0
 10
46.947
 20
63.6143
 30
0.0
 11
46.947
 21
66.7149
 31
0.0
  0
LINE
  8
0
 62
     0
 10
46.947
 20
66.7149
 30
0.0
 11
46.1465
 21
66.7149
 31
0.0
  0
LINE
  8
0
 62
     0
 10
46.1465
 20
66.7149
 30
0.0
 11
46.1465
 21
72.5166
 31
0.0
  0
LINE
  8
0
 62
     0
 10
46.1465
 20
72.5166
 30
0.0
 11
46.947
 21
72.5166
 31
0.0
  0
LINE
  8
0
 62
     0
 10
46.947
 20
72.5166
 30
0.0
 11
46.947
 21
75.6158
 31
0.0
  0
LINE
  8
0
 62
     0
 10
46.947
 20
75.6158
 30
0.0
 11
46.1465
 21
75.6158
 31
0.0
  0
LINE
  8
0
 62
     0
 10
46.1465
 20
75.6158
 30
0.0
 11
46.1465
 21
76.6163
 31
0.0
  0
LINE
  8
0
 62
     0
 10
46.1465
 20
76.6163
 30
0.0
 11
32.1469
 21
76.6163
 31
0.0
  0
LINE
  8
0
 62
     0
 10
52.149
 20
76.6163
 30
0.0
 11
52.149
 21
75.6158
 31
0.0
  0
LINE
  8
0
 62
     0
 10
52.149
 20
75.6158
 30
0.0
 11
51.35
 21
75.6158
 31
0.0
  0
LINE
  8
0
 62
     0
 10
51.35
 20
75.6158
 30
0.0
 11
51.35
 21
72.5166
 31
0.0
  0
LINE
  8
0
 62
     0
 10
51.35
 20
72.5166
 30
0.0
 11
52.149
 21
72.5166
 31
0.0
  0
LINE
  8
0
 62
     0
 10
52.149
 20
72.5166
 30
0.0
 11
52.149
 21
66.7149
 31
0.0
  0
LINE
  8
0
 62
     0
 10
52.149
 20
66.7149
 30
0.0
 11
51.35
 21
66.7149
 31
0.0
  0
LINE
  8
0
 62
     0
 10
51.35
 20
66.7149
 30
0.0
 11
51.35
 21
63.6143
 31
0.0
  0
LINE
  8
0
 62
     0
 10
51.35
 20
63.6143
 30
0.0
 11
52.149
 21
63.6143
 31
0.0
  0
LINE
  8
0
 62
     0
 10
52.149
 20
63.6143
 30
0.0
 11
52.149
 21
62.6152
 31
0.0
  0
LINE
  8
0
 62
     0
 10
52.149
 20
62.6152
 30
0.0
 11
66.1501
 21
62.6152
 31
0.0
  0
LINE
  8
0
 62
     0
 10
66.1501
 20
62.6152
 30
0.0
 11
66.1501
 21
63.6143
 31
0.0
  0
LINE
  8
0
 62
     0
 10
66.1501
 20
63.6143
 30
0.0
 11
66.9491
 21
63.6143
 31
0.0
  0
LINE
  8
0
 62
     0
 10
66.9491
 20
63.6143
 30
0.0
 11
66.9491
 21
66.7149
 31
0.0
  0
LINE
  8
0
 62
     0
 10
66.9491
 20
66.7149
 30
0.0
 11
66.1501
 21
66.7149
 31
0.0
  0
LINE
  8
0
 62
     0
 10
66.1501
 20
66.7149
 30
0.0
 11
66.1501
 21
72.5166
 31
0.0
  0
LINE
  8
0
 62
     0
 10
66.1501
 20
72.5166
 30
0.0
 11
66.9491
 21
72.5166
 31
0.0
  0
LINE
  8
0
 62
     0
 10
66.9491
 20
72.5166
 30
0.0
 11
66.9491
 21
75.6158
 31
0.0
  0
LINE
  8
0
 62
     0
 10
66.9491
 20
75.6158
 30
0.0
 11
66.1501
 21
75.6158
 31
0.0
  0
LINE
  8
0
 62
     0
 10
66.1501
 20
75.6158
 30
0.0
 11
66.1501
 21
76.6163
 31
0.0
  0
LINE
  8
0
 62
     0
 10
66.1501
 20
76.6163
 30
0.0
 11
52.149
 21
76.6163
 31
0.0
  0
LINE
  8
0
 62
     0
 10
72.1512
 20
76.6163
 30
0.0
 11
72.1512
 21
75.6158
 31
0.0
  0
LINE
  8
0
 62
     0
 10
72.1512
 20
75.6158
 30
0.0
 11
71.3521
 21
75.6158
 31
0.0
  0
LINE
  8
0
 62
     0
 10
71.3521
 20
75.6158
 30
0.0
 11
71.3521
 21
72.5166
 31
0.0
  0
LINE
  8
0
 62
     0
 10
71.3521
 20
72.5166
 30
0.0
 11
72.1512
 21
72.5166
 31
0.0
  0
LINE
  8
0
 62
     0
 10
72.1512
 20
72.5166
 30
0.0
 11
72.1512
 21
66.7149
 31
0.0
  0
LINE
  8
0
 62
     0
 10
72.1512
 20
66.7149
 30
0.0
 11
71.3521
 21
66.7149
 31
0.0
  0
LINE
  8
0
 62
     0
 10
71.3521
 20
66.7149
 30
0.0
 11
71.3521
 21
63.6143
 31
0.0
  0
LINE
  8
0
 62
     0
 10
71.3521
 20
63.6143
 30
0.0
 11
72.1512
 21
63.6143
 31
0.0
  0
LINE
  8
0
 62
     0
 10
72.1512
 20
63.6143
 30
0.0
 11
72.1512
 21
62.6152
 31
0.0
  0
LINE
  8
0
 62
     0
 10
72.1512
 20
62.6152
 30
0.0
 11
86.1522
 21
62.6152
 31
0.0
  0
LINE
  8
0
 62
     0
 10
86.1522
 20
62.6152
 30
0.0
 11
86.1522
 21
63.6143
 31
0.0
  0
LINE
  8
0
 62
     0
 10
86.1522
 20
63.6143
 30
0.0
 11
86.9516
 21
63.6143
 31
0.0
  0
LINE
  8
0
 62
     0
 10
86.9516
 20
63.6143
 30
0.0
 11
86.9516
 21
66.7149
 31
0.0
  0
LINE
  8
0
 62
     0
 10
86.9516
 20
66.7149
 30
0.0
 11
86.1522
 21
66.7149
 31
0.0
  0
LINE
  8
0
 62
     0
 10
86.1522
 20
66.7149
 30
0.0
 11
86.1522
 21
72.5166
 31
0.0
  0
LINE
  8
0
 62
     0
 10
86.1522
 20
72.5166
 30
0.0
 11
86.9516
 21
72.5166
 31
0.0
  0
LINE
  8
0
 62
     0
 10
86.9516
 20
72.5166
 30
0.0
 11
86.9516
 21
75.6158
 31
0.0
  0
LINE
  8
0
 62
     0
 10
86.9516
 20
75.6158
 30
0.0
 11
86.1522
 21
75.6158
 31
0.0
  0
LINE
  8
0
 62
     0
 10
86.1522
 20
75.6158
 30
0.0
 11
86.1522
 21
76.6163
 31
0.0
  0
LINE
  8
0
 62
     0
 10
86.1522
 20
76.6163
 30
0.0
 11
72.1512
 21
76.6163
 31
0.0
  0
LINE
  8
0
 62
     0
 10
92.1551
 20
76.6163
 30
0.0
 11
92.1551
 21
75.6158
 31
0.0
  0
LINE
  8
0
 62
     0
 10
92.1551
 20
75.6158
 30
0.0
 11
91.3543
 21
75.6158
 31
0.0
  0
LINE
  8
0
 62
     0
 10
91.3543
 20
75.6158
 30
0.0
 11
91.3543
 21
72.5166
 31
0.0
  0
LINE
  8
0
 62
     0
 10
91.3543
 20
72.5166
 30
0.0
 11
92.1551
 21
72.5166
 31
0.0
  0
LINE
  8
0
 62
     0
 10
92.1551
 20
72.5166
 30
0.0
 11
92.1551
 21
66.7149
 31
0.0
  0
LINE
  8
0
 62
     0
 10
92.1551
 20
66.7149
 30
0.0
 11
91.3543
 21
66.7149
 31
0.0
  0
LINE
  8
0
 62
     0
 10
91.3543
 20
66.7149
 30
0.0
 11
91.3543
 21
63.6143
 31
0.0
  0
LINE
  8
0
 62
     0
 10
91.3543
 20
63.6143
 30
0.0
 11
92.1551
 21
63.6143
 31
0.0
  0
LINE
  8
0
 62
     0
 10
92.1551
 20
63.6143
 30
0.0
 11
92.1551
 21
62.6152
 31
0.0
  0
LINE
  8
0
 62
     0
 10
92.1551
 20
62.6152
 30
0.0
 11
106.154
 21
62.6152
 31
0.0
  0
LINE
  8
0
 62
     0
 10
106.154
 20
62.6152
 30
0.0
 11
106.154
 21
63.6143
 31
0.0
  0
LINE
  8
0
 62
     0
 10
106.154
 20
63.6143
 30
0.0
 11
106.955
 21
63.6143
 31
0.0
  0
LINE
  8
0
 62
     0
 10
106.955
 20
63.6143
 30
0.0
 11
106.955
 21
66.7149
 31
0.0
  0
LINE
  8
0
 62
     0
 10
106.955
 20
66.7149
 30
0.0
 11
106.154
 21
66.7149
 31
0.0
  0
LINE
  8
0
 62
     0
 10
106.154
 20
66.7149
 30
0.0
 11
106.154
 21
72.5166
 31
0.0
  0
LINE
  8
0
 62
     0
 10
106.154
 20
72.5166
 30
0.0
 11
106.955
 21
72.5166
 31
0.0
  0
LINE
  8
0
 62
     0
 10
106.955
 20
72.5166
 30
0.0
 11
106.955
 21
75.6158
 31
0.0
  0
LINE
  8
0
 62
     0
 10
106.955
 20
75.6158
 30
0.0
 11
106.154
 21
75.6158
 31
0.0
  0
LINE
  8
0
 62
     0
 10
106.154
 20
75.6158
 30
0.0
 11
106.154
 21
76.6163
 31
0.0
  0
LINE
  8
0
 62
     0
 10
106.154
 20
76.6163
 30
0.0
 11
92.1551
 21
76.6163
 31
0.0
  0
LINE
  8
0
 62
     0
 10
112.157
 20
76.6163
 30
0.0
 11
112.157
 21
75.6158
 31
0.0
  0
LINE
  8
0
 62
     0
 10
112.157
 20
75.6158
 30
0.0
 11
111.356
 21
75.6158
 31
0.0
  0
LINE
  8
0
 62
     0
 10
111.356
 20
75.6158
 30
0.0
 11
111.356
 21
72.5166
 31
0.0
  0
LINE
  8
0
 62
     0
 10
111.356
 20
72.5166
 30
0.0
 11
112.157
 21
72.5166
 31
0.0
  0
LINE
  8
0
 62
     0
 10
112.157
 20
72.5166
 30
0.0
 11
112.157
 21
66.7149
 31
0.0
  0
LINE
  8
0
 62
     0
 10
112.157
 20
66.7149
 30
0.0
 11
111.356
 21
66.7149
 31
0.0
  0
LINE
  8
0
 62
     0
 10
111.356
 20
66.7149
 30
0.0
 11
111.356
 21
63.6143
 31
0.0
  0
LINE
  8
0
 62
     0
 10
111.356
 20
63.6143
 30
0.0
 11
112.157
 21
63.6143
 31
0.0
  0
LINE
  8
0
 62
     0
 10
112.157
 20
63.6143
 30
0.0
 11
112.157
 21
62.6152
 31
0.0
  0
LINE
  8
0
 62
     0
 10
112.157
 20
62.6152
 30
0.0
 11
126.157
 21
62.6152
 31
0.0
  0
LINE
  8
0
 62
     0
 10
126.157
 20
62.6152
 30
0.0
 11
126.157
 21
63.6143
 31
0.0
  0
LINE
  8
0
 62
     0
 10
126.157
 20
63.6143
 30
0.0
 11
126.957
 21
63.6143
 31
0.0
  0
LINE
  8
0
 62
     0
 10
126.957
 20
63.6143
 30
0.0
 11
126.957
 21
66.7149
 31
0.0
  0
LINE
  8
0
 62
     0
 10
126.957
 20
66.7149
 30
0.0
 11
126.157
 21
66.7149
 31
0.0
  0
LINE
  8
0
 62
     0
 10
126.157
 20
66.7149
 30
0.0
 11
126.157
 21
72.5166
 31
0.0
  0
LINE
  8
0
 62
     0
 10
126.157
 20
72.5166
 30
0.0
 11
126.957
 21
72.5166
 31
0.0
  0
LINE
  8
0
 62
     0
 10
126.957
 20
72.5166
 30
0.0
 11
126.957
 21
75.6158
 31
0.0
  0
LINE
  8
0
 62
     0
 10
126.957
 20
75.6158
 30
0.0
 11
126.157
 21
75.6158
 31
0.0
  0
LINE
  8
0
 62
     0
 10
126.157
 20
75.6158
 30
0.0
 11
126.157
 21
76.6163
 31
0.0
  0
LINE
  8
0
 62
     0
 10
126.157
 20
76.6163
 30
0.0
 11
112.157
 21
76.6163
 31
0.0
  0
LINE
  8
0
 62
     0
 10
132.159
 20
76.6163
 30
0.0
 11
132.159
 21
75.6158
 31
0.0
  0
LINE
  8
0
 62
     0
 10
132.159
 20
75.6158
 30
0.0
 11
131.36
 21
75.6158
 31
0.0
  0
LINE
  8
0
 62
     0
 10
131.36
 20
75.6158
 30
0.0
 11
131.36
 21
72.5166
 31
0.0
  0
LINE
  8
0
 62
     0
 10
131.36
 20
72.5166
 30
0.0
 11
132.159
 21
72.5166
 31
0.0
  0
LINE
  8
0
 62
     0
 10
132.159
 20
72.5166
 30
0.0
 11
132.159
 21
66.7149
 31
0.0
  0
LINE
  8
0
 62
     0
 10
132.159
 20
66.7149
 30
0.0
 11
131.36
 21
66.7149
 31
0.0
  0
LINE
  8
0
 62
     0
 10
131.36
 20
66.7149
 30
0.0
 11
131.36
 21
63.6143
 31
0.0
  0
LINE
  8
0
 62
     0
 10
131.36
 20
63.6143
 30
0.0
 11
132.159
 21
63.6143
 31
0.0
  0
LINE
  8
0
 62
     0
 10
132.159
 20
63.6143
 30
0.0
 11
132.159
 21
62.6152
 31
0.0
  0
LINE
  8
0
 62
     0
 10
132.159
 20
62.6152
 30
0.0
 11
146.16
 21
62.6152
 31
0.0
  0
LINE
  8
0
 62
     0
 10
146.16
 20
62.6152
 30
0.0
 11
146.16
 21
63.6143
 31
0.0
  0
LINE
  8
0
 62
     0
 10
146.16
 20
63.6143
 30
0.0
 11
146.959
 21
63.6143
 31
0.0
  0
LINE
  8
0
 62
     0
 10
146.959
 20
63.6143
 30
0.0
 11
146.959
 21
66.7149
 31
0.0
  0
LINE
  8
0
 62
     0
 10
146.959
 20
66.7149
 30
0.0
 11
146.16
 21
66.7149
 31
0.0
  0
LINE
  8
0
 62
     0
 10
146.16
 20
66.7149
 30
0.0
 11
146.16
 21
72.5166
 31
0.0
  0
LINE
  8
0
 62
     0
 10
146.16
 20
72.5166
 30
0.0
 11
146.959
 21
72.5166
 31
0.0
  0
LINE
  8
0
 62
     0
 10
146.959
 20
72.5166
 30
0.0
 11
146.959
 21
75.6158
 31
0.0
  0
LINE
  8
0
 62
     0
 10
146.959
 20
75.6158
 30
0.0
 11
146.16
 21
75.6158
 31
0.0
  0
LINE
  8
0
 62
     0
 10
146.16
 20
75.6158
 30
0.0
 11
146.16
 21
76.6163
 31
0.0
  0
LINE
  8
0
 62
     0
 10
146.16
 20
76.6163
 30
0.0
 11
132.159
 21
76.6163
 31
0.0
  0
LINE
  8
0
 62
     0
 10
152.162
 20
76.6163
 30
0.0
 11
152.162
 21
75.6158
 31
0.0
  0
LINE
  8
0
 62
     0
 10
152.162
 20
75.6158
 30
0.0
 11
151.362
 21
75.6158
 31
0.0
  0
LINE
  8
0
 62
     0
 10
151.362
 20
75.6158
 30
0.0
 11
151.362
 21
72.5166
 31
0.0
  0
LINE
  8
0
 62
     0
 10
151.362
 20
72.5166
 30
0.0
 11
152.162
 21
72.5166
 31
0.0
  0
LINE
  8
0
 62
     0
 10
152.162
 20
72.5166
 30
0.0
 11
152.162
 21
66.7149
 31
0.0
  0
LINE
  8
0
 62
     0
 10
152.162
 20
66.7149
 30
0.0
 11
151.362
 21
66.7149
 31
0.0
  0
LINE
  8
0
 62
     0
 10
151.362
 20
66.7149
 30
0.0
 11
151.362
 21
63.6143
 31
0.0
  0
LINE
  8
0
 62
     0
 10
151.362
 20
63.6143
 30
0.0
 11
152.162
 21
63.6143
 31
0.0
  0
LINE
  8
0
 62
     0
 10
152.162
 20
63.6143
 30
0.0
 11
152.162
 21
62.6152
 31
0.0
  0
LINE
  8
0
 62
     0
 10
152.162
 20
62.6152
 30
0.0
 11
166.161
 21
62.6152
 31
0.0
  0
LINE
  8
0
 62
     0
 10
166.161
 20
62.6152
 30
0.0
 11
166.161
 21
63.6143
 31
0.0
  0
LINE
  8
0
 62
     0
 10
166.161
 20
63.6143
 30
0.0
 11
166.962
 21
63.6143
 31
0.0
  0
LINE
  8
0
 62
     0
 10
166.962
 20
63.6143
 30
0.0
 11
166.962
 21
66.7149
 31
0.0
  0
LINE
  8
0
 62
     0
 10
166.962
 20
66.7149
 30
0.0
 11
166.161
 21
66.7149
 31
0.0
  0
LINE
  8
0
 62
     0
 10
166.161
 20
66.7149
 30
0.0
 11
166.161
 21
72.5166
 31
0.0
  0
LINE
  8
0
 62
     0
 10
166.161
 20
72.5166
 30
0.0
 11
166.962
 21
72.5166
 31
0.0
  0
LINE
  8
0
 62
     0
 10
166.962
 20
72.5166
 30
0.0
 11
166.962
 21
75.6158
 31
0.0
  0
LINE
  8
0
 62
     0
 10
166.962
 20
75.6158
 30
0.0
 11
166.161
 21
75.6158
 31
0.0
  0
LINE
  8
0
 62
     0
 10
166.161
 20
75.6158
 30
0.0
 11
166.161
 21
76.6163
 31
0.0
  0
LINE
  8
0
 62
     0
 10
166.161
 20
76.6163
 30
0.0
 11
152.162
 21
76.6163
 31
0.0
  0
LINE
  8
0
 62
     0
 10
172.165
 20
76.6163
 30
0.0
 11
172.165
 21
75.6158
 31
0.0
  0
LINE
  8
0
 62
     0
 10
172.165
 20
75.6158
 30
0.0
 11
171.363
 21
75.6158
 31
0.0
  0
LINE
  8
0
 62
     0
 10
171.363
 20
75.6158
 30
0.0
 11
171.363
 21
72.5166
 31
0.0
  0
LINE
  8
0
 62
     0
 10
171.363
 20
72.5166
 30
0.0
 11
172.165
 21
72.5166
 31
0.0
  0
LINE
  8
0
 62
     0
 10
172.165
 20
72.5166
 30
0.0
 11
172.165
 21
66.7149
 31
0.0
  0
LINE
  8
0
 62
     0
 10
172.165
 20
66.7149
 30
0.0
 11
171.363
 21
66.7149
 31
0.0
  0
LINE
  8
0
 62
     0
 10
171.363
 20
66.7149
 30
0.0
 11
171.363
 21
63.6143
 31
0.0
  0
LINE
  8
0
 62
     0
 10
171.363
 20
63.6143
 30
0.0
 11
172.165
 21
63.6143
 31
0.0
  0
LINE
  8
0
 62
     0
 10
172.165
 20
63.6143
 30
0.0
 11
172.165
 21
62.6152
 31
0.0
  0
LINE
  8
0
 62
     0
 10
172.165
 20
62.6152
 30
0.0
 11
186.165
 21
62.6152
 31
0.0
  0
LINE
  8
0
 62
     0
 10
186.165
 20
62.6152
 30
0.0
 11
186.165
 21
63.6143
 31
0.0
  0
LINE
  8
0
 62
     0
 10
186.165
 20
63.6143
 30
0.0
 11
186.965
 21
63.6143
 31
0.0
  0
LINE
  8
0
 62
     0
 10
186.965
 20
63.6143
 30
0.0
 11
186.965
 21
66.7149
 31
0.0
  0
LINE
  8
0
 62
     0
 10
186.965
 20
66.7149
 30
0.0
 11
186.165
 21
66.7149
 31
0.0
  0
LINE
  8
0
 62
     0
 10
186.165
 20
66.7149
 30
0.0
 11
186.165
 21
72.5166
 31
0.0
  0
LINE
  8
0
 62
     0
 10
186.165
 20
72.5166
 30
0.0
 11
186.965
 21
72.5166
 31
0.0
  0
LINE
  8
0
 62
     0
 10
186.965
 20
72.5166
 30
0.0
 11
186.965
 21
75.6158
 31
0.0
  0
LINE
  8
0
 62
     0
 10
186.965
 20
75.6158
 30
0.0
 11
186.165
 21
75.6158
 31
0.0
  0
LINE
  8
0
 62
     0
 10
186.165
 20
75.6158
 30
0.0
 11
186.165
 21
76.6163
 31
0.0
  0
LINE
  8
0
 62
     0
 10
186.165
 20
76.6163
 30
0.0
 11
172.165
 21
76.6163
 31
0.0
  0
LINE
  8
0
 62
     0
 10
192.166
 20
76.6163
 30
0.0
 11
192.166
 21
75.6158
 31
0.0
  0
LINE
  8
0
 62
     0
 10
192.166
 20
75.6158
 30
0.0
 11
191.367
 21
75.6158
 31
0.0
  0
LINE
  8
0
 62
     0
 10
191.367
 20
75.6158
 30
0.0
 11
191.367
 21
72.5166
 31
0.0
  0
LINE
  8
0
 62
     0
 10
191.367
 20
72.5166
 30
0.0
 11
192.166
 21
72.5166
 31
0.0
  0
LINE
  8
0
 62
     0
 10
192.166
 20
72.5166
 30
0.0
 11
192.166
 21
66.7149
 31
0.0
  0
LINE
  8
0
 62
     0
 10
192.166
 20
66.7149
 30
0.0
 11
191.367
 21
66.7149
 31
0.0
  0
LINE
  8
0
 62
     0
 10
191.367
 20
66.7149
 30
0.0
 11
191.367
 21
63.6143
 31
0.0
  0
LINE
  8
0
 62
     0
 10
191.367
 20
63.6143
 30
0.0
 11
192.166
 21
63.6143
 31
0.0
  0
LINE
  8
0
 62
     0
 10
192.166
 20
63.6143
 30
0.0
 11
192.166
 21
62.6152
 31
0.0
  0
LINE
  8
0
 62
     0
 10
192.166
 20
62.6152
 30
0.0
 11
206.167
 21
62.6152
 31
0.0
  0
LINE
  8
0
 62
     0
 10
206.167
 20
62.6152
 30
0.0
 11
206.167
 21
63.6143
 31
0.0
  0
LINE
  8
0
 62
     0
 10
206.167
 20
63.6143
 30
0.0
 11
206.966
 21
63.6143
 31
0.0
  0
LINE
  8
0
 62
     0
 10
206.966
 20
63.6143
 30
0.0
 11
206.966
 21
66.7149
 31
0.0
  0
LINE
  8
0
 62
     0
 10
206.966
 20
66.7149
 30
0.0
 11
206.167
 21
66.7149
 31
0.0
  0
LINE
  8
0
 62
     0
 10
206.167
 20
66.7149
 30
0.0
 11
206.167
 21
72.5166
 31
0.0
  0
LINE
  8
0
 62
     0
 10
206.167
 20
72.5166
 30
0.0
 11
206.966
 21
72.5166
 31
0.0
  0
LINE
  8
0
 62
     0
 10
206.966
 20
72.5166
 30
0.0
 11
206.966
 21
75.6158
 31
0.0
  0
LINE
  8
0
 62
     0
 10
206.966
 20
75.6158
 30
0.0
 11
206.167
 21
75.6158
 31
0.0
  0
LINE
  8
0
 62
     0
 10
206.167
 20
75.6158
 30
0.0
 11
206.167
 21
76.6163
 31
0.0
  0
LINE
  8
0
 62
     0
 10
206.167
 20
76.6163
 30
0.0
 11
192.166
 21
76.6163
 31
0.0
  0
LINE
  8
0
 62
     0
 10
212.17
 20
76.6163
 30
0.0
 11
212.17
 21
75.6158
 31
0.0
  0
LINE
  8
0
 62
     0
 10
212.17
 20
75.6158
 30
0.0
 11
211.369
 21
75.6158
 31
0.0
  0
LINE
  8
0
 62
     0
 10
211.369
 20
75.6158
 30
0.0
 11
211.369
 21
72.5166
 31
0.0
  0
LINE
  8
0
 62
     0
 10
211.369
 20
72.5166
 30
0.0
 11
212.17
 21
72.5166
 31
0.0
  0
LINE
  8
0
 62
     0
 10
212.17
 20
72.5166
 30
0.0
 11
212.17
 21
66.7149
 31
0.0
  0
LINE
  8
0
 62
     0
 10
212.17
 20
66.7149
 30
0.0
 11
211.369
 21
66.7149
 31
0.0
  0
LINE
  8
0
 62
     0
 10
211.369
 20
66.7149
 30
0.0
 11
211.369
 21
63.6143
 31
0.0
  0
LINE
  8
0
 62
     0
 10
211.369
 20
63.6143
 30
0.0
 11
212.17
 21
63.6143
 31
0.0
  0
LINE
  8
0
 62
     0
 10
212.17
 20
63.6143
 30
0.0
 11
212.17
 21
62.6152
 31
0.0
  0
LINE
  8
0
 62
     0
 10
212.17
 20
62.6152
 30
0.0
 11
226.169
 21
62.6152
 31
0.0
  0
LINE
  8
0
 62
     0
 10
226.169
 20
62.6152
 30
0.0
 11
226.169
 21
63.6143
 31
0.0
  0
LINE
  8
0
 62
     0
 10
226.169
 20
63.6143
 30
0.0
 11
226.97
 21
63.6143
 31
0.0
  0
LINE
  8
0
 62
     0
 10
226.97
 20
63.6143
 30
0.0
 11
226.97
 21
66.7149
 31
0.0
  0
LINE
  8
0
 62
     0
 10
226.97
 20
66.7149
 30
0.0
 11
226.169
 21
66.7149
 31
0.0
  0
LINE
  8
0
 62
     0
 10
226.169
 20
66.7149
 30
0.0
 11
226.169
 21
72.5166
 31
0.0
  0
LINE
  8
0
 62
     0
 10
226.169
 20
72.5166
 30
0.0
 11
226.97
 21
72.5166
 31
0.0
  0
LINE
  8
0
 62
     0
 10
226.97
 20
72.5166
 30
0.0
 11
226.97
 21
75.6158
 31
0.0
  0
LINE
  8
0
 62
     0
 10
226.97
 20
75.6158
 30
0.0
 11
226.169
 21
75.6158
 31
0.0
  0
LINE
  8
0
 62
     0
 10
226.169
 20
75.6158
 30
0.0
 11
226.169
 21
76.6163
 31
0.0
  0
LINE
  8
0
 62
     0
 10
226.169
 20
76.6163
 30
0.0
 11
212.17
 21
76.6163
 31
0.0
  0
LINE
  8
0
 62
     0
 10
232.172
 20
76.6163
 30
0.0
 11
232.172
 21
75.6158
 31
0.0
  0
LINE
  8
0
 62
     0
 10
232.172
 20
75.6158
 30
0.0
 11
231.371
 21
75.6158
 31
0.0
  0
LINE
  8
0
 62
     0
 10
231.371
 20
75.6158
 30
0.0
 11
231.371
 21
72.5166
 31
0.0
  0
LINE
  8
0
 62
     0
 10
231.371
 20
72.5166
 30
0.0
 11
232.172
 21
72.5166
 31
0.0
  0
LINE
  8
0
 62
     0
 10
232.172
 20
72.5166
 30
0.0
 11
232.172
 21
66.7149
 31
0.0
  0
LINE
  8
0
 62
     0
 10
232.172
 20
66.7149
 30
0.0
 11
231.371
 21
66.7149
 31
0.0
  0
LINE
  8
0
 62
     0
 10
231.371
 20
66.7149
 30
0.0
 11
231.371
 21
63.6143
 31
0.0
  0
LINE
  8
0
 62
     0
 10
231.371
 20
63.6143
 30
0.0
 11
232.172
 21
63.6143
 31
0.0
  0
LINE
  8
0
 62
     0
 10
232.172
 20
63.6143
 30
0.0
 11
232.172
 21
62.6152
 31
0.0
  0
LINE
  8
0
 62
     0
 10
232.172
 20
62.6152
 30
0.0
 11
246.172
 21
62.6152
 31
0.0
  0
LINE
  8
0
 62
     0
 10
246.172
 20
62.6152
 30
0.0
 11
246.172
 21
63.6143
 31
0.0
  0
LINE
  8
0
 62
     0
 10
246.172
 20
63.6143
 30
0.0
 11
246.972
 21
63.6143
 31
0.0
  0
LINE
  8
0
 62
     0
 10
246.972
 20
63.6143
 30
0.0
 11
246.972
 21
66.7149
 31
0.0
  0
LINE
  8
0
 62
     0
 10
246.972
 20
66.7149
 30
0.0
 11
246.172
 21
66.7149
 31
0.0
  0
LINE
  8
0
 62
     0
 10
246.172
 20
66.7149
 30
0.0
 11
246.172
 21
72.5166
 31
0.0
  0
LINE
  8
0
 62
     0
 10
246.172
 20
72.5166
 30
0.0
 11
246.972
 21
72.5166
 31
0.0
  0
LINE
  8
0
 62
     0
 10
246.972
 20
72.5166
 30
0.0
 11
246.972
 21
75.6158
 31
0.0
  0
LINE
  8
0
 62
     0
 10
246.972
 20
75.6158
 30
0.0
 11
246.172
 21
75.6158
 31
0.0
  0
LINE
  8
0
 62
     0
 10
246.172
 20
75.6158
 30
0.0
 11
246.172
 21
76.6163
 31
0.0
  0
LINE
  8
0
 62
     0
 10
246.172
 20
76.6163
 30
0.0
 11
232.172
 21
76.6163
 31
0.0
  0
LINE
  8
0
 62
     0
 10
252.174
 20
76.6163
 30
0.0
 11
252.174
 21
75.6158
 31
0.0
  0
LINE
  8
0
 62
     0
 10
252.174
 20
75.6158
 30
0.0
 11
251.374
 21
75.6158
 31
0.0
  0
LINE
  8
0
 62
     0
 10
251.374
 20
75.6158
 30
0.0
 11
251.374
 21
72.5166
 31
0.0
  0
LINE
  8
0
 62
     0
 10
251.374
 20
72.5166
 30
0.0
 11
252.174
 21
72.5166
 31
0.0
  0
LINE
  8
0
 62
     0
 10
252.174
 20
72.5166
 30
0.0
 11
252.174
 21
66.7149
 31
0.0
  0
LINE
  8
0
 62
     0
 10
252.174
 20
66.7149
 30
0.0
 11
251.374
 21
66.7149
 31
0.0
  0
LINE
  8
0
 62
     0
 10
251.374
 20
66.7149
 30
0.0
 11
251.374
 21
63.6143
 31
0.0
  0
LINE
  8
0
 62
     0
 10
251.374
 20
63.6143
 30
0.0
 11
252.174
 21
63.6143
 31
0.0
  0
LINE
  8
0
 62
     0
 10
252.174
 20
63.6143
 30
0.0
 11
252.174
 21
62.6152
 31
0.0
  0
LINE
  8
0
 62
     0
 10
252.174
 20
62.6152
 30
0.0
 11
266.175
 21
62.6152
 31
0.0
  0
LINE
  8
0
 62
     0
 10
266.175
 20
62.6152
 30
0.0
 11
266.175
 21
63.6143
 31
0.0
  0
LINE
  8
0
 62
     0
 10
266.175
 20
63.6143
 30
0.0
 11
266.974
 21
63.6143
 31
0.0
  0
LINE
  8
0
 62
     0
 10
266.974
 20
63.6143
 30
0.0
 11
266.974
 21
66.7149
 31
0.0
  0
LINE
  8
0
 62
     0
 10
266.974
 20
66.7149
 30
0.0
 11
266.175
 21
66.7149
 31
0.0
  0
LINE
  8
0
 62
     0
 10
266.175
 20
66.7149
 30
0.0
 11
266.175
 21
72.5166
 31
0.0
  0
LINE
  8
0
 62
     0
 10
266.175
 20
72.5166
 30
0.0
 11
266.974
 21
72.5166
 31
0.0
  0
LINE
  8
0
 62
     0
 10
266.974
 20
72.5166
 30
0.0
 11
266.974
 21
75.6158
 31
0.0
  0
LINE
  8
0
 62
     0
 10
266.974
 20
75.6158
 30
0.0
 11
266.175
 21
75.6158
 31
0.0
  0
LINE
  8
0
 62
     0
 10
266.175
 20
75.6158
 30
0.0
 11
266.175
 21
76.6163
 31
0.0
  0
LINE
  8
0
 62
     0
 10
266.175
 20
76.6163
 30
0.0
 11
252.174
 21
76.6163
 31
0.0
  0
LINE
  8
0
 62
     0
 10
276.939
 20
76.6163
 30
0.0
 11
276.939
 21
75.6158
 31
0.0
  0
LINE
  8
0
 62
     0
 10
276.939
 20
75.6158
 30
0.0
 11
276.138
 21
75.6158
 31
0.0
  0
LINE
  8
0
 62
     0
 10
276.138
 20
75.6158
 30
0.0
 11
276.138
 21
72.5166
 31
0.0
  0
LINE
  8
0
 62
     0
 10
276.138
 20
72.5166
 30
0.0
 11
276.939
 21
72.5166
 31
0.0
  0
LINE
  8
0
 62
     0
 10
276.939
 20
72.5166
 30
0.0
 11
276.939
 21
66.7149
 31
0.0
  0
LINE
  8
0
 62
     0
 10
276.939
 20
66.7149
 30
0.0
 11
276.138
 21
66.7149
 31
0.0
  0
LINE
  8
0
 62
     0
 10
276.138
 20
66.7149
 30
0.0
 11
276.138
 21
63.6143
 31
0.0
  0
LINE
  8
0
 62
     0
 10
276.138
 20
63.6143
 30
0.0
 11
276.939
 21
63.6143
 31
0.0
  0
LINE
  8
0
 62
     0
 10
276.939
 20
63.6143
 30
0.0
 11
276.939
 21
62.6152
 31
0.0
  0
LINE
  8
0
 62
     0
 10
276.939
 20
62.6152
 30
0.0
 11
290.938
 21
62.6152
 31
0.0
  0
LINE
  8
0
 62
     0
 10
290.938
 20
62.6152
 30
0.0
 11
290.938
 21
63.6143
 31
0.0
  0
LINE
  8
0
 62
     0
 10
290.938
 20
63.6143
 30
0.0
 11
291.74
 21
63.6143
 31
0.0
  0
LINE
  8
0
 62
     0
 10
291.74
 20
63.6143
 30
0.0
 11
291.74
 21
66.7149
 31
0.0
  0
LINE
  8
0
 62
     0
 10
291.74
 20
66.7149
 30
0.0
 11
290.938
 21
66.7149
 31
0.0
  0
LINE
  8
0
 62
     0
 10
290.938
 20
66.7149
 30
0.0
 11
290.938
 21
72.5166
 31
0.0
  0
LINE
  8
0
 62
     0
 10
290.938
 20
72.5166
 30
0.0
 11
291.74
 21
72.5166
 31
0.0
  0
LINE
  8
0
 62
     0
 10
291.74
 20
72.5166
 30
0.0
 11
291.74
 21
75.6158
 31
0.0
  0
LINE
  8
0
 62
     0
 10
291.74
 20
75.6158
 30
0.0
 11
290.938
 21
75.6158
 31
0.0
  0
LINE
  8
0
 62
     0
 10
290.938
 20
75.6158
 30
0.0
 11
290.938
 21
76.6163
 31
0.0
  0
LINE
  8
0
 62
     0
 10
290.938
 20
76.6163
 30
0.0
 11
276.939
 21
76.6163
 31
0.0
  0
LINE
  8
0
 62
     0
 10
305.514
 20
76.6163
 30
0.0
 11
305.514
 21
75.6158
 31
0.0
  0
LINE
  8
0
 62
     0
 10
305.514
 20
75.6158
 30
0.0
 11
304.713
 21
75.6158
 31
0.0
  0
LINE
  8
0
 62
     0
 10
304.713
 20
75.6158
 30
0.0
 11
304.713
 21
72.5166
 31
0.0
  0
LINE
  8
0
 62
     0
 10
304.713
 20
72.5166
 30
0.0
 11
305.514
 21
72.5166
 31
0.0
  0
LINE
  8
0
 62
     0
 10
305.514
 20
72.5166
 30
0.0
 11
305.514
 21
66.7149
 31
0.0
  0
LINE
  8
0
 62
     0
 10
305.514
 20
66.7149
 30
0.0
 11
304.713
 21
66.7149
 31
0.0
  0
LINE
  8
0
 62
     0
 10
304.713
 20
66.7149
 30
0.0
 11
304.713
 21
63.6143
 31
0.0
  0
LINE
  8
0
 62
     0
 10
304.713
 20
63.6143
 30
0.0
 11
305.514
 21
63.6143
 31
0.0
  0
LINE
  8
0
 62
     0
 10
305.514
 20
63.6143
 30
0.0
 11
305.514
 21
62.6152
 31
0.0
  0
LINE
  8
0
 62
     0
 10
305.514
 20
62.6152
 30
0.0
 11
319.513
 21
62.6152
 31
0.0
  0
LINE
  8
0
 62
     0
 10
319.513
 20
62.6152
 30
0.0
 11
319.513
 21
63.6143
 31
0.0
  0
LINE
  8
0
 62
     0
 10
319.513
 20
63.6143
 30
0.0
 11
320.314
 21
63.6143
 31
0.0
  0
LINE
  8
0
 62
     0
 10
320.314
 20
63.6143
 30
0.0
 11
320.314
 21
66.7149
 31
0.0
  0
LINE
  8
0
 62
     0
 10
320.314
 20
66.7149
 30
0.0
 11
319.513
 21
66.7149
 31
0.0
  0
LINE
  8
0
 62
     0
 10
319.513
 20
66.7149
 30
0.0
 11
319.513
 21
72.5166
 31
0.0
  0
LINE
  8
0
 62
     0
 10
319.513
 20
72.5166
 30
0.0
 11
320.314
 21
72.5166
 31
0.0
  0
LINE
  8
0
 62
     0
 10
320.314
 20
72.5166
 30
0.0
 11
320.314
 21
75.6158
 31
0.0
  0
LINE
  8
0
 62
     0
 10
320.314
 20
75.6158
 30
0.0
 11
319.513
 21
75.6158
 31
0.0
  0
LINE
  8
0
 62
     0
 10
319.513
 20
75.6158
 30
0.0
 11
319.513
 21
76.6163
 31
0.0
  0
LINE
  8
0
 62
     0
 10
319.513
 20
76.6163
 30
0.0
 11
305.514
 21
76.6163
 31
0.0
  0
LINE
  8
0
 62
     0
 10
325.516
 20
76.6163
 30
0.0
 11
325.516
 21
75.6158
 31
0.0
  0
LINE
  8
0
 62
     0
 10
325.516
 20
75.6158
 30
0.0
 11
324.717
 21
75.6158
 31
0.0
  0
LINE
  8
0
 62
     0
 10
324.717
 20
75.6158
 30
0.0
 11
324.717
 21
72.5166
 31
0.0
  0
LINE
  8
0
 62
     0
 10
324.717
 20
72.5166
 30
0.0
 11
325.516
 21
72.5166
 31
0.0
  0
LINE
  8
0
 62
     0
 10
325.516
 20
72.5166
 30
0.0
 11
325.516
 21
66.7149
 31
0.0
  0
LINE
  8
0
 62
     0
 10
325.516
 20
66.7149
 30
0.0
 11
324.717
 21
66.7149
 31
0.0
  0
LINE
  8
0
 62
     0
 10
324.717
 20
66.7149
 30
0.0
 11
324.717
 21
63.6143
 31
0.0
  0
LINE
  8
0
 62
     0
 10
324.717
 20
63.6143
 30
0.0
 11
325.516
 21
63.6143
 31
0.0
  0
LINE
  8
0
 62
     0
 10
325.516
 20
63.6143
 30
0.0
 11
325.516
 21
62.6152
 31
0.0
  0
LINE
  8
0
 62
     0
 10
325.516
 20
62.6152
 30
0.0
 11
339.517
 21
62.6152
 31
0.0
  0
LINE
  8
0
 62
     0
 10
339.517
 20
62.6152
 30
0.0
 11
339.517
 21
63.6143
 31
0.0
  0
LINE
  8
0
 62
     0
 10
339.517
 20
63.6143
 30
0.0
 11
340.316
 21
63.6143
 31
0.0
  0
LINE
  8
0
 62
     0
 10
340.316
 20
63.6143
 30
0.0
 11
340.316
 21
66.7149
 31
0.0
  0
LINE
  8
0
 62
     0
 10
340.316
 20
66.7149
 30
0.0
 11
339.517
 21
66.7149
 31
0.0
  0
LINE
  8
0
 62
     0
 10
339.517
 20
66.7149
 30
0.0
 11
339.517
 21
72.5166
 31
0.0
  0
LINE
  8
0
 62
     0
 10
339.517
 20
72.5166
 30
0.0
 11
340.316
 21
72.5166
 31
0.0
  0
LINE
  8
0
 62
     0
 10
340.316
 20
72.5166
 30
0.0
 11
340.316
 21
75.6158
 31
0.0
  0
LINE
  8
0
 62
     0
 10
340.316
 20
75.6158
 30
0.0
 11
339.517
 21
75.6158
 31
0.0
  0
LINE
  8
0
 62
     0
 10
339.517
 20
75.6158
 30
0.0
 11
339.517
 21
76.6163
 31
0.0
  0
LINE
  8
0
 62
     0
 10
339.517
 20
76.6163
 30
0.0
 11
325.516
 21
76.6163
 31
0.0
  0
LINE
  8
0
 62
     0
 10
345.518
 20
76.6163
 30
0.0
 11
345.518
 21
75.6158
 31
0.0
  0
LINE
  8
0
 62
     0
 10
345.518
 20
75.6158
 30
0.0
 11
344.719
 21
75.6158
 31
0.0
  0
LINE
  8
0
 62
     0
 10
344.719
 20
75.6158
 30
0.0
 11
344.719
 21
72.5166
 31
0.0
  0
LINE
  8
0
 62
     0
 10
344.719
 20
72.5166
 30
0.0
 11
345.518
 21
72.5166
 31
0.0
  0
LINE
  8
0
 62
     0
 10
345.518
 20
72.5166
 30
0.0
 11
345.518
 21
66.7149
 31
0.0
  0
LINE
  8
0
 62
     0
 10
345.518
 20
66.7149
 30
0.0
 11
344.719
 21
66.7149
 31
0.0
  0
LINE
  8
0
 62
     0
 10
344.719
 20
66.7149
 30
0.0
 11
344.719
 21
63.6143
 31
0.0
  0
LINE
  8
0
 62
     0
 10
344.719
 20
63.6143
 30
0.0
 11
345.518
 21
63.6143
 31
0.0
  0
LINE
  8
0
 62
     0
 10
345.518
 20
63.6143
 30
0.0
 11
345.518
 21
62.6152
 31
0.0
  0
LINE
  8
0
 62
     0
 10
345.518
 20
62.6152
 30
0.0
 11
359.519
 21
62.6152
 31
0.0
  0
LINE
  8
0
 62
     0
 10
359.519
 20
62.6152
 30
0.0
 11
359.519
 21
63.6143
 31
0.0
  0
LINE
  8
0
 62
     0
 10
359.519
 20
63.6143
 30
0.0
 11
360.32
 21
63.6143
 31
0.0
  0
LINE
  8
0
 62
     0
 10
360.32
 20
63.6143
 30
0.0
 11
360.32
 21
66.7149
 31
0.0
  0
LINE
  8
0
 62
     0
 10
360.32
 20
66.7149
 30
0.0
 11
359.519
 21
66.7149
 31
0.0
  0
LINE
  8
0
 62
     0
 10
359.519
 20
66.7149
 30
0.0
 11
359.519
 21
72.5166
 31
0.0
  0
LINE
  8
0
 62
     0
 10
359.519
 20
72.5166
 30
0.0
 11
360.32
 21
72.5166
 31
0.0
  0
LINE
  8
0
 62
     0
 10
360.32
 20
72.5166
 30
0.0
 11
360.32
 21
75.6158
 31
0.0
  0
LINE
  8
0
 62
     0
 10
360.32
 20
75.6158
 30
0.0
 11
359.519
 21
75.6158
 31
0.0
  0
LINE
  8
0
 62
     0
 10
359.519
 20
75.6158
 30
0.0
 11
359.519
 21
76.6163
 31
0.0
  0
LINE
  8
0
 62
     0
 10
359.519
 20
76.6163
 30
0.0
 11
345.518
 21
76.6163
 31
0.0
  0
LINE
  8
0
 62
     0
 10
272.176
 20
96.6184
 30
0.0
 11
272.176
 21
95.6179
 31
0.0
  0
LINE
  8
0
 62
     0
 10
272.176
 20
95.6179
 30
0.0
 11
271.377
 21
95.6179
 31
0.0
  0
LINE
  8
0
 62
     0
 10
271.377
 20
95.6179
 30
0.0
 11
271.377
 21
92.5188
 31
0.0
  0
LINE
  8
0
 62
     0
 10
271.377
 20
92.5188
 30
0.0
 11
272.176
 21
92.5188
 31
0.0
  0
LINE
  8
0
 62
     0
 10
272.176
 20
92.5188
 30
0.0
 11
272.176
 21
91.918
 31
0.0
  0
LINE
  8
0
 62
     0
 10
272.176
 20
91.918
 30
0.0
 11
270.652
 21
91.918
 31
0.0
  0
LINE
  8
0
 62
     0
 10
270.652
 20
91.918
 30
0.0
 11
270.652
 21
95.148
 31
0.0
  0
LINE
  8
0
 62
     0
 10
270.652
 20
95.148
 30
0.0
 11
268.927
 21
95.148
 31
0.0
  0
LINE
  8
0
 62
     0
 10
268.927
 20
95.148
 30
0.0
 11
268.927
 21
96.0684
 31
0.0
  0
LINE
  8
0
 62
     0
 10
268.927
 20
96.0684
 30
0.0
 11
265.626
 21
96.0684
 31
0.0
  0
LINE
  8
0
 62
     0
 10
265.626
 20
96.0684
 30
0.0
 11
265.626
 21
95.148
 31
0.0
  0
LINE
  8
0
 62
     0
 10
265.626
 20
95.148
 30
0.0
 11
263.901
 21
95.148
 31
0.0
  0
LINE
  8
0
 62
     0
 10
263.901
 20
95.148
 30
0.0
 11
263.901
 21
91.918
 31
0.0
  0
LINE
  8
0
 62
     0
 10
263.901
 20
91.918
 30
0.0
 11
263.077
 21
91.918
 31
0.0
  0
LINE
  8
0
 62
     0
 10
263.077
 20
91.918
 30
0.0
 11
263.077
 21
89.1163
 31
0.0
  0
LINE
  8
0
 62
     0
 10
263.077
 20
89.1163
 30
0.0
 11
263.901
 21
89.1163
 31
0.0
  0
LINE
  8
0
 62
     0
 10
263.901
 20
89.1163
 30
0.0
 11
263.901
 21
82.8477
 31
0.0
  0
LINE
  8
0
 62
     0
 10
263.901
 20
82.8477
 30
0.0
 11
265.626
 21
82.8477
 31
0.0
  0
LINE
  8
0
 62
     0
 10
265.626
 20
82.8477
 30
0.0
 11
265.626
 21
81.8677
 31
0.0
  0
LINE
  8
0
 62
     0
 10
265.626
 20
81.8677
 30
0.0
 11
268.927
 21
81.8677
 31
0.0
  0
LINE
  8
0
 62
     0
 10
268.927
 20
81.8677
 30
0.0
 11
268.927
 21
82.8477
 31
0.0
  0
LINE
  8
0
 62
     0
 10
268.927
 20
82.8477
 30
0.0
 11
270.652
 21
82.8477
 31
0.0
  0
LINE
  8
0
 62
     0
 10
270.652
 20
82.8477
 30
0.0
 11
270.652
 21
87.3181
 31
0.0
  0
LINE
  8
0
 62
     0
 10
270.652
 20
87.3181
 30
0.0
 11
272.176
 21
87.3181
 31
0.0
  0
LINE
  8
0
 62
     0
 10
272.176
 20
87.3181
 30
0.0
 11
272.176
 21
86.7184
 31
0.0
  0
LINE
  8
0
 62
     0
 10
272.176
 20
86.7184
 30
0.0
 11
271.377
 21
86.7184
 31
0.0
  0
LINE
  8
0
 62
     0
 10
271.377
 20
86.7184
 30
0.0
 11
271.377
 21
83.6179
 31
0.0
  0
LINE
  8
0
 62
     0
 10
271.377
 20
83.6179
 30
0.0
 11
272.176
 21
83.6179
 31
0.0
  0
LINE
  8
0
 62
     0
 10
272.176
 20
83.6179
 30
0.0
 11
272.176
 21
82.6188
 31
0.0
  0
LINE
  8
0
 62
     0
 10
272.176
 20
82.6188
 30
0.0
 11
286.177
 21
82.6188
 31
0.0
  0
LINE
  8
0
 62
     0
 10
286.177
 20
82.6188
 30
0.0
 11
286.177
 21
83.6179
 31
0.0
  0
LINE
  8
0
 62
     0
 10
286.177
 20
83.6179
 30
0.0
 11
286.977
 21
83.6179
 31
0.0
  0
LINE
  8
0
 62
     0
 10
286.977
 20
83.6179
 30
0.0
 11
286.977
 21
86.7184
 31
0.0
  0
LINE
  8
0
 62
     0
 10
286.977
 20
86.7184
 30
0.0
 11
286.177
 21
86.7184
 31
0.0
  0
LINE
  8
0
 62
     0
 10
286.177
 20
86.7184
 30
0.0
 11
286.177
 21
87.3181
 31
0.0
  0
LINE
  8
0
 62
     0
 10
286.177
 20
87.3181
 30
0.0
 11
287.701
 21
87.3181
 31
0.0
  0
LINE
  8
0
 62
     0
 10
287.701
 20
87.3181
 30
0.0
 11
287.701
 21
82.8477
 31
0.0
  0
LINE
  8
0
 62
     0
 10
287.701
 20
82.8477
 30
0.0
 11
289.427
 21
82.8477
 31
0.0
  0
LINE
  8
0
 62
     0
 10
289.427
 20
82.8477
 30
0.0
 11
289.427
 21
81.8677
 31
0.0
  0
LINE
  8
0
 62
     0
 10
289.427
 20
81.8677
 30
0.0
 11
292.727
 21
81.8677
 31
0.0
  0
LINE
  8
0
 62
     0
 10
292.727
 20
81.8677
 30
0.0
 11
292.727
 21
82.8477
 31
0.0
  0
LINE
  8
0
 62
     0
 10
292.727
 20
82.8477
 30
0.0
 11
294.452
 21
82.8477
 31
0.0
  0
LINE
  8
0
 62
     0
 10
294.452
 20
82.8477
 30
0.0
 11
294.452
 21
89.1163
 31
0.0
  0
LINE
  8
0
 62
     0
 10
294.452
 20
89.1163
 30
0.0
 11
295.276
 21
89.1163
 31
0.0
  0
LINE
  8
0
 62
     0
 10
295.276
 20
89.1163
 30
0.0
 11
295.276
 21
91.918
 31
0.0
  0
LINE
  8
0
 62
     0
 10
295.276
 20
91.918
 30
0.0
 11
294.452
 21
91.918
 31
0.0
  0
LINE
  8
0
 62
     0
 10
294.452
 20
91.918
 30
0.0
 11
294.452
 21
95.148
 31
0.0
  0
LINE
  8
0
 62
     0
 10
294.452
 20
95.148
 30
0.0
 11
292.727
 21
95.148
 31
0.0
  0
LINE
  8
0
 62
     0
 10
292.727
 20
95.148
 30
0.0
 11
292.727
 21
96.0684
 31
0.0
  0
LINE
  8
0
 62
     0
 10
292.727
 20
96.0684
 30
0.0
 11
289.427
 21
96.0684
 31
0.0
  0
LINE
  8
0
 62
     0
 10
289.427
 20
96.0684
 30
0.0
 11
289.427
 21
95.148
 31
0.0
  0
LINE
  8
0
 62
     0
 10
289.427
 20
95.148
 30
0.0
 11
287.701
 21
95.148
 31
0.0
  0
LINE
  8
0
 62
     0
 10
287.701
 20
95.148
 30
0.0
 11
287.701
 21
91.918
 31
0.0
  0
LINE
  8
0
 62
     0
 10
287.701
 20
91.918
 30
0.0
 11
286.177
 21
91.918
 31
0.0
  0
LINE
  8
0
 62
     0
 10
286.177
 20
91.918
 30
0.0
 11
286.177
 21
92.5188
 31
0.0
  0
LINE
  8
0
 62
     0
 10
286.177
 20
92.5188
 30
0.0
 11
286.977
 21
92.5188
 31
0.0
  0
LINE
  8
0
 62
     0
 10
286.977
 20
92.5188
 30
0.0
 11
286.977
 21
95.6179
 31
0.0
  0
LINE
  8
0
 62
     0
 10
286.977
 20
95.6179
 30
0.0
 11
286.177
 21
95.6179
 31
0.0
  0
LINE
  8
0
 62
     0
 10
286.177
 20
95.6179
 30
0.0
 11
286.177
 21
96.6184
 31
0.0
  0
LINE
  8
0
 62
     0
 10
286.177
 20
96.6184
 30
0.0
 11
272.176
 21
96.6184
 31
0.0
  0
LINE
  8
0
 62
     0
 10
2.61965
 20
96.6184
 30
0.0
 11
2.61965
 21
95.6179
 31
0.0
  0
LINE
  8
0
 62
     0
 10
2.61965
 20
95.6179
 30
0.0
 11
1.82039
 21
95.6179
 31
0.0
  0
LINE
  8
0
 62
     0
 10
1.82039
 20
95.6179
 30
0.0
 11
1.82039
 21
92.5188
 31
0.0
  0
LINE
  8
0
 62
     0
 10
1.82039
 20
92.5188
 30
0.0
 11
2.61965
 21
92.5188
 31
0.0
  0
LINE
  8
0
 62
     0
 10
2.61965
 20
92.5188
 30
0.0
 11
2.61965
 21
86.7184
 31
0.0
  0
LINE
  8
0
 62
     0
 10
2.61965
 20
86.7184
 30
0.0
 11
1.82039
 21
86.7184
 31
0.0
  0
LINE
  8
0
 62
     0
 10
1.82039
 20
86.7184
 30
0.0
 11
1.82039
 21
83.6179
 31
0.0
  0
LINE
  8
0
 62
     0
 10
1.82039
 20
83.6179
 30
0.0
 11
2.61965
 21
83.6179
 31
0.0
  0
LINE
  8
0
 62
     0
 10
2.61965
 20
83.6179
 30
0.0
 11
2.61965
 21
82.6188
 31
0.0
  0
LINE
  8
0
 62
     0
 10
2.61965
 20
82.6188
 30
0.0
 11
16.6192
 21
82.6188
 31
0.0
  0
LINE
  8
0
 62
     0
 10
16.6192
 20
82.6188
 30
0.0
 11
16.6192
 21
83.6179
 31
0.0
  0
LINE
  8
0
 62
     0
 10
16.6192
 20
83.6179
 30
0.0
 11
17.4198
 21
83.6179
 31
0.0
  0
LINE
  8
0
 62
     0
 10
17.4198
 20
83.6179
 30
0.0
 11
17.4198
 21
86.7184
 31
0.0
  0
LINE
  8
0
 62
     0
 10
17.4198
 20
86.7184
 30
0.0
 11
16.6192
 21
86.7184
 31
0.0
  0
LINE
  8
0
 62
     0
 10
16.6192
 20
86.7184
 30
0.0
 11
16.6192
 21
92.5188
 31
0.0
  0
LINE
  8
0
 62
     0
 10
16.6192
 20
92.5188
 30
0.0
 11
17.4198
 21
92.5188
 31
0.0
  0
LINE
  8
0
 62
     0
 10
17.4198
 20
92.5188
 30
0.0
 11
17.4198
 21
95.6179
 31
0.0
  0
LINE
  8
0
 62
     0
 10
17.4198
 20
95.6179
 30
0.0
 11
16.6192
 21
95.6179
 31
0.0
  0
LINE
  8
0
 62
     0
 10
16.6192
 20
95.6179
 30
0.0
 11
16.6192
 21
96.6184
 31
0.0
  0
LINE
  8
0
 62
     0
 10
16.6192
 20
96.6184
 30
0.0
 11
2.61965
 21
96.6184
 31
0.0
  0
LINE
  8
0
 62
     0
 10
22.6219
 20
96.6184
 30
0.0
 11
22.6219
 21
95.6179
 31
0.0
  0
LINE
  8
0
 62
     0
 10
22.6219
 20
95.6179
 30
0.0
 11
21.8212
 21
95.6179
 31
0.0
  0
LINE
  8
0
 62
     0
 10
21.8212
 20
95.6179
 30
0.0
 11
21.8212
 21
92.5188
 31
0.0
  0
LINE
  8
0
 62
     0
 10
21.8212
 20
92.5188
 30
0.0
 11
22.6219
 21
92.5188
 31
0.0
  0
LINE
  8
0
 62
     0
 10
22.6219
 20
92.5188
 30
0.0
 11
22.6219
 21
86.7184
 31
0.0
  0
LINE
  8
0
 62
     0
 10
22.6219
 20
86.7184
 30
0.0
 11
21.8212
 21
86.7184
 31
0.0
  0
LINE
  8
0
 62
     0
 10
21.8212
 20
86.7184
 30
0.0
 11
21.8212
 21
83.6179
 31
0.0
  0
LINE
  8
0
 62
     0
 10
21.8212
 20
83.6179
 30
0.0
 11
22.6219
 21
83.6179
 31
0.0
  0
LINE
  8
0
 62
     0
 10
22.6219
 20
83.6179
 30
0.0
 11
22.6219
 21
82.6188
 31
0.0
  0
LINE
  8
0
 62
     0
 10
22.6219
 20
82.6188
 30
0.0
 11
36.6215
 21
82.6188
 31
0.0
  0
LINE
  8
0
 62
     0
 10
36.6215
 20
82.6188
 30
0.0
 11
36.6215
 21
83.6179
 31
0.0
  0
LINE
  8
0
 62
     0
 10
36.6215
 20
83.6179
 30
0.0
 11
37.422
 21
83.6179
 31
0.0
  0
LINE
  8
0
 62
     0
 10
37.422
 20
83.6179
 30
0.0
 11
37.422
 21
86.7184
 31
0.0
  0
LINE
  8
0
 62
     0
 10
37.422
 20
86.7184
 30
0.0
 11
36.6215
 21
86.7184
 31
0.0
  0
LINE
  8
0
 62
     0
 10
36.6215
 20
86.7184
 30
0.0
 11
36.6215
 21
92.5188
 31
0.0
  0
LINE
  8
0
 62
     0
 10
36.6215
 20
92.5188
 30
0.0
 11
37.422
 21
92.5188
 31
0.0
  0
LINE
  8
0
 62
     0
 10
37.422
 20
92.5188
 30
0.0
 11
37.422
 21
95.6179
 31
0.0
  0
LINE
  8
0
 62
     0
 10
37.422
 20
95.6179
 30
0.0
 11
36.6215
 21
95.6179
 31
0.0
  0
LINE
  8
0
 62
     0
 10
36.6215
 20
95.6179
 30
0.0
 11
36.6215
 21
96.6184
 31
0.0
  0
LINE
  8
0
 62
     0
 10
36.6215
 20
96.6184
 30
0.0
 11
22.6219
 21
96.6184
 31
0.0
  0
LINE
  8
0
 62
     0
 10
42.624
 20
96.6184
 30
0.0
 11
42.624
 21
95.6179
 31
0.0
  0
LINE
  8
0
 62
     0
 10
42.624
 20
95.6179
 30
0.0
 11
41.825
 21
95.6179
 31
0.0
  0
LINE
  8
0
 62
     0
 10
41.825
 20
95.6179
 30
0.0
 11
41.825
 21
92.5188
 31
0.0
  0
LINE
  8
0
 62
     0
 10
41.825
 20
92.5188
 30
0.0
 11
42.624
 21
92.5188
 31
0.0
  0
LINE
  8
0
 62
     0
 10
42.624
 20
92.5188
 30
0.0
 11
42.624
 21
86.7184
 31
0.0
  0
LINE
  8
0
 62
     0
 10
42.624
 20
86.7184
 30
0.0
 11
41.825
 21
86.7184
 31
0.0
  0
LINE
  8
0
 62
     0
 10
41.825
 20
86.7184
 30
0.0
 11
41.825
 21
83.6179
 31
0.0
  0
LINE
  8
0
 62
     0
 10
41.825
 20
83.6179
 30
0.0
 11
42.624
 21
83.6179
 31
0.0
  0
LINE
  8
0
 62
     0
 10
42.624
 20
83.6179
 30
0.0
 11
42.624
 21
82.6188
 31
0.0
  0
LINE
  8
0
 62
     0
 10
42.624
 20
82.6188
 30
0.0
 11
56.6251
 21
82.6188
 31
0.0
  0
LINE
  8
0
 62
     0
 10
56.6251
 20
82.6188
 30
0.0
 11
56.6251
 21
83.6179
 31
0.0
  0
LINE
  8
0
 62
     0
 10
56.6251
 20
83.6179
 30
0.0
 11
57.4241
 21
83.6179
 31
0.0
  0
LINE
  8
0
 62
     0
 10
57.4241
 20
83.6179
 30
0.0
 11
57.4241
 21
86.7184
 31
0.0
  0
LINE
  8
0
 62
     0
 10
57.4241
 20
86.7184
 30
0.0
 11
56.6251
 21
86.7184
 31
0.0
  0
LINE
  8
0
 62
     0
 10
56.6251
 20
86.7184
 30
0.0
 11
56.6251
 21
92.5188
 31
0.0
  0
LINE
  8
0
 62
     0
 10
56.6251
 20
92.5188
 30
0.0
 11
57.4241
 21
92.5188
 31
0.0
  0
LINE
  8
0
 62
     0
 10
57.4241
 20
92.5188
 30
0.0
 11
57.4241
 21
95.6179
 31
0.0
  0
LINE
  8
0
 62
     0
 10
57.4241
 20
95.6179
 30
0.0
 11
56.6251
 21
95.6179
 31
0.0
  0
LINE
  8
0
 62
     0
 10
56.6251
 20
95.6179
 30
0.0
 11
56.6251
 21
96.6184
 31
0.0
  0
LINE
  8
0
 62
     0
 10
56.6251
 20
96.6184
 30
0.0
 11
42.624
 21
96.6184
 31
0.0
  0
LINE
  8
0
 62
     0
 10
62.6262
 20
96.6184
 30
0.0
 11
62.6262
 21
95.6179
 31
0.0
  0
LINE
  8
0
 62
     0
 10
62.6262
 20
95.6179
 30
0.0
 11
61.8271
 21
95.6179
 31
0.0
  0
LINE
  8
0
 62
     0
 10
61.8271
 20
95.6179
 30
0.0
 11
61.8271
 21
92.5188
 31
0.0
  0
LINE
  8
0
 62
     0
 10
61.8271
 20
92.5188
 30
0.0
 11
62.6262
 21
92.5188
 31
0.0
  0
LINE
  8
0
 62
     0
 10
62.6262
 20
92.5188
 30
0.0
 11
62.6262
 21
86.7184
 31
0.0
  0
LINE
  8
0
 62
     0
 10
62.6262
 20
86.7184
 30
0.0
 11
61.8271
 21
86.7184
 31
0.0
  0
LINE
  8
0
 62
     0
 10
61.8271
 20
86.7184
 30
0.0
 11
61.8271
 21
83.6179
 31
0.0
  0
LINE
  8
0
 62
     0
 10
61.8271
 20
83.6179
 30
0.0
 11
62.6262
 21
83.6179
 31
0.0
  0
LINE
  8
0
 62
     0
 10
62.6262
 20
83.6179
 30
0.0
 11
62.6262
 21
82.6188
 31
0.0
  0
LINE
  8
0
 62
     0
 10
62.6262
 20
82.6188
 30
0.0
 11
76.6272
 21
82.6188
 31
0.0
  0
LINE
  8
0
 62
     0
 10
76.6272
 20
82.6188
 30
0.0
 11
76.6272
 21
83.6179
 31
0.0
  0
LINE
  8
0
 62
     0
 10
76.6272
 20
83.6179
 30
0.0
 11
77.4266
 21
83.6179
 31
0.0
  0
LINE
  8
0
 62
     0
 10
77.4266
 20
83.6179
 30
0.0
 11
77.4266
 21
86.7184
 31
0.0
  0
LINE
  8
0
 62
     0
 10
77.4266
 20
86.7184
 30
0.0
 11
76.6272
 21
86.7184
 31
0.0
  0
LINE
  8
0
 62
     0
 10
76.6272
 20
86.7184
 30
0.0
 11
76.6272
 21
92.5188
 31
0.0
  0
LINE
  8
0
 62
     0
 10
76.6272
 20
92.5188
 30
0.0
 11
77.4266
 21
92.5188
 31
0.0
  0
LINE
  8
0
 62
     0
 10
77.4266
 20
92.5188
 30
0.0
 11
77.4266
 21
95.6179
 31
0.0
  0
LINE
  8
0
 62
     0
 10
77.4266
 20
95.6179
 30
0.0
 11
76.6272
 21
95.6179
 31
0.0
  0
LINE
  8
0
 62
     0
 10
76.6272
 20
95.6179
 30
0.0
 11
76.6272
 21
96.6184
 31
0.0
  0
LINE
  8
0
 62
     0
 10
76.6272
 20
96.6184
 30
0.0
 11
62.6262
 21
96.6184
 31
0.0
  0
LINE
  8
0
 62
     0
 10
82.6301
 20
96.6184
 30
0.0
 11
82.6301
 21
95.6179
 31
0.0
  0
LINE
  8
0
 62
     0
 10
82.6301
 20
95.6179
 30
0.0
 11
81.8293
 21
95.6179
 31
0.0
  0
LINE
  8
0
 62
     0
 10
81.8293
 20
95.6179
 30
0.0
 11
81.8293
 21
92.5188
 31
0.0
  0
LINE
  8
0
 62
     0
 10
81.8293
 20
92.5188
 30
0.0
 11
82.6301
 21
92.5188
 31
0.0
  0
LINE
  8
0
 62
     0
 10
82.6301
 20
92.5188
 30
0.0
 11
82.6301
 21
86.7184
 31
0.0
  0
LINE
  8
0
 62
     0
 10
82.6301
 20
86.7184
 30
0.0
 11
81.8293
 21
86.7184
 31
0.0
  0
LINE
  8
0
 62
     0
 10
81.8293
 20
86.7184
 30
0.0
 11
81.8293
 21
83.6179
 31
0.0
  0
LINE
  8
0
 62
     0
 10
81.8293
 20
83.6179
 30
0.0
 11
82.6301
 21
83.6179
 31
0.0
  0
LINE
  8
0
 62
     0
 10
82.6301
 20
83.6179
 30
0.0
 11
82.6301
 21
82.6188
 31
0.0
  0
LINE
  8
0
 62
     0
 10
82.6301
 20
82.6188
 30
0.0
 11
96.6294
 21
82.6188
 31
0.0
  0
LINE
  8
0
 62
     0
 10
96.6294
 20
82.6188
 30
0.0
 11
96.6294
 21
83.6179
 31
0.0
  0
LINE
  8
0
 62
     0
 10
96.6294
 20
83.6179
 30
0.0
 11
97.4302
 21
83.6179
 31
0.0
  0
LINE
  8
0
 62
     0
 10
97.4302
 20
83.6179
 30
0.0
 11
97.4302
 21
86.7184
 31
0.0
  0
LINE
  8
0
 62
     0
 10
97.4302
 20
86.7184
 30
0.0
 11
96.6294
 21
86.7184
 31
0.0
  0
LINE
  8
0
 62
     0
 10
96.6294
 20
86.7184
 30
0.0
 11
96.6294
 21
92.5188
 31
0.0
  0
LINE
  8
0
 62
     0
 10
96.6294
 20
92.5188
 30
0.0
 11
97.4302
 21
92.5188
 31
0.0
  0
LINE
  8
0
 62
     0
 10
97.4302
 20
92.5188
 30
0.0
 11
97.4302
 21
95.6179
 31
0.0
  0
LINE
  8
0
 62
     0
 10
97.4302
 20
95.6179
 30
0.0
 11
96.6294
 21
95.6179
 31
0.0
  0
LINE
  8
0
 62
     0
 10
96.6294
 20
95.6179
 30
0.0
 11
96.6294
 21
96.6184
 31
0.0
  0
LINE
  8
0
 62
     0
 10
96.6294
 20
96.6184
 30
0.0
 11
82.6301
 21
96.6184
 31
0.0
  0
LINE
  8
0
 62
     0
 10
102.632
 20
96.6184
 30
0.0
 11
102.632
 21
95.6179
 31
0.0
  0
LINE
  8
0
 62
     0
 10
102.632
 20
95.6179
 30
0.0
 11
101.831
 21
95.6179
 31
0.0
  0
LINE
  8
0
 62
     0
 10
101.831
 20
95.6179
 30
0.0
 11
101.831
 21
92.5188
 31
0.0
  0
LINE
  8
0
 62
     0
 10
101.831
 20
92.5188
 30
0.0
 11
102.632
 21
92.5188
 31
0.0
  0
LINE
  8
0
 62
     0
 10
102.632
 20
92.5188
 30
0.0
 11
102.632
 21
86.7184
 31
0.0
  0
LINE
  8
0
 62
     0
 10
102.632
 20
86.7184
 30
0.0
 11
101.831
 21
86.7184
 31
0.0
  0
LINE
  8
0
 62
     0
 10
101.831
 20
86.7184
 30
0.0
 11
101.831
 21
83.6179
 31
0.0
  0
LINE
  8
0
 62
     0
 10
101.831
 20
83.6179
 30
0.0
 11
102.632
 21
83.6179
 31
0.0
  0
LINE
  8
0
 62
     0
 10
102.632
 20
83.6179
 30
0.0
 11
102.632
 21
82.6188
 31
0.0
  0
LINE
  8
0
 62
     0
 10
102.632
 20
82.6188
 30
0.0
 11
116.632
 21
82.6188
 31
0.0
  0
LINE
  8
0
 62
     0
 10
116.632
 20
82.6188
 30
0.0
 11
116.632
 21
83.6179
 31
0.0
  0
LINE
  8
0
 62
     0
 10
116.632
 20
83.6179
 30
0.0
 11
117.432
 21
83.6179
 31
0.0
  0
LINE
  8
0
 62
     0
 10
117.432
 20
83.6179
 30
0.0
 11
117.432
 21
86.7184
 31
0.0
  0
LINE
  8
0
 62
     0
 10
117.432
 20
86.7184
 30
0.0
 11
116.632
 21
86.7184
 31
0.0
  0
LINE
  8
0
 62
     0
 10
116.632
 20
86.7184
 30
0.0
 11
116.632
 21
92.5188
 31
0.0
  0
LINE
  8
0
 62
     0
 10
116.632
 20
92.5188
 30
0.0
 11
117.432
 21
92.5188
 31
0.0
  0
LINE
  8
0
 62
     0
 10
117.432
 20
92.5188
 30
0.0
 11
117.432
 21
95.6179
 31
0.0
  0
LINE
  8
0
 62
     0
 10
117.432
 20
95.6179
 30
0.0
 11
116.632
 21
95.6179
 31
0.0
  0
LINE
  8
0
 62
     0
 10
116.632
 20
95.6179
 30
0.0
 11
116.632
 21
96.6184
 31
0.0
  0
LINE
  8
0
 62
     0
 10
116.632
 20
96.6184
 30
0.0
 11
102.632
 21
96.6184
 31
0.0
  0
LINE
  8
0
 62
     0
 10
122.634
 20
96.6184
 30
0.0
 11
122.634
 21
95.6179
 31
0.0
  0
LINE
  8
0
 62
     0
 10
122.634
 20
95.6179
 30
0.0
 11
121.835
 21
95.6179
 31
0.0
  0
LINE
  8
0
 62
     0
 10
121.835
 20
95.6179
 30
0.0
 11
121.835
 21
92.5188
 31
0.0
  0
LINE
  8
0
 62
     0
 10
121.835
 20
92.5188
 30
0.0
 11
122.634
 21
92.5188
 31
0.0
  0
LINE
  8
0
 62
     0
 10
122.634
 20
92.5188
 30
0.0
 11
122.634
 21
86.7184
 31
0.0
  0
LINE
  8
0
 62
     0
 10
122.634
 20
86.7184
 30
0.0
 11
121.835
 21
86.7184
 31
0.0
  0
LINE
  8
0
 62
     0
 10
121.835
 20
86.7184
 30
0.0
 11
121.835
 21
83.6179
 31
0.0
  0
LINE
  8
0
 62
     0
 10
121.835
 20
83.6179
 30
0.0
 11
122.634
 21
83.6179
 31
0.0
  0
LINE
  8
0
 62
     0
 10
122.634
 20
83.6179
 30
0.0
 11
122.634
 21
82.6188
 31
0.0
  0
LINE
  8
0
 62
     0
 10
122.634
 20
82.6188
 30
0.0
 11
136.635
 21
82.6188
 31
0.0
  0
LINE
  8
0
 62
     0
 10
136.635
 20
82.6188
 30
0.0
 11
136.635
 21
83.6179
 31
0.0
  0
LINE
  8
0
 62
     0
 10
136.635
 20
83.6179
 30
0.0
 11
137.434
 21
83.6179
 31
0.0
  0
LINE
  8
0
 62
     0
 10
137.434
 20
83.6179
 30
0.0
 11
137.434
 21
86.7184
 31
0.0
  0
LINE
  8
0
 62
     0
 10
137.434
 20
86.7184
 30
0.0
 11
136.635
 21
86.7184
 31
0.0
  0
LINE
  8
0
 62
     0
 10
136.635
 20
86.7184
 30
0.0
 11
136.635
 21
92.5188
 31
0.0
  0
LINE
  8
0
 62
     0
 10
136.635
 20
92.5188
 30
0.0
 11
137.434
 21
92.5188
 31
0.0
  0
LINE
  8
0
 62
     0
 10
137.434
 20
92.5188
 30
0.0
 11
137.434
 21
95.6179
 31
0.0
  0
LINE
  8
0
 62
     0
 10
137.434
 20
95.6179
 30
0.0
 11
136.635
 21
95.6179
 31
0.0
  0
LINE
  8
0
 62
     0
 10
136.635
 20
95.6179
 30
0.0
 11
136.635
 21
96.6184
 31
0.0
  0
LINE
  8
0
 62
     0
 10
136.635
 20
96.6184
 30
0.0
 11
122.634
 21
96.6184
 31
0.0
  0
LINE
  8
0
 62
     0
 10
142.637
 20
96.6184
 30
0.0
 11
142.637
 21
95.6179
 31
0.0
  0
LINE
  8
0
 62
     0
 10
142.637
 20
95.6179
 30
0.0
 11
141.837
 21
95.6179
 31
0.0
  0
LINE
  8
0
 62
     0
 10
141.837
 20
95.6179
 30
0.0
 11
141.837
 21
92.5188
 31
0.0
  0
LINE
  8
0
 62
     0
 10
141.837
 20
92.5188
 30
0.0
 11
142.637
 21
92.5188
 31
0.0
  0
LINE
  8
0
 62
     0
 10
142.637
 20
92.5188
 30
0.0
 11
142.637
 21
86.7184
 31
0.0
  0
LINE
  8
0
 62
     0
 10
142.637
 20
86.7184
 30
0.0
 11
141.837
 21
86.7184
 31
0.0
  0
LINE
  8
0
 62
     0
 10
141.837
 20
86.7184
 30
0.0
 11
141.837
 21
83.6179
 31
0.0
  0
LINE
  8
0
 62
     0
 10
141.837
 20
83.6179
 30
0.0
 11
142.637
 21
83.6179
 31
0.0
  0
LINE
  8
0
 62
     0
 10
142.637
 20
83.6179
 30
0.0
 11
142.637
 21
82.6188
 31
0.0
  0
LINE
  8
0
 62
     0
 10
142.637
 20
82.6188
 30
0.0
 11
156.636
 21
82.6188
 31
0.0
  0
LINE
  8
0
 62
     0
 10
156.636
 20
82.6188
 30
0.0
 11
156.636
 21
83.6179
 31
0.0
  0
LINE
  8
0
 62
     0
 10
156.636
 20
83.6179
 30
0.0
 11
157.437
 21
83.6179
 31
0.0
  0
LINE
  8
0
 62
     0
 10
157.437
 20
83.6179
 30
0.0
 11
157.437
 21
86.7184
 31
0.0
  0
LINE
  8
0
 62
     0
 10
157.437
 20
86.7184
 30
0.0
 11
156.636
 21
86.7184
 31
0.0
  0
LINE
  8
0
 62
     0
 10
156.636
 20
86.7184
 30
0.0
 11
156.636
 21
92.5188
 31
0.0
  0
LINE
  8
0
 62
     0
 10
156.636
 20
92.5188
 30
0.0
 11
157.437
 21
92.5188
 31
0.0
  0
LINE
  8
0
 62
     0
 10
157.437
 20
92.5188
 30
0.0
 11
157.437
 21
95.6179
 31
0.0
  0
LINE
  8
0
 62
     0
 10
157.437
 20
95.6179
 30
0.0
 11
156.636
 21
95.6179
 31
0.0
  0
LINE
  8
0
 62
     0
 10
156.636
 20
95.6179
 30
0.0
 11
156.636
 21
96.6184
 31
0.0
  0
LINE
  8
0
 62
     0
 10
156.636
 20
96.6184
 30
0.0
 11
142.637
 21
96.6184
 31
0.0
  0
LINE
  8
0
 62
     0
 10
162.64
 20
96.6184
 30
0.0
 11
162.64
 21
95.6179
 31
0.0
  0
LINE
  8
0
 62
     0
 10
162.64
 20
95.6179
 30
0.0
 11
161.838
 21
95.6179
 31
0.0
  0
LINE
  8
0
 62
     0
 10
161.838
 20
95.6179
 30
0.0
 11
161.838
 21
92.5188
 31
0.0
  0
LINE
  8
0
 62
     0
 10
161.838
 20
92.5188
 30
0.0
 11
162.64
 21
92.5188
 31
0.0
  0
LINE
  8
0
 62
     0
 10
162.64
 20
92.5188
 30
0.0
 11
162.64
 21
86.7184
 31
0.0
  0
LINE
  8
0
 62
     0
 10
162.64
 20
86.7184
 30
0.0
 11
161.838
 21
86.7184
 31
0.0
  0
LINE
  8
0
 62
     0
 10
161.838
 20
86.7184
 30
0.0
 11
161.838
 21
83.6179
 31
0.0
  0
LINE
  8
0
 62
     0
 10
161.838
 20
83.6179
 30
0.0
 11
162.64
 21
83.6179
 31
0.0
  0
LINE
  8
0
 62
     0
 10
162.64
 20
83.6179
 30
0.0
 11
162.64
 21
82.6188
 31
0.0
  0
LINE
  8
0
 62
     0
 10
162.64
 20
82.6188
 30
0.0
 11
176.64
 21
82.6188
 31
0.0
  0
LINE
  8
0
 62
     0
 10
176.64
 20
82.6188
 30
0.0
 11
176.64
 21
83.6179
 31
0.0
  0
LINE
  8
0
 62
     0
 10
176.64
 20
83.6179
 30
0.0
 11
177.44
 21
83.6179
 31
0.0
  0
LINE
  8
0
 62
     0
 10
177.44
 20
83.6179
 30
0.0
 11
177.44
 21
86.7184
 31
0.0
  0
LINE
  8
0
 62
     0
 10
177.44
 20
86.7184
 30
0.0
 11
176.64
 21
86.7184
 31
0.0
  0
LINE
  8
0
 62
     0
 10
176.64
 20
86.7184
 30
0.0
 11
176.64
 21
92.5188
 31
0.0
  0
LINE
  8
0
 62
     0
 10
176.64
 20
92.5188
 30
0.0
 11
177.44
 21
92.5188
 31
0.0
  0
LINE
  8
0
 62
     0
 10
177.44
 20
92.5188
 30
0.0
 11
177.44
 21
95.6179
 31
0.0
  0
LINE
  8
0
 62
     0
 10
177.44
 20
95.6179
 30
0.0
 11
176.64
 21
95.6179
 31
0.0
  0
LINE
  8
0
 62
     0
 10
176.64
 20
95.6179
 30
0.0
 11
176.64
 21
96.6184
 31
0.0
  0
LINE
  8
0
 62
     0
 10
176.64
 20
96.6184
 30
0.0
 11
162.64
 21
96.6184
 31
0.0
  0
LINE
  8
0
 62
     0
 10
182.643
 20
96.6184
 30
0.0
 11
182.643
 21
95.6179
 31
0.0
  0
LINE
  8
0
 62
     0
 10
182.643
 20
95.6179
 30
0.0
 11
181.842
 21
95.6179
 31
0.0
  0
LINE
  8
0
 62
     0
 10
181.842
 20
95.6179
 30
0.0
 11
181.842
 21
92.5188
 31
0.0
  0
LINE
  8
0
 62
     0
 10
181.842
 20
92.5188
 30
0.0
 11
182.643
 21
92.5188
 31
0.0
  0
LINE
  8
0
 62
     0
 10
182.643
 20
92.5188
 30
0.0
 11
182.643
 21
86.7184
 31
0.0
  0
LINE
  8
0
 62
     0
 10
182.643
 20
86.7184
 30
0.0
 11
181.842
 21
86.7184
 31
0.0
  0
LINE
  8
0
 62
     0
 10
181.842
 20
86.7184
 30
0.0
 11
181.842
 21
83.6179
 31
0.0
  0
LINE
  8
0
 62
     0
 10
181.842
 20
83.6179
 30
0.0
 11
182.643
 21
83.6179
 31
0.0
  0
LINE
  8
0
 62
     0
 10
182.643
 20
83.6179
 30
0.0
 11
182.643
 21
82.6188
 31
0.0
  0
LINE
  8
0
 62
     0
 10
182.643
 20
82.6188
 30
0.0
 11
196.642
 21
82.6188
 31
0.0
  0
LINE
  8
0
 62
     0
 10
196.642
 20
82.6188
 30
0.0
 11
196.642
 21
83.6179
 31
0.0
  0
LINE
  8
0
 62
     0
 10
196.642
 20
83.6179
 30
0.0
 11
197.441
 21
83.6179
 31
0.0
  0
LINE
  8
0
 62
     0
 10
197.441
 20
83.6179
 30
0.0
 11
197.441
 21
86.7184
 31
0.0
  0
LINE
  8
0
 62
     0
 10
197.441
 20
86.7184
 30
0.0
 11
196.642
 21
86.7184
 31
0.0
  0
LINE
  8
0
 62
     0
 10
196.642
 20
86.7184
 30
0.0
 11
196.642
 21
92.5188
 31
0.0
  0
LINE
  8
0
 62
     0
 10
196.642
 20
92.5188
 30
0.0
 11
197.441
 21
92.5188
 31
0.0
  0
LINE
  8
0
 62
     0
 10
197.441
 20
92.5188
 30
0.0
 11
197.441
 21
95.6179
 31
0.0
  0
LINE
  8
0
 62
     0
 10
197.441
 20
95.6179
 30
0.0
 11
196.642
 21
95.6179
 31
0.0
  0
LINE
  8
0
 62
     0
 10
196.642
 20
95.6179
 30
0.0
 11
196.642
 21
96.6184
 31
0.0
  0
LINE
  8
0
 62
     0
 10
196.642
 20
96.6184
 30
0.0
 11
182.643
 21
96.6184
 31
0.0
  0
LINE
  8
0
 62
     0
 10
202.643
 20
96.6184
 30
0.0
 11
202.643
 21
95.6179
 31
0.0
  0
LINE
  8
0
 62
     0
 10
202.643
 20
95.6179
 30
0.0
 11
201.844
 21
95.6179
 31
0.0
  0
LINE
  8
0
 62
     0
 10
201.844
 20
95.6179
 30
0.0
 11
201.844
 21
92.5188
 31
0.0
  0
LINE
  8
0
 62
     0
 10
201.844
 20
92.5188
 30
0.0
 11
202.643
 21
92.5188
 31
0.0
  0
LINE
  8
0
 62
     0
 10
202.643
 20
92.5188
 30
0.0
 11
202.643
 21
86.7184
 31
0.0
  0
LINE
  8
0
 62
     0
 10
202.643
 20
86.7184
 30
0.0
 11
201.844
 21
86.7184
 31
0.0
  0
LINE
  8
0
 62
     0
 10
201.844
 20
86.7184
 30
0.0
 11
201.844
 21
83.6179
 31
0.0
  0
LINE
  8
0
 62
     0
 10
201.844
 20
83.6179
 30
0.0
 11
202.643
 21
83.6179
 31
0.0
  0
LINE
  8
0
 62
     0
 10
202.643
 20
83.6179
 30
0.0
 11
202.643
 21
82.6188
 31
0.0
  0
LINE
  8
0
 62
     0
 10
202.643
 20
82.6188
 30
0.0
 11
216.644
 21
82.6188
 31
0.0
  0
LINE
  8
0
 62
     0
 10
216.644
 20
82.6188
 30
0.0
 11
216.644
 21
83.6179
 31
0.0
  0
LINE
  8
0
 62
     0
 10
216.644
 20
83.6179
 30
0.0
 11
217.445
 21
83.6179
 31
0.0
  0
LINE
  8
0
 62
     0
 10
217.445
 20
83.6179
 30
0.0
 11
217.445
 21
86.7184
 31
0.0
  0
LINE
  8
0
 62
     0
 10
217.445
 20
86.7184
 30
0.0
 11
216.644
 21
86.7184
 31
0.0
  0
LINE
  8
0
 62
     0
 10
216.644
 20
86.7184
 30
0.0
 11
216.644
 21
92.5188
 31
0.0
  0
LINE
  8
0
 62
     0
 10
216.644
 20
92.5188
 30
0.0
 11
217.445
 21
92.5188
 31
0.0
  0
LINE
  8
0
 62
     0
 10
217.445
 20
92.5188
 30
0.0
 11
217.445
 21
95.6179
 31
0.0
  0
LINE
  8
0
 62
     0
 10
217.445
 20
95.6179
 30
0.0
 11
216.644
 21
95.6179
 31
0.0
  0
LINE
  8
0
 62
     0
 10
216.644
 20
95.6179
 30
0.0
 11
216.644
 21
96.6184
 31
0.0
  0
LINE
  8
0
 62
     0
 10
216.644
 20
96.6184
 30
0.0
 11
202.643
 21
96.6184
 31
0.0
  0
LINE
  8
0
 62
     0
 10
222.647
 20
96.6184
 30
0.0
 11
222.647
 21
95.6179
 31
0.0
  0
LINE
  8
0
 62
     0
 10
222.647
 20
95.6179
 30
0.0
 11
221.846
 21
95.6179
 31
0.0
  0
LINE
  8
0
 62
     0
 10
221.846
 20
95.6179
 30
0.0
 11
221.846
 21
92.5188
 31
0.0
  0
LINE
  8
0
 62
     0
 10
221.846
 20
92.5188
 30
0.0
 11
222.647
 21
92.5188
 31
0.0
  0
LINE
  8
0
 62
     0
 10
222.647
 20
92.5188
 30
0.0
 11
222.647
 21
86.7184
 31
0.0
  0
LINE
  8
0
 62
     0
 10
222.647
 20
86.7184
 30
0.0
 11
221.846
 21
86.7184
 31
0.0
  0
LINE
  8
0
 62
     0
 10
221.846
 20
86.7184
 30
0.0
 11
221.846
 21
83.6179
 31
0.0
  0
LINE
  8
0
 62
     0
 10
221.846
 20
83.6179
 30
0.0
 11
222.647
 21
83.6179
 31
0.0
  0
LINE
  8
0
 62
     0
 10
222.647
 20
83.6179
 30
0.0
 11
222.647
 21
82.6188
 31
0.0
  0
LINE
  8
0
 62
     0
 10
222.647
 20
82.6188
 30
0.0
 11
236.647
 21
82.6188
 31
0.0
  0
LINE
  8
0
 62
     0
 10
236.647
 20
82.6188
 30
0.0
 11
236.647
 21
83.6179
 31
0.0
  0
LINE
  8
0
 62
     0
 10
236.647
 20
83.6179
 30
0.0
 11
237.447
 21
83.6179
 31
0.0
  0
LINE
  8
0
 62
     0
 10
237.447
 20
83.6179
 30
0.0
 11
237.447
 21
86.7184
 31
0.0
  0
LINE
  8
0
 62
     0
 10
237.447
 20
86.7184
 30
0.0
 11
236.647
 21
86.7184
 31
0.0
  0
LINE
  8
0
 62
     0
 10
236.647
 20
86.7184
 30
0.0
 11
236.647
 21
92.5188
 31
0.0
  0
LINE
  8
0
 62
     0
 10
236.647
 20
92.5188
 30
0.0
 11
237.447
 21
92.5188
 31
0.0
  0
LINE
  8
0
 62
     0
 10
237.447
 20
92.5188
 30
0.0
 11
237.447
 21
95.6179
 31
0.0
  0
LINE
  8
0
 62
     0
 10
237.447
 20
95.6179
 30
0.0
 11
236.647
 21
95.6179
 31
0.0
  0
LINE
  8
0
 62
     0
 10
236.647
 20
95.6179
 30
0.0
 11
236.647
 21
96.6184
 31
0.0
  0
LINE
  8
0
 62
     0
 10
236.647
 20
96.6184
 30
0.0
 11
222.647
 21
96.6184
 31
0.0
  0
LINE
  8
0
 62
     0
 10
242.649
 20
96.6184
 30
0.0
 11
242.649
 21
95.6179
 31
0.0
  0
LINE
  8
0
 62
     0
 10
242.649
 20
95.6179
 30
0.0
 11
241.849
 21
95.6179
 31
0.0
  0
LINE
  8
0
 62
     0
 10
241.849
 20
95.6179
 30
0.0
 11
241.849
 21
92.5188
 31
0.0
  0
LINE
  8
0
 62
     0
 10
241.849
 20
92.5188
 30
0.0
 11
242.649
 21
92.5188
 31
0.0
  0
LINE
  8
0
 62
     0
 10
242.649
 20
92.5188
 30
0.0
 11
242.649
 21
86.7184
 31
0.0
  0
LINE
  8
0
 62
     0
 10
242.649
 20
86.7184
 30
0.0
 11
241.849
 21
86.7184
 31
0.0
  0
LINE
  8
0
 62
     0
 10
241.849
 20
86.7184
 30
0.0
 11
241.849
 21
83.6179
 31
0.0
  0
LINE
  8
0
 62
     0
 10
241.849
 20
83.6179
 30
0.0
 11
242.649
 21
83.6179
 31
0.0
  0
LINE
  8
0
 62
     0
 10
242.649
 20
83.6179
 30
0.0
 11
242.649
 21
82.6188
 31
0.0
  0
LINE
  8
0
 62
     0
 10
242.649
 20
82.6188
 30
0.0
 11
256.647
 21
82.6188
 31
0.0
  0
LINE
  8
0
 62
     0
 10
256.647
 20
82.6188
 30
0.0
 11
256.647
 21
83.6179
 31
0.0
  0
LINE
  8
0
 62
     0
 10
256.647
 20
83.6179
 30
0.0
 11
257.449
 21
83.6179
 31
0.0
  0
LINE
  8
0
 62
     0
 10
257.449
 20
83.6179
 30
0.0
 11
257.449
 21
86.7184
 31
0.0
  0
LINE
  8
0
 62
     0
 10
257.449
 20
86.7184
 30
0.0
 11
256.647
 21
86.7184
 31
0.0
  0
LINE
  8
0
 62
     0
 10
256.647
 20
86.7184
 30
0.0
 11
256.647
 21
92.5188
 31
0.0
  0
LINE
  8
0
 62
     0
 10
256.647
 20
92.5188
 30
0.0
 11
257.449
 21
92.5188
 31
0.0
  0
LINE
  8
0
 62
     0
 10
257.449
 20
92.5188
 30
0.0
 11
257.449
 21
95.6179
 31
0.0
  0
LINE
  8
0
 62
     0
 10
257.449
 20
95.6179
 30
0.0
 11
256.647
 21
95.6179
 31
0.0
  0
LINE
  8
0
 62
     0
 10
256.647
 20
95.6179
 30
0.0
 11
256.647
 21
96.6184
 31
0.0
  0
LINE
  8
0
 62
     0
 10
256.647
 20
96.6184
 30
0.0
 11
242.649
 21
96.6184
 31
0.0
  0
LINE
  8
0
 62
     0
 10
305.514
 20
96.6184
 30
0.0
 11
305.514
 21
95.6179
 31
0.0
  0
LINE
  8
0
 62
     0
 10
305.514
 20
95.6179
 30
0.0
 11
304.713
 21
95.6179
 31
0.0
  0
LINE
  8
0
 62
     0
 10
304.713
 20
95.6179
 30
0.0
 11
304.713
 21
92.5188
 31
0.0
  0
LINE
  8
0
 62
     0
 10
304.713
 20
92.5188
 30
0.0
 11
305.514
 21
92.5188
 31
0.0
  0
LINE
  8
0
 62
     0
 10
305.514
 20
92.5188
 30
0.0
 11
305.514
 21
86.7184
 31
0.0
  0
LINE
  8
0
 62
     0
 10
305.514
 20
86.7184
 30
0.0
 11
304.713
 21
86.7184
 31
0.0
  0
LINE
  8
0
 62
     0
 10
304.713
 20
86.7184
 30
0.0
 11
304.713
 21
83.6179
 31
0.0
  0
LINE
  8
0
 62
     0
 10
304.713
 20
83.6179
 30
0.0
 11
305.514
 21
83.6179
 31
0.0
  0
LINE
  8
0
 62
     0
 10
305.514
 20
83.6179
 30
0.0
 11
305.514
 21
82.6188
 31
0.0
  0
LINE
  8
0
 62
     0
 10
305.514
 20
82.6188
 30
0.0
 11
319.513
 21
82.6188
 31
0.0
  0
LINE
  8
0
 62
     0
 10
319.513
 20
82.6188
 30
0.0
 11
319.513
 21
83.6179
 31
0.0
  0
LINE
  8
0
 62
     0
 10
319.513
 20
83.6179
 30
0.0
 11
320.314
 21
83.6179
 31
0.0
  0
LINE
  8
0
 62
     0
 10
320.314
 20
83.6179
 30
0.0
 11
320.314
 21
86.7184
 31
0.0
  0
LINE
  8
0
 62
     0
 10
320.314
 20
86.7184
 30
0.0
 11
319.513
 21
86.7184
 31
0.0
  0
LINE
  8
0
 62
     0
 10
319.513
 20
86.7184
 30
0.0
 11
319.513
 21
92.5188
 31
0.0
  0
LINE
  8
0
 62
     0
 10
319.513
 20
92.5188
 30
0.0
 11
320.314
 21
92.5188
 31
0.0
  0
LINE
  8
0
 62
     0
 10
320.314
 20
92.5188
 30
0.0
 11
320.314
 21
95.6179
 31
0.0
  0
LINE
  8
0
 62
     0
 10
320.314
 20
95.6179
 30
0.0
 11
319.513
 21
95.6179
 31
0.0
  0
LINE
  8
0
 62
     0
 10
319.513
 20
95.6179
 30
0.0
 11
319.513
 21
96.6184
 31
0.0
  0
LINE
  8
0
 62
     0
 10
319.513
 20
96.6184
 30
0.0
 11
305.514
 21
96.6184
 31
0.0
  0
LINE
  8
0
 62
     0
 10
325.516
 20
96.6184
 30
0.0
 11
325.516
 21
95.6179
 31
0.0
  0
LINE
  8
0
 62
     0
 10
325.516
 20
95.6179
 30
0.0
 11
324.717
 21
95.6179
 31
0.0
  0
LINE
  8
0
 62
     0
 10
324.717
 20
95.6179
 30
0.0
 11
324.717
 21
92.5188
 31
0.0
  0
LINE
  8
0
 62
     0
 10
324.717
 20
92.5188
 30
0.0
 11
325.516
 21
92.5188
 31
0.0
  0
LINE
  8
0
 62
     0
 10
325.516
 20
92.5188
 30
0.0
 11
325.516
 21
86.7184
 31
0.0
  0
LINE
  8
0
 62
     0
 10
325.516
 20
86.7184
 30
0.0
 11
324.717
 21
86.7184
 31
0.0
  0
LINE
  8
0
 62
     0
 10
324.717
 20
86.7184
 30
0.0
 11
324.717
 21
83.6179
 31
0.0
  0
LINE
  8
0
 62
     0
 10
324.717
 20
83.6179
 30
0.0
 11
325.516
 21
83.6179
 31
0.0
  0
LINE
  8
0
 62
     0
 10
325.516
 20
83.6179
 30
0.0
 11
325.516
 21
82.6188
 31
0.0
  0
LINE
  8
0
 62
     0
 10
325.516
 20
82.6188
 30
0.0
 11
339.517
 21
82.6188
 31
0.0
  0
LINE
  8
0
 62
     0
 10
339.517
 20
82.6188
 30
0.0
 11
339.517
 21
83.6179
 31
0.0
  0
LINE
  8
0
 62
     0
 10
339.517
 20
83.6179
 30
0.0
 11
340.316
 21
83.6179
 31
0.0
  0
LINE
  8
0
 62
     0
 10
340.316
 20
83.6179
 30
0.0
 11
340.316
 21
86.7184
 31
0.0
  0
LINE
  8
0
 62
     0
 10
340.316
 20
86.7184
 30
0.0
 11
339.517
 21
86.7184
 31
0.0
  0
LINE
  8
0
 62
     0
 10
339.517
 20
86.7184
 30
0.0
 11
339.517
 21
92.5188
 31
0.0
  0
LINE
  8
0
 62
     0
 10
339.517
 20
92.5188
 30
0.0
 11
340.316
 21
92.5188
 31
0.0
  0
LINE
  8
0
 62
     0
 10
340.316
 20
92.5188
 30
0.0
 11
340.316
 21
95.6179
 31
0.0
  0
LINE
  8
0
 62
     0
 10
340.316
 20
95.6179
 30
0.0
 11
339.517
 21
95.6179
 31
0.0
  0
LINE
  8
0
 62
     0
 10
339.517
 20
95.6179
 30
0.0
 11
339.517
 21
96.6184
 31
0.0
  0
LINE
  8
0
 62
     0
 10
339.517
 20
96.6184
 30
0.0
 11
325.516
 21
96.6184
 31
0.0
  0
LINE
  8
0
 62
     0
 10
345.518
 20
96.6184
 30
0.0
 11
345.518
 21
95.6179
 31
0.0
  0
LINE
  8
0
 62
     0
 10
345.518
 20
95.6179
 30
0.0
 11
344.719
 21
95.6179
 31
0.0
  0
LINE
  8
0
 62
     0
 10
344.719
 20
95.6179
 30
0.0
 11
344.719
 21
92.5188
 31
0.0
  0
LINE
  8
0
 62
     0
 10
344.719
 20
92.5188
 30
0.0
 11
345.518
 21
92.5188
 31
0.0
  0
LINE
  8
0
 62
     0
 10
345.518
 20
92.5188
 30
0.0
 11
345.518
 21
86.7184
 31
0.0
  0
LINE
  8
0
 62
     0
 10
345.518
 20
86.7184
 30
0.0
 11
344.719
 21
86.7184
 31
0.0
  0
LINE
  8
0
 62
     0
 10
344.719
 20
86.7184
 30
0.0
 11
344.719
 21
83.6179
 31
0.0
  0
LINE
  8
0
 62
     0
 10
344.719
 20
83.6179
 30
0.0
 11
345.518
 21
83.6179
 31
0.0
  0
LINE
  8
0
 62
     0
 10
345.518
 20
83.6179
 30
0.0
 11
345.518
 21
82.6188
 31
0.0
  0
LINE
  8
0
 62
     0
 10
345.518
 20
82.6188
 30
0.0
 11
359.519
 21
82.6188
 31
0.0
  0
LINE
  8
0
 62
     0
 10
359.519
 20
82.6188
 30
0.0
 11
359.519
 21
83.6179
 31
0.0
  0
LINE
  8
0
 62
     0
 10
359.519
 20
83.6179
 30
0.0
 11
360.32
 21
83.6179
 31
0.0
  0
LINE
  8
0
 62
     0
 10
360.32
 20
83.6179
 30
0.0
 11
360.32
 21
86.7184
 31
0.0
  0
LINE
  8
0
 62
     0
 10
360.32
 20
86.7184
 30
0.0
 11
359.519
 21
86.7184
 31
0.0
  0
LINE
  8
0
 62
     0
 10
359.519
 20
86.7184
 30
0.0
 11
359.519
 21
92.5188
 31
0.0
  0
LINE
  8
0
 62
     0
 10
359.519
 20
92.5188
 30
0.0
 11
360.32
 21
92.5188
 31
0.0
  0
LINE
  8
0
 62
     0
 10
360.32
 20
92.5188
 30
0.0
 11
360.32
 21
95.6179
 31
0.0
  0
LINE
  8
0
 62
     0
 10
360.32
 20
95.6179
 30
0.0
 11
359.519
 21
95.6179
 31
0.0
  0
LINE
  8
0
 62
     0
 10
359.519
 20
95.6179
 30
0.0
 11
359.519
 21
96.6184
 31
0.0
  0
LINE
  8
0
 62
     0
 10
359.519
 20
96.6184
 30
0.0
 11
345.518
 21
96.6184
 31
0.0
  0
LINE
  8
0
 62
     0
 10
2.61965
 20
125.193
 30
0.0
 11
2.61965
 21
124.193
 31
0.0
  0
LINE
  8
0
 62
     0
 10
2.61965
 20
124.193
 30
0.0
 11
1.82039
 21
124.193
 31
0.0
  0
LINE
  8
0
 62
     0
 10
1.82039
 20
124.193
 30
0.0
 11
1.82039
 21
121.094
 31
0.0
  0
LINE
  8
0
 62
     0
 10
1.82039
 20
121.094
 30
0.0
 11
2.61965
 21
121.094
 31
0.0
  0
LINE
  8
0
 62
     0
 10
2.61965
 20
121.094
 30
0.0
 11
2.61965
 21
115.293
 31
0.0
  0
LINE
  8
0
 62
     0
 10
2.61965
 20
115.293
 30
0.0
 11
1.82039
 21
115.293
 31
0.0
  0
LINE
  8
0
 62
     0
 10
1.82039
 20
115.293
 30
0.0
 11
1.82039
 21
112.193
 31
0.0
  0
LINE
  8
0
 62
     0
 10
1.82039
 20
112.193
 30
0.0
 11
2.61965
 21
112.193
 31
0.0
  0
LINE
  8
0
 62
     0
 10
2.61965
 20
112.193
 30
0.0
 11
2.61965
 21
111.194
 31
0.0
  0
LINE
  8
0
 62
     0
 10
2.61965
 20
111.194
 30
0.0
 11
16.6192
 21
111.194
 31
0.0
  0
LINE
  8
0
 62
     0
 10
16.6192
 20
111.194
 30
0.0
 11
16.6192
 21
112.193
 31
0.0
  0
LINE
  8
0
 62
     0
 10
16.6192
 20
112.193
 30
0.0
 11
17.4198
 21
112.193
 31
0.0
  0
LINE
  8
0
 62
     0
 10
17.4198
 20
112.193
 30
0.0
 11
17.4198
 21
115.293
 31
0.0
  0
LINE
  8
0
 62
     0
 10
17.4198
 20
115.293
 30
0.0
 11
16.6192
 21
115.293
 31
0.0
  0
LINE
  8
0
 62
     0
 10
16.6192
 20
115.293
 30
0.0
 11
16.6192
 21
121.094
 31
0.0
  0
LINE
  8
0
 62
     0
 10
16.6192
 20
121.094
 30
0.0
 11
17.4198
 21
121.094
 31
0.0
  0
LINE
  8
0
 62
     0
 10
17.4198
 20
121.094
 30
0.0
 11
17.4198
 21
124.193
 31
0.0
  0
LINE
  8
0
 62
     0
 10
17.4198
 20
124.193
 30
0.0
 11
16.6192
 21
124.193
 31
0.0
  0
LINE
  8
0
 62
     0
 10
16.6192
 20
124.193
 30
0.0
 11
16.6192
 21
125.193
 31
0.0
  0
LINE
  8
0
 62
     0
 10
16.6192
 20
125.193
 30
0.0
 11
2.61965
 21
125.193
 31
0.0
  0
LINE
  8
0
 62
     0
 10
41.6719
 20
125.193
 30
0.0
 11
41.6719
 21
124.193
 31
0.0
  0
LINE
  8
0
 62
     0
 10
41.6719
 20
124.193
 30
0.0
 11
40.8711
 21
124.193
 31
0.0
  0
LINE
  8
0
 62
     0
 10
40.8711
 20
124.193
 30
0.0
 11
40.8711
 21
121.094
 31
0.0
  0
LINE
  8
0
 62
     0
 10
40.8711
 20
121.094
 30
0.0
 11
41.6719
 21
121.094
 31
0.0
  0
LINE
  8
0
 62
     0
 10
41.6719
 20
121.094
 30
0.0
 11
41.6719
 21
115.293
 31
0.0
  0
LINE
  8
0
 62
     0
 10
41.6719
 20
115.293
 30
0.0
 11
40.8711
 21
115.293
 31
0.0
  0
LINE
  8
0
 62
     0
 10
40.8711
 20
115.293
 30
0.0
 11
40.8711
 21
112.193
 31
0.0
  0
LINE
  8
0
 62
     0
 10
40.8711
 20
112.193
 30
0.0
 11
41.6719
 21
112.193
 31
0.0
  0
LINE
  8
0
 62
     0
 10
41.6719
 20
112.193
 30
0.0
 11
41.6719
 21
111.194
 31
0.0
  0
LINE
  8
0
 62
     0
 10
41.6719
 20
111.194
 30
0.0
 11
55.6715
 21
111.194
 31
0.0
  0
LINE
  8
0
 62
     0
 10
55.6715
 20
111.194
 30
0.0
 11
55.6715
 21
112.193
 31
0.0
  0
LINE
  8
0
 62
     0
 10
55.6715
 20
112.193
 30
0.0
 11
56.472
 21
112.193
 31
0.0
  0
LINE
  8
0
 62
     0
 10
56.472
 20
112.193
 30
0.0
 11
56.472
 21
115.293
 31
0.0
  0
LINE
  8
0
 62
     0
 10
56.472
 20
115.293
 30
0.0
 11
55.6715
 21
115.293
 31
0.0
  0
LINE
  8
0
 62
     0
 10
55.6715
 20
115.293
 30
0.0
 11
55.6715
 21
121.094
 31
0.0
  0
LINE
  8
0
 62
     0
 10
55.6715
 20
121.094
 30
0.0
 11
56.472
 21
121.094
 31
0.0
  0
LINE
  8
0
 62
     0
 10
56.472
 20
121.094
 30
0.0
 11
56.472
 21
124.193
 31
0.0
  0
LINE
  8
0
 62
     0
 10
56.472
 20
124.193
 30
0.0
 11
55.6715
 21
124.193
 31
0.0
  0
LINE
  8
0
 62
     0
 10
55.6715
 20
124.193
 30
0.0
 11
55.6715
 21
125.193
 31
0.0
  0
LINE
  8
0
 62
     0
 10
55.6715
 20
125.193
 30
0.0
 11
41.6719
 21
125.193
 31
0.0
  0
LINE
  8
0
 62
     0
 10
61.674
 20
125.193
 30
0.0
 11
61.674
 21
124.193
 31
0.0
  0
LINE
  8
0
 62
     0
 10
61.674
 20
124.193
 30
0.0
 11
60.875
 21
124.193
 31
0.0
  0
LINE
  8
0
 62
     0
 10
60.875
 20
124.193
 30
0.0
 11
60.875
 21
121.094
 31
0.0
  0
LINE
  8
0
 62
     0
 10
60.875
 20
121.094
 30
0.0
 11
61.674
 21
121.094
 31
0.0
  0
LINE
  8
0
 62
     0
 10
61.674
 20
121.094
 30
0.0
 11
61.674
 21
115.293
 31
0.0
  0
LINE
  8
0
 62
     0
 10
61.674
 20
115.293
 30
0.0
 11
60.875
 21
115.293
 31
0.0
  0
LINE
  8
0
 62
     0
 10
60.875
 20
115.293
 30
0.0
 11
60.875
 21
112.193
 31
0.0
  0
LINE
  8
0
 62
     0
 10
60.875
 20
112.193
 30
0.0
 11
61.674
 21
112.193
 31
0.0
  0
LINE
  8
0
 62
     0
 10
61.674
 20
112.193
 30
0.0
 11
61.674
 21
111.194
 31
0.0
  0
LINE
  8
0
 62
     0
 10
61.674
 20
111.194
 30
0.0
 11
75.6751
 21
111.194
 31
0.0
  0
LINE
  8
0
 62
     0
 10
75.6751
 20
111.194
 30
0.0
 11
75.6751
 21
112.193
 31
0.0
  0
LINE
  8
0
 62
     0
 10
75.6751
 20
112.193
 30
0.0
 11
76.4741
 21
112.193
 31
0.0
  0
LINE
  8
0
 62
     0
 10
76.4741
 20
112.193
 30
0.0
 11
76.4741
 21
115.293
 31
0.0
  0
LINE
  8
0
 62
     0
 10
76.4741
 20
115.293
 30
0.0
 11
75.6751
 21
115.293
 31
0.0
  0
LINE
  8
0
 62
     0
 10
75.6751
 20
115.293
 30
0.0
 11
75.6751
 21
121.094
 31
0.0
  0
LINE
  8
0
 62
     0
 10
75.6751
 20
121.094
 30
0.0
 11
76.4741
 21
121.094
 31
0.0
  0
LINE
  8
0
 62
     0
 10
76.4741
 20
121.094
 30
0.0
 11
76.4741
 21
124.193
 31
0.0
  0
LINE
  8
0
 62
     0
 10
76.4741
 20
124.193
 30
0.0
 11
75.6751
 21
124.193
 31
0.0
  0
LINE
  8
0
 62
     0
 10
75.6751
 20
124.193
 30
0.0
 11
75.6751
 21
125.193
 31
0.0
  0
LINE
  8
0
 62
     0
 10
75.6751
 20
125.193
 30
0.0
 11
61.674
 21
125.193
 31
0.0
  0
LINE
  8
0
 62
     0
 10
81.6762
 20
125.193
 30
0.0
 11
81.6762
 21
124.193
 31
0.0
  0
LINE
  8
0
 62
     0
 10
81.6762
 20
124.193
 30
0.0
 11
80.8771
 21
124.193
 31
0.0
  0
LINE
  8
0
 62
     0
 10
80.8771
 20
124.193
 30
0.0
 11
80.8771
 21
121.094
 31
0.0
  0
LINE
  8
0
 62
     0
 10
80.8771
 20
121.094
 30
0.0
 11
81.6762
 21
121.094
 31
0.0
  0
LINE
  8
0
 62
     0
 10
81.6762
 20
121.094
 30
0.0
 11
81.6762
 21
115.293
 31
0.0
  0
LINE
  8
0
 62
     0
 10
81.6762
 20
115.293
 30
0.0
 11
80.8771
 21
115.293
 31
0.0
  0
LINE
  8
0
 62
     0
 10
80.8771
 20
115.293
 30
0.0
 11
80.8771
 21
112.193
 31
0.0
  0
LINE
  8
0
 62
     0
 10
80.8771
 20
112.193
 30
0.0
 11
81.6762
 21
112.193
 31
0.0
  0
LINE
  8
0
 62
     0
 10
81.6762
 20
112.193
 30
0.0
 11
81.6762
 21
111.194
 31
0.0
  0
LINE
  8
0
 62
     0
 10
81.6762
 20
111.194
 30
0.0
 11
95.6772
 21
111.194
 31
0.0
  0
LINE
  8
0
 62
     0
 10
95.6772
 20
111.194
 30
0.0
 11
95.6772
 21
112.193
 31
0.0
  0
LINE
  8
0
 62
     0
 10
95.6772
 20
112.193
 30
0.0
 11
96.4766
 21
112.193
 31
0.0
  0
LINE
  8
0
 62
     0
 10
96.4766
 20
112.193
 30
0.0
 11
96.4766
 21
115.293
 31
0.0
  0
LINE
  8
0
 62
     0
 10
96.4766
 20
115.293
 30
0.0
 11
95.6772
 21
115.293
 31
0.0
  0
LINE
  8
0
 62
     0
 10
95.6772
 20
115.293
 30
0.0
 11
95.6772
 21
121.094
 31
0.0
  0
LINE
  8
0
 62
     0
 10
95.6772
 20
121.094
 30
0.0
 11
96.4766
 21
121.094
 31
0.0
  0
LINE
  8
0
 62
     0
 10
96.4766
 20
121.094
 30
0.0
 11
96.4766
 21
124.193
 31
0.0
  0
LINE
  8
0
 62
     0
 10
96.4766
 20
124.193
 30
0.0
 11
95.6772
 21
124.193
 31
0.0
  0
LINE
  8
0
 62
     0
 10
95.6772
 20
124.193
 30
0.0
 11
95.6772
 21
125.193
 31
0.0
  0
LINE
  8
0
 62
     0
 10
95.6772
 20
125.193
 30
0.0
 11
81.6762
 21
125.193
 31
0.0
  0
LINE
  8
0
 62
     0
 10
101.68
 20
125.193
 30
0.0
 11
101.68
 21
124.193
 31
0.0
  0
LINE
  8
0
 62
     0
 10
101.68
 20
124.193
 30
0.0
 11
100.879
 21
124.193
 31
0.0
  0
LINE
  8
0
 62
     0
 10
100.879
 20
124.193
 30
0.0
 11
100.879
 21
121.094
 31
0.0
  0
LINE
  8
0
 62
     0
 10
100.879
 20
121.094
 30
0.0
 11
101.68
 21
121.094
 31
0.0
  0
LINE
  8
0
 62
     0
 10
101.68
 20
121.094
 30
0.0
 11
101.68
 21
115.293
 31
0.0
  0
LINE
  8
0
 62
     0
 10
101.68
 20
115.293
 30
0.0
 11
100.879
 21
115.293
 31
0.0
  0
LINE
  8
0
 62
     0
 10
100.879
 20
115.293
 30
0.0
 11
100.879
 21
112.193
 31
0.0
  0
LINE
  8
0
 62
     0
 10
100.879
 20
112.193
 30
0.0
 11
101.68
 21
112.193
 31
0.0
  0
LINE
  8
0
 62
     0
 10
101.68
 20
112.193
 30
0.0
 11
101.68
 21
111.194
 31
0.0
  0
LINE
  8
0
 62
     0
 10
101.68
 20
111.194
 30
0.0
 11
115.679
 21
111.194
 31
0.0
  0
LINE
  8
0
 62
     0
 10
115.679
 20
111.194
 30
0.0
 11
115.679
 21
112.193
 31
0.0
  0
LINE
  8
0
 62
     0
 10
115.679
 20
112.193
 30
0.0
 11
116.479
 21
112.193
 31
0.0
  0
LINE
  8
0
 62
     0
 10
116.479
 20
112.193
 30
0.0
 11
116.479
 21
115.293
 31
0.0
  0
LINE
  8
0
 62
     0
 10
116.479
 20
115.293
 30
0.0
 11
115.679
 21
115.293
 31
0.0
  0
LINE
  8
0
 62
     0
 10
115.679
 20
115.293
 30
0.0
 11
115.679
 21
121.094
 31
0.0
  0
LINE
  8
0
 62
     0
 10
115.679
 20
121.094
 30
0.0
 11
116.479
 21
121.094
 31
0.0
  0
LINE
  8
0
 62
     0
 10
116.479
 20
121.094
 30
0.0
 11
116.479
 21
124.193
 31
0.0
  0
LINE
  8
0
 62
     0
 10
116.479
 20
124.193
 30
0.0
 11
115.679
 21
124.193
 31
0.0
  0
LINE
  8
0
 62
     0
 10
115.679
 20
124.193
 30
0.0
 11
115.679
 21
125.193
 31
0.0
  0
LINE
  8
0
 62
     0
 10
115.679
 20
125.193
 30
0.0
 11
101.68
 21
125.193
 31
0.0
  0
LINE
  8
0
 62
     0
 10
131.207
 20
125.193
 30
0.0
 11
131.207
 21
124.193
 31
0.0
  0
LINE
  8
0
 62
     0
 10
131.207
 20
124.193
 30
0.0
 11
130.406
 21
124.193
 31
0.0
  0
LINE
  8
0
 62
     0
 10
130.406
 20
124.193
 30
0.0
 11
130.406
 21
121.094
 31
0.0
  0
LINE
  8
0
 62
     0
 10
130.406
 20
121.094
 30
0.0
 11
131.207
 21
121.094
 31
0.0
  0
LINE
  8
0
 62
     0
 10
131.207
 20
121.094
 30
0.0
 11
131.207
 21
115.293
 31
0.0
  0
LINE
  8
0
 62
     0
 10
131.207
 20
115.293
 30
0.0
 11
130.406
 21
115.293
 31
0.0
  0
LINE
  8
0
 62
     0
 10
130.406
 20
115.293
 30
0.0
 11
130.406
 21
112.193
 31
0.0
  0
LINE
  8
0
 62
     0
 10
130.406
 20
112.193
 30
0.0
 11
131.207
 21
112.193
 31
0.0
  0
LINE
  8
0
 62
     0
 10
131.207
 20
112.193
 30
0.0
 11
131.207
 21
111.194
 31
0.0
  0
LINE
  8
0
 62
     0
 10
131.207
 20
111.194
 30
0.0
 11
145.207
 21
111.194
 31
0.0
  0
LINE
  8
0
 62
     0
 10
145.207
 20
111.194
 30
0.0
 11
145.207
 21
112.193
 31
0.0
  0
LINE
  8
0
 62
     0
 10
145.207
 20
112.193
 30
0.0
 11
146.007
 21
112.193
 31
0.0
  0
LINE
  8
0
 62
     0
 10
146.007
 20
112.193
 30
0.0
 11
146.007
 21
115.293
 31
0.0
  0
LINE
  8
0
 62
     0
 10
146.007
 20
115.293
 30
0.0
 11
145.207
 21
115.293
 31
0.0
  0
LINE
  8
0
 62
     0
 10
145.207
 20
115.293
 30
0.0
 11
145.207
 21
121.094
 31
0.0
  0
LINE
  8
0
 62
     0
 10
145.207
 20
121.094
 30
0.0
 11
146.007
 21
121.094
 31
0.0
  0
LINE
  8
0
 62
     0
 10
146.007
 20
121.094
 30
0.0
 11
146.007
 21
124.193
 31
0.0
  0
LINE
  8
0
 62
     0
 10
146.007
 20
124.193
 30
0.0
 11
145.207
 21
124.193
 31
0.0
  0
LINE
  8
0
 62
     0
 10
145.207
 20
124.193
 30
0.0
 11
145.207
 21
125.193
 31
0.0
  0
LINE
  8
0
 62
     0
 10
145.207
 20
125.193
 30
0.0
 11
131.207
 21
125.193
 31
0.0
  0
LINE
  8
0
 62
     0
 10
151.209
 20
125.193
 30
0.0
 11
151.209
 21
124.193
 31
0.0
  0
LINE
  8
0
 62
     0
 10
151.209
 20
124.193
 30
0.0
 11
150.41
 21
124.193
 31
0.0
  0
LINE
  8
0
 62
     0
 10
150.41
 20
124.193
 30
0.0
 11
150.41
 21
121.094
 31
0.0
  0
LINE
  8
0
 62
     0
 10
150.41
 20
121.094
 30
0.0
 11
151.209
 21
121.094
 31
0.0
  0
LINE
  8
0
 62
     0
 10
151.209
 20
121.094
 30
0.0
 11
151.209
 21
115.293
 31
0.0
  0
LINE
  8
0
 62
     0
 10
151.209
 20
115.293
 30
0.0
 11
150.41
 21
115.293
 31
0.0
  0
LINE
  8
0
 62
     0
 10
150.41
 20
115.293
 30
0.0
 11
150.41
 21
112.193
 31
0.0
  0
LINE
  8
0
 62
     0
 10
150.41
 20
112.193
 30
0.0
 11
151.209
 21
112.193
 31
0.0
  0
LINE
  8
0
 62
     0
 10
151.209
 20
112.193
 30
0.0
 11
151.209
 21
111.194
 31
0.0
  0
LINE
  8
0
 62
     0
 10
151.209
 20
111.194
 30
0.0
 11
165.21
 21
111.194
 31
0.0
  0
LINE
  8
0
 62
     0
 10
165.21
 20
111.194
 30
0.0
 11
165.21
 21
112.193
 31
0.0
  0
LINE
  8
0
 62
     0
 10
165.21
 20
112.193
 30
0.0
 11
166.009
 21
112.193
 31
0.0
  0
LINE
  8
0
 62
     0
 10
166.009
 20
112.193
 30
0.0
 11
166.009
 21
115.293
 31
0.0
  0
LINE
  8
0
 62
     0
 10
166.009
 20
115.293
 30
0.0
 11
165.21
 21
115.293
 31
0.0
  0
LINE
  8
0
 62
     0
 10
165.21
 20
115.293
 30
0.0
 11
165.21
 21
121.094
 31
0.0
  0
LINE
  8
0
 62
     0
 10
165.21
 20
121.094
 30
0.0
 11
166.009
 21
121.094
 31
0.0
  0
LINE
  8
0
 62
     0
 10
166.009
 20
121.094
 30
0.0
 11
166.009
 21
124.193
 31
0.0
  0
LINE
  8
0
 62
     0
 10
166.009
 20
124.193
 30
0.0
 11
165.21
 21
124.193
 31
0.0
  0
LINE
  8
0
 62
     0
 10
165.21
 20
124.193
 30
0.0
 11
165.21
 21
125.193
 31
0.0
  0
LINE
  8
0
 62
     0
 10
165.21
 20
125.193
 30
0.0
 11
151.209
 21
125.193
 31
0.0
  0
LINE
  8
0
 62
     0
 10
171.212
 20
125.193
 30
0.0
 11
171.212
 21
124.193
 31
0.0
  0
LINE
  8
0
 62
     0
 10
171.212
 20
124.193
 30
0.0
 11
170.412
 21
124.193
 31
0.0
  0
LINE
  8
0
 62
     0
 10
170.412
 20
124.193
 30
0.0
 11
170.412
 21
121.094
 31
0.0
  0
LINE
  8
0
 62
     0
 10
170.412
 20
121.094
 30
0.0
 11
171.212
 21
121.094
 31
0.0
  0
LINE
  8
0
 62
     0
 10
171.212
 20
121.094
 30
0.0
 11
171.212
 21
115.293
 31
0.0
  0
LINE
  8
0
 62
     0
 10
171.212
 20
115.293
 30
0.0
 11
170.412
 21
115.293
 31
0.0
  0
LINE
  8
0
 62
     0
 10
170.412
 20
115.293
 30
0.0
 11
170.412
 21
112.193
 31
0.0
  0
LINE
  8
0
 62
     0
 10
170.412
 20
112.193
 30
0.0
 11
171.212
 21
112.193
 31
0.0
  0
LINE
  8
0
 62
     0
 10
171.212
 20
112.193
 30
0.0
 11
171.212
 21
111.194
 31
0.0
  0
LINE
  8
0
 62
     0
 10
171.212
 20
111.194
 30
0.0
 11
185.211
 21
111.194
 31
0.0
  0
LINE
  8
0
 62
     0
 10
185.211
 20
111.194
 30
0.0
 11
185.211
 21
112.193
 31
0.0
  0
LINE
  8
0
 62
     0
 10
185.211
 20
112.193
 30
0.0
 11
186.012
 21
112.193
 31
0.0
  0
LINE
  8
0
 62
     0
 10
186.012
 20
112.193
 30
0.0
 11
186.012
 21
115.293
 31
0.0
  0
LINE
  8
0
 62
     0
 10
186.012
 20
115.293
 30
0.0
 11
185.211
 21
115.293
 31
0.0
  0
LINE
  8
0
 62
     0
 10
185.211
 20
115.293
 30
0.0
 11
185.211
 21
121.094
 31
0.0
  0
LINE
  8
0
 62
     0
 10
185.211
 20
121.094
 30
0.0
 11
186.012
 21
121.094
 31
0.0
  0
LINE
  8
0
 62
     0
 10
186.012
 20
121.094
 30
0.0
 11
186.012
 21
124.193
 31
0.0
  0
LINE
  8
0
 62
     0
 10
186.012
 20
124.193
 30
0.0
 11
185.211
 21
124.193
 31
0.0
  0
LINE
  8
0
 62
     0
 10
185.211
 20
124.193
 30
0.0
 11
185.211
 21
125.193
 31
0.0
  0
LINE
  8
0
 62
     0
 10
185.211
 20
125.193
 30
0.0
 11
171.212
 21
125.193
 31
0.0
  0
LINE
  8
0
 62
     0
 10
191.215
 20
125.193
 30
0.0
 11
191.215
 21
124.193
 31
0.0
  0
LINE
  8
0
 62
     0
 10
191.215
 20
124.193
 30
0.0
 11
190.415
 21
124.193
 31
0.0
  0
LINE
  8
0
 62
     0
 10
190.415
 20
124.193
 30
0.0
 11
190.415
 21
121.094
 31
0.0
  0
LINE
  8
0
 62
     0
 10
190.415
 20
121.094
 30
0.0
 11
191.215
 21
121.094
 31
0.0
  0
LINE
  8
0
 62
     0
 10
191.215
 20
121.094
 30
0.0
 11
191.215
 21
115.293
 31
0.0
  0
LINE
  8
0
 62
     0
 10
191.215
 20
115.293
 30
0.0
 11
190.415
 21
115.293
 31
0.0
  0
LINE
  8
0
 62
     0
 10
190.415
 20
115.293
 30
0.0
 11
190.415
 21
112.193
 31
0.0
  0
LINE
  8
0
 62
     0
 10
190.415
 20
112.193
 30
0.0
 11
191.215
 21
112.193
 31
0.0
  0
LINE
  8
0
 62
     0
 10
191.215
 20
112.193
 30
0.0
 11
191.215
 21
111.194
 31
0.0
  0
LINE
  8
0
 62
     0
 10
191.215
 20
111.194
 30
0.0
 11
205.215
 21
111.194
 31
0.0
  0
LINE
  8
0
 62
     0
 10
205.215
 20
111.194
 30
0.0
 11
205.215
 21
112.193
 31
0.0
  0
LINE
  8
0
 62
     0
 10
205.215
 20
112.193
 30
0.0
 11
206.015
 21
112.193
 31
0.0
  0
LINE
  8
0
 62
     0
 10
206.015
 20
112.193
 30
0.0
 11
206.015
 21
115.293
 31
0.0
  0
LINE
  8
0
 62
     0
 10
206.015
 20
115.293
 30
0.0
 11
205.215
 21
115.293
 31
0.0
  0
LINE
  8
0
 62
     0
 10
205.215
 20
115.293
 30
0.0
 11
205.215
 21
121.094
 31
0.0
  0
LINE
  8
0
 62
     0
 10
205.215
 20
121.094
 30
0.0
 11
206.015
 21
121.094
 31
0.0
  0
LINE
  8
0
 62
     0
 10
206.015
 20
121.094
 30
0.0
 11
206.015
 21
124.193
 31
0.0
  0
LINE
  8
0
 62
     0
 10
206.015
 20
124.193
 30
0.0
 11
205.215
 21
124.193
 31
0.0
  0
LINE
  8
0
 62
     0
 10
205.215
 20
124.193
 30
0.0
 11
205.215
 21
125.193
 31
0.0
  0
LINE
  8
0
 62
     0
 10
205.215
 20
125.193
 30
0.0
 11
191.215
 21
125.193
 31
0.0
  0
LINE
  8
0
 62
     0
 10
220.741
 20
125.193
 30
0.0
 11
220.741
 21
124.193
 31
0.0
  0
LINE
  8
0
 62
     0
 10
220.741
 20
124.193
 30
0.0
 11
219.942
 21
124.193
 31
0.0
  0
LINE
  8
0
 62
     0
 10
219.942
 20
124.193
 30
0.0
 11
219.942
 21
121.094
 31
0.0
  0
LINE
  8
0
 62
     0
 10
219.942
 20
121.094
 30
0.0
 11
220.741
 21
121.094
 31
0.0
  0
LINE
  8
0
 62
     0
 10
220.741
 20
121.094
 30
0.0
 11
220.741
 21
115.293
 31
0.0
  0
LINE
  8
0
 62
     0
 10
220.741
 20
115.293
 30
0.0
 11
219.942
 21
115.293
 31
0.0
  0
LINE
  8
0
 62
     0
 10
219.942
 20
115.293
 30
0.0
 11
219.942
 21
112.193
 31
0.0
  0
LINE
  8
0
 62
     0
 10
219.942
 20
112.193
 30
0.0
 11
220.741
 21
112.193
 31
0.0
  0
LINE
  8
0
 62
     0
 10
220.741
 20
112.193
 30
0.0
 11
220.741
 21
111.194
 31
0.0
  0
LINE
  8
0
 62
     0
 10
220.741
 20
111.194
 30
0.0
 11
234.742
 21
111.194
 31
0.0
  0
LINE
  8
0
 62
     0
 10
234.742
 20
111.194
 30
0.0
 11
234.742
 21
112.193
 31
0.0
  0
LINE
  8
0
 62
     0
 10
234.742
 20
112.193
 30
0.0
 11
235.541
 21
112.193
 31
0.0
  0
LINE
  8
0
 62
     0
 10
235.541
 20
112.193
 30
0.0
 11
235.541
 21
115.293
 31
0.0
  0
LINE
  8
0
 62
     0
 10
235.541
 20
115.293
 30
0.0
 11
234.742
 21
115.293
 31
0.0
  0
LINE
  8
0
 62
     0
 10
234.742
 20
115.293
 30
0.0
 11
234.742
 21
121.094
 31
0.0
  0
LINE
  8
0
 62
     0
 10
234.742
 20
121.094
 30
0.0
 11
235.541
 21
121.094
 31
0.0
  0
LINE
  8
0
 62
     0
 10
235.541
 20
121.094
 30
0.0
 11
235.541
 21
124.193
 31
0.0
  0
LINE
  8
0
 62
     0
 10
235.541
 20
124.193
 30
0.0
 11
234.742
 21
124.193
 31
0.0
  0
LINE
  8
0
 62
     0
 10
234.742
 20
124.193
 30
0.0
 11
234.742
 21
125.193
 31
0.0
  0
LINE
  8
0
 62
     0
 10
234.742
 20
125.193
 30
0.0
 11
220.741
 21
125.193
 31
0.0
  0
LINE
  8
0
 62
     0
 10
240.745
 20
125.193
 30
0.0
 11
240.745
 21
124.193
 31
0.0
  0
LINE
  8
0
 62
     0
 10
240.745
 20
124.193
 30
0.0
 11
239.945
 21
124.193
 31
0.0
  0
LINE
  8
0
 62
     0
 10
239.945
 20
124.193
 30
0.0
 11
239.945
 21
121.094
 31
0.0
  0
LINE
  8
0
 62
     0
 10
239.945
 20
121.094
 30
0.0
 11
240.745
 21
121.094
 31
0.0
  0
LINE
  8
0
 62
     0
 10
240.745
 20
121.094
 30
0.0
 11
240.745
 21
115.293
 31
0.0
  0
LINE
  8
0
 62
     0
 10
240.745
 20
115.293
 30
0.0
 11
239.945
 21
115.293
 31
0.0
  0
LINE
  8
0
 62
     0
 10
239.945
 20
115.293
 30
0.0
 11
239.945
 21
112.193
 31
0.0
  0
LINE
  8
0
 62
     0
 10
239.945
 20
112.193
 30
0.0
 11
240.745
 21
112.193
 31
0.0
  0
LINE
  8
0
 62
     0
 10
240.745
 20
112.193
 30
0.0
 11
240.745
 21
111.194
 31
0.0
  0
LINE
  8
0
 62
     0
 10
240.745
 20
111.194
 30
0.0
 11
254.744
 21
111.194
 31
0.0
  0
LINE
  8
0
 62
     0
 10
254.744
 20
111.194
 30
0.0
 11
254.744
 21
112.193
 31
0.0
  0
LINE
  8
0
 62
     0
 10
254.744
 20
112.193
 30
0.0
 11
255.545
 21
112.193
 31
0.0
  0
LINE
  8
0
 62
     0
 10
255.545
 20
112.193
 30
0.0
 11
255.545
 21
115.293
 31
0.0
  0
LINE
  8
0
 62
     0
 10
255.545
 20
115.293
 30
0.0
 11
254.744
 21
115.293
 31
0.0
  0
LINE
  8
0
 62
     0
 10
254.744
 20
115.293
 30
0.0
 11
254.744
 21
121.094
 31
0.0
  0
LINE
  8
0
 62
     0
 10
254.744
 20
121.094
 30
0.0
 11
255.545
 21
121.094
 31
0.0
  0
LINE
  8
0
 62
     0
 10
255.545
 20
121.094
 30
0.0
 11
255.545
 21
124.193
 31
0.0
  0
LINE
  8
0
 62
     0
 10
255.545
 20
124.193
 30
0.0
 11
254.744
 21
124.193
 31
0.0
  0
LINE
  8
0
 62
     0
 10
254.744
 20
124.193
 30
0.0
 11
254.744
 21
125.193
 31
0.0
  0
LINE
  8
0
 62
     0
 10
254.744
 20
125.193
 30
0.0
 11
240.745
 21
125.193
 31
0.0
  0
LINE
  8
0
 62
     0
 10
260.747
 20
125.193
 30
0.0
 11
260.747
 21
124.193
 31
0.0
  0
LINE
  8
0
 62
     0
 10
260.747
 20
124.193
 30
0.0
 11
259.946
 21
124.193
 31
0.0
  0
LINE
  8
0
 62
     0
 10
259.946
 20
124.193
 30
0.0
 11
259.946
 21
121.094
 31
0.0
  0
LINE
  8
0
 62
     0
 10
259.946
 20
121.094
 30
0.0
 11
260.747
 21
121.094
 31
0.0
  0
LINE
  8
0
 62
     0
 10
260.747
 20
121.094
 30
0.0
 11
260.747
 21
115.293
 31
0.0
  0
LINE
  8
0
 62
     0
 10
260.747
 20
115.293
 30
0.0
 11
259.946
 21
115.293
 31
0.0
  0
LINE
  8
0
 62
     0
 10
259.946
 20
115.293
 30
0.0
 11
259.946
 21
112.193
 31
0.0
  0
LINE
  8
0
 62
     0
 10
259.946
 20
112.193
 30
0.0
 11
260.747
 21
112.193
 31
0.0
  0
LINE
  8
0
 62
     0
 10
260.747
 20
112.193
 30
0.0
 11
260.747
 21
111.194
 31
0.0
  0
LINE
  8
0
 62
     0
 10
260.747
 20
111.194
 30
0.0
 11
274.747
 21
111.194
 31
0.0
  0
LINE
  8
0
 62
     0
 10
274.747
 20
111.194
 30
0.0
 11
274.747
 21
112.193
 31
0.0
  0
LINE
  8
0
 62
     0
 10
274.747
 20
112.193
 30
0.0
 11
275.547
 21
112.193
 31
0.0
  0
LINE
  8
0
 62
     0
 10
275.547
 20
112.193
 30
0.0
 11
275.547
 21
115.293
 31
0.0
  0
LINE
  8
0
 62
     0
 10
275.547
 20
115.293
 30
0.0
 11
274.747
 21
115.293
 31
0.0
  0
LINE
  8
0
 62
     0
 10
274.747
 20
115.293
 30
0.0
 11
274.747
 21
121.094
 31
0.0
  0
LINE
  8
0
 62
     0
 10
274.747
 20
121.094
 30
0.0
 11
275.547
 21
121.094
 31
0.0
  0
LINE
  8
0
 62
     0
 10
275.547
 20
121.094
 30
0.0
 11
275.547
 21
124.193
 31
0.0
  0
LINE
  8
0
 62
     0
 10
275.547
 20
124.193
 30
0.0
 11
274.747
 21
124.193
 31
0.0
  0
LINE
  8
0
 62
     0
 10
274.747
 20
124.193
 30
0.0
 11
274.747
 21
125.193
 31
0.0
  0
LINE
  8
0
 62
     0
 10
274.747
 20
125.193
 30
0.0
 11
260.747
 21
125.193
 31
0.0
  0
LINE
  8
0
 62
     0
 10
280.749
 20
125.193
 30
0.0
 11
280.749
 21
124.193
 31
0.0
  0
LINE
  8
0
 62
     0
 10
280.749
 20
124.193
 30
0.0
 11
279.95
 21
124.193
 31
0.0
  0
LINE
  8
0
 62
     0
 10
279.95
 20
124.193
 30
0.0
 11
279.95
 21
121.094
 31
0.0
  0
LINE
  8
0
 62
     0
 10
279.95
 20
121.094
 30
0.0
 11
280.749
 21
121.094
 31
0.0
  0
LINE
  8
0
 62
     0
 10
280.749
 20
121.094
 30
0.0
 11
280.749
 21
115.293
 31
0.0
  0
LINE
  8
0
 62
     0
 10
280.749
 20
115.293
 30
0.0
 11
279.95
 21
115.293
 31
0.0
  0
LINE
  8
0
 62
     0
 10
279.95
 20
115.293
 30
0.0
 11
279.95
 21
112.193
 31
0.0
  0
LINE
  8
0
 62
     0
 10
279.95
 20
112.193
 30
0.0
 11
280.749
 21
112.193
 31
0.0
  0
LINE
  8
0
 62
     0
 10
280.749
 20
112.193
 30
0.0
 11
280.749
 21
111.194
 31
0.0
  0
LINE
  8
0
 62
     0
 10
280.749
 20
111.194
 30
0.0
 11
294.75
 21
111.194
 31
0.0
  0
LINE
  8
0
 62
     0
 10
294.75
 20
111.194
 30
0.0
 11
294.75
 21
112.193
 31
0.0
  0
LINE
  8
0
 62
     0
 10
294.75
 20
112.193
 30
0.0
 11
295.549
 21
112.193
 31
0.0
  0
LINE
  8
0
 62
     0
 10
295.549
 20
112.193
 30
0.0
 11
295.549
 21
115.293
 31
0.0
  0
LINE
  8
0
 62
     0
 10
295.549
 20
115.293
 30
0.0
 11
294.75
 21
115.293
 31
0.0
  0
LINE
  8
0
 62
     0
 10
294.75
 20
115.293
 30
0.0
 11
294.75
 21
121.094
 31
0.0
  0
LINE
  8
0
 62
     0
 10
294.75
 20
121.094
 30
0.0
 11
295.549
 21
121.094
 31
0.0
  0
LINE
  8
0
 62
     0
 10
295.549
 20
121.094
 30
0.0
 11
295.549
 21
124.193
 31
0.0
  0
LINE
  8
0
 62
     0
 10
295.549
 20
124.193
 30
0.0
 11
294.75
 21
124.193
 31
0.0
  0
LINE
  8
0
 62
     0
 10
294.75
 20
124.193
 30
0.0
 11
294.75
 21
125.193
 31
0.0
  0
LINE
  8
0
 62
     0
 10
294.75
 20
125.193
 30
0.0
 11
280.749
 21
125.193
 31
0.0
  0
LINE
  8
0
 62
     0
 10
304.562
 20
125.193
 30
0.0
 11
304.562
 21
124.193
 31
0.0
  0
LINE
  8
0
 62
     0
 10
304.562
 20
124.193
 30
0.0
 11
303.762
 21
124.193
 31
0.0
  0
LINE
  8
0
 62
     0
 10
303.762
 20
124.193
 30
0.0
 11
303.762
 21
121.094
 31
0.0
  0
LINE
  8
0
 62
     0
 10
303.762
 20
121.094
 30
0.0
 11
304.562
 21
121.094
 31
0.0
  0
LINE
  8
0
 62
     0
 10
304.562
 20
121.094
 30
0.0
 11
304.562
 21
115.293
 31
0.0
  0
LINE
  8
0
 62
     0
 10
304.562
 20
115.293
 30
0.0
 11
303.762
 21
115.293
 31
0.0
  0
LINE
  8
0
 62
     0
 10
303.762
 20
115.293
 30
0.0
 11
303.762
 21
112.193
 31
0.0
  0
LINE
  8
0
 62
     0
 10
303.762
 20
112.193
 30
0.0
 11
304.562
 21
112.193
 31
0.0
  0
LINE
  8
0
 62
     0
 10
304.562
 20
112.193
 30
0.0
 11
304.562
 21
111.194
 31
0.0
  0
LINE
  8
0
 62
     0
 10
304.562
 20
111.194
 30
0.0
 11
318.561
 21
111.194
 31
0.0
  0
LINE
  8
0
 62
     0
 10
318.561
 20
111.194
 30
0.0
 11
318.561
 21
112.193
 31
0.0
  0
LINE
  8
0
 62
     0
 10
318.561
 20
112.193
 30
0.0
 11
319.362
 21
112.193
 31
0.0
  0
LINE
  8
0
 62
     0
 10
319.362
 20
112.193
 30
0.0
 11
319.362
 21
115.293
 31
0.0
  0
LINE
  8
0
 62
     0
 10
319.362
 20
115.293
 30
0.0
 11
318.561
 21
115.293
 31
0.0
  0
LINE
  8
0
 62
     0
 10
318.561
 20
115.293
 30
0.0
 11
318.561
 21
121.094
 31
0.0
  0
LINE
  8
0
 62
     0
 10
318.561
 20
121.094
 30
0.0
 11
319.362
 21
121.094
 31
0.0
  0
LINE
  8
0
 62
     0
 10
319.362
 20
121.094
 30
0.0
 11
319.362
 21
124.193
 31
0.0
  0
LINE
  8
0
 62
     0
 10
319.362
 20
124.193
 30
0.0
 11
318.561
 21
124.193
 31
0.0
  0
LINE
  8
0
 62
     0
 10
318.561
 20
124.193
 30
0.0
 11
318.561
 21
125.193
 31
0.0
  0
LINE
  8
0
 62
     0
 10
318.561
 20
125.193
 30
0.0
 11
304.562
 21
125.193
 31
0.0
  0
LINE
  8
0
 62
     0
 10
324.565
 20
125.193
 30
0.0
 11
324.565
 21
124.193
 31
0.0
  0
LINE
  8
0
 62
     0
 10
324.565
 20
124.193
 30
0.0
 11
323.765
 21
124.193
 31
0.0
  0
LINE
  8
0
 62
     0
 10
323.765
 20
124.193
 30
0.0
 11
323.765
 21
121.094
 31
0.0
  0
LINE
  8
0
 62
     0
 10
323.765
 20
121.094
 30
0.0
 11
324.565
 21
121.094
 31
0.0
  0
LINE
  8
0
 62
     0
 10
324.565
 20
121.094
 30
0.0
 11
324.565
 21
115.293
 31
0.0
  0
LINE
  8
0
 62
     0
 10
324.565
 20
115.293
 30
0.0
 11
323.765
 21
115.293
 31
0.0
  0
LINE
  8
0
 62
     0
 10
323.765
 20
115.293
 30
0.0
 11
323.765
 21
112.193
 31
0.0
  0
LINE
  8
0
 62
     0
 10
323.765
 20
112.193
 30
0.0
 11
324.565
 21
112.193
 31
0.0
  0
LINE
  8
0
 62
     0
 10
324.565
 20
112.193
 30
0.0
 11
324.565
 21
111.194
 31
0.0
  0
LINE
  8
0
 62
     0
 10
324.565
 20
111.194
 30
0.0
 11
338.565
 21
111.194
 31
0.0
  0
LINE
  8
0
 62
     0
 10
338.565
 20
111.194
 30
0.0
 11
338.565
 21
112.193
 31
0.0
  0
LINE
  8
0
 62
     0
 10
338.565
 20
112.193
 30
0.0
 11
339.365
 21
112.193
 31
0.0
  0
LINE
  8
0
 62
     0
 10
339.365
 20
112.193
 30
0.0
 11
339.365
 21
115.293
 31
0.0
  0
LINE
  8
0
 62
     0
 10
339.365
 20
115.293
 30
0.0
 11
338.565
 21
115.293
 31
0.0
  0
LINE
  8
0
 62
     0
 10
338.565
 20
115.293
 30
0.0
 11
338.565
 21
121.094
 31
0.0
  0
LINE
  8
0
 62
     0
 10
338.565
 20
121.094
 30
0.0
 11
339.365
 21
121.094
 31
0.0
  0
LINE
  8
0
 62
     0
 10
339.365
 20
121.094
 30
0.0
 11
339.365
 21
124.193
 31
0.0
  0
LINE
  8
0
 62
     0
 10
339.365
 20
124.193
 30
0.0
 11
338.565
 21
124.193
 31
0.0
  0
LINE
  8
0
 62
     0
 10
338.565
 20
124.193
 30
0.0
 11
338.565
 21
125.193
 31
0.0
  0
LINE
  8
0
 62
     0
 10
338.565
 20
125.193
 30
0.0
 11
324.565
 21
125.193
 31
0.0
  0
LINE
  8
0
 62
     0
 10
344.566
 20
125.193
 30
0.0
 11
344.566
 21
124.193
 31
0.0
  0
LINE
  8
0
 62
     0
 10
344.566
 20
124.193
 30
0.0
 11
343.767
 21
124.193
 31
0.0
  0
LINE
  8
0
 62
     0
 10
343.767
 20
124.193
 30
0.0
 11
343.767
 21
121.094
 31
0.0
  0
LINE
  8
0
 62
     0
 10
343.767
 20
121.094
 30
0.0
 11
344.566
 21
121.094
 31
0.0
  0
LINE
  8
0
 62
     0
 10
344.566
 20
121.094
 30
0.0
 11
344.566
 21
115.293
 31
0.0
  0
LINE
  8
0
 62
     0
 10
344.566
 20
115.293
 30
0.0
 11
343.767
 21
115.293
 31
0.0
  0
LINE
  8
0
 62
     0
 10
343.767
 20
115.293
 30
0.0
 11
343.767
 21
112.193
 31
0.0
  0
LINE
  8
0
 62
     0
 10
343.767
 20
112.193
 30
0.0
 11
344.566
 21
112.193
 31
0.0
  0
LINE
  8
0
 62
     0
 10
344.566
 20
112.193
 30
0.0
 11
344.566
 21
111.194
 31
0.0
  0
LINE
  8
0
 62
     0
 10
344.566
 20
111.194
 30
0.0
 11
358.567
 21
111.194
 31
0.0
  0
LINE
  8
0
 62
     0
 10
358.567
 20
111.194
 30
0.0
 11
358.567
 21
112.193
 31
0.0
  0
LINE
  8
0
 62
     0
 10
358.567
 20
112.193
 30
0.0
 11
359.368
 21
112.193
 31
0.0
  0
LINE
  8
0
 62
     0
 10
359.368
 20
112.193
 30
0.0
 11
359.368
 21
115.293
 31
0.0
  0
LINE
  8
0
 62
     0
 10
359.368
 20
115.293
 30
0.0
 11
358.567
 21
115.293
 31
0.0
  0
LINE
  8
0
 62
     0
 10
358.567
 20
115.293
 30
0.0
 11
358.567
 21
121.094
 31
0.0
  0
LINE
  8
0
 62
     0
 10
358.567
 20
121.094
 30
0.0
 11
359.368
 21
121.094
 31
0.0
  0
LINE
  8
0
 62
     0
 10
359.368
 20
121.094
 30
0.0
 11
359.368
 21
124.193
 31
0.0
  0
LINE
  8
0
 62
     0
 10
359.368
 20
124.193
 30
0.0
 11
358.567
 21
124.193
 31
0.0
  0
LINE
  8
0
 62
     0
 10
358.567
 20
124.193
 30
0.0
 11
358.567
 21
125.193
 31
0.0
  0
LINE
  8
0
 62
     0
 10
358.567
 20
125.193
 30
0.0
 11
344.566
 21
125.193
 31
0.0
  0
ENDSEC
  0
EOF
